<?xml version="1.0" encoding="utf-8"?>
<!-- Generator: Adobe Illustrator 23.0.1, SVG Export Plug-In . SVG Version: 6.00 Build 0)  -->
<svg version="1.1" id="レイヤー_1" xmlns="http://www.w3.org/2000/svg" xmlns:xlink="http://www.w3.org/1999/xlink" x="0px"
	 y="0px" viewBox="0 0 153 194" style="enable-background:new 0 0 153 194;" xml:space="preserve">
<style type="text/css">
	.st0{fill-rule:evenodd;clip-rule:evenodd;fill:#FFFFFF;}
	.st1{fill-rule:evenodd;clip-rule:evenodd;fill:#231815;fill-opacity:0.4;stroke:#FFFFFF;}
</style>
<title>Group 2</title>
<desc>Created with Sketch.</desc>
<g id="Page-1">
	<g id="Artboard" transform="translate(-643.000000, -307.000000)">
		<g id="Group-2" transform="translate(644.000000, 308.000000)">
			<path id="Concept-Movie" class="st0" d="M25.5,141.2L25.5,141.2c-1.3-0.9-2.8-1.5-4.3-1.5c-2.8,0-5.1,2.3-5.1,5.1
				c0,2.8,2.3,5.1,5.1,5.1c1.5,0,3-0.6,4.2-1.6l0.1,0.1v1.6c-1.2,0.8-2.6,1.4-4.3,1.4c-3.7,0-6.7-3-6.7-6.6c0-3.6,3-6.6,6.7-6.6
				c1.7,0,3.1,0.5,4.3,1.3V141.2z M32,142.4c2.5,0,4.4,2,4.4,4.5c0,2.5-1.9,4.5-4.4,4.5s-4.4-2-4.4-4.5
				C27.6,144.4,29.5,142.4,32,142.4z M32,143.7c-1.7,0-3,1.4-3,3.2c0,1.8,1.3,3.2,3,3.2s3-1.4,3-3.2C35,145.1,33.8,143.7,32,143.7z
				 M39.1,142.7h1.2l0.1,0.1v0.6c0.7-0.6,1.6-1,2.6-1c2.7,0,3.9,1.5,3.9,4.1v4.6l-0.1,0.1h-1.2l-0.1-0.1v-4.5c0-1.8-0.8-2.8-2.5-2.8
				c-1,0-2.1,0.5-2.6,1.2v6.1l-0.1,0.1h-1.2l-0.1-0.1L39.1,142.7L39.1,142.7z M56.7,144.7L56.7,144.7c-1-0.7-1.9-1-2.9-1
				c-1.9,0-3.2,1.4-3.2,3.2s1.3,3.2,3.2,3.2c1,0,1.9-0.3,2.8-1.1l0.1,0.1v1.4c-0.7,0.5-1.7,0.9-2.9,0.9c-2.8,0-4.6-2-4.6-4.5
				c0-2.5,1.9-4.5,4.6-4.5c1.2,0,2.2,0.4,2.9,0.9V144.7z M66.4,148.8v1.4c-0.7,0.5-2,1.2-3.3,1.2c-2.7,0-4.6-2.1-4.6-4.6
				c0-2.4,1.7-4.4,4.3-4.4c2.4,0,3.7,2.1,3.7,4.2c0,0.1,0,0.3-0.1,0.4l-0.2,0.1h-6.3c0.2,1.6,1.4,2.9,3.2,2.9
				C64.3,150.1,65.5,149.6,66.4,148.8L66.4,148.8z M60,146.1h5.1c-0.1-1.3-1.1-2.4-2.3-2.4C61.2,143.7,60.2,144.8,60,146.1z
				 M68.9,142.7h1.2l0.1,0.1v0.6c0.6-0.6,1.5-1,2.6-1c2.5,0,4.4,2,4.4,4.5c0,2.5-2,4.5-4.4,4.5c-1,0-2-0.4-2.6-1v4.8l-0.1,0.1h-1.2
				l-0.1-0.1L68.9,142.7L68.9,142.7z M70.2,145v3.9c0.6,0.8,1.5,1.2,2.6,1.2c1.7,0,3-1.4,3-3.2c0-1.8-1.3-3.2-3-3.2
				C71.8,143.7,70.9,144.2,70.2,145z M80.3,140.5h1.2l0.1,0.1v2.1H85l0.1,0.1v1.2l-0.1,0.1h-3.4v3.9c0,1.6,0.7,2.2,1.5,2.2
				c0.5,0,1.2-0.1,1.9-0.6l0.1,0.1v1.3c-0.5,0.3-1.3,0.5-2,0.5c-1.8,0-2.9-1.2-2.9-3.4v-3.9h-1.4l-0.1-0.1v-1.2l0.1-0.1h1.4
				L80.3,140.5L80.3,140.5z M91.8,138.5h1.1l0.2,0.1l4.7,5.8l4.7-5.8l0.2-0.1h1.2l0.1,0.1v12.4l-0.1,0.1h-1.2l-0.1-0.1v-10.4
				l-4.6,5.7h-0.2l-4.6-5.7v10.4l-0.1,0.1h-1.2l-0.1-0.1L91.8,138.5L91.8,138.5z M110.9,142.4c2.5,0,4.4,2,4.4,4.5
				c0,2.5-1.9,4.5-4.4,4.5c-2.5,0-4.4-2-4.4-4.5C106.4,144.4,108.4,142.4,110.9,142.4z M110.9,143.7c-1.7,0-3,1.4-3,3.2
				c0,1.8,1.3,3.2,3,3.2c1.7,0,3-1.4,3-3.2C113.8,145.1,112.6,143.7,110.9,143.7z M116.6,142.7h1.3l0.1,0.1l2.7,6.5l2.7-6.5l0.1-0.1
				h1.3l0.1,0.1l-3.5,8.3l-0.1,0.1h-1.3l-0.1-0.1L116.6,142.7L116.6,142.7z M126.9,142.7h1.2l0.1,0.1v8.3l-0.1,0.1h-1.2l-0.1-0.1
				L126.9,142.7L126.9,142.7z M127.4,139.6h0.2l0.9,0.9v0.2l-0.9,0.9h-0.2l-0.9-0.9v-0.2L127.4,139.6z M138.6,148.8v1.4
				c-0.7,0.5-2,1.2-3.3,1.2c-2.7,0-4.6-2.1-4.6-4.6c0-2.4,1.7-4.4,4.3-4.4c2.4,0,3.7,2.1,3.7,4.2c0,0.1,0,0.3-0.1,0.4l-0.2,0.1h-6.3
				c0.2,1.6,1.4,2.9,3.2,2.9C136.5,150.1,137.7,149.6,138.6,148.8L138.6,148.8z M132.2,146.1h5.1c-0.1-1.3-1.1-2.4-2.3-2.4
				C133.4,143.7,132.4,144.8,132.2,146.1z"/>
			<g id="Group">
				<g id="Group-3">
					<g id="Group-4">
						<circle id="Oval" class="st1" cx="75.5" cy="75.5" r="48"/>
						<path id="fa-play" class="st0" d="M88.3,76.9L65.7,89.5c-0.3,0.1-0.5,0.2-0.7,0.1c-0.2-0.1-0.3-0.3-0.3-0.6V63.8
							c0-0.3,0.1-0.5,0.3-0.6c0.2-0.1,0.4-0.1,0.7,0.1l22.6,12.6c0.3,0.1,0.4,0.3,0.4,0.5C88.7,76.6,88.6,76.7,88.3,76.9z"/>
					</g>
				</g>
			</g>
		</g>
	</g>
</g>
</svg>
