<?xml version="1.0" encoding="utf-8"?>
<!-- Generator: Adobe Illustrator 15.1.0, SVG Export Plug-In . SVG Version: 6.00 Build 0)  -->
<!DOCTYPE svg PUBLIC "-//W3C//DTD SVG 1.1//EN" "http://www.w3.org/Graphics/SVG/1.1/DTD/svg11.dtd">
<svg version="1.1" id="レイヤー_1" xmlns="http://www.w3.org/2000/svg" xmlns:xlink="http://www.w3.org/1999/xlink" x="0px"
	 y="0px" width="355px" height="41px" viewBox="0 0 355 41" enable-background="new 0 0 355 41" xml:space="preserve">
<path fill="#FFFFFF" d="M31.56,0.276l0.964,0.151c0.051,0,0.076-0.025,0.076-0.075c2.143,0.315,3.717,0.812,4.727,1.493
	c1.5,1.186,2.646,2.609,3.439,4.272c0.202,0.63,0.303,1.128,0.303,1.494c0,1.462-0.624,3.062-1.872,4.801
	c-0.188,0.63-1.809,2.552-4.857,5.766c-1.186,0.971-2.413,2.042-3.687,3.215c-3.642,3.088-7.883,6.332-12.722,9.734
	c-8.141,5.645-13.132,8.79-14.972,9.434c-0.239,0-0.567-0.178-0.983-0.529c-0.062,0-0.139-0.146-0.227-0.436
	c-0.164,0-0.384-0.252-0.662-0.756c-0.252,0-0.378-0.051-0.378-0.15v-0.228H0.634v-0.151c0.378-0.479,0.826-0.826,1.342-1.039
	c0-0.113,0.252-0.266,0.756-0.455c0-0.075-0.227-0.276-0.68-0.604c-0.176,0.151-0.347,0.228-0.511,0.228v-0.076
	c0.088-0.315,0.132-0.518,0.132-0.605c-0.088,0-0.132-0.068-0.132-0.208c0-0.756,0.347-1.43,1.04-2.022
	c0.49-1.07,0.838-1.645,1.04-1.719l0.15,0.075c0.164-0.252,0.266-0.378,0.303-0.378l-0.076-0.15
	c0.139-0.164,0.314-0.441,0.528-0.832l-0.075-0.151c0-0.277,0.15-0.447,0.453-0.511l0.075-0.15c-0.101,0-0.15-0.05-0.15-0.15
	c0.252-0.619,0.598-1.071,1.04-1.361v-0.151h-0.15v-0.057c0.114-0.151,0.265-0.454,0.454-0.907h0.151v0.076l-0.076,0.15h0.076
	c0.566-0.705,0.895-1.127,0.982-1.267l2.231-4.045c0.252-0.315,0.926-1.613,2.021-3.894c3.692-7.335,5.539-11.229,5.539-11.683
	c0-0.05-0.12-0.227-0.358-0.529c0.05-0.101,0.075-0.176,0.075-0.227c-0.139,0-0.314-0.201-0.528-0.605l-0.378-0.132
	c-0.102,0.038-0.178,0.057-0.228,0.057l-0.076-0.132c0.644-0.605,0.996-0.908,1.06-0.908c1.26-0.554,1.984-0.901,2.174-1.04
	c0.202-0.857,0.624-1.286,1.267-1.286c0.014-0.101,0.063-0.151,0.151-0.151c0,0.038,0.151,0.189,0.454,0.454
	c2.76-0.731,4.927-1.103,6.503-1.115C28.611,0.554,30.06,0.377,31.56,0.276z M31.409,3.641c-0.089-0.05-0.189-0.076-0.304-0.076
	l-0.454,0.076V3.565c-3.138,0.403-4.782,0.655-4.934,0.756c-0.101-0.05-0.176-0.076-0.227-0.076c0,0.101-0.972,0.372-2.911,0.812
	c-1.109,0.378-1.684,0.656-1.721,0.832c-1.486,3.566-4.158,9.156-8.015,16.768c-3.832,6.931-5.93,10.649-6.295,11.153v0.227
	c-0.303,0.238-0.504,0.542-0.605,0.906h0.151c0.164-0.391,0.688-0.787,1.569-1.19c0.012-0.252,0.088-0.378,0.227-0.378l0.151,0.076
	c0.391-0.504,0.794-0.756,1.21-0.756c0.239-0.164,0.358-0.315,0.358-0.454h0.303c0-0.063,0.176-0.208,0.528-0.435v-0.151
	l0.151,0.075c0.315-0.201,0.517-0.303,0.605-0.303v-0.074h-0.076c-0.102,0.049-0.178,0.074-0.228,0.074v-0.074
	c0.014-0.102,0.063-0.151,0.151-0.151l0.358,0.075c0.014-0.101,0.29-0.327,0.832-0.68c0-0.164,0.177-0.315,0.529-0.455
	c0.34-0.303,0.863-0.674,1.569-1.115l0.076-0.15h-0.151c0,0.113-0.176,0.24-0.529,0.378h-0.076c0.366-0.378,1.268-1.052,2.704-2.022
	h0.228l-0.151,0.228h0.151c0.202-0.101,0.347-0.252,0.435-0.454V26.93l-0.284,0.228h-0.075c0.112-0.189,0.309-0.365,0.586-0.529
	h0.15l-0.075,0.151v0.074c0.402-0.252,0.604-0.402,0.604-0.453h-0.076l-0.227,0.15h-0.151c0-0.062,0.151-0.208,0.454-0.435
	c0.012,0.088,0.063,0.132,0.151,0.132h0.075v-0.076c-0.051-0.088-0.075-0.158-0.075-0.208l0.378-0.151l0.076,0.151
	c0.742-0.29,1.114-0.542,1.114-0.756l1.135-0.907l0.132,0.076c0.012-0.164,0.238-0.334,0.681-0.51c0-0.178,0.302-0.479,0.907-0.908
	v-0.148l-0.303,0.227h-0.075V22.96c0-0.076,0.075-0.151,0.227-0.228l0.378,0.076l-0.15-0.227v-0.076l0.435-0.359l0.303,0.076h0.076
	v-0.076h-0.227V22.07c0.806-0.793,1.456-1.297,1.946-1.512c0.303-0.201,0.454-0.321,0.454-0.359l0.378,0.076
	c0.403-0.353,0.605-0.555,0.605-0.605v-0.076l-0.228,0.151l-0.075-0.151c0.202-0.202,0.347-0.302,0.435-0.302l0.151,0.075
	c0.201-0.075,0.302-0.151,0.302-0.227h-0.076c-0.088,0.05-0.164,0.076-0.227,0.076V19.14c0.214-0.353,0.466-0.529,0.756-0.529
	l-0.076-0.151c0.038,0,0.29-0.17,0.756-0.51c0.392,0,0.586-0.101,0.586-0.303c-0.101,0-0.15-0.05-0.15-0.151l0.681-0.832h0.076
	c0.05,0,0.076,0.025,0.076,0.076c0.101,0,0.227-0.195,0.378-0.586c0.188-0.214,0.586-0.592,1.19-1.134v0.076
	c0.088,0,0.315-0.271,0.682-0.813c0.302-0.315,0.674-0.617,1.114-0.907c0-0.151,0.454-0.7,1.361-1.645
	c1.412-1.601,2.281-2.898,2.609-3.894c0.554-0.983,0.832-1.91,0.832-2.779V4.851c0-0.353-0.403-0.605-1.209-0.756
	c-0.126-0.088-0.92-0.265-2.383-0.529c-0.051,0-0.075,0.025-0.075,0.076c-0.542-0.063-0.87-0.113-0.983-0.151
	c-0.088,0.051-0.189,0.076-0.303,0.076c-0.102,0-0.151-0.025-0.151-0.076L31.409,3.641z M5.946,27.913v0.132h0.076
	c0.025-0.29,0.151-0.436,0.378-0.436c0-0.101-0.05-0.15-0.15-0.15C6.172,27.459,6.072,27.611,5.946,27.913z M8.347,32.771v0.076
	c-0.013,0.139-0.139,0.238-0.378,0.301l-0.076-0.15L8.347,32.771z M10.521,21.089v0.076c0.063,0,0.189-0.125,0.378-0.378v-0.076
	C10.823,20.711,10.697,20.837,10.521,21.089z M12.014,18.329v0.076c0.102,0,0.151-0.05,0.151-0.151v-0.076
	C12.064,18.19,12.014,18.241,12.014,18.329z M13.148,29.634c0,0.038-0.202,0.183-0.604,0.435v-0.075
	C12.669,29.753,12.871,29.634,13.148,29.634z M14.642,28.727h0.151c0.076,0,0.15-0.102,0.227-0.303h-0.076
	C14.855,28.424,14.755,28.525,14.642,28.727z M15.303,28.197h0.075c0.126-0.102,0.227-0.151,0.303-0.151v-0.057h-0.076
	C15.404,28.052,15.303,28.121,15.303,28.197z M17.553,28.121v0.15h0.076c0.101,0,0.15-0.049,0.15-0.15v-0.076
	C17.678,28.096,17.603,28.121,17.553,28.121z M21.749,27.762c0,0.151-0.076,0.228-0.228,0.228v0.057h0.151
	c0-0.112,0.101-0.182,0.303-0.208v-0.076H21.749z M23.545,21.921v0.151c0.101-0.051,0.176-0.076,0.227-0.076V21.92L23.545,21.921
	L23.545,21.921z M25.039,20.862h0.227v-0.151H25.19C25.089,20.736,25.039,20.787,25.039,20.862z M27.439,18.764v0.151h0.076
	c0.102,0,0.151-0.05,0.151-0.151H27.439z M27.893,18.405c0,0.088-0.051,0.132-0.15,0.132v0.076h0.15l0.075-0.151v-0.057H27.893z
	 M35,11.354v0.076c0.076,0,0.15-0.076,0.227-0.227h-0.076C35.051,11.215,35,11.266,35,11.354z M35.303,10.976v0.076
	c0.063,0,0.214-0.17,0.454-0.51v-0.076C35.644,10.465,35.492,10.635,35.303,10.976z M36.494,9.029c0,0.164-0.17,0.466-0.512,0.907
	c0,0.088-0.074,0.214-0.227,0.378v0.076h0.076c0.353-0.466,0.624-0.92,0.812-1.361H36.494z M37.099,8.064V8.14h0.151V7.913
	C37.149,7.926,37.099,7.977,37.099,8.064z"/>
<path fill="#FFFFFF" d="M54.573,5.645h1.568c0.682,0.013,1.021,0.057,1.021,0.132l0.112-0.076c0.126,0.076,0.593,0.177,1.399,0.302
	c1.348,0.555,2.193,1.223,2.533,2.004c0.643,1.008,0.964,1.733,0.964,2.174c-0.214,0.996-1.664,2.281-4.348,3.856
	c-1.777,1.008-4.129,2.155-7.052,3.44c-3.1,1.487-4.77,2.23-5.009,2.23v0.057c0.125,0.139,0.77,0.485,1.928,1.04
	c0,0.05,0.523,0.391,1.569,1.021L51,23.093c1.474,1.412,2.481,2.502,3.023,3.271c1.639,2.356,2.583,4.165,2.835,5.425
	c-0.164,0.164-0.32,0.246-0.473,0.246c-0.403,0-0.668-0.283-0.794-0.852c-0.202-0.214-0.302-0.353-0.302-0.416
	c0-0.074-0.158-0.302-0.474-0.68c-0.517-1.424-1.204-2.57-2.061-3.439c-0.58-0.731-1.405-1.514-2.478-2.344
	c-2.583-1.677-4.518-2.621-5.803-2.836l-1.568,2.59c-0.782,1.033-2.029,2.805-3.743,5.312c-0.088,0-0.63,0.668-1.625,2.003
	c-0.454,0.856-0.857,1.317-1.21,1.38l-0.113-0.246l-0.114,0.057h-0.075c-0.113-0.15-0.271-0.271-0.473-0.358
	c0-0.276-0.183-0.416-0.548-0.416c0-0.088-0.057-0.208-0.17-0.358l-0.132,0.057H34.59c-0.138-0.266-0.321-0.485-0.548-0.662
	c0.252-0.29,0.435-0.436,0.548-0.436v-0.057l-0.057-0.113c0.037,0,0.057-0.019,0.057-0.057l0.114,0.057
	c0.062,0,0.126-0.062,0.188-0.188c-0.038-0.076-0.057-0.132-0.057-0.171c0.126-0.176,0.283-0.276,0.472-0.301v-0.058
	c-0.038-0.088-0.057-0.151-0.057-0.188c0.202,0,0.504-0.303,0.908-0.907c0.164-0.151,0.347-0.409,0.548-0.775
	c0.062,0,0.221-0.265,0.473-0.794c0.189-0.05,0.492-0.555,0.907-1.512c0.076,0,0.195-0.158,0.358-0.473v-0.076h-0.112v-0.113h0.057
	c0.076,0.038,0.139,0.057,0.189,0.057c0.126-0.353,0.32-0.592,0.586-0.718c0-0.126,0.202-0.347,0.604-0.662
	c0.013-0.276,0.176-0.599,0.492-0.964c-0.038,0-0.057-0.02-0.057-0.057c0.088-0.012,0.391-0.416,0.907-1.211
	c0.089,0,0.146-0.119,0.171-0.358c0.402-0.34,0.604-0.643,0.604-0.908c-0.038-0.176-0.239-0.422-0.604-0.737
	c-0.164-0.201-0.246-0.359-0.246-0.472V18.5c0-0.151,0.302-0.271,0.906-0.359c1.135-0.34,1.702-0.643,1.702-0.907
	c0.088,0,0.391-0.441,0.907-1.323c0.479-0.819,0.92-1.38,1.323-1.683v-0.076l-0.058-0.113h0.17l-0.057-0.113
	c0-0.227,0.12-0.391,0.359-0.492c0-0.126,0.164-0.409,0.491-0.851c0.566-0.807,1.108-1.727,1.626-2.76
	c-0.038,0-0.058-0.025-0.058-0.076c-1.146,0.328-2.597,0.812-4.348,1.456c-2.092,0.92-3.283,1.38-3.573,1.38
	c-0.353-0.076-0.592-0.233-0.718-0.473c-0.076-0.328-0.258-0.548-0.548-0.662c0-0.239-0.158-0.384-0.474-0.435v-0.057
	c0.038,0,0.058-0.019,0.058-0.057c-0.113,0-0.195-0.183-0.246-0.548c0.139-0.114,0.725-0.334,1.758-0.662
	c2.394-1.084,4.606-1.891,6.635-2.42c1.651-0.353,2.659-0.649,3.025-0.888c0.176,0,0.333-0.063,0.473-0.189h0.076
	c0.038,0,0.057,0.019,0.057,0.057l0.113-0.057c0.504,0.038,0.77,0.057,0.794,0.057c0.492-0.164,0.934-0.246,1.323-0.246L52.699,5.89
	l0.112-0.057v0.17C53.886,5.84,54.472,5.72,54.573,5.645z M37.9,25.324v0.132c0,0.075-0.038,0.112-0.112,0.112v-0.112
	C37.799,25.368,37.837,25.324,37.9,25.324z M38.637,24.303h0.057c0,0.063-0.062,0.127-0.188,0.189v-0.076
	C38.518,24.34,38.562,24.303,38.637,24.303z M40.074,22.186v0.133c0,0.076-0.038,0.113-0.113,0.113v-0.113
	C39.973,22.23,40.011,22.186,40.074,22.186z M40.981,20.862h0.058c-0.088,0.391-0.41,0.832-0.964,1.324v-0.113L40.981,20.862z
	 M41.473,20.144h0.057c-0.051,0.277-0.132,0.416-0.245,0.416c0-0.038-0.02-0.057-0.058-0.057
	C41.315,20.264,41.397,20.144,41.473,20.144z M54.214,8.613V8.537l-2.609,0.492h-0.17v0.057c0.151,0.239,0.252,0.441,0.302,0.605
	l-2.778,5.066c-0.05,0-0.195,0.183-0.436,0.548h0.132c0.896-0.479,1.94-0.939,3.139-1.38c1.411-0.756,2.678-1.5,3.799-2.231h-0.057
	c-0.025,0-0.29,0.095-0.794,0.284c0.276-0.315,0.579-0.473,0.906-0.473c0.014,0.076,0.058,0.113,0.132,0.113h0.058
	c0.075,0,0.113-0.038,0.113-0.113c0-0.038-0.02-0.057-0.058-0.057c0.314-0.378,1.122-1.021,2.419-1.928
	c0-0.076,0.258-0.359,0.775-0.851V8.48H59.03c-0.668-0.076-1.108-0.113-1.322-0.113C56.375,8.367,55.209,8.449,54.214,8.613z
	 M56.615,11.089h0.132c0.076,0,0.112-0.044,0.112-0.132h-0.112C56.659,10.969,56.615,11.014,56.615,11.089z"/>
<path fill="#FFFFFF" d="M80.573,5.645c0.567,0,0.983,0.088,1.248,0.265c0.971,0.781,1.463,1.216,1.476,1.304
	c0,0.454-0.315,1.5-0.945,3.138c-0.314,0.718-0.788,1.985-1.417,3.799l-0.095,0.17v0.094c0.555-0.138,0.901-0.239,1.04-0.302
	l0.265,0.038c0-0.063,0.12-0.113,0.359-0.151c0.076,0.038,0.126,0.057,0.15,0.057c0-0.088,0.365-0.195,1.097-0.322
	c0.353-0.138,0.687-0.227,1.002-0.265v0.057l0.095-0.057h0.113l0.358,0.057c0-0.063,0.14-0.114,0.416-0.151
	c0.113-0.05,0.17-0.12,0.17-0.208l0.303-0.057c0.188,0.038,0.328,0.057,0.416,0.057v0.057c0,0.063-0.052,0.095-0.151,0.095v0.057
	h0.151c0.076,0,0.112-0.038,0.112-0.113c-0.038,0-0.057-0.013-0.057-0.038c0.126-0.101,0.302-0.17,0.529-0.208
	c0.504,0.139,0.8,0.208,0.888,0.208c0-0.076,0.032-0.113,0.095-0.113h0.113c0.189,0,0.309,0.069,0.359,0.208
	c-0.14,0.05-0.208,0.101-0.208,0.151c0.038,0,0.057,0.019,0.057,0.057c-0.076,0.038-0.132,0.057-0.17,0.057l-0.246-0.057
	l0.038,0.113c0,0.063-0.032,0.094-0.095,0.094h-0.266v0.057c0.038,0.063,0.058,0.113,0.058,0.151L87.719,14h-0.265v0.113h0.057
	c0.076-0.038,0.132-0.057,0.17-0.057v0.057C87.794,14.038,87.895,14,87.983,14v0.057c0,0.063-0.396,0.183-1.19,0.359
	c-0.277,0.051-0.416,0.139-0.416,0.265h-0.17l-0.151-0.113c-0.101,0.101-0.277,0.17-0.529,0.208v0.057
	c0.063,0,0.17,0.069,0.321,0.208c0.063-0.038,0.114-0.057,0.151-0.057v0.057c0,0.05-0.051,0.101-0.151,0.151l-0.113-0.038
	c0,0.063-0.031,0.095-0.094,0.095h-0.265v-0.095h0.32v-0.057c0-0.05-0.068-0.101-0.208-0.151c0,0.063-0.037,0.095-0.112,0.095H85.28
	V14.89h-0.112v0.057l0.057,0.095l-0.113,0.057h-0.095v-0.113h-0.208v0.113l0.095-0.057h0.058v0.057c0,0.076-0.366,0.183-1.098,0.321
	c0.014,0.063,0.045,0.095,0.096,0.095c0.139-0.063,0.402-0.132,0.794-0.208h0.057v0.113c-0.038,0-0.094,0.013-0.17,0.038
	l0.057,0.113v0.057l-0.15-0.113h-0.058c-0.201,0.025-0.302,0.076-0.302,0.151h0.151v-0.094h0.15v0.151
	c-0.29,0.038-0.604,0.126-0.944,0.265c-0.063-0.038-0.113-0.057-0.151-0.057c0,0.076-0.032,0.114-0.095,0.114l-0.17-0.114
	l-0.095,0.057l-0.113-0.057l-0.718,0.265c-0.076-0.038-0.133-0.057-0.171-0.057c-0.238,0.151-0.358,0.259-0.358,0.321
	c-0.605,0.139-1.021,0.296-1.248,0.473l0.057,0.095v0.113c-0.038,0.101-0.145,0.151-0.32,0.151l-0.266-0.057
	c0,0.113-0.101,0.202-0.302,0.265l-1.304,3.138l-2.666,6.522c-0.164,0.265-0.548,1.166-1.153,2.703
	c-0.769,1.5-1.153,2.369-1.153,2.609c-0.113,0.213-0.202,0.32-0.265,0.32h-0.038c-0.076,0-0.113-0.051-0.113-0.15l-0.303,0.15
	c0-0.176-0.106-0.284-0.321-0.32c0-0.076-0.106-0.177-0.32-0.304c0,0.051-0.051,0.101-0.151,0.151c0-0.051-0.069-0.17-0.208-0.359
	c-0.114,0.062-0.215,0.096-0.303,0.096h-0.058v-0.096c0-0.075,0.02-0.145,0.058-0.208c-0.05-0.252-0.126-0.378-0.228-0.378
	c0.467-1.739,0.832-2.709,1.097-2.911c-0.063,0-0.096-0.038-0.096-0.112c0.114,0,0.233-0.189,0.359-0.567l0.113-0.058l-0.058-0.094
	v-0.17c0.454-0.77,0.927-1.827,1.418-3.176l-0.057-0.113c0.277-0.517,0.573-1.248,0.888-2.193c0.177-0.139,0.436-0.725,0.775-1.757
	c0.164-0.164,0.359-0.618,0.586-1.361c0.101-0.139,0.151-0.277,0.151-0.416c-0.075,0.025-0.126,0.038-0.151,0.038
	c0-0.025-0.019-0.038-0.057-0.038c0,0.063-0.038,0.095-0.114,0.095h-0.038l-0.17-0.095h-0.057l-0.151,0.095
	c-0.063,0-0.095-0.05-0.095-0.151c-0.378,0-0.952,0.158-1.721,0.473l0.096,0.265c-0.605,0.24-1.218,0.448-1.834,0.624
	c-0.366,0.088-0.586,0.158-0.662,0.208h-0.058l-0.17-0.114h-0.038l0.038,0.114l-0.095,0.057c0-0.076-0.038-0.114-0.113-0.114H70.76
	l0.057,0.114v0.094l-3.289,1.04c-0.314,0-1.015,0.574-2.098,1.721c-3.63,3.302-6.131,5.129-7.505,5.482
	c-0.088,0-0.157,0.019-0.208,0.057c-0.391-0.062-0.775-0.271-1.153-0.624c-0.088-0.038-0.296-0.177-0.624-0.416
	c0.038,0,0.058-0.019,0.058-0.058c-0.076,0-0.113-0.031-0.113-0.095v-0.17c0.05-0.114,0.744-0.491,2.079-1.134
	c1.475-1.122,2.659-2.1,3.554-2.93v-0.058c-1.185,0.315-2.192,0.542-3.024,0.681c-0.062-0.037-0.133-0.057-0.208-0.057
	c0,0.088-0.089,0.145-0.266,0.17l-0.057-0.113c0.038,0,0.057-0.019,0.057-0.057c-0.252,0-0.599-0.238-1.04-0.718l-0.32-0.058H56.45
	v-0.057l0.112-0.15v-0.058c-0.138,0-0.276-0.106-0.416-0.321v-0.207c0.354-0.266,1.412-0.592,3.176-0.983
	c0.529-0.227,1.625-0.555,3.289-0.983c0.682-0.29,1.381-0.517,2.099-0.681c0-0.063,0.139-0.132,0.416-0.208v0.038
	c0.58-0.139,1.033-0.416,1.36-0.832c0.177,0,0.277-0.101,0.303-0.302c0.088,0,0.314-0.214,0.681-0.643
	c0.151,0,0.258-0.082,0.321-0.246c0.164-0.239,0.681-0.762,1.55-1.569l2.722-2.666c1.098-1.008,1.67-1.512,1.722-1.512
	c0.313-0.391,0.818-0.863,1.512-1.418c0.062,0.038,0.113,0.057,0.15,0.057c0.076-0.201,0.146-0.302,0.208-0.302
	c0,0.025,0.02,0.038,0.058,0.038c0-0.138,0.126-0.208,0.378-0.208l-0.057-0.095v-0.06c0.012-0.076,0.044-0.113,0.094-0.113
	c0,0.038,0.019,0.057,0.057,0.057c0.214-0.239,0.321-0.378,0.321-0.416L76.6,8.992h0.058c0-0.277,0.623-0.888,1.871-1.833
	c0.177-0.239,0.511-0.536,1.002-0.889C79.685,6.105,80.031,5.897,80.573,5.645z M79.42,9.879V9.728
	c-1.361,1.071-4.039,3.542-8.034,7.41H71.33v0.095c3.074-0.908,5.041-1.512,5.897-1.815c0-0.038,0.02-0.057,0.058-0.057
	s0.057,0.019,0.057,0.057c0.139,0,0.416-0.611,0.832-1.833c0.517-1.248,0.775-1.928,0.775-2.042c-0.052,0-0.151,0.195-0.304,0.586
	h-0.057c0-0.038-0.02-0.057-0.057-0.057c0.2-0.517,0.327-0.794,0.378-0.832l-0.058-0.113V11.07c0.102-0.088,0.258-0.466,0.474-1.134
	L79.42,9.879v0.057c0,0.189-0.102,0.498-0.302,0.926v0.17c0.05,0,0.258-0.522,0.624-1.569h-0.058L79.42,9.879z M76.301,9.085h0.038
	c0,0.05-0.05,0.107-0.151,0.17V9.199C76.2,9.123,76.238,9.085,76.301,9.085z M80.157,17.176h0.095c0.076,0,0.113-0.032,0.113-0.095
	v-0.057h-0.058C80.258,17.025,80.208,17.075,80.157,17.176z M81.405,16.08h-0.057l-0.094-0.038c0,0.063-0.088,0.132-0.266,0.208
	h-0.15l-0.208-0.17v0.057l0.057,0.114l-0.112,0.038c0-0.063-0.032-0.095-0.096-0.095h-0.057l0.057,0.095
	c-0.075,0.013-0.112,0.05-0.112,0.113v0.057l1.305-0.378c0-0.063-0.038-0.094-0.114-0.094L81.405,16.08z M81.727,16.042h0.094
	c0.076-0.038,0.133-0.057,0.171-0.057v-0.057h-0.171C81.758,15.941,81.727,15.979,81.727,16.042z M81.991,15.872
	c0.037,0,0.088,0.019,0.15,0.057h0.095v-0.057c-0.101,0-0.15-0.031-0.15-0.094C82.022,15.79,81.991,15.821,81.991,15.872z
	 M82.142,16.08h0.151v-0.094h-0.058C82.174,15.998,82.142,16.029,82.142,16.08z M82.445,15.777c0.013,0.063,0.051,0.094,0.113,0.094
	l0.058-0.094H82.445z M83.39,15.569v0.057h0.151v-0.113C83.478,15.55,83.428,15.569,83.39,15.569z M83.655,15.513h0.151v-0.095
	h-0.057C83.686,15.418,83.655,15.45,83.655,15.513z M83.806,15.721h0.057c0.063,0,0.096-0.032,0.096-0.095H83.92
	C83.844,15.626,83.806,15.658,83.806,15.721z M85.904,13.433l-0.057,0.095h0.057c0.062-0.038,0.113-0.057,0.151-0.057v-0.038H85.904
	z M88.248,13.887h0.15V14h-0.15V13.887z"/>
<path fill="#FFFFFF" d="M112.717,5.531h0.057l0.189,0.132c0-0.088,0.062-0.132,0.188-0.132c0.403,0.076,0.901,0.46,1.493,1.153
	l0.359,0.416c0.088,0.013,0.132,0.057,0.132,0.132V7.29c-1.5,3.503-5.079,9.792-10.737,18.866c-1.979,3.227-3.082,5.375-3.308,6.445
	c-0.101,0.125-0.164,0.189-0.189,0.189h-0.057c-0.075-0.076-0.195-0.113-0.359-0.113c0,0.075-0.044,0.113-0.132,0.113l-0.358-0.662
	c-0.315-0.088-0.474-0.208-0.474-0.359c0-0.088-0.12-0.17-0.358-0.246c0,0.164-0.044,0.246-0.133,0.246l-0.112-0.188
	c0-0.164,0.038-0.422,0.112-0.774c0-0.14-0.057-0.304-0.17-0.492v-0.058c0.076-0.112,0.178-0.498,0.304-1.153
	c0.276-0.227,0.536-0.687,0.774-1.379c0.454-1.009,1.06-1.992,1.815-2.949h0.057v-0.359c0.518-0.807,0.838-1.209,0.964-1.209
	l-0.057-0.132c0.542-0.644,1.424-2.005,2.646-4.083c0.089,0,0.228-0.365,0.416-1.096c0.668-0.693,1.173-1.418,1.513-2.174
	l0.112-0.057h0.076l0.114,0.057c0-0.076,0.038-0.114,0.113-0.114l-0.058-0.302v-0.113c0.013-0.088,0.058-0.132,0.133-0.132
	c0.037,0,0.057,0.019,0.057,0.057c0.227,0,0.504-0.422,0.832-1.267h-0.057c-0.945,0.958-4.039,4.455-9.282,10.491
	c-0.92,1.01-1.746,1.514-2.477,1.514c-0.239-0.076-0.618-0.416-1.134-1.021l-0.908-0.662c-0.126-0.428-0.188-0.712-0.188-0.852
	c0.164-1.902,0.366-3.49,0.604-4.763c0.038,0,0.058-0.019,0.058-0.057c0-0.088-0.02-0.17-0.058-0.246
	c0.126-0.919,0.266-1.764,0.416-2.533c0-0.038-0.019-0.057-0.057-0.057c0.201-1.65,0.346-2.476,0.435-2.476l-0.075-0.303v-0.057
	c0-0.038,0.024-0.057,0.075-0.057c-0.05-0.076-0.075-0.139-0.075-0.189l0.075-0.303h-0.132c-0.062,0.277-1.229,2.193-3.497,5.747
	c-4.939,7.587-7.41,11.462-7.41,11.625l0.058,0.359c-0.266,0.403-0.485,0.605-0.662,0.605c-0.518,0-0.775-0.12-0.775-0.359
	c-0.062,0-0.126-0.062-0.188-0.189V30.01l0.057-0.113c-0.101,0-0.378-0.139-0.832-0.416c-0.252,0-0.378-0.101-0.378-0.303
	c-0.076,0-0.113-0.044-0.113-0.132v-0.302c0-0.239,0.341-0.838,1.021-1.796c0.832-1.476,1.494-2.501,1.985-3.081v0.113L85.1,24.111
	h0.132c0.58-0.944,1.481-2.256,2.703-3.931c0.668-0.907,1.33-1.928,1.985-3.062c2.432-3.717,4.543-7.196,6.333-10.435
	c0.164,0.063,0.246,0.12,0.246,0.17V6.93L96.386,7.1c0,0.088,0.019,0.17,0.057,0.246c-0.038,0.076-0.057,0.139-0.057,0.189h0.113
	c0.126-0.265,0.208-0.592,0.246-0.983l0.113-0.057h0.058c0.542,0.34,1.09,0.844,1.645,1.512v0.057l-0.076,0.359
	c0,0.05,0.025,0.076,0.076,0.076l-0.076,0.283c0,3.012-0.396,7.177-1.19,12.495c-0.05,0.253-0.076,0.556-0.076,0.908
	c0.29-0.14,1.134-1.047,2.533-2.723c1.21-1.487,2.199-2.615,2.968-3.384h0.057l-0.057,0.303c0.176-0.101,0.819-0.763,1.928-1.985
	c0.05,0,0.29-0.239,0.719-0.719l1.267-1.758v-0.057l-0.189,0.132h-0.057c0.012-0.114,0.214-0.359,0.605-0.737h0.057v0.057
	l-0.113,0.189v0.057h0.058c0.869-0.643,1.632-1.424,2.286-2.344c0.038,0,0.304-0.303,0.795-0.908h-0.058l-0.794,0.719l-0.057-0.114
	c0.542-0.592,1.222-1.335,2.042-2.23L112.717,5.531z M83,27.479h0.057c0.063,0,0.221-0.258,0.473-0.774
	c0.341-0.366,0.644-0.87,0.907-1.513C83.857,26.011,83.378,26.773,83,27.479z M88.728,19.652v0.057c0.076,0,0.114-0.044,0.114-0.132
	V19.52C88.766,19.533,88.728,19.577,88.728,19.652z M89.333,18.688v0.17h0.057l0.114-0.359C89.453,18.5,89.396,18.562,89.333,18.688
	z M92.452,13.735c0,0.063-0.102,0.227-0.303,0.492v0.057h0.133c0-0.05,0.081-0.214,0.245-0.491v-0.057L92.452,13.735L92.452,13.735z
	 M93.908,11.448l-0.058,0.113v0.132h0.058c0-0.125,0.037-0.189,0.112-0.189v-0.057L93.908,11.448L93.908,11.448z M94.153,11.089
	v0.057c0.178-0.101,0.354-0.422,0.529-0.964C94.62,10.194,94.443,10.497,94.153,11.089z M94.758,9.936v0.113
	c0.05,0,0.107-0.076,0.17-0.227h-0.057C94.796,9.835,94.758,9.873,94.758,9.936z M94.929,9.766c0.151-0.125,0.296-0.327,0.435-0.604
	c0.315,0,0.611-0.466,0.89-1.399l-0.058-0.416C96.12,7.384,95.697,8.19,94.929,9.766z M99.447,30.673l-0.113,0.491h0.113
	l0.075-0.416v-0.076L99.447,30.673L99.447,30.673z M100.959,27.667c0,0.013-0.02,0.095-0.058,0.246h0.113v-0.246H100.959z
	 M103.983,21.448c0,0.051-0.024,0.112-0.075,0.188h0.075c0.076,0,0.113-0.037,0.113-0.113v-0.075H103.983z M106.933,16.685h0.058
	c0.088,0,0.132-0.038,0.132-0.113h-0.076C106.97,16.584,106.933,16.622,106.933,16.685z M107.122,16.458v0.057h0.112l0.058-0.246
	C107.241,16.269,107.185,16.332,107.122,16.458z M108.671,13.792h0.076c0.075,0,0.112-0.038,0.112-0.114h-0.057
	C108.715,13.691,108.671,13.729,108.671,13.792z M109.276,13.679v0.17h0.076c0-0.038,0.02-0.095,0.058-0.17H109.276z"/>
<path fill="#FFFFFF" d="M132.195,5.645c0.567,0,0.983,0.088,1.248,0.265c0.971,0.781,1.462,1.216,1.476,1.304
	c0,0.454-0.315,1.5-0.945,3.138c-0.314,0.718-0.788,1.985-1.417,3.799l-0.095,0.17v0.094c0.555-0.138,0.9-0.239,1.04-0.302
	l0.265,0.038c0-0.063,0.12-0.113,0.359-0.151c0.076,0.038,0.126,0.057,0.15,0.057c0-0.088,0.365-0.195,1.097-0.322
	c0.353-0.138,0.687-0.227,1.002-0.265v0.057l0.095-0.057h0.113l0.358,0.057c0-0.063,0.14-0.114,0.416-0.151
	c0.113-0.05,0.17-0.12,0.17-0.208l0.303-0.057c0.188,0.038,0.327,0.057,0.416,0.057v0.057c0,0.063-0.052,0.095-0.151,0.095v0.057
	h0.151c0.075,0,0.112-0.038,0.112-0.113c-0.038,0-0.057-0.013-0.057-0.038c0.126-0.101,0.302-0.17,0.529-0.208
	c0.504,0.139,0.8,0.208,0.888,0.208c0-0.076,0.032-0.113,0.095-0.113h0.113c0.188,0,0.309,0.069,0.359,0.208
	c-0.14,0.05-0.208,0.101-0.208,0.151c0.037,0,0.057,0.019,0.057,0.057c-0.076,0.038-0.132,0.057-0.17,0.057l-0.246-0.057
	l0.038,0.113c0,0.063-0.032,0.094-0.095,0.094h-0.266v0.057c0.038,0.063,0.058,0.113,0.058,0.151L139.341,14h-0.265v0.113h0.057
	c0.076-0.038,0.132-0.057,0.17-0.057v0.057c0.113-0.076,0.214-0.113,0.302-0.113v0.057c0,0.063-0.396,0.183-1.19,0.359
	c-0.277,0.051-0.416,0.139-0.416,0.265h-0.17l-0.151-0.113c-0.101,0.101-0.277,0.17-0.529,0.208v0.057
	c0.063,0,0.17,0.069,0.321,0.208c0.063-0.038,0.114-0.057,0.151-0.057v0.057c0,0.05-0.051,0.101-0.151,0.151l-0.113-0.038
	c0,0.063-0.031,0.095-0.094,0.095h-0.265v-0.095h0.32v-0.057c0-0.05-0.068-0.101-0.208-0.151c0,0.063-0.038,0.095-0.112,0.095
	h-0.096V14.89h-0.112v0.057l0.057,0.095l-0.113,0.057h-0.095v-0.113h-0.208v0.113l0.095-0.057h0.058v0.057
	c0,0.076-0.366,0.183-1.098,0.321c0.014,0.063,0.044,0.095,0.096,0.095c0.139-0.063,0.402-0.132,0.794-0.208h0.057v0.113
	c-0.038,0-0.094,0.013-0.17,0.038l0.057,0.113v0.057l-0.15-0.113h-0.058c-0.201,0.025-0.302,0.076-0.302,0.151h0.151v-0.094h0.15
	v0.151c-0.29,0.038-0.604,0.126-0.944,0.265c-0.063-0.038-0.113-0.057-0.151-0.057c0,0.076-0.032,0.114-0.095,0.114l-0.17-0.114
	l-0.096,0.057l-0.112-0.057l-0.718,0.265c-0.076-0.038-0.133-0.057-0.171-0.057c-0.238,0.151-0.358,0.259-0.358,0.321
	c-0.605,0.139-1.021,0.296-1.248,0.473l0.057,0.095v0.113c-0.038,0.101-0.145,0.151-0.32,0.151l-0.266-0.057
	c0,0.113-0.101,0.202-0.302,0.265l-1.304,3.138l-2.666,6.522c-0.164,0.265-0.548,1.166-1.153,2.703
	c-0.769,1.5-1.153,2.369-1.153,2.609c-0.113,0.213-0.202,0.32-0.265,0.32h-0.038c-0.076,0-0.113-0.051-0.113-0.15l-0.303,0.15
	c0-0.176-0.107-0.284-0.321-0.32c0-0.076-0.106-0.177-0.32-0.304c0,0.051-0.051,0.101-0.151,0.151c0-0.051-0.069-0.17-0.208-0.359
	c-0.114,0.062-0.215,0.096-0.303,0.096h-0.058v-0.096c0-0.075,0.02-0.145,0.058-0.208c-0.05-0.252-0.126-0.378-0.228-0.378
	c0.466-1.739,0.832-2.709,1.097-2.911c-0.063,0-0.096-0.038-0.096-0.112c0.114,0,0.233-0.189,0.359-0.567l0.113-0.058l-0.058-0.094
	v-0.17c0.454-0.77,0.927-1.827,1.418-3.176l-0.057-0.113c0.277-0.517,0.573-1.248,0.888-2.193c0.176-0.139,0.436-0.725,0.775-1.757
	c0.164-0.164,0.358-0.618,0.586-1.361c0.101-0.139,0.151-0.277,0.151-0.416c-0.075,0.025-0.126,0.038-0.151,0.038
	c0-0.025-0.02-0.038-0.057-0.038c0,0.063-0.038,0.095-0.114,0.095h-0.038l-0.17-0.095h-0.058l-0.15,0.095
	c-0.063,0-0.095-0.05-0.095-0.151c-0.379,0-0.952,0.158-1.721,0.473l0.096,0.265c-0.605,0.24-1.218,0.448-1.834,0.624
	c-0.366,0.088-0.587,0.158-0.662,0.208h-0.058l-0.17-0.114h-0.038l0.038,0.114l-0.095,0.057c0-0.076-0.038-0.114-0.113-0.114h-0.095
	l0.057,0.114v0.094l-3.289,1.04c-0.314,0-1.015,0.574-2.098,1.721c-3.63,3.302-6.131,5.129-7.505,5.482
	c-0.088,0-0.157,0.019-0.208,0.057c-0.391-0.062-0.775-0.271-1.153-0.624c-0.088-0.038-0.296-0.177-0.624-0.416
	c0.038,0,0.058-0.019,0.058-0.058c-0.076,0-0.113-0.031-0.113-0.095v-0.17c0.05-0.114,0.744-0.491,2.079-1.134
	c1.475-1.122,2.659-2.1,3.554-2.93v-0.058c-1.185,0.315-2.193,0.542-3.024,0.681c-0.062-0.037-0.133-0.057-0.208-0.057
	c0,0.088-0.089,0.145-0.266,0.17l-0.057-0.113c0.038,0,0.057-0.019,0.057-0.057c-0.252,0-0.599-0.238-1.04-0.718l-0.321-0.058
	h-0.207v-0.057l0.112-0.15v-0.058c-0.138,0-0.276-0.106-0.416-0.321v-0.207c0.354-0.266,1.412-0.592,3.176-0.983
	c0.529-0.227,1.625-0.555,3.289-0.983c0.682-0.29,1.381-0.517,2.099-0.681c0-0.063,0.139-0.132,0.416-0.208v0.038
	c0.58-0.139,1.033-0.416,1.36-0.832c0.177,0,0.277-0.101,0.303-0.302c0.088,0,0.314-0.214,0.681-0.643
	c0.151,0,0.258-0.082,0.321-0.246c0.164-0.239,0.681-0.762,1.55-1.569l2.722-2.666c1.098-1.008,1.67-1.512,1.722-1.512
	c0.313-0.391,0.818-0.863,1.512-1.418c0.062,0.038,0.113,0.057,0.15,0.057c0.076-0.201,0.146-0.302,0.208-0.302
	c0,0.025,0.02,0.038,0.058,0.038c0-0.138,0.126-0.208,0.378-0.208l-0.057-0.095v-0.06c0.012-0.076,0.044-0.113,0.094-0.113
	c0,0.038,0.019,0.057,0.057,0.057c0.214-0.239,0.321-0.378,0.321-0.416l0.095,0.057h0.057c0-0.277,0.624-0.888,1.872-1.833
	c0.177-0.239,0.511-0.536,1.002-0.889C131.307,6.105,131.653,5.897,132.195,5.645z M131.042,9.879V9.728
	c-1.361,1.071-4.039,3.542-8.034,7.41h-0.057v0.095c3.074-0.908,5.041-1.512,5.897-1.815c0-0.038,0.02-0.057,0.058-0.057
	c0.037,0,0.057,0.019,0.057,0.057c0.139,0,0.416-0.611,0.832-1.833c0.517-1.248,0.774-1.928,0.774-2.042
	c-0.051,0-0.15,0.195-0.303,0.586h-0.057c0-0.038-0.02-0.057-0.058-0.057c0.201-0.517,0.328-0.794,0.379-0.832l-0.058-0.113V11.07
	c0.102-0.088,0.258-0.466,0.473-1.134L131.042,9.879v0.057c0,0.189-0.102,0.498-0.302,0.926v0.17c0.05,0,0.258-0.522,0.623-1.569
	h-0.057L131.042,9.879z M127.923,9.085h0.038c0,0.05-0.05,0.107-0.151,0.17V9.199C127.822,9.123,127.86,9.085,127.923,9.085z
	 M131.779,17.176h0.096c0.076,0,0.112-0.032,0.112-0.095v-0.057h-0.057C131.88,17.025,131.83,17.075,131.779,17.176z M133.027,16.08
	h-0.057l-0.094-0.038c0,0.063-0.088,0.132-0.266,0.208h-0.15l-0.208-0.17v0.057l0.057,0.114l-0.113,0.038
	c0-0.063-0.031-0.095-0.095-0.095h-0.057l0.057,0.095c-0.075,0.013-0.113,0.05-0.113,0.113v0.057l1.306-0.378
	c0-0.063-0.038-0.094-0.114-0.094L133.027,16.08z M133.349,16.042h0.094c0.076-0.038,0.133-0.057,0.17-0.057v-0.057h-0.17
	C133.38,15.941,133.349,15.979,133.349,16.042z M133.613,15.872c0.038,0,0.089,0.019,0.151,0.057h0.095v-0.057
	c-0.101,0-0.15-0.031-0.15-0.094C133.645,15.79,133.613,15.821,133.613,15.872z M133.764,16.08h0.151v-0.094h-0.058
	C133.796,15.998,133.764,16.029,133.764,16.08z M134.067,15.777c0.013,0.063,0.051,0.094,0.113,0.094l0.057-0.094H134.067z
	 M135.012,15.569v0.057h0.151v-0.113C135.1,15.55,135.05,15.569,135.012,15.569z M135.277,15.513h0.151v-0.095h-0.057
	C135.308,15.418,135.277,15.45,135.277,15.513z M135.428,15.721h0.057c0.063,0,0.096-0.032,0.096-0.095h-0.038
	C135.466,15.626,135.428,15.658,135.428,15.721z M137.526,13.433l-0.057,0.095h0.057c0.062-0.038,0.113-0.057,0.151-0.057v-0.038
	H137.526z M139.87,13.887h0.15V14h-0.15V13.887z"/>
<path fill="#FFFFFF" d="M165.511,5.588c0.176,0.076,0.271,0.151,0.283,0.227c-0.076,0.013-0.113,0.051-0.113,0.113
	c0.354,0,0.592,0.132,0.718,0.397c0.063,0,0.12,0.051,0.17,0.151l-0.283,0.227h0.057l0.113-0.057c0.227,0.05,0.34,0.164,0.34,0.34
	c-0.126,0.114-0.46,0.227-1.002,0.34c-0.076-0.038-0.132-0.057-0.17-0.057v0.265c0.101-0.076,0.29-0.164,0.566-0.265
	c0.214,0.038,0.321,0.088,0.321,0.151c-0.126,0.126-0.422,0.239-0.888,0.34c0,0.063-0.354,0.158-1.06,0.283h-0.378
	c0,0.051-0.094,0.126-0.283,0.227h0.17v0.095l-0.34,0.057V8.48h0.397v0.113c-0.718,0.189-1.09,0.284-1.115,0.284v0.057h0.113
	l0.322-0.057l0.057,0.113v0.057c-0.857,0.151-2.155,0.448-3.895,0.889c-1.009,0.29-2.307,0.624-3.895,1.002l-0.057-0.114
	c0.276-0.113,0.706-0.227,1.285-0.34v-0.057h-0.17c-1.032,0.252-1.568,0.404-1.605,0.454c0.038,0.075,0.057,0.132,0.057,0.17
	c-0.188,0-0.41,0.353-0.662,1.059c-0.718,1.714-2.904,4.751-6.56,9.111c-1.802,2.144-4.253,5.369-7.354,9.68
	c-0.353,0.529-0.725,1.16-1.114,1.891l-0.208-0.17h-0.114l-0.17,0.113c-0.076-0.139-0.113-0.283-0.113-0.435
	c0.038,0,0.057-0.019,0.057-0.057c-0.188,0-0.283-0.151-0.283-0.454c0.038,0,0.057-0.02,0.057-0.057h-0.113l-0.17,0.112
	c-0.062-0.151-0.095-0.353-0.095-0.604c0.025,0,0.038-0.02,0.038-0.057l-0.094-0.058v0.228h-0.228c-0.076,0-0.113-0.039-0.113-0.114
	v-0.058l0.058-0.396c-0.076,0-0.113-0.057-0.113-0.17c0.113-0.454,0.372-0.952,0.775-1.494c0.188-0.365,0.446-0.624,0.774-0.775
	l0.114-0.17v-0.057h-0.114c0-0.125,0.334-0.662,1.002-1.605l0.228-0.228v-0.058l-0.058-0.112l0.228-0.114l-0.057-0.113v-0.057
	c0.402-0.566,0.699-0.863,0.889-0.889l0.057-0.113c-0.038-0.062-0.057-0.12-0.057-0.17c0.164,0,0.365-0.184,0.604-0.549
	c-0.038-0.062-0.057-0.139-0.057-0.227h0.113l0.112,0.057c0-0.062,0.334-0.484,1.002-1.266l1.456-2.004l-0.057-0.114
	c0.668-0.895,1.335-1.695,2.004-2.4c0.102,0,0.504-0.391,1.209-1.172l0.284-0.038v-0.057l-0.113-0.17
	c0.441-0.592,0.681-0.888,0.718-0.888c0.076,0.038,0.133,0.057,0.171,0.057c0-0.164,0.276-0.573,0.832-1.229l-0.058-0.114
	c0.189-0.29,0.416-0.529,0.68-0.718c-0.037-0.076-0.057-0.132-0.057-0.17c0.038,0,0.258-0.221,0.662-0.662l0.057,0.113
	c-0.038,0-0.17,0.164-0.396,0.491h0.057c0.125-0.038,0.441-0.503,0.945-1.398V12.11c-0.102,0-0.151-0.057-0.151-0.17h-0.057
	c-0.075,0.075-0.466,0.164-1.172,0.265c-2.092,0.668-4.297,1.285-6.616,1.853c-0.807,0.315-1.865,0.63-3.176,0.945
	c-0.051-0.151-0.107-0.227-0.17-0.227l-0.266,0.057c0-0.038-0.019-0.057-0.057-0.057l0.057-0.284
	C140.073,14.164,139.94,14,139.877,14l-0.17-0.17v-0.284c-0.164,0-0.403-0.314-0.719-0.945c-0.075,0-0.112-0.038-0.112-0.114
	c0.188-0.151,0.97-0.39,2.344-0.718c2.08-0.743,5.804-1.764,11.172-3.062C160.243,6.628,164.616,5.588,165.511,5.588z
	 M149.443,15.607h0.058c0.062,0,0.139-0.076,0.227-0.227v-0.057C149.625,15.324,149.531,15.418,149.443,15.607z M149.84,15.097
	v0.057c0.062-0.038,0.113-0.057,0.151-0.057v-0.095h-0.058C149.871,15.002,149.84,15.034,149.84,15.097z M157.061,10.371v0.057
	h0.113c0.114-0.075,0.208-0.113,0.284-0.113v-0.057h-0.058C157.275,10.333,157.162,10.371,157.061,10.371z M158.403,9.993
	l-0.057,0.113h0.17C158.517,10.03,158.479,9.993,158.403,9.993z M159.613,9.709v0.057h0.171c0.062-0.038,0.139-0.057,0.227-0.057
	V9.652h-0.057L159.613,9.709z M160.293,9.539v0.057h0.17c0.138-0.076,0.265-0.113,0.378-0.113V9.426h-0.17
	C160.558,9.501,160.432,9.539,160.293,9.539z M160.898,9.369v0.057h0.228V9.369H160.898z M161.295,9.274v0.038h0.113l1.493-0.321
	V8.934h-0.17C161.951,9.161,161.472,9.274,161.295,9.274z M163.337,7.989v0.114h0.057c0.076,0,0.114-0.038,0.114-0.114H163.337z
	 M163.621,7.932v0.057h0.057c0.202-0.038,0.372-0.057,0.51-0.057V7.875c0-0.05-0.057-0.107-0.17-0.17h-0.057
	C163.81,7.856,163.696,7.932,163.621,7.932z M164.131,7.592v0.057c0,0.051,0.088,0.126,0.265,0.227
	c0.076-0.038,0.132-0.057,0.17-0.057l-0.112-0.17h0.112l0.397,0.114c0.076-0.038,0.132-0.057,0.17-0.057V7.648h-0.17V7.592
	c0-0.076,0.094-0.113,0.284-0.113V7.384C164.881,7.409,164.509,7.479,164.131,7.592z M164.188,8.159h0.151v0.113h-0.038
	C164.226,8.272,164.188,8.235,164.188,8.159z M165.247,7.535v0.113h0.265V7.535H165.247z"/>
<path fill="#FFFFFF" d="M177.976,5.418v0.076l-0.132,0.227v0.076h0.265c0.177-0.151,0.518-0.227,1.021-0.227
	c0.63,0.113,0.945,0.391,0.945,0.832v0.076c-0.051,0.101-0.076,0.177-0.076,0.227c0.214,0.013,0.321,0.088,0.321,0.227v0.076
	c-0.252,0.24-0.378,0.391-0.378,0.454l-0.132-0.076h-0.302c0,0.101,0.082,0.151,0.246,0.151v0.151l-0.321-0.076l-0.057,0.151
	c0.214,0,0.32,0.05,0.32,0.151c-0.088,0-0.258,0.126-0.51,0.378c-0.164,0-0.692,0.202-1.588,0.605v0.075h0.058
	c0.428-0.164,0.705-0.29,0.831-0.378l0.058,0.151c-0.34,0.202-1.159,0.586-2.457,1.153v0.076h0.057l0.321-0.076v0.151
	c-0.189,0-0.637,0.227-1.342,0.681c-0.644,0.151-1.828,0.655-3.555,1.512v0.454l0.133,0.227c-0.567,0.731-1.476,2.199-2.723,4.404
	c-0.429,0.504-1.103,1.569-2.022,3.195c-0.063,0-0.681,0.914-1.854,2.742h0.076c0.77-0.404,1.569-0.707,2.401-0.908v0.076
	l-0.058,0.15h0.058c0.188-0.076,0.358-0.176,0.51-0.302c0.038,0,0.057,0.024,0.057,0.075c0.72-0.429,1.374-0.662,1.967-0.699
	l0.378,0.076c0.29-0.189,0.712-0.315,1.267-0.379c0,0.102,0.088,0.151,0.265,0.151v0.151c-0.15,0-0.385,0.232-0.699,0.699
	c-1.589,0.617-2.413,0.996-2.477,1.134h0.076c0.025,0,0.655-0.253,1.89-0.757c0.113,0.102,0.221,0.151,0.321,0.151v0.151
	l-1.966,1.059l-0.189,0.227l-0.378-0.075l0.058,0.151c-0.14,0-0.328,0.101-0.567,0.302h-0.057v0.075
	c0.201,0,0.303,0.127,0.303,0.379h-0.057l-0.189-0.151h-0.057v0.151h0.188c0,0.101-0.044,0.15-0.132,0.15h-0.132v-0.15h-0.113
	l0.057,0.15v0.076c-0.101,0-0.188-0.025-0.265-0.076c-0.062,0-0.188,0.127-0.378,0.379h-0.057l-0.133-0.076
	c-0.215,0.353-0.422,0.528-0.623,0.528v0.076h0.057l0.454-0.151v0.151c-0.113,0-1.172,0.562-3.176,1.683v0.076h0.057
	c0.277-0.101,0.429-0.15,0.454-0.15v0.15c-0.177,0-0.983,0.479-2.42,1.438c-0.05,0.126-0.491,0.353-1.323,0.681
	c0,0.076-0.233,0.334-0.699,0.774c0,0.063-0.062,0.14-0.188,0.228h-0.058l0.114-0.303h-0.057c-0.529,0.756-0.869,1.134-1.021,1.134
	c-0.353,0.314-0.818,0.592-1.398,0.832c-0.378-0.113-0.567-0.238-0.567-0.378h-0.246c-0.44,0-0.863-0.403-1.267-1.21
	c-0.125-0.189-0.385-0.396-0.775-0.624c0-0.328-0.145-0.681-0.435-1.06V29.18l0.32-0.453l0.436,0.075h0.643
	c1.701-0.958,2.564-1.487,2.589-1.588c0-0.214,0.637-1.153,1.91-2.815h0.058c0.05,0,0.075,0.024,0.075,0.074
	c0.164-0.074,0.246-0.15,0.246-0.227V24.17l-0.188,0.15h-0.058v-0.075c0.189-0.504,0.485-0.756,0.889-0.756v-0.076
	c-0.088,0-0.132-0.05-0.132-0.151c0.479-0.265,1.026-0.977,1.645-2.136c0.038,0,0.485-0.605,1.342-1.815l-0.076-0.151
	c0.051-0.101,0.076-0.177,0.076-0.227l-0.32,0.302h-0.076c0.126-0.252,0.258-0.378,0.396-0.378c0.076,0.051,0.14,0.076,0.189,0.076
	c0.794-1.146,1.19-1.758,1.19-1.833c-0.075,0-0.112-0.05-0.112-0.151h0.057l0.132,0.076c0.013-0.101,0.05-0.151,0.113-0.151
	l-0.057-0.151v-0.151c0.163,0,0.245-0.025,0.245-0.076l-0.057-0.151c0.038-0.151,0.082-0.227,0.132-0.227h0.189
	c0.276-0.504,0.466-0.756,0.566-0.756v-0.076h-0.057c-0.819,0.454-2.004,1.034-3.554,1.739c-0.857,0.504-1.432,0.756-1.721,0.756
	h-0.245c-0.303-0.151-0.556-0.428-0.757-0.832c0-0.227-0.321-0.655-0.964-1.286c0-0.176-0.101-0.454-0.302-0.832
	c0.025-0.202,0.252-0.428,0.68-0.681V14h0.076l0.189,0.151c0.265-0.315,0.938-0.699,2.022-1.153c0.34-0.202,0.996-0.504,1.966-0.908
	c0.29-0.201,1.306-0.73,3.043-1.588c1.463-0.819,4.298-2.161,8.508-4.026c0.504-0.252,1.26-0.504,2.269-0.756L177.976,5.418z
	 M158.07,27.139h0.189c0.062,0,0.145-0.102,0.246-0.303h-0.058C158.196,26.949,158.07,27.05,158.07,27.139z M160.226,24.095h0.058
	c0.088,0,0.132-0.05,0.132-0.151h-0.058C160.27,23.956,160.226,24.007,160.226,24.095z M162.059,29.482h0.189
	c0,0.101-0.038,0.15-0.113,0.15h-0.076V29.482L162.059,29.482z M166.312,25.607l-0.132-0.076h-0.113
	c0,0.088-0.132,0.188-0.396,0.303l-0.114,0.227v0.076h0.057c0.239-0.201,0.409-0.302,0.511-0.302v0.076l0.624-0.454
	c-0.038-0.102-0.058-0.177-0.058-0.227h-0.057C166.445,25.355,166.337,25.48,166.312,25.607z M167.39,24.852l0.057,0.15
	c-0.416,0.025-0.623,0.102-0.623,0.227c0,0.102,0.062,0.151,0.188,0.151c0.227-0.151,0.523-0.303,0.889-0.454v-0.15h-0.057
	L167.39,24.852z M168.278,24.7h0.133c0.062,0,0.126,0.075,0.188,0.227v0.075h-0.076c-0.101-0.102-0.183-0.15-0.246-0.15
	L168.278,24.7L168.278,24.7z M168.713,24.473h0.132c0.088,0.014,0.132,0.063,0.132,0.151V24.7l-0.321,0.075
	c-0.075-0.049-0.139-0.075-0.188-0.075v-0.151h0.246V24.473L168.713,24.473z M169.167,24.473h0.057
	c0.088,0.014,0.132,0.063,0.132,0.151h-0.188V24.473L169.167,24.473z M175.311,10.806v0.151l-0.246,0.076v-0.151L175.311,10.806z
	 M176.709,8.669v0.076h0.132c0.227-0.151,0.416-0.227,0.567-0.227V8.367h-0.058C177.075,8.569,176.861,8.669,176.709,8.669z
	 M177.542,8.292c0.012,0.101,0.05,0.151,0.112,0.151h0.076V8.292H177.542z M177.73,7.384h0.189V7.233h-0.076
	C177.768,7.246,177.73,7.296,177.73,7.384z M177.787,8.216v0.151h0.246V8.216H177.787z M178.486,7.762
	c0,0.101-0.082,0.151-0.246,0.151v0.076l0.303,0.076V7.913h0.132l0.322,0.076C178.972,7.838,178.801,7.762,178.486,7.762z
	 M178.921,7.687v0.076c0.138,0,0.208,0.05,0.208,0.151c0.075-0.05,0.138-0.075,0.188-0.075c0-0.101-0.044-0.151-0.132-0.151
	L178.921,7.687L178.921,7.687z"/>
<path fill="#FFFFFF" d="M195.47,5.607c0.038,0,0.057,0.013,0.057,0.038l0.113-0.038h0.171c0.228,0,0.479,0.164,0.756,0.492
	c0.038,0,0.296,0.29,0.775,0.87v0.17c-0.076,0.139-0.479,0.359-1.21,0.662c0,0.051-0.731,0.523-2.193,1.418
	c-1.688,1.134-3.428,2.489-5.217,4.064c-2.824,2.672-4.613,4.518-5.369,5.539c-3.565,4.423-5.602,8.064-6.105,10.926
	c-0.038,0.314-0.058,0.574-0.058,0.775c0.038,0,0.058,0.019,0.058,0.057c0.996,0,2.86-0.825,5.596-2.477
	c0.302-0.113,0.668-0.314,1.096-0.604l1.702-0.983l0.113,0.058c0.782-0.63,1.222-0.945,1.323-0.945
	c0.416-0.151,0.654-0.276,0.719-0.378l0.208,0.057c0.164,0,0.529-0.22,1.097-0.662h-0.057l-0.208,0.113l-0.058-0.113
	c0.215-0.227,0.599-0.498,1.152-0.812l0.114,0.038l0.265-0.151h0.058v0.057c0,0.089-0.128,0.178-0.379,0.266v0.057h0.171
	c0.353-0.176,0.623-0.34,0.812-0.49l0.113-0.058l0.228,0.058c0.062-0.039,0.113-0.058,0.15-0.058l-0.058-0.112V23.38
	c0.189,0,0.737-0.252,1.646-0.756v0.058c-1.108,0.73-1.728,1.166-1.854,1.303h0.058l0.87-0.547l0.112,0.057
	c0.304-0.328,0.573-0.491,0.812-0.491c0.013-0.076,0.051-0.114,0.114-0.114l0.112,0.057c0.013-0.075,0.051-0.113,0.113-0.113
	l0.113,0.057c0.276-0.138,0.44-0.227,0.491-0.265c0.075,0.013,0.112,0.044,0.112,0.095c0,0.038-0.17,0.17-0.51,0.397v0.057h0.057
	c0.416-0.188,0.675-0.284,0.774-0.284l0.171,0.228l-0.057,0.112c0.037,0.063,0.057,0.133,0.057,0.209h-0.113v0.057h0.058
	c0.062-0.038,0.132-0.057,0.208-0.057c0,0.088,0.037,0.183,0.112,0.283c-1.146,0.87-1.82,1.305-2.022,1.305
	c-0.126,0.177-0.989,0.744-2.589,1.701c-3.126,1.965-5.338,3.32-6.636,4.063c-2.407,1.248-3.982,1.872-4.727,1.872h-0.812
	c-0.719,0-1.469-0.548-2.25-1.645c-0.479-0.252-0.719-0.781-0.719-1.588c0-0.467,0.058-0.832,0.17-1.098
	c-0.037-0.076-0.057-0.132-0.057-0.17c0.063,0,0.151-0.239,0.265-0.719c-0.038,0-0.057-0.019-0.057-0.057
	c0.076-0.062,0.479-1.014,1.209-2.854l1.438-2.307c0.982-1.751,2.791-4.127,5.425-7.126c1.953-1.991,3.327-3.289,4.121-3.894
	c0.2-0.328,0.326-0.492,0.378-0.492c0.164-0.353,0.528-0.611,1.097-0.775c0.088-0.05,0.365-0.397,0.831-1.04
	c0.038,0,0.058,0.019,0.058,0.057c1.247-0.769,1.997-1.336,2.249-1.702c0-0.239,0.327-0.535,0.983-0.888
	c0-0.063,0.239-0.208,0.718-0.435c0.038,0,0.095,0.019,0.17,0.057c0.089,0,0.304-0.075,0.645-0.227l0.112,0.057L195.47,5.607z
	 M176.491,25.626c0,0.076,0.03,0.113,0.094,0.113l0.057-0.113H176.491z M178.74,21.619c0,0.05-0.096,0.22-0.284,0.51v0.038h0.057
	c0-0.063,0.095-0.228,0.284-0.491v-0.057H178.74z M179.95,19.917l-0.662,0.889h0.057c0.315-0.303,0.529-0.599,0.643-0.889H179.95z
	 M181.368,18.064h0.17v-0.113h-0.058C181.406,17.964,181.368,18.001,181.368,18.064z M181.538,17.895h0.112
	c0-0.063,0.051-0.158,0.151-0.284h-0.057C181.67,17.636,181.601,17.731,181.538,17.895z M181.859,17.459v0.057h0.113
	c0-0.038,0.02-0.094,0.057-0.17h-0.057C181.897,17.359,181.859,17.396,181.859,17.459z M188.399,25.361h0.059
	c0.062,0,0.094-0.038,0.094-0.113h-0.057C188.432,25.261,188.399,25.298,188.399,25.361z M188.399,25.684h0.059
	c0.163-0.063,0.252-0.133,0.265-0.209C188.507,25.55,188.399,25.62,188.399,25.684z M188.948,25.248v0.113h0.058
	c0.139-0.063,0.208-0.12,0.208-0.17h-0.058C189.093,25.229,189.023,25.248,188.948,25.248z M189.213,24.473v0.058h0.057
	c0.075-0.038,0.132-0.058,0.17-0.058v-0.057h-0.057C189.308,24.454,189.251,24.473,189.213,24.473z M190.102,24.53
	c0.012,0.075,0.044,0.112,0.094,0.112l0.059-0.112H190.102z M191.519,8.008l-0.057,0.113c0.076-0.038,0.133-0.057,0.171-0.057V8.008
	H191.519z M193.164,23.282v0.095h0.057c0.075-0.038,0.132-0.057,0.17-0.057v-0.096h-0.057
	C193.258,23.264,193.201,23.282,193.164,23.282z"/>
<path fill="#FFFFFF" d="M236.847,0.276l0.964,0.151c0.051,0,0.076-0.025,0.076-0.075c2.142,0.315,3.718,0.812,4.726,1.493
	c1.5,1.186,2.646,2.609,3.44,4.272c0.201,0.63,0.303,1.128,0.303,1.494c0,1.462-0.624,3.062-1.872,4.801
	c-0.188,0.63-1.808,2.552-4.856,5.766c-1.187,0.971-2.414,2.042-3.688,3.215c-3.643,3.088-7.883,6.332-12.723,9.734
	c-8.141,5.646-13.132,8.79-14.972,9.434c-0.239,0-0.566-0.178-0.982-0.529c-0.062,0-0.139-0.146-0.227-0.436
	c-0.164,0-0.386-0.252-0.662-0.756c-0.252,0-0.378-0.051-0.378-0.15v-0.228h-0.075v-0.151c0.378-0.479,0.825-0.826,1.342-1.039
	c0-0.113,0.252-0.266,0.756-0.455c0-0.075-0.227-0.276-0.681-0.604c-0.176,0.151-0.346,0.228-0.51,0.228v-0.076
	c0.088-0.315,0.132-0.518,0.132-0.605c-0.088,0-0.132-0.068-0.132-0.208c0-0.756,0.347-1.43,1.039-2.022
	c0.491-1.07,0.839-1.645,1.04-1.719l0.15,0.075c0.164-0.252,0.265-0.378,0.303-0.378l-0.075-0.15
	c0.139-0.164,0.314-0.441,0.528-0.832l-0.075-0.151c0-0.277,0.151-0.447,0.453-0.511l0.076-0.15c-0.102,0-0.15-0.05-0.15-0.15
	c0.252-0.619,0.599-1.071,1.04-1.361v-0.151h-0.151v-0.057c0.113-0.151,0.265-0.454,0.453-0.907h0.15v0.076l-0.074,0.15h0.074
	c0.567-0.705,0.896-1.127,0.983-1.267l2.229-4.045c0.253-0.315,0.927-1.613,2.022-3.894c3.692-7.335,5.539-11.229,5.539-11.683
	c0-0.05-0.12-0.227-0.359-0.529c0.051-0.101,0.075-0.176,0.075-0.227c-0.139,0-0.313-0.201-0.529-0.605l-0.378-0.132
	c-0.101,0.038-0.177,0.057-0.227,0.057l-0.075-0.132c0.644-0.605,0.995-0.908,1.06-0.908c1.26-0.554,1.983-0.901,2.174-1.04
	c0.201-0.857,0.623-1.286,1.267-1.286c0.012-0.101,0.062-0.151,0.15-0.151c0,0.038,0.15,0.189,0.454,0.454
	c2.76-0.731,4.928-1.103,6.503-1.115C233.897,0.554,235.347,0.377,236.847,0.276z M236.695,3.641
	c-0.088-0.05-0.188-0.076-0.302-0.076l-0.454,0.076V3.565c-3.138,0.403-4.781,0.655-4.934,0.756
	c-0.103-0.05-0.177-0.076-0.229-0.076c0,0.101-0.97,0.372-2.91,0.812c-1.108,0.378-1.683,0.656-1.721,0.832
	c-1.486,3.566-4.159,9.156-8.016,16.768c-3.831,6.931-5.929,10.649-6.295,11.153v0.227c-0.302,0.238-0.504,0.542-0.604,0.906h0.151
	c0.163-0.391,0.687-0.787,1.568-1.19c0.013-0.252,0.089-0.378,0.228-0.378l0.151,0.076c0.39-0.504,0.794-0.756,1.209-0.756
	c0.238-0.164,0.358-0.315,0.358-0.454h0.304c0-0.063,0.177-0.208,0.528-0.435v-0.151l0.151,0.075
	c0.313-0.201,0.517-0.303,0.604-0.303v-0.074h-0.074c-0.103,0.049-0.178,0.074-0.228,0.074v-0.074
	c0.012-0.102,0.062-0.151,0.15-0.151l0.358,0.075c0.014-0.101,0.29-0.327,0.832-0.68c0-0.164,0.176-0.315,0.529-0.455
	c0.34-0.303,0.863-0.674,1.569-1.115l0.074-0.15h-0.15c0,0.113-0.177,0.24-0.529,0.378h-0.075c0.365-0.378,1.268-1.052,2.703-2.022
	h0.228l-0.151,0.228h0.151c0.2-0.101,0.347-0.252,0.435-0.454V26.93l-0.283,0.228h-0.075c0.113-0.189,0.31-0.365,0.587-0.529h0.149
	l-0.075,0.151v0.074c0.403-0.252,0.604-0.402,0.604-0.453h-0.075l-0.227,0.15h-0.151c0-0.062,0.151-0.208,0.453-0.435
	c0.013,0.088,0.062,0.132,0.15,0.132h0.076v-0.076c-0.051-0.088-0.076-0.158-0.076-0.208l0.379-0.151l0.075,0.151
	c0.743-0.29,1.115-0.542,1.115-0.756l1.134-0.907l0.134,0.076c0.013-0.164,0.238-0.334,0.681-0.51c0-0.178,0.303-0.479,0.907-0.908
	v-0.148l-0.304,0.227h-0.074V22.96c0-0.076,0.074-0.151,0.227-0.228l0.378,0.076l-0.151-0.227v-0.076l0.437-0.359l0.302,0.076h0.076
	v-0.076h-0.228V22.07c0.807-0.793,1.456-1.297,1.946-1.512c0.304-0.201,0.454-0.321,0.454-0.359l0.378,0.076
	c0.403-0.353,0.604-0.555,0.604-0.605v-0.076l-0.228,0.151l-0.074-0.151c0.2-0.202,0.346-0.302,0.435-0.302l0.151,0.075
	c0.2-0.075,0.303-0.151,0.303-0.227h-0.076c-0.088,0.05-0.164,0.076-0.227,0.076V19.14c0.214-0.353,0.466-0.529,0.756-0.529
	l-0.075-0.151c0.037,0,0.289-0.17,0.756-0.51c0.391,0,0.586-0.101,0.586-0.303c-0.101,0-0.151-0.05-0.151-0.151l0.682-0.832h0.075
	c0.051,0,0.075,0.025,0.075,0.076c0.102,0,0.228-0.195,0.379-0.586c0.188-0.214,0.586-0.592,1.19-1.134v0.076
	c0.088,0,0.314-0.271,0.68-0.813c0.304-0.315,0.676-0.617,1.115-0.907c0-0.151,0.454-0.7,1.361-1.645
	c1.411-1.601,2.281-2.898,2.608-3.894c0.555-0.983,0.831-1.91,0.831-2.779V4.851c0-0.353-0.402-0.605-1.21-0.756
	c-0.126-0.088-0.92-0.265-2.382-0.529c-0.05,0-0.075,0.025-0.075,0.076c-0.542-0.063-0.869-0.113-0.982-0.151
	c-0.088,0.051-0.188,0.076-0.302,0.076c-0.103,0-0.151-0.025-0.151-0.076L236.695,3.641z M211.232,27.913v0.132h0.075
	c0.025-0.29,0.151-0.436,0.379-0.436c0-0.101-0.051-0.15-0.15-0.15C211.459,27.459,211.358,27.611,211.232,27.913z M213.633,32.771
	v0.076c-0.013,0.139-0.139,0.238-0.378,0.301l-0.075-0.15L213.633,32.771z M215.807,21.089v0.076c0.063,0,0.189-0.125,0.379-0.378
	v-0.076C216.109,20.711,215.983,20.837,215.807,21.089z M217.301,18.329v0.076c0.101,0,0.151-0.05,0.151-0.151v-0.076
	C217.351,18.19,217.301,18.241,217.301,18.329z M218.435,29.634c0,0.038-0.201,0.183-0.604,0.435v-0.075
	C217.955,29.753,218.157,29.634,218.435,29.634z M219.928,28.727h0.151c0.075,0,0.15-0.102,0.227-0.303h-0.075
	C220.143,28.424,220.041,28.525,219.928,28.727z M220.59,28.197h0.075c0.126-0.102,0.228-0.151,0.303-0.151v-0.057h-0.075
	C220.69,28.052,220.59,28.121,220.59,28.197z M222.839,28.121v0.15h0.076c0.101,0,0.15-0.049,0.15-0.15v-0.076
	C222.965,28.096,222.89,28.121,222.839,28.121z M227.036,27.762c0,0.151-0.076,0.228-0.229,0.228v0.057h0.151
	c0-0.112,0.101-0.182,0.303-0.208v-0.076H227.036z M228.832,21.921v0.151c0.101-0.051,0.176-0.076,0.227-0.076V21.92L228.832,21.921
	L228.832,21.921z M230.325,20.862h0.227v-0.151h-0.075C230.375,20.736,230.325,20.787,230.325,20.862z M232.726,18.764v0.151h0.076
	c0.101,0,0.151-0.05,0.151-0.151H232.726z M233.18,18.405c0,0.088-0.051,0.132-0.151,0.132v0.076h0.151l0.075-0.151v-0.057H233.18z
	 M240.287,11.354v0.076c0.075,0,0.15-0.076,0.227-0.227h-0.075C240.338,11.215,240.287,11.266,240.287,11.354z M240.59,10.976v0.076
	c0.062,0,0.214-0.17,0.453-0.51v-0.076C240.93,10.465,240.778,10.635,240.59,10.976z M241.78,9.029c0,0.164-0.17,0.466-0.51,0.907
	c0,0.088-0.076,0.214-0.228,0.378v0.076h0.076c0.353-0.466,0.624-0.92,0.812-1.361H241.78z M242.386,8.064V8.14h0.151V7.913
	C242.436,7.926,242.386,7.977,242.386,8.064z"/>
<path fill="#FFFFFF" d="M254.189,5.702h0.075c0.177,0.252,0.454,0.378,0.832,0.378c0,0.101,0.327,0.34,0.982,0.718l0.32-0.057
	c1.426,0.391,2.521,1.166,3.29,2.325c0.73,0.592,1.097,1.796,1.097,3.61l-0.058,0.378c0.038,0.076,0.058,0.164,0.058,0.265
	c-0.113,0-0.327,0.775-0.644,2.325l-0.643,2.061c-0.58,1.638-1.64,3.667-3.176,6.087c-1.159,1.601-2.646,3.295-4.462,5.085
	c-2.635,2.143-4.738,3.327-6.313,3.555c0,0.125-0.73,0.213-2.192,0.264c-1.789,0-3.535-1.051-5.235-3.156
	c-0.605-0.882-0.907-1.639-0.907-2.27l0.057-0.32v-0.397c0.102-0.944,0.208-1.418,0.321-1.418l-0.057-0.132
	c0.616-2.646,2.361-5.766,5.235-9.357c3.037-3.39,5.488-5.804,7.354-7.24C252.016,6.842,253.37,5.941,254.189,5.702z
	 M237.724,26.816v0.322h0.076v-0.322H237.724z M239.274,21.07l0.075,0.132c0,0.112-0.069,0.265-0.208,0.454h0.265
	c-0.088,0.139-0.132,0.265-0.132,0.378c0.604-0.757,0.907-1.354,0.907-1.796h-0.057l0.057-0.321
	C239.854,20.283,239.552,20.667,239.274,21.07z M239.804,28.045c0.265,1.676,0.756,2.516,1.475,2.516
	c3.101,0,6.288-1.783,9.564-5.351c0.062,0,0.599-0.604,1.607-1.813c1.096-1.438,2.368-3.547,3.817-6.333
	c1.121-2.772,1.684-4.858,1.684-6.257v-1.04c0-0.73-0.222-1.096-0.662-1.096c-0.14-0.038-0.354-0.057-0.644-0.057
	c-0.856,0-1.953,0.214-3.289,0.643c-1.046,0.58-3.176,2.477-6.39,5.69C242.191,20.138,239.804,24.504,239.804,28.045z
	 M240.125,21.259v0.076c0.088,0,0.132-0.044,0.132-0.132v-0.076C240.169,21.152,240.125,21.195,240.125,21.259z M240.182,19.841
	h0.132c0-0.138,0.126-0.372,0.378-0.699h-0.057C240.572,19.142,240.421,19.375,240.182,19.841z M241.6,17.838v-0.057
	c-0.101,0-0.379,0.366-0.832,1.097c-0.05,0-0.076,0.019-0.076,0.057v0.076c0.026,0.088,0.07,0.132,0.134,0.132l-0.058,0.113v0.076
	h0.058c0.15-0.113,0.517-0.655,1.097-1.625h-0.058L241.6,17.838z M241.543,17.97v0.132c0,0.063-0.063,0.126-0.189,0.189
	l-0.075-0.132L241.543,17.97z M244,15.002c0,0.139-0.107,0.265-0.321,0.378c0-0.076-0.044-0.114-0.133-0.114
	c-0.29,0.252-0.808,0.876-1.55,1.872v0.057l0.133-0.057h0.057v0.057l-0.133,0.265v0.057h0.076l2.004-2.514L244,15.002L244,15.002z
	 M246.457,12.167c0.038,0.076,0.058,0.139,0.058,0.189c-0.188,0.177-0.341,0.265-0.454,0.265l0.132-0.208h-0.074
	c-0.089,0.025-0.17,0.132-0.246,0.322c0.089,0.013,0.133,0.057,0.133,0.132c-0.063,0-0.195,0.132-0.397,0.397v0.057h0.076
	c1.728-1.702,2.734-2.564,3.024-2.59v0.132h0.075l0.245-0.189l-0.057-0.132v-0.057c0-0.076,1.033-1.046,3.101-2.911
	c0.062,0,0.491-0.303,1.285-0.908c0.518-0.265,0.775-0.435,0.775-0.51h-0.058c-1.35,0.555-3.371,2.017-6.067,4.386
	c-0.983,1.033-1.5,1.55-1.551,1.55V12.167z M248.518,11.07v0.057c0.089,0,0.133-0.044,0.133-0.132v-0.057
	C248.562,10.951,248.518,10.995,248.518,11.07z"/>
<path fill="#FFFFFF" d="M278.64,5.683c1.21,0,2.256,0.252,3.138,0.756c0.972,0.87,1.558,1.632,1.759,2.287
	c0,0.718-0.416,1.506-1.247,2.363c-0.519,0.731-1.153,1.38-1.909,1.947c-1.286,1.16-2.352,2.023-3.195,2.59
	c-0.303,0.315-1.405,1.197-3.308,2.646h0.112c0.631-0.126,1.513-0.189,2.646-0.189h0.057c1.776,0,3.024,0.649,3.743,1.947
	c0.365,0.353,0.548,0.756,0.548,1.21c0,0.92-0.982,2.187-2.948,3.8c-1.854,1.248-3.402,2.211-4.65,2.892
	c-2.482,1.336-4.864,2.502-7.146,3.498c-1.196,0.467-2.116,0.75-2.76,0.851l-0.095-0.038c-0.265,0.062-0.548,0.095-0.851,0.095
	h-0.096c-0.265-0.276-0.617-0.528-1.059-0.756c-0.012-0.076-0.163-0.157-0.453-0.246c-0.429-0.303-0.643-0.517-0.643-0.644
	c0-0.164,0.265-0.303,0.794-0.416h0.604c0.076,0,0.146,0.02,0.208,0.058c0.579-0.164,1.279-0.416,2.099-0.756
	c0.429-0.088,1.425-0.554,2.986-1.399c1.449-0.617,3.77-1.846,6.957-3.686c2.608-1.814,4.108-3.251,4.499-4.31h-0.492
	c-2.672,0-6.175,0.964-10.51,2.893c-0.454,0.276-0.788,0.416-1.002,0.416h-0.151c-0.252-0.125-0.416-0.277-0.49-0.454
	c-0.052,0-0.134-0.12-0.246-0.359c-0.189,0-0.31-0.101-0.359-0.303h-0.095c-0.415,0.63-1.499,2.502-3.251,5.614l-2.553,4.196
	c-0.188,0.303-0.341,0.485-0.453,0.549h-0.188c-0.076,0-0.146-0.02-0.208-0.058c-0.062,0.038-0.113,0.058-0.151,0.058
	c-0.024-0.127-0.177-0.291-0.454-0.492l-0.095,0.038c-0.037,0-0.188-0.114-0.453-0.341l-0.095,0.039
	c-0.038,0-0.139-0.102-0.303-0.303v-0.037c0-0.215,0.202-0.568,0.604-1.06c0-0.151,0.132-0.347,0.396-0.586l0.095,0.038
	c0-0.102,0.031-0.151,0.095-0.151l-0.038-0.095v-0.096c0.529-1.045,1.098-2.047,1.701-3.006c0.063,0,0.096-0.068,0.096-0.207
	l-0.096,0.057l-0.057-0.094l0.454-0.662c0.088,0,0.29-0.215,0.604-0.644c0.063,0.038,0.113,0.058,0.151,0.058
	c0.567-0.896,0.851-1.449,0.851-1.664c0-0.277,0.184-0.644,0.55-1.098v0.096h0.094c0.038-0.202,0.271-0.498,0.7-0.89
	c0.275-0.378,0.643-1.115,1.096-2.211c0.504-0.756,0.757-1.153,0.757-1.191c-0.038-0.063-0.057-0.114-0.057-0.151
	c0.037-0.063,0.057-0.113,0.057-0.151c-0.062,0-0.095-0.031-0.095-0.094l0.15-0.114v0.151h0.037c0-0.05,0.031-0.113,0.096-0.189
	V17.63l-0.133,0.094v-0.038c0.126-0.239,0.208-0.359,0.245-0.359c0,0.038,0.014,0.057,0.038,0.057
	c0.102-0.201,0.151-0.321,0.151-0.359l-0.095,0.057v-0.057c0.013-0.063,0.044-0.095,0.095-0.095c0,0.038,0.019,0.057,0.057,0.057
	c0.239-0.428,0.491-0.73,0.756-0.907c1.172-2.193,1.974-3.875,2.401-5.047h-0.057l-2.308,1.04h-0.095
	c-0.303-0.101-0.517-0.246-0.643-0.435c0-0.063-0.304-0.333-0.907-0.813l-0.246-0.397c0-0.138,0.668-0.521,2.004-1.153
	c0.87-0.303,1.683-0.617,2.438-0.945c0.87-0.328,1.804-0.662,2.799-1.002c0.341-0.227,0.725-0.34,1.152-0.34
	c0.556-0.277,1.121-0.447,1.701-0.51c0.214-0.088,0.579-0.201,1.097-0.34C275.577,5.973,276.598,5.821,278.64,5.683z
	 M263.535,21.277c0.013,0.063,0.044,0.095,0.095,0.095c0.062-0.177,0.145-0.321,0.246-0.435h-0.038
	C263.749,20.951,263.648,21.064,263.535,21.277z M279.792,7.875h-0.15c-1.323,0-3.995,0.649-8.016,1.947
	c-0.228,0-0.46,0.435-0.699,1.304c-1.261,2.886-2.792,5.885-4.594,8.998h0.057c1.084-0.756,1.714-1.134,1.891-1.134
	c0.062,0.025,0.113,0.038,0.151,0.038c0-0.038,0.436-0.322,1.304-0.851c0.454-0.302,0.72-0.535,0.794-0.699
	c-0.024,0-0.036-0.012-0.036-0.038c0.176,0,0.623-0.303,1.342-0.908h-0.151c0-0.05,0.082-0.132,0.246-0.246h0.113v0.095h-0.113
	v0.094l0.699-0.491v-0.057l-0.038-0.094l0.151-0.095h0.037v0.132c0.505-0.315,0.757-0.498,0.757-0.548l1.097-0.889v-0.057
	l-0.341,0.246h-0.058c0.076-0.151,0.189-0.265,0.342-0.34h0.112v0.095c0.075-0.063,0.14-0.095,0.189-0.095v-0.094l-0.151,0.094
	h-0.038c0.178-0.29,0.611-0.706,1.306-1.248c0.101-0.126,0.428-0.378,0.981-0.756h0.058v0.208c0.238-0.164,0.358-0.265,0.358-0.302
	l-0.057-0.113h0.095l-0.038-0.095V11.94c0.266-0.239,0.945-0.926,2.042-2.061c0.062,0,0.497-0.536,1.304-1.607
	c0-0.038,0.063-0.17,0.189-0.397h-0.737c-0.075,0-0.146-0.012-0.208-0.038C279.931,7.863,279.868,7.875,279.792,7.875z
	 M268.375,12.337v0.151h-0.096v0.038h0.096v0.057l-0.096,0.151v0.151h0.058c0.113-0.113,0.265-0.428,0.453-0.945l-0.113-0.057
	L268.375,12.337z M272.477,15.872h0.113c0,0.051-0.05,0.101-0.151,0.151h-0.057v-0.038C272.395,15.91,272.426,15.872,272.477,15.872
	z M273.025,15.531h0.058c0,0.062-0.032,0.095-0.096,0.095h-0.057C272.942,15.563,272.975,15.531,273.025,15.531z"/>
<path fill="#FFFFFF" d="M297.116,5.702h0.074c0.178,0.252,0.454,0.378,0.832,0.378c0,0.101,0.327,0.34,0.982,0.718l0.32-0.057
	c1.426,0.391,2.521,1.166,3.29,2.325c0.73,0.592,1.097,1.796,1.097,3.61l-0.058,0.378c0.038,0.076,0.058,0.164,0.058,0.265
	c-0.113,0-0.327,0.775-0.644,2.325l-0.643,2.061c-0.58,1.638-1.64,3.667-3.176,6.087c-1.159,1.601-2.646,3.295-4.461,5.085
	c-2.636,2.143-4.739,3.327-6.314,3.555c0,0.125-0.729,0.213-2.191,0.264c-1.789,0-3.535-1.051-5.236-3.156
	c-0.605-0.882-0.907-1.639-0.907-2.27l0.058-0.32v-0.397c0.101-0.944,0.208-1.418,0.32-1.418l-0.057-0.132
	c0.617-2.646,2.362-5.766,5.236-9.357c3.036-3.39,5.487-5.804,7.354-7.24C294.942,6.842,296.297,5.941,297.116,5.702z
	 M280.65,26.816v0.322h0.076v-0.322H280.65z M282.201,21.07l0.074,0.132c0,0.112-0.068,0.265-0.208,0.454h0.266
	c-0.088,0.139-0.132,0.265-0.132,0.378c0.604-0.757,0.906-1.354,0.906-1.796h-0.057l0.057-0.321
	C282.78,20.283,282.479,20.667,282.201,21.07z M282.73,28.045c0.266,1.676,0.756,2.516,1.476,2.516c3.1,0,6.288-1.783,9.563-5.351
	c0.063,0,0.6-0.604,1.607-1.813c1.096-1.438,2.369-3.547,3.817-6.333c1.121-2.772,1.684-4.858,1.684-6.257v-1.04
	c0-0.73-0.222-1.096-0.662-1.096c-0.14-0.038-0.354-0.057-0.644-0.057c-0.856,0-1.952,0.214-3.288,0.643
	c-1.047,0.58-3.177,2.477-6.391,5.69C285.118,20.138,282.73,24.504,282.73,28.045z M283.052,21.259v0.076
	c0.088,0,0.132-0.044,0.132-0.132v-0.076C283.096,21.152,283.052,21.195,283.052,21.259z M283.108,19.841h0.132
	c0-0.138,0.127-0.372,0.379-0.699h-0.058C283.499,19.142,283.348,19.375,283.108,19.841z M284.526,17.838v-0.057
	c-0.101,0-0.379,0.366-0.832,1.097c-0.05,0-0.075,0.019-0.075,0.057v0.076c0.025,0.088,0.069,0.132,0.133,0.132l-0.058,0.113v0.076
	h0.058c0.15-0.113,0.517-0.655,1.097-1.625h-0.057L284.526,17.838z M284.47,17.97v0.132c0,0.063-0.062,0.126-0.189,0.189
	l-0.074-0.132L284.47,17.97z M286.927,15.002c0,0.139-0.107,0.265-0.321,0.378c0-0.076-0.044-0.114-0.133-0.114
	c-0.29,0.252-0.807,0.876-1.55,1.872v0.057l0.133-0.057h0.057v0.057l-0.133,0.265v0.057h0.076l2.004-2.514L286.927,15.002
	L286.927,15.002z M289.384,12.167c0.038,0.076,0.058,0.139,0.058,0.189c-0.188,0.177-0.341,0.265-0.454,0.265l0.133-0.208h-0.075
	c-0.088,0.025-0.17,0.132-0.246,0.322c0.089,0.013,0.133,0.057,0.133,0.132c-0.062,0-0.195,0.132-0.396,0.397v0.057h0.075
	c1.728-1.702,2.734-2.564,3.024-2.59v0.132h0.075l0.246-0.189l-0.058-0.132v-0.057c0-0.076,1.033-1.046,3.102-2.911
	c0.062,0,0.49-0.303,1.285-0.908c0.517-0.265,0.774-0.435,0.774-0.51h-0.058c-1.35,0.555-3.371,2.017-6.067,4.386
	c-0.982,1.033-1.5,1.55-1.551,1.55V12.167L289.384,12.167z M291.444,11.07v0.057c0.09,0,0.134-0.044,0.134-0.132v-0.057
	C291.488,10.951,291.444,10.995,291.444,11.07z"/>
<path fill="#FFFFFF" d="M319.128,5.607v0.057l0.112-0.057c0.44,0.139,1.039,0.605,1.796,1.399V7.29
	c-0.593,1.298-1.783,3.346-3.572,6.144c0.013,0.076,0.051,0.113,0.112,0.113c0-0.062,0.107-0.138,0.321-0.227
	c0,0.038,0.021,0.057,0.057,0.057l-0.057,0.113v0.057h0.057l0.172-0.113c0.074,0.038,0.132,0.057,0.17,0.057
	c0-0.05,0.428-0.239,1.284-0.567c0.896-0.353,1.432-0.63,1.607-0.832h0.057c0.037,0,0.058,0.019,0.058,0.057
	c0.806-0.314,1.424-0.63,1.853-0.945c0.239-0.114,0.535-0.227,0.889-0.34c0-0.025,0.113-0.139,0.341-0.34
	c-0.076-0.038-0.133-0.057-0.17-0.057V10.41c0.238-0.214,0.743-0.435,1.512-0.662l-0.113,0.17v0.057
	c0.504-0.151,1.229-0.435,2.174-0.851l0.775-0.265c0.013,0.063,0.05,0.095,0.113,0.095l0.112-0.057
	c0.379,0.139,0.567,0.347,0.567,0.624c0.163,0,0.422,0.372,0.775,1.115v0.17c-0.202,0-1.098,0.391-2.686,1.172
	c-0.139,0-0.321,0.095-0.549,0.284h0.057c1.21-0.542,2.08-0.895,2.609-1.059v0.094c-1.197,0.441-2.256,0.945-3.176,1.512
	l-2.401,1.002c-0.604,0.366-1.979,1.04-4.121,2.023l-5.425,2.552V18.5c1.966,2.117,3.844,3.926,5.633,5.425
	c0.682,0.479,2.042,1.632,4.084,3.459c0.402,0.277,0.774,0.726,1.115,1.343c0.037,0,0.057,0.013,0.057,0.037l-0.112,0.283
	c-0.556,0-2.396-1.374-5.521-4.121c-0.844-0.58-2.035-1.656-3.572-3.232c0-0.062-0.743-0.882-2.229-2.458V19.18h-0.114
	c-3.995,6.327-6.843,10.769-8.544,13.327l-0.227,0.17l-0.113-0.057c-0.063,0.038-0.114,0.057-0.151,0.057
	c-0.075-0.038-0.133-0.057-0.171-0.057c0,0.063-0.075,0.139-0.227,0.228l-0.058-0.113l0.171-0.228v-0.112
	c-0.113,0-0.321-0.107-0.624-0.321c-0.113,0-0.238-0.114-0.379-0.341h-0.057c-0.062,0.039-0.139,0.058-0.227,0.058
	c-0.189-0.265-0.34-0.397-0.454-0.397v-0.17c0.644-1.108,1.242-1.959,1.796-2.552c-0.075,0-0.113-0.038-0.113-0.112l0.775-1.002
	c-0.038,0-0.058-0.02-0.058-0.058c0.163,0,0.296-0.246,0.396-0.737c0.038,0,1.248-1.896,3.63-5.689h-0.113
	c-3.062,1.537-4.682,2.527-4.857,2.968c-0.025,0-0.14,0.013-0.342,0.038c0-0.088-0.162-0.157-0.49-0.208v-0.058l0.057-0.112
	c-0.151-0.089-0.227-0.239-0.227-0.454h-0.34c-0.038,0-0.134-0.126-0.284-0.378c-0.29,0-0.436-0.132-0.436-0.397
	c-0.15-0.076-0.227-0.17-0.227-0.283c0-0.203,0.521-0.631,1.567-1.287c3.113-1.664,5.287-2.779,6.522-3.346
	c0.844-0.403,1.386-0.7,1.625-0.889v-0.113h-0.057c-0.228,0.076-0.341,0.151-0.341,0.228h-0.057c-0.076,0-0.113-0.038-0.113-0.114
	c0.239-0.101,0.371-0.195,0.396-0.283c-0.266-0.214-0.617-0.662-1.06-1.342c-0.062,0-0.194-0.126-0.396-0.378
	c0.05,0,0.183-0.076,0.396-0.227l0.113,0.057c0.063-0.038,0.133-0.057,0.208-0.057c0.466,0.403,0.989,0.939,1.569,1.607h0.057
	l1.115-1.55c0.164-0.113,0.46-0.542,0.889-1.286c0.604-0.819,1.128-1.638,1.568-2.457c0.177-0.177,0.883-1.311,2.117-3.403v-0.17
	l-0.113,0.057V7.119c0.479-0.592,0.794-1.021,0.945-1.285v-0.17L319.128,5.607z M315.838,17.384v0.057h0.057
	c0.076-0.038,0.133-0.057,0.171-0.057v-0.057h-0.057C315.933,17.365,315.876,17.384,315.838,17.384z M316.291,17.157v0.057h0.171
	c0-0.076,0.088-0.126,0.265-0.151V16.95C316.525,17.088,316.38,17.157,316.291,17.157z M316.84,16.893v0.057h0.112
	c0.076-0.038,0.134-0.057,0.171-0.057V16.78h-0.057C316.979,16.854,316.903,16.893,316.84,16.893z M317.181,13.868v0.113
	c0.15-0.05,0.227-0.107,0.227-0.17v-0.057C317.319,13.83,317.242,13.868,317.181,13.868z M317.181,16.722v0.057h0.113
	c0.074-0.038,0.132-0.057,0.17-0.057v-0.113C317.363,16.685,317.269,16.722,317.181,16.722z M317.464,13.641
	c0.013,0.076,0.051,0.113,0.112,0.113h0.096c0-0.076-0.031-0.113-0.096-0.113H317.464z M317.576,8.461
	c0.038,0,0.164-0.189,0.378-0.567V7.838h-0.057C317.836,7.838,317.729,8.045,317.576,8.461z M317.576,16.552v0.057h0.096
	c0.454-0.227,0.681-0.359,0.681-0.397h-0.057C317.88,16.439,317.641,16.552,317.576,16.552z M318.408,16.155v0.057h0.17
	c0-0.088,0.089-0.145,0.266-0.17v-0.114C318.616,16.08,318.472,16.155,318.408,16.155z M319.298,15.721v0.057h0.112
	c0.378-0.176,0.567-0.29,0.567-0.34h-0.057C319.594,15.626,319.386,15.721,319.298,15.721z M320.3,15.324h0.057
	c0.555-0.303,0.889-0.454,1.002-0.454v-0.113h-0.057C320.633,15.097,320.3,15.286,320.3,15.324z M321.414,14.719v0.038h0.113
	c0.491-0.201,0.737-0.328,0.737-0.378h-0.113C321.736,14.605,321.49,14.719,321.414,14.719z M322.474,14.208v0.057h0.113
	c0.227-0.088,0.34-0.164,0.34-0.227h-0.058C322.682,14.151,322.549,14.208,322.474,14.208z M322.983,14.038h0.059
	c0.074,0,0.112-0.038,0.112-0.113h-0.057C323.021,13.938,322.983,13.975,322.983,14.038z M323.211,13.868v0.057h0.112
	c0.819-0.403,1.279-0.605,1.38-0.605v-0.114h-0.037L323.211,13.868z M324.761,13.206h0.112c0.178-0.125,0.512-0.277,1.003-0.454
	v-0.057h-0.096C325.151,12.973,324.811,13.144,324.761,13.206z M324.987,10.182v0.057h0.058c0.075-0.038,0.133-0.057,0.171-0.057
	v-0.057h-0.058C325.081,10.163,325.025,10.182,324.987,10.182z M325.838,11.032h0.038c0.075,0,0.112-0.038,0.112-0.113h-0.057
	C325.868,10.932,325.838,10.969,325.838,11.032z M326.329,12.412v0.114h0.058c0.15-0.05,0.227-0.101,0.227-0.151H326.5
	C326.424,12.4,326.366,12.412,326.329,12.412z M326.67,12.375h0.17v-0.113h-0.058C326.707,12.274,326.67,12.312,326.67,12.375z"/>
<path fill="#FFFFFF" d="M339.779,5.664c0.252,0.038,0.378,0.101,0.378,0.189c0.075-0.038,0.14-0.057,0.188-0.057
	c0.654,0.227,1.196,0.624,1.626,1.191c-0.731,0.769-1.354,1.727-1.871,2.874c-5.798,9.401-8.696,14.298-8.696,14.688
	c-1.084,2.471-1.625,4.115-1.625,4.934v0.189c0,0.051-0.02,0.076-0.057,0.076c0,0.038,0.019,0.057,0.057,0.057
	c0,0.038-0.02,0.102-0.057,0.189c0.023,0.492,0.088,0.736,0.188,0.736c0.63-0.112,1.922-0.881,3.875-2.306
	c0.076,0.038,0.14,0.058,0.189,0.058l0.113-0.17c-0.038-0.088-0.058-0.151-0.058-0.189c0.743-0.605,1.449-1.354,2.117-2.25
	c1.588-1.537,2.672-2.665,3.251-3.384h0.265v-0.058h-0.132V22.3c0.025,0,0.106-0.019,0.246-0.057c0,0.063,0.062,0.126,0.188,0.188
	c0.944-1.033,1.966-2.262,3.062-3.686c0.378-0.416,0.73-0.895,1.06-1.437h-0.058c-0.113,0.202-0.195,0.302-0.246,0.302
	c0-0.038-0.019-0.057-0.057-0.057c0.024-0.164,0.44-0.668,1.248-1.512h0.057l-0.624,0.888h0.058c1.059-1.222,2.747-3.289,5.065-6.2
	c0.555-0.794,0.951-1.273,1.191-1.437v0.075l-2.439,3.365v0.057c0.202-0.038,0.366-0.183,0.492-0.435
	c0.075,0,0.497-0.435,1.267-1.304l0.245-0.189l0.058,0.132c-0.037,0.063-0.058,0.145-0.058,0.246h0.058
	c0.391-0.265,0.644-0.536,0.757-0.813v-0.075h-0.076l-0.245,0.189h-0.057c-0.089,0-0.133-0.038-0.133-0.114l0.889-1.134h0.057
	c0.088,0.013,0.132,0.057,0.132,0.132c0.366-0.151,0.573-0.322,0.624-0.511c0.594-0.667,0.983-1.002,1.173-1.002
	c0.051,0.076,0.075,0.164,0.075,0.265c0.126-0.088,0.228-0.132,0.303-0.132l0.075,0.132v0.057c-0.126,0-0.188,0.044-0.188,0.132
	c0.038,0,0.101,0.019,0.188,0.057c0-0.126,0.082-0.189,0.246-0.189v0.057c-0.265,0.68-1.059,1.827-2.382,3.44
	c-0.58,0.907-2.603,3.472-6.067,7.694c-1.941,2.571-4.669,5.696-8.187,9.376c-2.722,2.458-4.556,3.686-5.501,3.686
	c0,0.052-0.188,0.115-0.566,0.189h-1.115c-1.298-0.402-1.946-0.8-1.946-1.191c-0.492-0.139-0.863-0.428-1.116-0.869
	c-0.252-0.655-0.378-1.053-0.378-1.191c0.051-0.504,0.095-0.794,0.133-0.869c-0.051-0.076-0.075-0.158-0.075-0.246
	c0.062,0,0.188-0.459,0.378-1.381l0.133-0.076c0.038,0.088,0.057,0.151,0.057,0.189c-0.088,0.139-0.132,0.246-0.132,0.32v0.058
	h0.075c0.517-1.864,1.809-4.575,3.875-8.128c0.529-0.945,2.048-3.466,4.556-7.562c0-0.025,0.542-0.939,1.626-2.741v-0.13h-0.112
	V8.802c0.453-1.071,0.763-1.613,0.926-1.625V7.29c0.631-0.87,1.07-1.411,1.322-1.626H339.779z M328.908,24.927
	c0,0.063-0.044,0.146-0.132,0.246v0.058h0.132c0-0.088,0.021-0.17,0.058-0.246v-0.058H328.908z M329.099,24.548v0.058h0.057
	c0.579-1.261,0.978-2.011,1.19-2.25c-0.037-0.075-0.058-0.139-0.058-0.189l0.246-0.246c-0.051-0.076-0.075-0.139-0.075-0.189
	c-0.163,0-0.453,0.479-0.869,1.438c-0.202,0.378-0.348,0.794-0.436,1.248C329.116,24.416,329.099,24.46,329.099,24.548z
	 M330.534,21.43c0,0.037-0.024,0.101-0.075,0.188h0.075c0.075,0,0.113-0.044,0.113-0.132L330.534,21.43z M330.97,20.806h0.057
	c0.063-0.013,0.208-0.22,0.436-0.624h-0.058C331.253,20.27,331.108,20.478,330.97,20.806z M331.158,19.104h0.113v0.189h-0.113
	V19.104z M333.087,15.985v0.057c0,0.088-0.038,0.132-0.113,0.132h-0.075C332.898,16.111,332.961,16.048,333.087,15.985z
	 M333.276,28.934v0.058c0.088-0.038,0.151-0.058,0.188-0.058v-0.132h-0.058C333.32,28.814,333.276,28.857,333.276,28.934z
	 M334.354,15.04v0.076c0.013,0.076,0.05,0.113,0.113,0.113l0.057-0.113V15.04H334.354z M334.523,14.87v0.114
	c0.429-0.378,0.644-0.687,0.644-0.926c0.528-0.769,0.794-1.21,0.794-1.323h-0.058C335.701,12.96,335.241,13.673,334.523,14.87z
	 M337.341,8.991v0.057c-0.038,0.076-0.059,0.139-0.059,0.189h-0.132V9.18C337.151,9.117,337.214,9.054,337.341,8.991z
	 M339.854,23.055v0.113c0.013,0,0.177-0.184,0.491-0.548v-0.075C340.309,22.545,340.145,22.715,339.854,23.055z M340.592,22.167
	l-0.189,0.265v0.058c0.089-0.013,0.177-0.12,0.266-0.321L340.592,22.167L340.592,22.167z M340.912,21.864h0.113
	c0-0.113,0.126-0.239,0.378-0.378c0-0.038,0.021-0.102,0.058-0.189h-0.058C341.127,21.537,340.963,21.727,340.912,21.864z
	 M341.536,21.107v0.076h0.113l0.889-1.134h-0.133C342.078,20.377,341.788,20.73,341.536,21.107z M342.974,19.369
	c0,0.088-0.063,0.17-0.189,0.246h-0.057v0.057h0.113l0.188-0.246v-0.057H342.974z M343.352,18.858v0.057h0.113
	c0-0.063,0.171-0.29,0.511-0.68v-0.114C343.911,18.121,343.703,18.367,343.352,18.858z M345.165,16.609v0.057
	c0.076,0,0.114-0.038,0.114-0.113v-0.057C345.203,16.508,345.165,16.546,345.165,16.609z M345.411,15.55v0.057
	c0,0.088-0.044,0.132-0.132,0.132v-0.057C345.291,15.595,345.337,15.55,345.411,15.55z M345.525,16.174v0.057
	c0.328-0.34,0.599-0.567,0.813-0.681c0.088-0.29,0.446-0.706,1.076-1.248l1.002-1.38v-0.057c-0.341,0-0.944,0.668-1.813,2.003
	L345.525,16.174z M350.044,11.486v0.057c0.074-0.038,0.132-0.057,0.17-0.057v-0.189C350.162,11.297,350.106,11.36,350.044,11.486z"
	/>
<path fill="#FFFFFF" d="M350.147,29.559l1.55-1.589c0.189-0.177,0.372-0.265,0.548-0.265c0.164,0,0.359,0.102,0.587,0.302
	l1.513,1.626c0.15,0.202,0.227,0.385,0.227,0.549c0,0.188-0.088,0.385-0.265,0.586l-1.512,1.664
	c-0.253,0.252-0.436,0.377-0.55,0.377c-0.2,0-0.384-0.088-0.548-0.265l-1.663-1.91c-0.126-0.163-0.188-0.327-0.188-0.491
	C349.845,29.955,349.945,29.76,350.147,29.559z"/>
</svg>
