<?xml version="1.0" encoding="utf-8"?>
<!-- Generator: Adobe Illustrator 15.1.0, SVG Export Plug-In . SVG Version: 6.00 Build 0)  -->
<!DOCTYPE svg PUBLIC "-//W3C//DTD SVG 1.1//EN" "http://www.w3.org/Graphics/SVG/1.1/DTD/svg11.dtd">
<svg version="1.1" id="レイヤー_1" xmlns="http://www.w3.org/2000/svg" xmlns:xlink="http://www.w3.org/1999/xlink" x="0px"
	 y="0px" width="100px" height="100px" viewBox="0 0 100 100" enable-background="new 0 0 100 100" xml:space="preserve">
<g id="レイヤー_2">
</g>
<g id="レイヤー_3" display="none">
	<polygon display="inline" fill="#231815" points="99.5,70.624 58.25,29.375 50.002,21.125 41.752,29.375 0.5,70.624 8.752,78.875 
		50.002,37.625 91.25,78.875 	"/>
</g>
<g id="レイヤー_4" display="none">
	<path display="inline" fill="#231815" d="M67.566,90.965c0-31.554-25.508-57.218-56.872-57.218v-13.53
		c38.847,0,70.438,31.711,70.438,70.748H67.566z M43.608,90.93c0-8.844-3.44-17.199-9.633-23.437
		c-6.237-6.229-14.511-9.671-23.317-9.671V44.257c25.657,0,46.517,20.933,46.517,46.671H43.608V90.93z M20.07,90.893
		c-5.219,0-9.412-4.236-9.412-9.412c0-5.181,4.192-9.373,9.412-9.373c5.173,0,9.366,4.192,9.366,9.373
		C29.436,86.654,25.243,90.893,20.07,90.893z M0,0v100h99.993V0H0z"/>
</g>
<g id="レイヤー_5" display="none">
	<g display="inline">
		<path fill="#231815" d="M70.503,50.57c0,10.968-9.151,19.851-20.466,19.851c-11.316,0-20.462-8.883-20.462-19.851
			c0-1.935,0.304-3.833,0.834-5.657h-6.036v27.829c0,1.439,1.18,2.617,2.618,2.617h45.825c1.481,0,2.66-1.178,2.66-2.617V44.913
			h-5.812C70.197,46.737,70.503,48.636,70.503,50.57z"/>
		<path fill="#231815" d="M50.037,62.68c7.289,0,13.214-5.732,13.214-12.834c0-7.06-5.925-12.792-13.214-12.792
			s-13.214,5.732-13.214,12.792C36.823,56.947,42.748,62.68,50.037,62.68z"/>
		<path fill="#231815" d="M82.916,74.484c0,4.635-3.834,8.432-8.469,8.432H25.516c-4.671,0-8.468-3.797-8.468-8.432V25.553
			c0-4.672,3.797-8.468,8.468-8.468h48.933c4.634,0,8.468,3.796,8.468,8.468L82.916,74.484L82.916,74.484z M0,0v100h99.963V0H0z"/>
		<path fill="#231815" d="M65.038,37.432h7.399c1.668,0,3.004-1.327,3.004-2.996V27.37c0-1.631-1.336-2.996-3.004-2.996h-7.399
			c-1.677,0-3.003,1.365-3.003,2.996v7.066C62.035,36.104,63.361,37.432,65.038,37.432z"/>
	</g>
</g>
<g id="レイヤー_6" display="none">
	<path display="inline" fill="#231815" d="M0,0v100h58.182V59.857H44.985V44.561h13.197v-11.29c0-13.123,8.014-20.224,19.688-20.224
		c5.609,0,10.417,0.425,11.824,0.611v13.659h-8.121c-6.334,0-7.594,3.018-7.594,7.481v9.762h15.187L87.18,59.857H73.98V100h25.982V0
		H0z"/>
</g>
<g id="レイヤー_7" display="none">
	<g display="inline">
		<rect x="55.561" y="0.125" fill="#231815" width="44.314" height="44.315"/>
		<rect x="0.125" y="0.125" fill="#231815" width="44.322" height="44.315"/>
		<rect x="55.561" y="55.561" fill="#231815" width="44.314" height="44.314"/>
		<rect x="0.125" y="55.561" fill="#231815" width="44.322" height="44.314"/>
	</g>
</g>
<g id="レイヤー_8" display="none">
	<path display="inline" fill="#231815" d="M50.116,30.392c-11.048,0-19.999,8.676-19.999,19.372
		c0,10.734,8.951,19.411,19.999,19.411c11.055,0,20.006-8.677,20.006-19.411C70.122,39.068,61.171,30.392,50.116,30.392z
		 M88.581,42.314h-8.757c0.835,2.696,1.269,5.585,1.269,8.556c0,16.56-13.864,29.985-30.977,29.985
		c-17.105,0-30.969-13.426-30.969-29.985c0-2.971,0.433-5.86,1.261-8.556h-9.145v42.071c0,2.217,1.78,3.961,3.961,3.961H84.62
		c2.183,0,3.961-1.744,3.961-3.961V42.314z M72.775,11.222c-2.453,0-4.479,2.019-4.479,4.518v10.73c0,2.46,2.025,4.479,4.479,4.479
		h11.287c2.461,0,4.479-2.02,4.479-4.479V15.74c0-2.499-2.021-4.518-4.479-4.518H72.775z M12.966,0.17h74.068
		c7.056,0,12.796,5.744,12.796,12.796v74.072c0,7.009-5.74,12.792-12.796,12.792H12.966c-7.009,0-12.796-5.783-12.796-12.792V12.966
		C0.17,5.914,5.957,0.17,12.966,0.17z"/>
</g>
<g id="レイヤー_9" display="none">
	<g display="inline">
		<path fill="#231815" d="M50.202,60.807c6.35,0,11.491-4.893,11.491-10.919c0-6.052-5.143-10.942-11.491-10.942
			c-6.346,0-11.465,4.891-11.465,10.942C38.737,55.914,43.856,60.807,50.202,60.807z"/>
		<path fill="#231815" d="M63.218,39.262h6.462c1.412,0,2.571-1.137,2.571-2.525v-6.053c0-1.387-1.159-2.523-2.571-2.523h-6.462
			c-1.436,0-2.573,1.137-2.573,2.523v6.053C60.645,38.125,61.782,39.262,63.218,39.262z"/>
		<path fill="#231815" d="M78.734,70.861c0,3.982-3.303,7.213-7.351,7.213H28.908c-4.025,0-7.35-3.23-7.35-7.213V29.138
			c0-3.981,3.324-7.212,7.35-7.212h42.477c4.049,0,7.35,3.229,7.35,7.212V70.861L78.734,70.861z M49.998,1.085
			C22.492,1.085,0.221,22.996,0.221,50c0,27.006,22.271,48.915,49.777,48.915c27.482,0,49.781-21.909,49.781-48.915
			C99.779,22.996,77.48,1.085,49.998,1.085z"/>
		<path fill="#231815" d="M67.973,50.502c0,9.327-7.964,16.902-17.771,16.902c-9.803,0-17.766-7.575-17.766-16.902
			c0-1.684,0.249-3.302,0.725-4.825h-5.23v23.706c0,1.23,1.022,2.23,2.275,2.23h39.792c1.249,0,2.275-1,2.275-2.23V45.677h-5.03
			C67.725,47.2,67.973,48.818,67.973,50.502z"/>
	</g>
</g>
<g>
	<path d="M-185.333,13.333c-20.251,0-36.667,16.416-36.667,36.666c0,20.252,16.416,36.668,36.667,36.668
		c20.25,0,36.667-16.416,36.667-36.668C-148.666,29.749-165.083,13.333-185.333,13.333z M-172.252,35.574h-4.143
		c-3.24,0-3.871,1.52-3.871,3.737v4.907h7.731l-1.007,7.679h-6.724v19.695h-8.067V51.897h-6.75v-7.679h6.75V38.56
		c0-6.576,4.086-10.153,10.043-10.153c2.864,0,5.324,0.202,6.037,0.298V35.574z"/>
</g>
<g>
	<path d="M-324.471,38.251c-0.361-0.93-0.793-1.594-1.49-2.291c-0.696-0.697-1.36-1.129-2.29-1.49
		c-0.702-0.272-1.757-0.597-3.699-0.686c-2.101-0.096-2.73-0.116-8.05-0.116c-5.318,0-5.949,0.021-8.05,0.116
		c-1.941,0.089-2.997,0.413-3.698,0.686c-0.93,0.361-1.594,0.793-2.291,1.49s-1.129,1.361-1.49,2.291
		c-0.272,0.701-0.597,1.757-0.686,3.698c-0.096,2.101-0.116,2.731-0.116,8.05c0,5.319,0.021,5.949,0.116,8.05
		c0.089,1.942,0.413,2.997,0.686,3.699c0.361,0.93,0.793,1.594,1.49,2.29c0.697,0.697,1.361,1.129,2.291,1.49
		c0.701,0.273,1.757,0.598,3.698,0.687c2.101,0.096,2.73,0.116,8.05,0.116s5.949-0.021,8.05-0.116
		c1.942-0.089,2.997-0.413,3.699-0.687c0.93-0.361,1.594-0.793,2.29-1.49c0.697-0.696,1.129-1.36,1.49-2.29
		c0.273-0.702,0.598-1.757,0.687-3.699c0.096-2.101,0.116-2.73,0.116-8.05c0-5.318-0.021-5.949-0.116-8.05
		C-323.873,40.008-324.197,38.952-324.471,38.251z M-340,60.229c-5.649,0-10.229-4.58-10.229-10.229S-345.649,39.77-340,39.77
		s10.229,4.58,10.229,10.229S-334.351,60.229-340,60.229z M-329.366,41.756c-1.32,0-2.391-1.07-2.391-2.391s1.07-2.39,2.391-2.39
		s2.391,1.069,2.391,2.39S-328.046,41.756-329.366,41.756z"/>
	<circle cx="-340" cy="50" r="6.64"/>
	<path d="M-340,13.333c-20.251,0-36.667,16.416-36.667,36.666c0,20.252,16.416,36.668,36.667,36.668
		c20.25,0,36.667-16.416,36.667-36.668C-303.333,29.749-319.75,13.333-340,13.333z M-320.199,58.213
		c-0.097,2.12-0.434,3.568-0.926,4.835c-0.509,1.311-1.19,2.421-2.298,3.528s-2.218,1.789-3.528,2.298
		c-1.267,0.492-2.715,0.829-4.835,0.926c-2.125,0.098-2.804,0.12-8.214,0.12s-6.088-0.022-8.213-0.12
		c-2.12-0.097-3.568-0.434-4.836-0.926c-1.31-0.509-2.421-1.19-3.528-2.298s-1.788-2.218-2.298-3.528
		c-0.492-1.267-0.829-2.715-0.926-4.835c-0.097-2.125-0.119-2.804-0.119-8.214s0.022-6.088,0.119-8.213
		c0.097-2.12,0.434-3.568,0.926-4.836c0.51-1.31,1.19-2.421,2.298-3.528s2.219-1.788,3.528-2.298
		c1.268-0.492,2.716-0.829,4.836-0.926c2.125-0.097,2.803-0.119,8.213-0.119s6.089,0.022,8.214,0.119
		c2.12,0.097,3.568,0.434,4.835,0.926c1.311,0.51,2.421,1.19,3.528,2.298s1.789,2.219,2.298,3.528
		c0.492,1.268,0.829,2.716,0.926,4.836c0.098,2.125,0.12,2.803,0.12,8.213S-320.102,56.088-320.199,58.213z"/>
</g>
<g>
	<path fill="#FFFFFF" d="M50,13.333c-20.251,0-36.667,16.416-36.667,36.666c0,20.252,16.416,36.668,36.667,36.668
		c20.25,0,36.667-16.416,36.667-36.668C86.667,29.749,70.25,13.333,50,13.333z M65.918,43.068l0.018,1.056
		c0,10.914-8.266,23.481-23.357,23.481c-4.643,0-8.956-1.385-12.58-3.708c0.634,0.077,1.304,0.116,1.956,0.116
		c3.854,0,7.383-1.329,10.202-3.538c-3.604-0.056-6.636-2.438-7.671-5.725c0.498,0.097,1.017,0.154,1.535,0.154
		c0.748,0,1.476-0.114,2.168-0.287c-3.761-0.769-6.58-4.094-6.58-8.091v-0.114c1.112,0.611,2.359,0.999,3.721,1.037
		c-2.205-1.48-3.663-3.998-3.663-6.861c0-1.518,0.403-2.919,1.112-4.15c4.046,4.997,10.106,8.283,16.914,8.628
		c-0.135-0.615-0.211-1.25-0.211-1.885c0-4.552,3.684-8.24,8.209-8.24c2.358,0,4.506,0.998,6.002,2.593
		c1.86-0.364,3.625-1.057,5.196-1.999c-0.592,1.922-1.896,3.534-3.605,4.555c1.668-0.191,3.241-0.635,4.719-1.287
		C68.906,40.453,67.508,41.895,65.918,43.068z"/>
</g>
<circle fill="#3E3A39" cx="-44.833" cy="369" r="36.667"/>
<circle fill="#3E3A39" cx="48.5" cy="369" r="36.667"/>
<g>
	<path fill="#3E3A39" d="M-47.627,358.062v5.411h-6.455v7.343h6.455v18.833h7.714v-18.833h6.429l0.963-7.343h-7.393v-4.692
		c0-2.12,0.604-3.573,3.702-3.573h3.961v-6.569c-0.682-0.092-3.034-0.284-5.773-0.284C-43.72,348.354-47.627,351.773-47.627,358.062
		z"/>
</g>
<g>
	<path fill="#3E3A39" d="M48.5,352.669c5.319,0,5.949,0.021,8.05,0.116c1.942,0.089,2.997,0.413,3.699,0.686
		c0.93,0.361,1.594,0.793,2.29,1.49c0.697,0.697,1.129,1.361,1.49,2.291c0.273,0.701,0.598,1.757,0.687,3.698
		c0.096,2.101,0.116,2.731,0.116,8.05c0,5.319-0.021,5.949-0.116,8.05c-0.089,1.942-0.413,2.997-0.687,3.699
		c-0.361,0.93-0.793,1.594-1.49,2.29c-0.696,0.697-1.36,1.129-2.29,1.49c-0.702,0.273-1.757,0.598-3.699,0.687
		c-2.101,0.096-2.73,0.116-8.05,0.116s-5.949-0.021-8.05-0.116c-1.941-0.089-2.997-0.413-3.698-0.687
		c-0.93-0.361-1.594-0.793-2.291-1.49c-0.697-0.696-1.129-1.36-1.49-2.29c-0.272-0.702-0.597-1.757-0.686-3.699
		c-0.096-2.101-0.116-2.73-0.116-8.05c0-5.318,0.021-5.949,0.116-8.05c0.089-1.941,0.413-2.997,0.686-3.698
		c0.361-0.93,0.793-1.594,1.49-2.291s1.361-1.129,2.291-1.49c0.701-0.272,1.757-0.597,3.698-0.686
		C42.551,352.689,43.182,352.669,48.5,352.669 M48.5,349.08c-5.41,0-6.088,0.022-8.213,0.119c-2.12,0.097-3.568,0.434-4.836,0.926
		c-1.31,0.51-2.421,1.19-3.528,2.298s-1.788,2.219-2.298,3.528c-0.492,1.268-0.829,2.716-0.926,4.836
		c-0.097,2.125-0.119,2.803-0.119,8.213s0.022,6.089,0.119,8.214c0.097,2.12,0.434,3.568,0.926,4.835
		c0.51,1.311,1.19,2.421,2.298,3.528s2.219,1.789,3.528,2.298c1.268,0.492,2.716,0.829,4.836,0.926
		c2.125,0.098,2.803,0.12,8.213,0.12s6.089-0.022,8.214-0.12c2.12-0.097,3.568-0.434,4.835-0.926
		c1.311-0.509,2.421-1.19,3.528-2.298s1.789-2.218,2.298-3.528c0.492-1.267,0.829-2.715,0.926-4.835
		c0.098-2.125,0.12-2.804,0.12-8.214s-0.022-6.088-0.12-8.213c-0.097-2.12-0.434-3.568-0.926-4.836
		c-0.509-1.31-1.19-2.421-2.298-3.528s-2.218-1.788-3.528-2.298c-1.267-0.492-2.715-0.829-4.835-0.926
		C54.589,349.103,53.91,349.08,48.5,349.08L48.5,349.08z"/>
	<path fill="#3E3A39" d="M48.5,358.771c-5.649,0-10.229,4.58-10.229,10.229s4.58,10.229,10.229,10.229s10.229-4.58,10.229-10.229
		S54.149,358.771,48.5,358.771z M48.5,375.641c-3.667,0-6.64-2.973-6.64-6.641c0-3.667,2.973-6.64,6.64-6.64
		c3.668,0,6.641,2.973,6.641,6.64C55.141,372.668,52.168,375.641,48.5,375.641z"/>
	<circle fill="#3E3A39" cx="59.134" cy="358.366" r="2.391"/>
</g>
<circle fill="#3E3A39" cx="140.167" cy="369" r="36.667"/>
<g>
	<path fill="#3E3A39" d="M120.165,382.898c3.624,2.323,7.938,3.708,12.58,3.708c15.092,0,23.357-12.567,23.357-23.481l-0.018-1.056
		c1.59-1.174,2.988-2.615,4.084-4.266c-1.478,0.652-3.051,1.096-4.719,1.287c1.71-1.021,3.014-2.633,3.605-4.555
		c-1.571,0.942-3.336,1.635-5.196,1.999c-1.496-1.595-3.644-2.593-6.002-2.593c-4.525,0-8.209,3.688-8.209,8.24
		c0,0.635,0.076,1.27,0.211,1.885c-6.808-0.345-12.868-3.631-16.914-8.628c-0.709,1.231-1.112,2.633-1.112,4.15
		c0,2.863,1.458,5.381,3.663,6.861c-1.361-0.038-2.608-0.426-3.721-1.037v0.114c0,3.997,2.819,7.322,6.58,8.091
		c-0.692,0.173-1.42,0.287-2.168,0.287c-0.519,0-1.037-0.058-1.535-0.154c1.035,3.286,4.066,5.669,7.671,5.725
		c-2.819,2.209-6.348,3.538-10.202,3.538C121.469,383.015,120.799,382.976,120.165,382.898z"/>
</g>
<g id="レイヤー_12_1_">
	<path fill="#3E3A39" d="M230.249,392.288c-2.269,0-4.475-0.326-6.557-0.937c0.877-1.411,1.839-3.188,2.329-4.984
		c0.286-1.023,1.633-6.375,1.633-6.375c0.798,1.552,3.147,2.901,5.64,2.901c7.434,0,12.481-6.803,12.481-15.892
		c0-6.887-5.802-13.278-14.627-13.278c-10.989,0-16.528,7.884-16.528,14.482c0,3.982,1.491,7.537,4.721,8.847
		c0.531,0.223,1.001,0.019,1.164-0.572l0.47-1.859c0.164-0.593,0.102-0.797-0.325-1.287c-0.94-1.103-1.532-2.532-1.532-4.557
		c0-5.861,4.371-11.092,11.377-11.092c6.212,0,9.623,3.797,9.623,8.865c0,6.701-2.944,12.339-7.334,12.339
		c-2.411,0-4.208-2.001-3.638-4.476c0.694-2.939,2.043-6.104,2.043-8.23c0-1.879-1.021-3.473-3.124-3.473
		c-2.474,0-4.456,2.573-4.456,6.006c0,2.186,0.737,3.655,0.737,3.655l-2.981,12.645c-0.411,1.759-0.451,3.698-0.39,5.333
		c-8.148-3.595-13.852-11.746-13.852-21.246c0-12.807,10.358-23.185,23.126-23.185s23.124,10.378,23.124,23.185
		C253.373,381.911,243.017,392.288,230.249,392.288z M230.249,332.334c-20.244,0-36.665,16.466-36.665,36.77
		c0,20.305,16.421,36.771,36.665,36.771c20.243,0,36.667-16.466,36.667-36.771C266.916,348.8,250.492,332.334,230.249,332.334z"/>
</g>
</svg>
