<?xml version="1.0" encoding="utf-8"?>
<!-- Generator: Adobe Illustrator 22.0.1, SVG Export Plug-In . SVG Version: 6.00 Build 0)  -->
<svg version="1.1" id="レイヤー_1" xmlns="http://www.w3.org/2000/svg" xmlns:xlink="http://www.w3.org/1999/xlink" x="0px"
	 y="0px" viewBox="0 0 25 20" style="enable-background:new 0 0 25 20;" xml:space="preserve">
<style type="text/css">
	.st0{fill:#595757;}
</style>
<title>Fill 1@2x</title>
<desc>Created with Sketch.</desc>
<g id="Mobile" transform="translate(-275.000000, -20.000000)">
	<g id="header" transform="translate(-1.000000, 0.000000)">
		<path id="Fill-1" class="st0" d="M299.2,36.2c-1.1-1-2.7-1.9-4.9-1.9c-2.1,0-3.8,1-4.8,1.9V24.7c0.2-0.3,0.6-0.9,1.2-1.4
			c0.8-0.7,2-1.4,3.6-1.4c1.6,0,2.9,0.7,3.8,1.5c0.4,0.4,0.8,0.8,1,1.1c0.1,0.1,0.1,0.2,0.2,0.3V36.2z M282.7,34.3L282.7,34.3
			c-2.1,0-3.8,1-4.8,1.9V24.7c0.2-0.3,0.6-0.9,1.2-1.4c0.9-0.7,2-1.4,3.6-1.4c1.6,0,2.9,0.7,3.8,1.5c0.4,0.4,0.8,0.8,1,1.1
			c0.1,0.1,0.1,0.2,0.2,0.3v11.5C286.5,35.2,284.8,34.3,282.7,34.3z M300.9,23.9c0-0.1-0.6-1-1.7-2c-1.1-1-2.8-2-5-2
			c-2.2,0-3.9,1-4.9,2c-0.3,0.3-0.6,0.6-0.8,0.9c-0.2-0.3-0.5-0.6-0.9-0.9c-1.1-1-2.8-2-5-2c-2.2,0-3.9,1-4.9,2
			c-1.1,1-1.6,1.9-1.6,2l-0.1,0.4v14.3l1.7,0.4l0,0c0,0,0.5-0.8,1.3-1.6c0.9-0.7,2-1.4,3.6-1.4c1.6,0,2.9,0.7,3.8,1.5
			c0.4,0.4,0.8,0.8,1,1.1c0.1,0.1,0.2,0.3,0.2,0.3c0,0,0,0.1,0.1,0.1c0,0,0,0,0,0h0c0.2,0.3,0.5,0.5,0.8,0.5c0.3,0,0.6-0.2,0.8-0.5
			c0,0,0,0,0,0c0-0.1,0.5-0.8,1.3-1.6c0.8-0.7,2-1.4,3.6-1.4c1.6,0,2.9,0.7,3.8,1.5c0.4,0.4,0.8,0.8,1,1.1c0.1,0.1,0.2,0.3,0.2,0.3
			c0,0,0,0.1,0.1,0.1c0,0,0,0,0,0h0l1.7-0.5V24.4L300.9,23.9z"/>
	</g>
</g>
</svg>
