<?xml version="1.0" encoding="utf-8"?>
<!-- Generator: Adobe Illustrator 15.1.0, SVG Export Plug-In . SVG Version: 6.00 Build 0)  -->
<!DOCTYPE svg PUBLIC "-//W3C//DTD SVG 1.1//EN" "http://www.w3.org/Graphics/SVG/1.1/DTD/svg11.dtd">
<svg version="1.1" id="レイヤー_1" xmlns="http://www.w3.org/2000/svg" xmlns:xlink="http://www.w3.org/1999/xlink" x="0px"
	 y="0px" width="100px" height="100px" viewBox="0 0 100 100" enable-background="new 0 0 100 100" xml:space="preserve">
<g id="レイヤー_2">
</g>
<g id="レイヤー_3" display="none">
	<polygon display="inline" fill="#231815" points="99.5,70.624 58.25,29.375 50.002,21.125 41.752,29.375 0.5,70.624 8.752,78.875 
		50.002,37.625 91.25,78.875 	"/>
</g>
<g id="レイヤー_4" display="none">
	<path display="inline" fill="#231815" d="M67.566,90.965c0-31.554-25.508-57.218-56.873-57.218v-13.53
		c38.847,0,70.438,31.711,70.438,70.748H67.566z M43.608,90.93c0-8.844-3.44-17.199-9.633-23.437
		c-6.237-6.229-14.511-9.671-23.317-9.671V44.257c25.657,0,46.517,20.933,46.517,46.671H43.608V90.93z M20.07,90.893
		c-5.219,0-9.412-4.236-9.412-9.412c0-5.181,4.192-9.373,9.412-9.373c5.173,0,9.366,4.192,9.366,9.373
		C29.436,86.654,25.243,90.893,20.07,90.893z M0,0v100h99.993V0H0z"/>
</g>
<g id="レイヤー_5" display="none">
	<g display="inline">
		<path fill="#231815" d="M70.503,50.57c0,10.968-9.151,19.851-20.466,19.851c-11.316,0-20.462-8.883-20.462-19.851
			c0-1.935,0.304-3.833,0.834-5.657h-6.036v27.829c0,1.439,1.18,2.617,2.618,2.617h45.825c1.48,0,2.66-1.178,2.66-2.617V44.913
			h-5.812C70.197,46.737,70.503,48.636,70.503,50.57z"/>
		<path fill="#231815" d="M50.037,62.68c7.289,0,13.214-5.732,13.214-12.833c0-7.06-5.925-12.792-13.214-12.792
			s-13.214,5.732-13.214,12.792C36.823,56.947,42.748,62.68,50.037,62.68z"/>
		<path fill="#231815" d="M82.916,74.484c0,4.635-3.834,8.432-8.469,8.432H25.516c-4.671,0-8.468-3.797-8.468-8.432V25.553
			c0-4.672,3.797-8.468,8.468-8.468h48.933c4.634,0,8.468,3.796,8.468,8.468L82.916,74.484L82.916,74.484z M0,0v100h99.963V0H0z"/>
		<path fill="#231815" d="M65.038,37.432h7.399c1.668,0,3.004-1.327,3.004-2.996V27.37c0-1.631-1.336-2.996-3.004-2.996h-7.399
			c-1.677,0-3.003,1.365-3.003,2.996v7.066C62.035,36.104,63.361,37.432,65.038,37.432z"/>
	</g>
</g>
<g id="レイヤー_6" display="none">
	<path display="inline" fill="#231815" d="M0,0v100h58.182V59.857H44.985V44.561h13.197v-11.29c0-13.123,8.014-20.224,19.688-20.224
		c5.608,0,10.417,0.425,11.823,0.611v13.659h-8.121c-6.334,0-7.594,3.018-7.594,7.481v9.762h15.188L87.18,59.857H73.98V100h25.981V0
		H0z"/>
</g>
<g id="レイヤー_7" display="none">
	<g display="inline">
		<rect x="55.561" y="0.125" fill="#231815" width="44.314" height="44.315"/>
		<rect x="0.125" y="0.125" fill="#231815" width="44.322" height="44.315"/>
		<rect x="55.561" y="55.561" fill="#231815" width="44.314" height="44.314"/>
		<rect x="0.125" y="55.561" fill="#231815" width="44.322" height="44.314"/>
	</g>
</g>
<g id="レイヤー_8" display="none">
	<path display="inline" fill="#231815" d="M50.116,30.392c-11.048,0-19.999,8.676-19.999,19.372
		c0,10.734,8.951,19.411,19.999,19.411c11.055,0,20.006-8.677,20.006-19.411C70.122,39.068,61.171,30.392,50.116,30.392z
		 M88.581,42.314h-8.757c0.835,2.696,1.269,5.585,1.269,8.556c0,16.56-13.864,29.985-30.977,29.985
		c-17.105,0-30.969-13.426-30.969-29.985c0-2.971,0.433-5.86,1.261-8.556h-9.145v42.071c0,2.217,1.78,3.961,3.961,3.961H84.62
		c2.183,0,3.961-1.744,3.961-3.961V42.314z M72.775,11.222c-2.453,0-4.479,2.019-4.479,4.518v10.73c0,2.46,2.024,4.479,4.479,4.479
		h11.287c2.461,0,4.479-2.02,4.479-4.479V15.74c0-2.499-2.021-4.518-4.479-4.518H72.775z M12.966,0.17h74.068
		c7.056,0,12.796,5.744,12.796,12.796v74.072c0,7.009-5.74,12.792-12.796,12.792H12.966c-7.009,0-12.796-5.783-12.796-12.792V12.966
		C0.17,5.914,5.957,0.17,12.966,0.17z"/>
</g>
<g id="レイヤー_9" display="none">
	<g display="inline">
		<path fill="#231815" d="M50.202,60.807c6.35,0,11.491-4.893,11.491-10.918c0-6.052-5.144-10.942-11.491-10.942
			c-6.346,0-11.465,4.891-11.465,10.942C38.737,55.914,43.856,60.807,50.202,60.807z"/>
		<path fill="#231815" d="M63.218,39.262h6.462c1.412,0,2.571-1.137,2.571-2.525v-6.053c0-1.387-1.159-2.523-2.571-2.523h-6.462
			c-1.436,0-2.573,1.137-2.573,2.523v6.053C60.645,38.125,61.782,39.262,63.218,39.262z"/>
		<path fill="#231815" d="M78.734,70.861c0,3.982-3.303,7.213-7.352,7.213H28.908c-4.025,0-7.35-3.23-7.35-7.213V29.138
			c0-3.981,3.324-7.212,7.35-7.212h42.477c4.049,0,7.35,3.229,7.35,7.212V70.861L78.734,70.861z M49.998,1.085
			C22.492,1.085,0.221,22.996,0.221,50c0,27.006,22.271,48.915,49.777,48.915c27.482,0,49.781-21.909,49.781-48.915
			C99.779,22.996,77.48,1.085,49.998,1.085z"/>
		<path fill="#231815" d="M67.973,50.502c0,9.327-7.964,16.902-17.771,16.902c-9.803,0-17.766-7.575-17.766-16.902
			c0-1.684,0.249-3.302,0.725-4.825h-5.23v23.706c0,1.23,1.022,2.23,2.275,2.23h39.792c1.249,0,2.275-1,2.275-2.23V45.677h-5.03
			C67.725,47.2,67.973,48.818,67.973,50.502z"/>
	</g>
</g>
<g>
	<path fill="#FFFFFF" d="M50,13.333c-20.251,0-36.667,16.416-36.667,36.666c0,20.252,16.416,36.668,36.667,36.668
		c20.25,0,36.667-16.416,36.667-36.668C86.667,29.749,70.25,13.333,50,13.333z M63.081,35.574h-4.144
		c-3.24,0-3.871,1.521-3.871,3.737v4.907h7.731l-1.007,7.678h-6.725v19.695H47V51.896h-6.75v-7.678H47V38.56
		c0-6.576,4.086-10.153,10.043-10.153c2.864,0,5.324,0.202,6.037,0.298L63.081,35.574L63.081,35.574z"/>
</g>
<g>
	<path fill="#3E3A39" d="M64.029,162.752c-0.361-0.93-0.793-1.594-1.49-2.291c-0.696-0.697-1.359-1.129-2.29-1.49
		c-0.702-0.271-1.757-0.597-3.699-0.686c-2.101-0.096-2.729-0.116-8.05-0.116c-5.318,0-5.949,0.021-8.05,0.116
		c-1.941,0.089-2.997,0.412-3.698,0.686c-0.93,0.361-1.594,0.793-2.291,1.49c-0.697,0.697-1.129,1.361-1.49,2.291
		c-0.272,0.701-0.597,1.757-0.686,3.698c-0.096,2.101-0.116,2.731-0.116,8.05s0.021,5.949,0.116,8.05
		c0.089,1.942,0.413,2.997,0.686,3.699c0.361,0.931,0.793,1.595,1.49,2.29c0.697,0.697,1.361,1.129,2.291,1.49
		c0.701,0.273,1.757,0.598,3.698,0.687c2.101,0.097,2.73,0.116,8.05,0.116c5.32,0,5.949-0.021,8.05-0.116
		c1.942-0.089,2.997-0.413,3.699-0.687c0.931-0.361,1.594-0.793,2.29-1.49c0.697-0.695,1.129-1.359,1.49-2.29
		c0.273-0.702,0.598-1.757,0.687-3.699c0.097-2.101,0.116-2.729,0.116-8.05c0-5.318-0.021-5.949-0.116-8.05
		C64.627,164.509,64.303,163.453,64.029,162.752z M48.5,184.729c-5.649,0-10.229-4.58-10.229-10.229s4.58-10.229,10.229-10.229
		c5.648,0,10.229,4.58,10.229,10.229S54.148,184.729,48.5,184.729z M59.134,166.257c-1.319,0-2.391-1.069-2.391-2.391
		s1.069-2.39,2.391-2.39s2.392,1.068,2.392,2.39S60.454,166.257,59.134,166.257z"/>
	<circle fill="#3E3A39" cx="48.5" cy="174.5" r="6.641"/>
	<path fill="#3E3A39" d="M48.5,137.834c-20.25,0-36.667,16.416-36.667,36.666c0,20.252,16.416,36.668,36.667,36.668
		c20.25,0,36.667-16.416,36.667-36.668C85.167,154.25,68.75,137.834,48.5,137.834z M68.301,182.714
		c-0.097,2.12-0.434,3.567-0.926,4.835c-0.509,1.311-1.189,2.422-2.298,3.528s-2.218,1.789-3.528,2.298
		c-1.267,0.492-2.715,0.829-4.835,0.926c-2.125,0.098-2.804,0.12-8.214,0.12s-6.088-0.022-8.213-0.12
		c-2.12-0.097-3.568-0.434-4.836-0.926c-1.31-0.509-2.421-1.189-3.528-2.298s-1.788-2.218-2.298-3.528
		c-0.492-1.267-0.829-2.715-0.926-4.835c-0.097-2.125-0.119-2.804-0.119-8.214s0.022-6.088,0.119-8.213
		c0.097-2.12,0.434-3.568,0.926-4.836c0.51-1.311,1.19-2.422,2.298-3.528s2.219-1.788,3.528-2.298
		c1.268-0.492,2.716-0.829,4.836-0.926c2.125-0.098,2.803-0.119,8.213-0.119s6.089,0.021,8.214,0.119
		c2.12,0.097,3.568,0.434,4.835,0.926c1.311,0.51,2.422,1.189,3.528,2.298s1.789,2.22,2.298,3.528
		c0.492,1.268,0.829,2.716,0.926,4.836c0.098,2.125,0.12,2.803,0.12,8.213S68.398,180.589,68.301,182.714z"/>
</g>
<g>
	<path fill="#3E3A39" d="M176.667,209.834C156.416,209.834,140,226.25,140,246.5c0,20.252,16.416,36.668,36.667,36.668
		c20.25,0,36.667-16.416,36.667-36.668C213.334,226.25,196.917,209.834,176.667,209.834z M192.585,239.568l0.019,1.057
		c0,10.914-8.267,23.48-23.357,23.48c-4.643,0-8.956-1.385-12.58-3.707c0.634,0.076,1.305,0.115,1.956,0.115
		c3.854,0,7.383-1.328,10.202-3.537c-3.604-0.057-6.637-2.438-7.672-5.726c0.498,0.097,1.018,0.153,1.535,0.153
		c0.748,0,1.477-0.113,2.168-0.286c-3.76-0.769-6.58-4.095-6.58-8.091v-0.114c1.113,0.61,2.359,0.999,3.722,1.037
		c-2.205-1.479-3.663-3.998-3.663-6.861c0-1.519,0.402-2.919,1.111-4.149c4.047,4.996,10.107,8.283,16.914,8.627
		c-0.135-0.614-0.211-1.25-0.211-1.885c0-4.552,3.685-8.24,8.209-8.24c2.358,0,4.506,0.998,6.002,2.594
		c1.861-0.364,3.625-1.057,5.197-1.999c-0.593,1.922-1.896,3.534-3.605,4.555c1.668-0.19,3.24-0.635,4.719-1.286
		C195.572,236.954,194.175,238.396,192.585,239.568z"/>
</g>
<circle fill="#3E3A39" cx="-44.833" cy="369.001" r="36.667"/>
<circle fill="#3E3A39" cx="48.5" cy="369.001" r="36.667"/>
<g>
	<path fill="#3E3A39" d="M-47.627,358.062v5.41h-6.455v7.344h6.455v18.832h7.714v-18.832h6.429l0.963-7.344h-7.393v-4.691
		c0-2.121,0.604-3.572,3.702-3.572h3.961v-6.57c-0.682-0.092-3.034-0.283-5.773-0.283C-43.72,348.354-47.627,351.773-47.627,358.062
		z"/>
</g>
<g>
	<path fill="#3E3A39" d="M48.5,352.67c5.318,0,5.949,0.02,8.05,0.115c1.942,0.088,2.997,0.412,3.699,0.686
		c0.931,0.361,1.594,0.793,2.29,1.49c0.697,0.697,1.129,1.361,1.49,2.291c0.273,0.701,0.598,1.758,0.687,3.697
		c0.097,2.102,0.116,2.732,0.116,8.051s-0.021,5.949-0.116,8.051c-0.089,1.941-0.413,2.996-0.687,3.697
		c-0.361,0.932-0.793,1.596-1.49,2.291c-0.696,0.697-1.359,1.129-2.29,1.49c-0.702,0.273-1.757,0.598-3.699,0.688
		c-2.101,0.096-2.729,0.115-8.05,0.115c-5.32,0-5.949-0.021-8.05-0.115c-1.941-0.09-2.997-0.414-3.698-0.688
		c-0.93-0.361-1.594-0.793-2.291-1.49c-0.697-0.695-1.129-1.359-1.49-2.291c-0.272-0.701-0.597-1.756-0.686-3.697
		c-0.096-2.102-0.116-2.73-0.116-8.051c0-5.318,0.021-5.949,0.116-8.051c0.089-1.939,0.413-2.996,0.686-3.697
		c0.361-0.93,0.793-1.594,1.49-2.291c0.697-0.697,1.361-1.129,2.291-1.49c0.701-0.271,1.757-0.596,3.698-0.686
		C42.551,352.689,43.182,352.67,48.5,352.67 M48.5,349.08c-5.41,0-6.088,0.021-8.213,0.119c-2.12,0.098-3.568,0.434-4.836,0.926
		c-1.31,0.51-2.421,1.189-3.528,2.299c-1.107,1.107-1.788,2.219-2.298,3.527c-0.492,1.268-0.829,2.717-0.926,4.836
		c-0.097,2.125-0.119,2.803-0.119,8.213s0.022,6.09,0.119,8.215c0.097,2.119,0.434,3.566,0.926,4.834
		c0.51,1.311,1.19,2.422,2.298,3.527c1.108,1.107,2.219,1.789,3.528,2.299c1.268,0.492,2.716,0.828,4.836,0.926
		c2.125,0.098,2.803,0.121,8.213,0.121s6.089-0.023,8.214-0.121c2.12-0.098,3.568-0.434,4.835-0.926
		c1.311-0.51,2.422-1.189,3.528-2.299c1.106-1.107,1.789-2.217,2.298-3.527c0.492-1.268,0.829-2.715,0.926-4.834
		c0.098-2.125,0.12-2.805,0.12-8.215s-0.022-6.088-0.12-8.213c-0.097-2.119-0.434-3.568-0.926-4.836
		c-0.509-1.311-1.189-2.422-2.298-3.527c-1.108-1.107-2.218-1.789-3.528-2.299c-1.267-0.492-2.715-0.828-4.835-0.926
		C54.589,349.104,53.91,349.08,48.5,349.08L48.5,349.08z"/>
	<path fill="#3E3A39" d="M48.5,358.771c-5.649,0-10.229,4.58-10.229,10.229s4.58,10.229,10.229,10.229
		c5.648,0,10.229-4.58,10.229-10.229S54.148,358.771,48.5,358.771z M48.5,375.641c-3.667,0-6.64-2.973-6.64-6.641
		c0-3.666,2.973-6.641,6.64-6.641c3.668,0,6.641,2.973,6.641,6.641S52.168,375.641,48.5,375.641z"/>
	<circle fill="#3E3A39" cx="59.134" cy="358.366" r="2.392"/>
</g>
<circle fill="#3E3A39" cx="140.167" cy="369.001" r="36.667"/>
<g>
	<path fill="#3E3A39" d="M120.165,382.898c3.624,2.322,7.938,3.707,12.58,3.707c15.092,0,23.356-12.566,23.356-23.48l-0.018-1.057
		c1.59-1.174,2.988-2.615,4.084-4.266c-1.479,0.652-3.051,1.096-4.719,1.287c1.71-1.021,3.014-2.633,3.605-4.555
		c-1.572,0.941-3.337,1.635-5.197,1.998c-1.496-1.594-3.644-2.592-6.002-2.592c-4.524,0-8.209,3.688-8.209,8.24
		c0,0.635,0.076,1.27,0.211,1.885c-6.808-0.346-12.867-3.631-16.914-8.629c-0.709,1.232-1.111,2.633-1.111,4.15
		c0,2.863,1.458,5.381,3.663,6.861c-1.361-0.039-2.608-0.426-3.722-1.037v0.113c0,3.998,2.819,7.322,6.58,8.092
		c-0.691,0.174-1.42,0.287-2.168,0.287c-0.519,0-1.037-0.059-1.535-0.154c1.035,3.285,4.066,5.67,7.672,5.725
		c-2.819,2.209-6.348,3.539-10.202,3.539C121.469,383.016,120.799,382.977,120.165,382.898z"/>
</g>
<g id="レイヤー_12_1_">
	<path fill="#3E3A39" d="M230.249,392.287c-2.269,0-4.476-0.324-6.558-0.936c0.877-1.412,1.84-3.189,2.33-4.984
		c0.285-1.023,1.633-6.375,1.633-6.375c0.798,1.553,3.146,2.9,5.64,2.9c7.435,0,12.481-6.803,12.481-15.891
		c0-6.889-5.803-13.279-14.627-13.279c-10.989,0-16.528,7.885-16.528,14.482c0,3.982,1.491,7.537,4.721,8.848
		c0.531,0.223,1.001,0.018,1.164-0.572l0.47-1.859c0.164-0.594,0.103-0.797-0.324-1.287c-0.94-1.104-1.532-2.531-1.532-4.557
		c0-5.861,4.37-11.092,11.377-11.092c6.212,0,9.623,3.797,9.623,8.865c0,6.699-2.944,12.338-7.334,12.338
		c-2.411,0-4.208-2-3.638-4.477c0.693-2.938,2.043-6.104,2.043-8.229c0-1.879-1.021-3.475-3.125-3.475
		c-2.474,0-4.455,2.574-4.455,6.008c0,2.186,0.736,3.654,0.736,3.654l-2.98,12.645c-0.411,1.76-0.451,3.699-0.391,5.334
		c-8.147-3.596-13.852-11.746-13.852-21.246c0-12.807,10.357-23.186,23.126-23.186s23.124,10.379,23.124,23.186
		S243.018,392.287,230.249,392.287z M230.249,332.334c-20.244,0-36.665,16.467-36.665,36.77c0,20.305,16.421,36.771,36.665,36.771
		c20.243,0,36.667-16.467,36.667-36.771C266.916,348.801,250.492,332.334,230.249,332.334z"/>
</g>
</svg>
