<?xml version="1.0" encoding="utf-8"?>
<!-- Generator: Adobe Illustrator 15.1.0, SVG Export Plug-In  -->
<!DOCTYPE svg PUBLIC "-//W3C//DTD SVG 1.1//EN" "http://www.w3.org/Graphics/SVG/1.1/DTD/svg11.dtd" [
	<!ENTITY ns_flows "http://ns.adobe.com/Flows/1.0/">
]>
<svg version="1.1"
	 xmlns="http://www.w3.org/2000/svg" xmlns:xlink="http://www.w3.org/1999/xlink" xmlns:a="http://ns.adobe.com/AdobeSVGViewerExtensions/3.0/"
	 x="0px" y="0px" width="27px" height="45px" viewBox="0 0.111 27 45" overflow="visible" enable-background="new 0 0.111 27 45"
	 xml:space="preserve">
<defs>
</defs>
<path fill="#FFFFFF" d="M13.5,45C6.38,45,0.587,39.208,0.587,32.088V12.934c0-7.12,5.793-12.913,12.913-12.913
	s12.913,5.793,12.913,12.913v19.155C26.413,39.208,20.62,45,13.5,45z M13.5,2.102c-5.973,0-10.832,4.859-10.832,10.832v19.155
	c0,5.972,4.859,10.831,10.832,10.831s10.832-4.859,10.832-10.831V12.934C24.332,6.961,19.473,2.102,13.5,2.102z"/>
<rect x="12.25" y="10.111" fill="#FFFFFF" width="2" height="10.498"/>
<rect id="_x3C_スライス_x3E__3_" fill="none" width="27" height="45"/>
</svg>
