<?xml version="1.0" encoding="utf-8"?>
<!-- Generator: Adobe Illustrator 25.2.1, SVG Export Plug-In . SVG Version: 6.00 Build 0)  -->
<svg version="1.1" id="レイヤー_1" xmlns="http://www.w3.org/2000/svg" xmlns:xlink="http://www.w3.org/1999/xlink" x="0px"
	 y="0px" viewBox="0 0 100 100" style="enable-background:new 0 0 100 100;" xml:space="preserve">
<style type="text/css">
	.st0{display:none;}
	.st1{display:inline;fill:#231815;}
	.st2{display:inline;}
	.st3{fill:#231815;}
	.st4{fill:#FFFFFF;}
	.st5{fill:#3E3A39;}
</style>
<g id="レイヤー_2_1_">
</g>
<g id="レイヤー_3" class="st0">
	<polygon class="st1" points="99.5,70.6 58.2,29.4 50,21.1 41.8,29.4 0.5,70.6 8.8,78.9 50,37.6 91.2,78.9 	"/>
</g>
<g id="レイヤー_4" class="st0">
	<path class="st1" d="M67.6,91c0-31.6-25.5-57.2-56.9-57.2V20.2c38.8,0,70.4,31.7,70.4,70.7H67.6z M43.6,90.9
		c0-8.8-3.4-17.2-9.6-23.4c-6.2-6.2-14.5-9.7-23.3-9.7V44.3c25.7,0,46.5,20.9,46.5,46.7L43.6,90.9L43.6,90.9z M20.1,90.9
		c-5.2,0-9.4-4.2-9.4-9.4c0-5.2,4.2-9.4,9.4-9.4c5.2,0,9.4,4.2,9.4,9.4C29.4,86.7,25.2,90.9,20.1,90.9z M0,0v100h100V0H0z"/>
</g>
<g id="レイヤー_5" class="st0">
	<g class="st2">
		<path class="st3" d="M70.5,50.6c0,11-9.2,19.9-20.5,19.9c-11.3,0-20.5-8.9-20.5-19.9c0-1.9,0.3-3.8,0.8-5.7h-6v27.8
			c0,1.4,1.2,2.6,2.6,2.6h45.8c1.5,0,2.7-1.2,2.7-2.6V44.9h-5.8C70.2,46.7,70.5,48.6,70.5,50.6z"/>
		<path class="st3" d="M50,62.7c7.3,0,13.2-5.7,13.2-12.8c0-7.1-5.9-12.8-13.2-12.8s-13.2,5.7-13.2,12.8
			C36.8,56.9,42.7,62.7,50,62.7z"/>
		<path class="st3" d="M82.9,74.5c0,4.6-3.8,8.4-8.5,8.4H25.5c-4.7,0-8.5-3.8-8.5-8.4V25.6c0-4.7,3.8-8.5,8.5-8.5h48.9
			c4.6,0,8.5,3.8,8.5,8.5L82.9,74.5L82.9,74.5z M0,0v100h100V0H0z"/>
		<path class="st3" d="M65,37.4h7.4c1.7,0,3-1.3,3-3v-7.1c0-1.6-1.3-3-3-3H65c-1.7,0-3,1.4-3,3v7.1C62,36.1,63.4,37.4,65,37.4z"/>
	</g>
</g>
<g id="レイヤー_6" class="st0">
	<path class="st1" d="M0,0v100h58.2V59.9H45V44.6h13.2V33.3c0-13.1,8-20.2,19.7-20.2c5.6,0,10.4,0.4,11.8,0.6v13.7h-8.1
		c-6.3,0-7.6,3-7.6,7.5v9.8h15.2l-2,15.3H74V100h26V0H0z"/>
</g>
<g id="レイヤー_7" class="st0">
	<g class="st2">
		<rect x="55.6" y="0.1" class="st3" width="44.3" height="44.3"/>
		<rect x="0.1" y="0.1" class="st3" width="44.3" height="44.3"/>
		<rect x="55.6" y="55.6" class="st3" width="44.3" height="44.3"/>
		<rect x="0.1" y="55.6" class="st3" width="44.3" height="44.3"/>
	</g>
</g>
<g id="レイヤー_8" class="st0">
	<path class="st1" d="M50.1,30.4c-11,0-20,8.7-20,19.4c0,10.7,9,19.4,20,19.4c11.1,0,20-8.7,20-19.4C70.1,39.1,61.2,30.4,50.1,30.4z
		 M88.6,42.3h-8.8c0.8,2.7,1.3,5.6,1.3,8.6c0,16.6-13.9,30-31,30c-17.1,0-31-13.4-31-30c0-3,0.4-5.9,1.3-8.6h-9.1v42.1
		c0,2.2,1.8,4,4,4h69.4c2.2,0,4-1.7,4-4V42.3z M72.8,11.2c-2.5,0-4.5,2-4.5,4.5v10.7c0,2.5,2,4.5,4.5,4.5h11.3c2.5,0,4.5-2,4.5-4.5
		V15.7c0-2.5-2-4.5-4.5-4.5H72.8z M13,0.2H87c7.1,0,12.8,5.7,12.8,12.8V87c0,7-5.7,12.8-12.8,12.8H13C6,99.8,0.2,94,0.2,87V13
		C0.2,5.9,6,0.2,13,0.2z"/>
</g>
<g id="レイヤー_9" class="st0">
	<g class="st2">
		<path class="st3" d="M50.2,60.8c6.3,0,11.5-4.9,11.5-10.9c0-6.1-5.1-10.9-11.5-10.9c-6.3,0-11.5,4.9-11.5,10.9
			C38.7,55.9,43.9,60.8,50.2,60.8z"/>
		<path class="st3" d="M63.2,39.3h6.5c1.4,0,2.6-1.1,2.6-2.5v-6.1c0-1.4-1.2-2.5-2.6-2.5h-6.5c-1.4,0-2.6,1.1-2.6,2.5v6.1
			C60.6,38.1,61.8,39.3,63.2,39.3z"/>
		<path class="st3" d="M78.7,70.9c0,4-3.3,7.2-7.4,7.2H28.9c-4,0-7.4-3.2-7.4-7.2V29.1c0-4,3.3-7.2,7.4-7.2h42.5
			c4,0,7.3,3.2,7.3,7.2L78.7,70.9L78.7,70.9z M50,1.1C22.5,1.1,0.2,23,0.2,50c0,27,22.3,48.9,49.8,48.9C77.5,98.9,99.8,77,99.8,50
			C99.8,23,77.5,1.1,50,1.1z"/>
		<path class="st3" d="M68,50.5c0,9.3-8,16.9-17.8,16.9c-9.8,0-17.8-7.6-17.8-16.9c0-1.7,0.2-3.3,0.7-4.8h-5.2v23.7
			c0,1.2,1,2.2,2.3,2.2H70c1.2,0,2.3-1,2.3-2.2V45.7h-5C67.7,47.2,68,48.8,68,50.5z"/>
	</g>
</g>
<g>
	<path d="M-185.3,13.3c-20.3,0-36.7,16.4-36.7,36.7c0,20.3,16.4,36.7,36.7,36.7c20.2,0,36.7-16.4,36.7-36.7
		C-148.7,29.7-165.1,13.3-185.3,13.3z M-172.3,35.6h-4.1c-3.2,0-3.9,1.5-3.9,3.7v4.9h7.7l-1,7.7h-6.7v19.7h-8.1V51.9h-6.8v-7.7h6.8
		v-5.7c0-6.6,4.1-10.2,10-10.2c2.9,0,5.3,0.2,6,0.3L-172.3,35.6L-172.3,35.6z"/>
</g>
<g>
	<path class="st4" d="M65.5-78.2c-0.4-0.9-0.8-1.6-1.5-2.3c-0.7-0.7-1.4-1.1-2.3-1.5C61-82.2,60-82.5,58-82.6
		c-2.1-0.1-2.7-0.1-8-0.1c-5.3,0-5.9,0-8,0.1c-1.9,0.1-3,0.4-3.7,0.7c-0.9,0.4-1.6,0.8-2.3,1.5c-0.7,0.7-1.1,1.4-1.5,2.3
		c-0.3,0.7-0.6,1.8-0.7,3.7c-0.1,2.1-0.1,2.7-0.1,8s0,5.9,0.1,8.1c0.1,1.9,0.4,3,0.7,3.7c0.4,0.9,0.8,1.6,1.5,2.3
		c0.7,0.7,1.4,1.1,2.3,1.5c0.7,0.3,1.8,0.6,3.7,0.7c2.1,0.1,2.7,0.1,8,0.1s5.9,0,8-0.1c1.9-0.1,3-0.4,3.7-0.7
		c0.9-0.4,1.6-0.8,2.3-1.5c0.7-0.7,1.1-1.4,1.5-2.3c0.3-0.7,0.6-1.8,0.7-3.7c0.1-2.1,0.1-2.7,0.1-8c0-5.3,0-5.9-0.1-8.1
		C66.1-76.4,65.8-77.5,65.5-78.2z M50-56.2c-5.6,0-10.2-4.6-10.2-10.2S44.4-76.6,50-76.6c5.6,0,10.2,4.6,10.2,10.2
		S55.6-56.2,50-56.2z M60.6-74.7c-1.3,0-2.4-1.1-2.4-2.4s1.1-2.4,2.4-2.4S63-78.4,63-77C63-75.7,62-74.7,60.6-74.7z"/>
	<circle class="st4" cx="50" cy="-66.4" r="6.6"/>
	<path class="st4" d="M50-103.1c-20.3,0-36.7,16.4-36.7,36.7c0,20.3,16.4,36.7,36.7,36.7c20.2,0,36.7-16.4,36.7-36.7
		C86.7-86.7,70.2-103.1,50-103.1z M69.8-58.2c-0.1,2.1-0.4,3.6-0.9,4.8c-0.5,1.3-1.2,2.4-2.3,3.5S64.4-48,63-47.5
		c-1.3,0.5-2.7,0.8-4.8,0.9c-2.1,0.1-2.8,0.1-8.2,0.1s-6.1,0-8.2-0.1c-2.1-0.1-3.6-0.4-4.8-0.9c-1.3-0.5-2.4-1.2-3.5-2.3
		s-1.8-2.2-2.3-3.5c-0.5-1.3-0.8-2.7-0.9-4.8c-0.1-2.1-0.1-2.8-0.1-8.2c0-5.4,0-6.1,0.1-8.2c0.1-2.1,0.4-3.6,0.9-4.8
		c0.5-1.3,1.2-2.4,2.3-3.5c1.1-1.1,2.2-1.8,3.5-2.3c1.3-0.5,2.7-0.8,4.8-0.9c2.1-0.1,2.8-0.1,8.2-0.1s6.1,0,8.2,0.1
		c2.1,0.1,3.6,0.4,4.8,0.9c1.3,0.5,2.4,1.2,3.5,2.3s1.8,2.2,2.3,3.5c0.5,1.3,0.8,2.7,0.9,4.8c0.1,2.1,0.1,2.8,0.1,8.2
		C69.9-61,69.9-60.3,69.8-58.2z"/>
</g>
<g>
	<path class="st5" d="M176.7,209.8c-20.3,0-36.7,16.4-36.7,36.7c0,20.3,16.4,36.7,36.7,36.7c20.2,0,36.7-16.4,36.7-36.7
		C213.3,226.2,196.9,209.8,176.7,209.8z M192.6,239.6l0,1.1c0,10.9-8.3,23.5-23.4,23.5c-4.6,0-9-1.4-12.6-3.7c0.6,0.1,1.3,0.1,2,0.1
		c3.9,0,7.4-1.3,10.2-3.5c-3.6-0.1-6.6-2.4-7.7-5.7c0.5,0.1,1,0.2,1.5,0.2c0.7,0,1.5-0.1,2.2-0.3c-3.8-0.8-6.6-4.1-6.6-8.1v-0.1
		c1.1,0.6,2.4,1,3.7,1c-2.2-1.5-3.7-4-3.7-6.9c0-1.5,0.4-2.9,1.1-4.1c4,5,10.1,8.3,16.9,8.6c-0.1-0.6-0.2-1.2-0.2-1.9
		c0-4.6,3.7-8.2,8.2-8.2c2.4,0,4.5,1,6,2.6c1.9-0.4,3.6-1.1,5.2-2c-0.6,1.9-1.9,3.5-3.6,4.6c1.7-0.2,3.2-0.6,4.7-1.3
		C195.6,237,194.2,238.4,192.6,239.6z"/>
</g>
<circle class="st5" cx="-44.8" cy="369" r="36.7"/>
<circle class="st5" cx="48.5" cy="369" r="36.7"/>
<g>
	<path class="st5" d="M-47.6,358.1v5.4h-6.5v7.3h6.5v18.8h7.7v-18.8h6.4l1-7.3h-7.4v-4.7c0-2.1,0.6-3.6,3.7-3.6h4v-6.6
		c-0.7-0.1-3-0.3-5.8-0.3C-43.7,348.4-47.6,351.8-47.6,358.1z"/>
</g>
<g>
	<path class="st5" d="M48.5,352.7c5.3,0,5.9,0,8,0.1c1.9,0.1,3,0.4,3.7,0.7c0.9,0.4,1.6,0.8,2.3,1.5c0.7,0.7,1.1,1.4,1.5,2.3
		c0.3,0.7,0.6,1.8,0.7,3.7c0.1,2.1,0.1,2.7,0.1,8.1s0,5.9-0.1,8.1c-0.1,1.9-0.4,3-0.7,3.7c-0.4,0.9-0.8,1.6-1.5,2.3
		c-0.7,0.7-1.4,1.1-2.3,1.5c-0.7,0.3-1.8,0.6-3.7,0.7c-2.1,0.1-2.7,0.1-8,0.1c-5.3,0-5.9,0-8-0.1c-1.9-0.1-3-0.4-3.7-0.7
		c-0.9-0.4-1.6-0.8-2.3-1.5c-0.7-0.7-1.1-1.4-1.5-2.3c-0.3-0.7-0.6-1.8-0.7-3.7c-0.1-2.1-0.1-2.7-0.1-8.1c0-5.3,0-5.9,0.1-8.1
		c0.1-1.9,0.4-3,0.7-3.7c0.4-0.9,0.8-1.6,1.5-2.3c0.7-0.7,1.4-1.1,2.3-1.5c0.7-0.3,1.8-0.6,3.7-0.7
		C42.6,352.7,43.2,352.7,48.5,352.7 M48.5,349.1c-5.4,0-6.1,0-8.2,0.1c-2.1,0.1-3.6,0.4-4.8,0.9c-1.3,0.5-2.4,1.2-3.5,2.3
		c-1.1,1.1-1.8,2.2-2.3,3.5c-0.5,1.3-0.8,2.7-0.9,4.8c-0.1,2.1-0.1,2.8-0.1,8.2s0,6.1,0.1,8.2c0.1,2.1,0.4,3.6,0.9,4.8
		c0.5,1.3,1.2,2.4,2.3,3.5c1.1,1.1,2.2,1.8,3.5,2.3c1.3,0.5,2.7,0.8,4.8,0.9c2.1,0.1,2.8,0.1,8.2,0.1s6.1,0,8.2-0.1
		c2.1-0.1,3.6-0.4,4.8-0.9c1.3-0.5,2.4-1.2,3.5-2.3c1.1-1.1,1.8-2.2,2.3-3.5c0.5-1.3,0.8-2.7,0.9-4.8c0.1-2.1,0.1-2.8,0.1-8.2
		s0-6.1-0.1-8.2c-0.1-2.1-0.4-3.6-0.9-4.8c-0.5-1.3-1.2-2.4-2.3-3.5c-1.1-1.1-2.2-1.8-3.5-2.3c-1.3-0.5-2.7-0.8-4.8-0.9
		C54.6,349.1,53.9,349.1,48.5,349.1L48.5,349.1z"/>
	<path class="st5" d="M48.5,358.8c-5.6,0-10.2,4.6-10.2,10.2s4.6,10.2,10.2,10.2c5.6,0,10.2-4.6,10.2-10.2S54.1,358.8,48.5,358.8z
		 M48.5,375.6c-3.7,0-6.6-3-6.6-6.6c0-3.7,3-6.6,6.6-6.6c3.7,0,6.6,3,6.6,6.6S52.2,375.6,48.5,375.6z"/>
	<circle class="st5" cx="59.1" cy="358.4" r="2.4"/>
</g>
<ellipse transform="matrix(7.088901e-02 -0.9975 0.9975 7.088901e-02 -237.8419 482.6573)" class="st5" cx="140.2" cy="369" rx="36.7" ry="36.7"/>
<g>
	<path class="st5" d="M120.2,382.9c3.6,2.3,7.9,3.7,12.6,3.7c15.1,0,23.4-12.6,23.4-23.5l0-1.1c1.6-1.2,3-2.6,4.1-4.3
		c-1.5,0.7-3.1,1.1-4.7,1.3c1.7-1,3-2.6,3.6-4.6c-1.6,0.9-3.3,1.6-5.2,2c-1.5-1.6-3.6-2.6-6-2.6c-4.5,0-8.2,3.7-8.2,8.2
		c0,0.6,0.1,1.3,0.2,1.9c-6.8-0.3-12.9-3.6-16.9-8.6c-0.7,1.2-1.1,2.6-1.1,4.1c0,2.9,1.5,5.4,3.7,6.9c-1.4,0-2.6-0.4-3.7-1v0.1
		c0,4,2.8,7.3,6.6,8.1c-0.7,0.2-1.4,0.3-2.2,0.3c-0.5,0-1-0.1-1.5-0.2c1,3.3,4.1,5.7,7.7,5.7c-2.8,2.2-6.3,3.5-10.2,3.5
		C121.5,383,120.8,383,120.2,382.9z"/>
</g>
<g id="レイヤー_12_1_">
	<path class="st5" d="M230.2,392.3c-2.3,0-4.5-0.3-6.6-0.9c0.9-1.4,1.8-3.2,2.3-5c0.3-1,1.6-6.4,1.6-6.4c0.8,1.6,3.1,2.9,5.6,2.9
		c7.4,0,12.5-6.8,12.5-15.9c0-6.9-5.8-13.3-14.6-13.3c-11,0-16.5,7.9-16.5,14.5c0,4,1.5,7.5,4.7,8.8c0.5,0.2,1,0,1.2-0.6l0.5-1.9
		c0.2-0.6,0.1-0.8-0.3-1.3c-0.9-1.1-1.5-2.5-1.5-4.6c0-5.9,4.4-11.1,11.4-11.1c6.2,0,9.6,3.8,9.6,8.9c0,6.7-2.9,12.3-7.3,12.3
		c-2.4,0-4.2-2-3.6-4.5c0.7-2.9,2-6.1,2-8.2c0-1.9-1-3.5-3.1-3.5c-2.5,0-4.5,2.6-4.5,6c0,2.2,0.7,3.7,0.7,3.7l-3,12.6
		c-0.4,1.8-0.5,3.7-0.4,5.3c-8.1-3.6-13.9-11.7-13.9-21.2c0-12.8,10.4-23.2,23.1-23.2s23.1,10.4,23.1,23.2S243,392.3,230.2,392.3z
		 M230.2,332.3c-20.2,0-36.7,16.5-36.7,36.8c0,20.3,16.4,36.8,36.7,36.8c20.2,0,36.7-16.5,36.7-36.8
		C266.9,348.8,250.5,332.3,230.2,332.3z"/>
</g>
<g>
	<path class="st4" d="M45,42.4c-0.7,0-1.1,0.2-1.1,1c0,1.3,0,2.7,0,4c0,1.4-0.1,2.7,0,4.1c0,0.3,0.6,0.7,1,0.8
		c0.6,0.2,1.1,0,1.1-0.9c0-2.7,0-5.4,0-8.1C46.1,42.6,45.7,42.4,45,42.4z"/>
	<path class="st4" d="M41.3,50.1c-1,0-2,0-3.2,0c0-2.3,0-4.4,0-6.5c0-0.7-0.2-1.2-1-1.2c-0.8,0-1.3,0.2-1.3,1.1c0,2.6,0,5.2,0,7.8
		c0,0.8,0.4,1.1,1.1,1c1.5,0,2.9,0,4.4,0c0.8,0,1.2-0.3,1.2-1.1C42.6,50.3,42.1,50.1,41.3,50.1z"/>
	<path class="st4" d="M55.2,42.4c-0.9,0-1.2,0.4-1.1,1.2c0,1.4,0,2.9,0,4.6c-0.3-0.3-0.4-0.4-0.5-0.6c-1.1-1.5-2.2-3.1-3.4-4.5
		c-0.4-0.4-1.3-0.5-2-0.6c-0.1,0-0.5,0.8-0.5,1.3c0,2.3,0,4.7,0,7c0,0.8-0.1,1.5,1.1,1.5c1.1,0,1.2-0.6,1.2-1.5c0-1.3,0-2.7,0-4.4
		c0.4,0.5,0.6,0.7,0.8,0.9c1.1,1.5,2.1,3,3.3,4.3c0.3,0.4,1.2,0.5,1.7,0.5c0.3,0,0.6-0.8,0.6-1.2c0.1-2.5,0-5,0-7.4
		C56.4,42.8,56.1,42.4,55.2,42.4z"/>
	<path class="st4" d="M50,13.3c-20.3,0-36.7,16.4-36.7,36.7c0,20.3,16.4,36.7,36.7,36.7c20.2,0,36.7-16.4,36.7-36.7
		C86.7,29.7,70.2,13.3,50,13.3z M66.8,57.3c-5,5.5-11.1,9.6-17.8,12.9c-0.1,0-0.2,0-0.3,0c-0.2-0.5-0.5-1-0.5-1.6
		c0-0.7,0.2-1.4,0.3-2.1c0.2-1.8-0.3-2.3-2.1-2.7c-1.6-0.3-3.1-0.6-4.6-1.1c-5.8-2.1-10.3-5.6-12.3-11.7c-0.3-0.9-0.5-1.8-0.7-2.6
		c0-1,0-1.9,0-2.9c0.1-0.2,0.2-0.4,0.2-0.6c0.6-3.8,2.4-6.9,5.3-9.4c8.3-7.3,21.9-7.6,30.6-0.8C72.4,40.7,73.3,50.1,66.8,57.3z"/>
	<path class="st4" d="M63.2,50.1c-1,0-2,0-3,0c0-0.6,0-1.1,0-1.7c1.2,0,2.2,0,3.3,0c0.7,0,1-0.3,1-1c0-0.8-0.2-1.2-1.1-1.1
		c-1.1,0-2.2,0-3.3,0c0-0.6,0-1,0-1.6c1.2,0,2.2,0,3.3,0c0.8,0,1.1-0.4,1.1-1.1c0-0.8-0.4-1.1-1.1-1.1c-1.5,0-3,0-4.5,0
		c-0.8,0-1.1,0.3-1.1,1.1c0,2.6,0,5.2,0,7.8c0,0.7,0.3,1,1,1c1.5,0,3,0,4.5,0c0.8,0,1.2-0.3,1.2-1.2C64.5,50.3,64,50.1,63.2,50.1z"
		/>
</g>
</svg>
