<?xml version="1.0" encoding="utf-8"?>
<!-- Generator: Adobe Illustrator 15.1.0, SVG Export Plug-In . SVG Version: 6.00 Build 0)  -->
<!DOCTYPE svg PUBLIC "-//W3C//DTD SVG 1.1//EN" "http://www.w3.org/Graphics/SVG/1.1/DTD/svg11.dtd">
<svg version="1.1" xmlns="http://www.w3.org/2000/svg" xmlns:xlink="http://www.w3.org/1999/xlink" x="0px" y="0px" width="27px"
	 height="1160px" viewBox="0 0 27 1160" enable-background="new 0 0 27 1160" xml:space="preserve">
<g id="bg_1_" display="none">
	<rect y="54" display="inline" fill="#919191" width="27" height="27"/>
	<rect y="0" display="inline" fill="#919191" width="27" height="27"/>
	<rect y="27" display="inline" fill="#D1D1D1" width="27" height="27"/>
	<rect y="81" display="inline" fill="#D1D1D1" width="27" height="27"/>
</g>
<g id="arrow">
	<g>
		<polygon fill="#A6A6A6" points="13.501,52.19 8.503,47.193 7.81,47.912 13.501,53.603 19.19,47.912 18.498,47.193 		"/>
	</g>
	<g>
		<polygon fill="#A6A6A6" points="13.499,14.462 18.496,19.459 19.19,18.74 13.499,13.05 7.81,18.74 8.502,19.459 		"/>
	</g>
	<g>
		<polygon fill="#A6A6A6" points="15.292,84.54 10.295,89.538 11.014,90.232 16.705,84.54 11.014,78.851 10.295,79.544 		"/>
	</g>
	<g>
		<polygon fill="#A6A6A6" points="11.708,118.686 16.705,113.689 15.986,112.994 10.295,118.686 15.986,124.376 16.705,123.683 		
			"/>
	</g>
</g>
</svg>
