<?xml version="1.0" encoding="utf-8"?>
<!-- Generator: Adobe Illustrator 15.1.0, SVG Export Plug-In . SVG Version: 6.00 Build 0)  -->
<!DOCTYPE svg PUBLIC "-//W3C//DTD SVG 1.1//EN" "http://www.w3.org/Graphics/SVG/1.1/DTD/svg11.dtd">
<svg version="1.1" id="レイヤー_1" xmlns="http://www.w3.org/2000/svg" xmlns:xlink="http://www.w3.org/1999/xlink" x="0px"
	 y="0px" width="192.25px" height="48.25px" viewBox="0 0 192.25 48.25" enable-background="new 0 0 192.25 48.25"
	 xml:space="preserve">
<g>
	<path fill="#595757" d="M49.624,22.816c-3.011-1.875-6.559-3.129-6.559-6.331c0-2.169,2.04-3.541,4.628-3.541l0,0l0,0
		c1.812,0,3.111,0.706,3.944,1.382l2.341-2.333c-1.234-1.088-3.384-2.498-6.285-2.498l0,0c-3.256,0-6.119,1.428-7.408,3.943
		c-0.038,0.064-0.074,0.137-0.102,0.201c-0.027,0.046-0.055,0.11-0.073,0.164c-0.357,0.861-0.558,1.83-0.558,2.909
		c0,4.199,3.384,6.441,5.388,7.548c2.46,1.353,6.623,2.962,6.623,6.576c0,3.094-2.67,4.365-5.269,4.365
		c-2.516,0-4.931-1.977-5.553-3l-2.296,2.552c0,0,2.379,3.896,8.225,3.896c5.186,0,8.507-3.576,8.507-7.647
		C55.177,26.32,52.788,24.803,49.624,22.816"/>
	<path fill="#595757" d="M79.867,27.591c0,3.13-2.516,7.612-8.353,7.612c-5.836,0-8.297-4.482-8.297-7.612V10.082h-3.833V27.05
		c0,2.847,1.775,11.603,12.131,11.603c10.364,0,12.176-8.756,12.176-11.603V10.082h-3.824V27.591z"/>
	<path fill="#595757" d="M121.335,9.478c-5.735,0-9.167,5.251-9.167,5.251c-0.273,0.365-0.457,0.65-0.604,0.859
		c-0.33-0.769-0.74-1.5-1.227-2.167c-1.254-1.803-3.641-3.943-7.949-3.943c-4.775,0-7.958,3.65-8.883,4.867v-4.263H89.7v27.975
		h3.806V22.423c0-1.29,0.256-2.525,0.732-3.651c0,0,0.018-0.026,0.018-0.036c0.036-0.11,0.092-0.211,0.137-0.311
		c0.083-0.165,0.167-0.32,0.249-0.476c0.036-0.063,0.054-0.119,0.09-0.174c1.327-2.396,3.743-4.811,7.264-4.831
		c5.37,0.02,6.624,4.036,6.624,8.179v16.934h3.831V22.423c0-1.29,0.257-2.525,0.724-3.651c0.011,0,0.019-0.026,0.019-0.036
		c0.047-0.11,0.103-0.211,0.147-0.311c0.081-0.165,0.163-0.32,0.246-0.476c0.026-0.063,0.056-0.119,0.082-0.174
		c1.336-2.396,3.761-4.811,7.272-4.831c5.369,0.02,6.632,4.036,6.632,8.179v16.934h3.815V22.102v-0.494v-1.719
		c0-2.416-0.787-4.648-2.113-6.468C128.029,11.618,125.645,9.478,121.335,9.478"/>
	<path fill="#595757" d="M186.414,22.816c-3.02-1.875-6.561-3.129-6.561-6.331c0-2.169,2.041-3.541,4.619-3.541l0,0h0.012
		c1.801,0,3.108,0.706,3.94,1.382l2.343-2.333c-1.233-1.088-3.394-2.498-6.283-2.498l0,0c-3.267,0-6.131,1.428-7.41,3.943
		c-0.036,0.064-0.072,0.137-0.102,0.201c-0.027,0.046-0.045,0.11-0.074,0.164c-0.363,0.861-0.558,1.83-0.558,2.909
		c0,2.534,1.226,4.345,2.646,5.635h-7.457V10.082h-3.832V22.35h-5.992V10.082h-3.823v17.509c0,3.13-2.507,7.612-8.344,7.612
		c-5.845,0-8.308-4.482-8.308-7.612V10.082h-3.822v16.979c0,2.836,1.766,11.592,12.13,11.592s12.167-8.756,12.167-11.592V25.8h5.992
		v12.257h3.832V25.8h13.064c1.938,1.134,3.75,2.644,3.75,5.038c0,3.094-2.671,4.365-5.261,4.365c-2.517,0-4.931-1.977-5.554-3
		l-2.305,2.552c0,0,2.387,3.896,8.233,3.896c5.179,0,8.507-3.576,8.507-7.647C191.967,26.32,189.58,24.803,186.414,22.816"/>
	<path fill="#C4CF67" d="M14.605,23.099c0.156-0.823,0.229-1.08,0.229-1.08s0.201-0.814,0.531-1.829
		c0.337-1.015,0.786-1.948,0.786-1.948s-0.403-0.833-0.622-1.226l0,0c-1.51-2.717-3.623-5.041-6.167-6.796
		C8.127,9.36,6.628,8.856,5.008,8.856H4.944l0,0c-0.805,0.01-1.619,0.21-2.341,0.64C2.392,9.616,2.2,9.771,2.017,9.945
		c-0.174,0.183-0.32,0.375-0.448,0.576c-0.413,0.732-0.622,1.537-0.632,2.351l0,0c0,0.019,0,0.036,0,0.064
		c0,1.619,0.503,3.119,1.362,4.354c1.749,2.542,4.081,4.656,6.788,6.156l0,0c0.028,0.019,0.056,0.037,0.074,0.045
		c0.201,0.128,0.319,0.349,0.319,0.586c0,0.229-0.118,0.439-0.292,0.567c-0.036,0.019-0.072,0.027-0.101,0.055l0,0
		c-2.716,1.498-5.039,3.623-6.796,6.167c-0.851,1.225-1.354,2.726-1.354,4.344v0.063l0,0c0,0.815,0.219,1.621,0.632,2.342
		c0.128,0.211,0.273,0.402,0.448,0.586c0.183,0.175,0.375,0.33,0.585,0.449c0.722,0.42,1.528,0.629,2.341,0.629l0,0h0.064
		c1.62,0,3.119-0.482,4.354-1.354c2.543-1.744,4.656-4.088,6.167-6.806v0.009c0.219-0.402,0.622-1.242,0.622-1.242
		s-0.485-1.045-0.824-2.013c-0.319-0.989-0.393-1.319-0.493-1.748c-0.082-0.321-0.11-0.457-0.201-0.924
		c-0.11-0.56-0.12-0.751-0.12-1.145S14.55,23.365,14.605,23.099"/>
	<path fill="#A8BC0D" d="M31.081,17.291c0.86-1.235,1.362-2.736,1.362-4.354v-0.064l0,0c0-0.814-0.219-1.619-0.631-2.351
		c-0.128-0.201-0.274-0.393-0.457-0.576c-0.175-0.174-0.367-0.33-0.576-0.449c-0.724-0.43-1.538-0.63-2.343-0.64l0,0h-0.064
		c-1.619,0-3.119,0.503-4.354,1.364c-2.543,1.756-4.666,4.079-6.166,6.796l0,0c-0.851,1.555-1.51,3.23-1.94,5.003h-0.008
		c-0.092,0.403-0.174,0.814-0.248,1.226c-0.045,0.267-0.083,0.55-0.083,0.824c0,0.283,0.038,0.559,0.083,0.823
		c0.038,0.221,0.074,0.43,0.12,0.631c0.036,0.213,0.082,0.402,0.128,0.604c0.43,1.767,1.087,3.449,1.948,5.003v-0.009
		c1.5,2.718,3.623,5.062,6.156,6.798c1.244,0.878,2.736,1.361,4.363,1.361h0.064l0,0c0.805,0,1.61-0.209,2.343-0.631
		c0.209-0.119,0.401-0.273,0.576-0.448c0.182-0.183,0.329-0.375,0.457-0.585c0.412-0.723,0.622-1.526,0.631-2.342l0,0
		c0-0.019,0-0.047,0-0.064c0-1.617-0.502-3.119-1.362-4.344c-1.755-2.545-4.08-4.668-6.796-6.167h0.008
		c-0.036-0.019-0.064-0.036-0.083-0.046c-0.191-0.119-0.319-0.338-0.319-0.576c0-0.237,0.128-0.458,0.319-0.586
		c0.019-0.008,0.046-0.026,0.083-0.045l0,0C27,21.947,29.325,19.833,31.081,17.291"/>
</g>
</svg>
