<?xml version="1.0" encoding="utf-8"?>
<!-- Generator: Adobe Illustrator 15.1.0, SVG Export Plug-In . SVG Version: 6.00 Build 0)  -->
<!DOCTYPE svg PUBLIC "-//W3C//DTD SVG 1.1//EN" "http://www.w3.org/Graphics/SVG/1.1/DTD/svg11.dtd">
<svg version="1.1" id="レイヤー_1" xmlns="http://www.w3.org/2000/svg" xmlns:xlink="http://www.w3.org/1999/xlink" x="0px"
	 y="0px" width="197.75px" height="25.833px" viewBox="0 0 197.75 25.833" enable-background="new 0 0 197.75 25.833"
	 xml:space="preserve">
<g>
	<g>
		<path fill-rule="evenodd" clip-rule="evenodd" fill="#595757" d="M6.759,12.789c-1.446-0.904-3.153-1.502-3.153-3.043
			c0-1.036,0.979-1.699,2.221-1.699l0,0h0.003c0.867,0,1.491,0.34,1.893,0.666l1.123-1.123C8.255,7.073,7.219,6.39,5.829,6.39v0.003
			c-1.566,0-2.939,0.685-3.558,1.893c-0.02,0.031-0.033,0.062-0.05,0.093C2.21,8.409,2.202,8.434,2.188,8.465
			c-0.171,0.41-0.267,0.879-0.267,1.39c0,2.016,1.626,3.097,2.589,3.627c1.179,0.648,3.178,1.42,3.178,3.156
			c0,1.485-1.286,2.095-2.529,2.095c-1.207,0-2.37-0.949-2.665-1.443l-1.105,1.227c0,0,1.143,1.875,3.947,1.875
			c2.49,0,4.088-1.718,4.088-3.672C9.423,14.465,8.277,13.738,6.759,12.789"/>
		<path fill-rule="evenodd" clip-rule="evenodd" fill="#595757" d="M21.276,15.08c0,1.502-1.204,3.653-4.009,3.653
			c-2.802,0-3.99-2.151-3.99-3.653V6.674h-1.836v8.148c0,1.361,0.851,5.57,5.826,5.57c4.978,0,5.846-4.209,5.846-5.57V6.674h-1.837
			V15.08z"/>
		<path fill-rule="evenodd" clip-rule="evenodd" fill="#595757" d="M41.186,6.388c-2.754,0-4.405,2.518-4.405,2.518
			c-0.123,0.174-0.219,0.309-0.283,0.41c-0.163-0.365-0.356-0.719-0.596-1.036c-0.601-0.87-1.743-1.892-3.812-1.892
			c-2.291,0-3.818,1.744-4.265,2.33V6.674h-1.828v13.432h1.828v-7.507c0-0.621,0.123-1.21,0.351-1.749
			c0.006-0.006,0.009-0.012,0.009-0.022c0.02-0.048,0.045-0.099,0.067-0.146c0.036-0.078,0.081-0.16,0.12-0.233
			c0.012-0.025,0.025-0.053,0.04-0.076c0.64-1.157,1.805-2.319,3.486-2.325c2.583,0.014,3.185,1.935,3.185,3.925v8.133h1.836v-7.507
			c0-0.621,0.129-1.21,0.351-1.749c0.006-0.006,0.006-0.012,0.015-0.022c0.02-0.048,0.039-0.099,0.067-0.146
			c0.03-0.078,0.072-0.16,0.115-0.233c0.014-0.025,0.024-0.053,0.042-0.076c0.637-1.157,1.802-2.319,3.489-2.325
			c2.578,0.014,3.179,1.935,3.179,3.925v8.133h1.839v-7.659v-0.239v-0.825c0-1.162-0.385-2.235-1.017-3.103
			C44.4,7.41,43.252,6.388,41.186,6.388"/>
		<path fill-rule="evenodd" clip-rule="evenodd" fill="#595757" d="M72.429,12.789c-1.446-0.904-3.15-1.502-3.15-3.043
			c0-1.036,0.978-1.699,2.221-1.699l0,0h0.003c0.868,0,1.491,0.34,1.893,0.666l1.123-1.123c-0.59-0.517-1.626-1.199-3.016-1.199
			v0.003c-1.563,0-2.937,0.685-3.56,1.893c-0.015,0.031-0.031,0.062-0.051,0.093c-0.012,0.031-0.017,0.056-0.031,0.087
			c-0.174,0.41-0.267,0.879-0.267,1.39c0,1.216,0.59,2.089,1.267,2.707h-3.58V6.674h-1.836v5.888h-2.881V6.674H58.73v8.406
			c0,1.502-1.202,3.653-4.004,3.653c-2.808,0-3.989-2.151-3.989-3.653V6.674h-1.834v8.148c0,1.361,0.851,5.57,5.823,5.57
			s5.837-4.209,5.837-5.57v-0.604h2.881v5.887h1.836v-5.887h6.27c0.94,0.547,1.809,1.271,1.809,2.42
			c0,1.485-1.286,2.095-2.527,2.095c-1.207,0-2.367-0.949-2.664-1.443l-1.106,1.227c0,0,1.143,1.875,3.947,1.875
			c2.487,0,4.085-1.718,4.085-3.672C75.093,14.465,73.95,13.738,72.429,12.789"/>
	</g>
	<g>
		<path fill="#595757" d="M85.525,11.997v7.413h-0.94v-1.274c-0.4,0.486-0.849,0.852-1.346,1.097
			c-0.498,0.246-1.042,0.368-1.632,0.368c-1.05,0-1.945-0.38-2.688-1.142c-0.742-0.761-1.113-1.686-1.113-2.776
			c0-1.067,0.374-1.98,1.124-2.739c0.749-0.758,1.651-1.138,2.705-1.138c0.608,0,1.159,0.129,1.652,0.389
			c0.492,0.259,0.925,0.647,1.298,1.165v-1.363H85.525z M81.713,12.726c-0.531,0-1.021,0.13-1.47,0.391
			c-0.449,0.261-0.807,0.627-1.072,1.1c-0.266,0.472-0.398,0.971-0.398,1.497c0,0.522,0.134,1.021,0.401,1.497
			c0.268,0.477,0.628,0.848,1.079,1.113c0.451,0.266,0.936,0.398,1.453,0.398c0.521,0,1.017-0.132,1.483-0.395
			c0.468-0.263,0.827-0.619,1.079-1.068s0.378-0.955,0.378-1.518c0-0.857-0.283-1.575-0.848-2.151
			C83.233,13.014,82.538,12.726,81.713,12.726z"/>
		<path fill="#595757" d="M87.671,11.997h0.954v1.329c0.382-0.509,0.805-0.889,1.268-1.141c0.463-0.252,0.968-0.378,1.513-0.378
			c0.554,0,1.046,0.141,1.475,0.422c0.43,0.282,0.746,0.661,0.951,1.138c0.204,0.477,0.307,1.219,0.307,2.228v3.815h-0.954v-3.536
			c0-0.854-0.035-1.424-0.106-1.71c-0.11-0.49-0.322-0.859-0.636-1.107s-0.723-0.372-1.227-0.372c-0.577,0-1.094,0.191-1.551,0.572
			c-0.456,0.382-0.757,0.854-0.902,1.417c-0.091,0.368-0.137,1.04-0.137,2.017v2.719h-0.954V11.997z"/>
		<path fill="#595757" d="M97.013,9.244h0.953v2.753h1.513v0.824h-1.513v6.589h-0.953v-6.589h-1.302v-0.824h1.302V9.244z"/>
		<path fill="#595757" d="M107.15,16.95l0.805,0.422c-0.264,0.518-0.568,0.936-0.914,1.253c-0.346,0.318-0.734,0.56-1.166,0.726
			c-0.433,0.166-0.921,0.249-1.467,0.249c-1.209,0-2.154-0.396-2.837-1.189c-0.682-0.793-1.022-1.689-1.022-2.688
			c0-0.94,0.288-1.778,0.865-2.514c0.732-0.936,1.712-1.404,2.939-1.404c1.265,0,2.273,0.479,3.028,1.438
			c0.536,0.677,0.81,1.522,0.818,2.535h-6.671c0.019,0.861,0.294,1.567,0.826,2.118c0.531,0.551,1.188,0.826,1.971,0.826
			c0.378,0,0.745-0.066,1.103-0.197c0.356-0.131,0.66-0.305,0.91-0.522S106.859,17.434,107.15,16.95z M107.15,14.954
			c-0.127-0.509-0.312-0.915-0.556-1.22c-0.243-0.304-0.565-0.549-0.965-0.736c-0.4-0.186-0.821-0.279-1.263-0.279
			c-0.728,0-1.353,0.234-1.876,0.702c-0.382,0.341-0.671,0.852-0.866,1.533H107.15z"/>
		<path fill="#595757" d="M109.978,11.997h0.954v1.329c0.382-0.509,0.805-0.889,1.268-1.141c0.463-0.252,0.968-0.378,1.513-0.378
			c0.554,0,1.046,0.141,1.475,0.422c0.43,0.282,0.746,0.661,0.951,1.138c0.204,0.477,0.307,1.219,0.307,2.228v3.815h-0.954v-3.536
			c0-0.854-0.035-1.424-0.106-1.71c-0.11-0.49-0.322-0.859-0.636-1.107s-0.723-0.372-1.227-0.372c-0.577,0-1.094,0.191-1.551,0.572
			c-0.456,0.382-0.757,0.854-0.902,1.417c-0.091,0.368-0.137,1.04-0.137,2.017v2.719h-0.954V11.997z"/>
		<path fill="#595757" d="M118.487,11.997h0.954v1.329c0.382-0.509,0.805-0.889,1.268-1.141c0.463-0.252,0.968-0.378,1.513-0.378
			c0.554,0,1.046,0.141,1.475,0.422c0.43,0.282,0.746,0.661,0.951,1.138c0.204,0.477,0.307,1.219,0.307,2.228v3.815H124v-3.536
			c0-0.854-0.035-1.424-0.106-1.71c-0.11-0.49-0.322-0.859-0.636-1.107s-0.723-0.372-1.227-0.372c-0.577,0-1.094,0.191-1.551,0.572
			c-0.456,0.382-0.757,0.854-0.902,1.417c-0.091,0.368-0.137,1.04-0.137,2.017v2.719h-0.954V11.997z"/>
		<path fill="#595757" d="M134.384,11.997v7.413h-0.94v-1.274c-0.4,0.486-0.849,0.852-1.346,1.097
			c-0.498,0.246-1.042,0.368-1.632,0.368c-1.05,0-1.945-0.38-2.688-1.142c-0.742-0.761-1.113-1.686-1.113-2.776
			c0-1.067,0.374-1.98,1.124-2.739c0.749-0.758,1.651-1.138,2.705-1.138c0.608,0,1.159,0.129,1.652,0.389
			c0.492,0.259,0.925,0.647,1.298,1.165v-1.363H134.384z M130.571,12.726c-0.531,0-1.021,0.13-1.47,0.391
			c-0.449,0.261-0.807,0.627-1.072,1.1c-0.266,0.472-0.398,0.971-0.398,1.497c0,0.522,0.134,1.021,0.401,1.497
			c0.268,0.477,0.628,0.848,1.079,1.113c0.451,0.266,0.936,0.398,1.453,0.398c0.521,0,1.017-0.132,1.483-0.395
			c0.468-0.263,0.827-0.619,1.079-1.068s0.378-0.955,0.378-1.518c0-0.857-0.283-1.575-0.848-2.151
			C132.092,13.014,131.396,12.726,130.571,12.726z"/>
	</g>
	<g>
		<g>
			<path fill="#595757" d="M145.771,7.645l-1.146,1.184c-0.953-0.925-1.886-1.388-2.796-1.388c-0.579,0-1.074,0.191-1.487,0.573
				c-0.413,0.382-0.619,0.828-0.619,1.337c0,0.45,0.17,0.879,0.511,1.286c0.34,0.416,1.055,0.904,2.144,1.464
				c1.327,0.688,2.229,1.35,2.705,1.987c0.468,0.645,0.702,1.371,0.702,2.177c0,1.138-0.4,2.101-1.199,2.891
				s-1.798,1.184-2.997,1.184c-0.799,0-1.562-0.174-2.289-0.522s-1.328-0.828-1.805-1.439l1.121-1.273
				c0.91,1.027,1.876,1.541,2.896,1.541c0.715,0,1.323-0.229,1.825-0.688c0.502-0.458,0.753-0.998,0.753-1.617
				c0-0.51-0.165-0.963-0.497-1.363c-0.332-0.39-1.081-0.883-2.246-1.477c-1.251-0.645-2.102-1.282-2.552-1.91
				c-0.451-0.628-0.677-1.345-0.677-2.152c0-1.053,0.359-1.927,1.078-2.623c0.718-0.696,1.626-1.044,2.723-1.044
				C143.194,5.773,144.479,6.397,145.771,7.645z"/>
			<path fill="#595757" d="M148.929,0.782h1.783v7.831c0.721-0.951,1.515-1.662,2.381-2.133s1.804-0.707,2.814-0.707
				c1.035,0,1.954,0.263,2.757,0.79c0.802,0.526,1.394,1.233,1.776,2.12c0.382,0.887,0.572,2.277,0.572,4.17v7.131h-1.782v-6.609
				c0-1.596-0.063-2.661-0.191-3.196c-0.221-0.917-0.622-1.606-1.203-2.069s-1.344-0.694-2.285-0.694
				c-1.079,0-2.044,0.357-2.897,1.07s-1.415,1.596-1.688,2.648c-0.17,0.68-0.254,1.936-0.254,3.77v5.081h-1.783V0.782z"/>
			<path fill="#595757" d="M171.391,5.773c2.135,0,3.903,0.773,5.307,2.318c1.275,1.409,1.914,3.077,1.914,5.004
				c0,1.936-0.675,3.627-2.022,5.075s-3.08,2.171-5.198,2.171c-2.126,0-3.862-0.724-5.211-2.171
				c-1.348-1.447-2.021-3.139-2.021-5.075c0-1.918,0.638-3.582,1.913-4.991C167.475,6.55,169.248,5.773,171.391,5.773z
				 M171.385,7.518c-1.482,0-2.756,0.547-3.821,1.643c-1.064,1.095-1.597,2.419-1.597,3.973c0,1.001,0.242,1.936,0.729,2.801
				c0.485,0.866,1.141,1.534,1.968,2.005c0.826,0.471,1.733,0.707,2.722,0.707s1.896-0.236,2.722-0.707s1.482-1.14,1.968-2.005
				s0.729-1.8,0.729-2.801c0-1.554-0.534-2.878-1.604-3.973S172.858,7.518,171.385,7.518z"/>
			<path fill="#595757" d="M181.935,6.13h1.783v2.546c0.704-0.968,1.514-1.693,2.43-2.177s1.938-0.726,3.065-0.726
				c1.968,0,3.65,0.709,5.05,2.126c1.399,1.418,2.1,3.125,2.1,5.119c0,2.038-0.693,3.767-2.08,5.189s-3.06,2.133-5.019,2.133
				c-1.103,0-2.116-0.229-3.04-0.688c-0.925-0.458-1.76-1.142-2.506-2.05v7.449h-1.783V6.13z M189.065,7.492
				c-1.541,0-2.839,0.539-3.894,1.615c-1.055,1.077-1.582,2.417-1.582,4.02c0,1.051,0.235,1.997,0.705,2.836
				c0.471,0.839,1.144,1.505,2.021,1.997c0.876,0.492,1.802,0.738,2.775,0.738c0.957,0,1.857-0.248,2.7-0.744
				s1.514-1.189,2.014-2.08c0.499-0.89,0.749-1.823,0.749-2.798c0-0.983-0.248-1.916-0.743-2.798s-1.162-1.566-2.001-2.054
				C190.972,7.736,190.057,7.492,189.065,7.492z"/>
		</g>
	</g>
</g>
</svg>
