<?xml version="1.0" encoding="utf-8"?>
<!-- Generator: Adobe Illustrator 15.1.0, SVG Export Plug-In . SVG Version: 6.00 Build 0)  -->
<!DOCTYPE svg PUBLIC "-//W3C//DTD SVG 1.1//EN" "http://www.w3.org/Graphics/SVG/1.1/DTD/svg11.dtd">
<svg version="1.1" id="レイヤー_1" xmlns="http://www.w3.org/2000/svg" xmlns:xlink="http://www.w3.org/1999/xlink" x="0px"
	 y="0px" width="187px" height="29px" viewBox="0 0 187 29" enable-background="new 0 0 187 29" xml:space="preserve">
<g>
	<path fill="#444344" d="M6.221,12.747c-1.099,0.609-2.4,1.35-2.4,1.959c0,3.673,6.02,3.341,6.913,6.911
		c0.892,3.564-2.9,3.564-4.682,5.347c-0.892,0.892-2.448-0.444-2.448-1.336c0-2.674,4.457-2.674,3.562-4.457
		c-0.683-1.021-1.618-1.25-3.115-1.563c-2.563-0.528-4.342-4.48-2.68-6.69C2.933,9.804,10.264,5.56,13.706,8.68
		c0.499,0.451,1.333,2.232,1.041,2.972c-1.157-0.382-3.418-0.406-5.339-0.292c-2.511,0.163-2.582-0.622-0.681-0.447
		C9.543,10.987,7.315,12.133,6.221,12.747z"/>
	<path fill="#444344" d="M24.109,16.262c0.561-1.129-0.446-2.891,1.346-2.006c1.779,1.788,3.115,5.353,4.003,8.029
		c-0.6,0.303-1.262,0.068-1.781-0.448c-1.014-0.994-2.131-3.707-2.222-3.125c-0.228,1.344-1.067,2.844-2.18,3.906
		c-1.115,1.059-2.513,1.674-3.847,1.23c-3.567-1.785-5.573-8.694-1.114-11.37c-0.174,0.5,0.581,1.01,0.472,1.524
		c-0.472,2.167-0.472,4.331-0.472,6.501c0,0.89,1.114,0.669,2.002,0.669C22.108,20.271,23.221,18.047,24.109,16.262z"/>
	<path fill="#444344" d="M36.137,15.69c0.136-0.238,2.9-4.792,4.921-0.764c0.398,0.796,0,1.782,0.888,1.782
		c1.782,0,3.567-3.567,5.354-2.674c1.618,1.08,2.012,2.456,2.675,4.239c1.194,1.109,0.226,1.998-0.894,2.897
		c-1.781-1.784-0.888-5.358-2.674-4.462c-2.233,1.118-2.9,3.562-5.801,5.576c-0.667-1.782-1.112-4.911-2.006-4.911
		c-1.33,0-1.562,1.337-2.895,2.681c-0.884,0.881-0.895,2.9-1.782,2.9c-2.673,0-2.673-8.027-0.894-10.702
		c1.781,0.889,0.221,4.902,1.115,5.795C35.021,18.491,35.846,16.203,36.137,15.69z"/>
	<path fill="#444344" d="M55.024,16.117c0,1.782,0.299,1.483,1.187,2.374c2.962,0.747,5.088-1.908,5.799-4.755
		c0.149-0.588,0.447-0.876,0.447-1.484c1.487,1.188,1.8,3.418,1.936,5.2c0.065,0.893,1.482,2.674,0.892,3.719
		c-1.781,0-2.31-4.298-2.827-3.57c-1.584,2.219-6.606,6.068-8.47,2.67c-1.637-2.967-0.452-5.344-0.452-8.019
		c0,0,2.53,0.745,2.53,1.637C55.895,14.058,55.024,15.979,55.024,16.117z"/>
	<path fill="#444344" d="M73.08,10.477c-1.143,0.35-2.031,0.197-2.53,1.19c-1.194,2.392,4.604,3.274,5.492,5.947
		c0.897,3.564-0.888,5.346-4.455,6.24c-0.888,0-1.181-1.783-1.181-1.783c2.914,0,3.115-2.678,3.859-3.418
		c-1.785-2.674-7.134-3.567-6.246-8.022c0.894-1.782,2.68-2.68,4.461-3.567c2.674-0.893,6.539,2.229,5.651,4.901
		c-1.777,1.787-1.192-2.083-2.978-2.083C74.361,10.28,73.993,10.194,73.08,10.477z"/>
	<path fill="#444344" d="M177.509,7.1c-1.052,0.695-2.674,0.884-3.563,0.884c0.34-0.867-0.753-0.598-0.454-1.042
		c2.072-3.018,7.085-2.813,10.254-5.2c0,0,1.786,0.891,0.892,1.782C181.964,4.426,180.182,5.304,177.509,7.1z"/>
	<path fill="#444344" d="M149.117,23.29c-1.785,0-4.906-0.291-5.797-1.182c-2.675-3.567-0.151-8.769,3.416-10.553
		c1.782-0.894,2.819,2.966,3.717,3.865c-0.744-0.303-4.407-2.069-5.203,0.143c-0.266,0.735-1.269,2.824-1.039,3.717
		c0.89,2.674,3.562,2.23,6.242,2.23C149.556,22.406,150.012,23.29,149.117,23.29z"/>
	<path fill="#444344" d="M134.034,15.641c-2.189,0-2.887,2.397-4.417,4.164c-0.279,0.321-0.663,1.892-1.01,2.151
		c-1.045,1.778-1.785,1.119-1.785,1.119c-0.735-0.738-0.297-1.866-0.038-4.888c0.062-0.635-0.241-1.825-0.188-2.696
		c0.038-0.661,0.374-1.507,0.45-1.784c0.163,0.102,0.809,0.815,0.89,1.339c0.096,0.639-0.495,1.335,0,1.335
		c2.68-2.674,8.022-6.236,10.696-2.674C139.381,14.748,135.815,15.641,134.034,15.641z"/>
	<path fill="#444344" d="M108.241,21.511l-0.297,2.086c-0.673-0.226-1.35-1.153-1.489-1.488c-0.173-0.422-0.46-1.479-0.297-2.083
		c0.229-0.824,0.682-1.659,0.297-2.818c0-0.893-1.187-0.157-2.078-0.157c-2.68,0.894-3.42,5.795-5.205,5.795
		c-2.674,0.896,0.447-6.68-2.222-5.795c-0.932,0-3.228,9.711-4.76,8.176c-0.797-0.4-0.709-0.87-1.041-1.629
		c-1.171-2.698-0.695-8.873,0-12.346c0.225,0.151,0.487,0.332,0.685,0.53c0.265,0.265,0.675,0.649,0.74,0.772
		c0.096,0.179,0.06,2.171,0.06,3.313c0,1.484-0.597,2.967-0.149,2.967c1.993,0,1.78-3.56,4.466-4.456
		c1.779,0,1.18,3.864,3.859,2.973c2.674-1.787,3.269-4.756,5.948-2.973C108.539,16.165,108.241,18.833,108.241,21.511z"/>
	<g>
		<g>
			<path fill="#444344" d="M186.126,20.615c-1.785,0.896-4.459,0-6.245,0c-0.89,0-1.777-0.886-0.89-1.782
				c4.466-2.668,2.676-7.139-0.888-7.139c-1.789-0.888-3.571,0.9-4.469,2.683c0,2.672,0.667,5.078-1.109,4.903
				c-6.915-0.666-3.991,0.316-6.021-1.112c-0.234-0.17-1.935-3.289-2.448-3.572c-0.888-0.485-0.446-0.446-2.009-1.111
				c-0.824-0.349-2.937,2.415-3.569,1.788c-0.442-0.448-0.442-1.788,0-2.679c0.225-0.427,0.681-1.212,0.897-1.562
				c0.542-0.884,0.062-1.152-0.897-2.008c-1.57,2.099-2.166,4.301-2.387,6.65c-0.163,1.667-0.14,3.404-0.14,5.239
				c2.827,1.932,1.936-1.484,2.678-2.672c1.101-1.771,1.682-3.046,3.418-2.076c0.587,0.317,1.553,1.975,1.781,2.223
				c0.146,0.155,0.408,0.857,1.34,1.342c2.413,1.255,5.431,0.376,9.215,1.633c1.78,1.788,6.169,0.815,7.957,1.712
				c1.779,0,2.001,1.108,3.786-0.668l0.149-0.451L186.126,20.615z M175.693,18.022c-1.263-2.239,2.9-6.313,4.028-2.856
				c0.619,1.872-2.058,2.343-3.376,2.737C176.192,17.994,175.693,18.022,175.693,18.022z"/>
		</g>
	</g>
	<g>
		<g>
			<path fill="#444344" d="M121.618,23.597c-0.744-3.721-1.19-10.257-4.754-10.257c-2.703-0.685-4.795,0.961-5.203,3.71
				c-0.132,0.886-0.592,2.554-0.592,3.419c0.888,1.779,3.412,3.713,5.2,2.821c0.888-0.884,1.781-2.675,2.673-2.675
				c0.366,0,0.486,0.888,0.745,1.493c0.36,0.845,0.884,1.555,1.931,2.074C121.881,24.254,121.795,24.465,121.618,23.597z
				 M114.086,19.563c-0.155,0.043-0.646-0.104-0.646-0.104c-0.418-2.545,4.873-4.953,4.758-1.312
				C118.137,20.121,115.461,19.645,114.086,19.563z"/>
		</g>
	</g>
</g>
</svg>
