<?xml version="1.0" encoding="utf-8"?>
<!-- Generator: Adobe Illustrator 15.1.0, SVG Export Plug-In . SVG Version: 6.00 Build 0)  -->
<!DOCTYPE svg PUBLIC "-//W3C//DTD SVG 1.1//EN" "http://www.w3.org/Graphics/SVG/1.1/DTD/svg11.dtd">
<svg version="1.1" id="レイヤー_1" xmlns="http://www.w3.org/2000/svg" xmlns:xlink="http://www.w3.org/1999/xlink" x="0px"
	 y="0px" width="92.833px" height="35px" viewBox="0 0 92.833 35" enable-background="new 0 0 92.833 35" xml:space="preserve">
<g>
	<polygon fill="#FFFFFF" points="10.905,0.808 0.973,0.808 0.973,3.751 8,3.751 8,33.598 10.943,33.598 10.943,0.812 10.905,0.812 	
		"/>
	<path fill="#FFFFFF" d="M46.083,0.851H32.266h-2.503h-0.442v32.76h0.875h2.07h13.816h2.565h0.375V0.851h-0.805H46.083z
		 M46.083,3.793v11.025H32.266V3.793H46.083z M32.266,30.671V17.759h13.816v12.912H32.266z"/>
	<path fill="#FFFFFF" d="M91.861,16.319v-2.942h-6.985v-3.311h6.559v-1.44V7.125V2.434h-0.002V0.839H67.767h-2.236h-0.704v33.354
		h2.94V23.986h3.864v9.684h0.185h2.756h6.255V30.73h-6.255v-6.744h3.353l10.141,9.795v0.002h3.789v-2.944h-2.598l-1.695-1.637
		l1.838-2.021l-2.182-1.979l-1.773,1.952l-3.281-3.168h9.699V21.04h-6.986v-4.721H91.861z M81.929,13.377h-5.517v-3.311h5.517
		V13.377z M67.767,10.066h5.7v3.311h-5.7V10.066z M88.49,3.78v3.345H67.767V3.78H88.49z M67.767,16.319h5.7v4.721h-5.7V16.319z
		 M81.929,21.04h-5.517v-4.721h5.517V21.04z"/>
</g>
</svg>
