<?xml version="1.0" encoding="utf-8"?>
<!-- Generator: Adobe Illustrator 15.1.0, SVG Export Plug-In . SVG Version: 6.00 Build 0)  -->
<!DOCTYPE svg PUBLIC "-//W3C//DTD SVG 1.1//EN" "http://www.w3.org/Graphics/SVG/1.1/DTD/svg11.dtd">
<svg version="1.1" id="レイヤー_1" xmlns="http://www.w3.org/2000/svg" xmlns:xlink="http://www.w3.org/1999/xlink" x="0px"
	 y="0px" width="100px" height="100px" viewBox="0 0 100 100" enable-background="new 0 0 100 100" xml:space="preserve">
<g id="レイヤー_2">
</g>
<g id="レイヤー_3">
	<polygon fill="#FFFFFF" points="0.5,29.376 41.75,70.625 49.998,78.875 58.248,70.625 99.5,29.376 91.248,21.125 49.998,62.375 
		8.75,21.125 	"/>
</g>
<g id="レイヤー_4" display="none">
	<path display="inline" fill="#231815" d="M67.566,90.965c0-31.554-25.508-57.218-56.872-57.218v-13.53
		c38.847,0,70.438,31.71,70.438,70.748H67.566z M43.608,90.93c0-8.844-3.44-17.199-9.633-23.437
		c-6.237-6.229-14.511-9.67-23.317-9.67V44.257c25.657,0,46.517,20.933,46.517,46.671H43.608V90.93z M20.07,90.893
		c-5.219,0-9.412-4.236-9.412-9.412c0-5.181,4.192-9.373,9.412-9.373c5.173,0,9.366,4.192,9.366,9.373
		C29.436,86.655,25.243,90.893,20.07,90.893z M0,0v100h99.993V0H0z"/>
</g>
<g id="レイヤー_5" display="none">
	<g display="inline">
		<path fill="#231815" d="M70.503,50.57c0,10.968-9.151,19.851-20.466,19.851c-11.316,0-20.462-8.883-20.462-19.851
			c0-1.936,0.304-3.833,0.834-5.657h-6.036v27.829c0,1.439,1.18,2.617,2.618,2.617h45.825c1.481,0,2.66-1.178,2.66-2.617V44.913
			h-5.812C70.197,46.737,70.503,48.636,70.503,50.57z"/>
		<path fill="#231815" d="M50.037,62.68c7.289,0,13.214-5.731,13.214-12.835c0-7.06-5.925-12.792-13.214-12.792
			s-13.214,5.732-13.214,12.792C36.823,56.947,42.748,62.68,50.037,62.68z"/>
		<path fill="#231815" d="M82.916,74.484c0,4.635-3.834,8.432-8.469,8.432H25.516c-4.671,0-8.468-3.797-8.468-8.432V25.553
			c0-4.672,3.797-8.468,8.468-8.468h48.933c4.634,0,8.468,3.796,8.468,8.468L82.916,74.484L82.916,74.484z M0,0v100h99.963V0H0z"/>
		<path fill="#231815" d="M65.038,37.432h7.399c1.668,0,3.004-1.327,3.004-2.996V27.37c0-1.631-1.336-2.996-3.004-2.996h-7.399
			c-1.677,0-3.003,1.365-3.003,2.996v7.066C62.035,36.104,63.361,37.432,65.038,37.432z"/>
	</g>
</g>
<g id="レイヤー_6" display="none">
	<path display="inline" fill="#231815" d="M0,0v100h58.182V59.857H44.985V44.561h13.197v-11.29c0-13.123,8.014-20.224,19.688-20.224
		c5.609,0,10.417,0.425,11.824,0.611v13.659h-8.121c-6.334,0-7.594,3.018-7.594,7.481v9.762h15.187L87.18,59.857H73.98V100h25.982V0
		H0z"/>
</g>
<g id="レイヤー_7" display="none">
	<g display="inline">
		<rect x="55.561" y="0.125" fill="#231815" width="44.314" height="44.315"/>
		<rect x="0.125" y="0.125" fill="#231815" width="44.322" height="44.315"/>
		<rect x="55.561" y="55.561" fill="#231815" width="44.314" height="44.314"/>
		<rect x="0.125" y="55.561" fill="#231815" width="44.322" height="44.314"/>
	</g>
</g>
<g id="レイヤー_8" display="none">
	<path display="inline" fill="#231815" d="M50.116,30.392c-11.048,0-19.999,8.676-19.999,19.372
		c0,10.734,8.951,19.411,19.999,19.411c11.055,0,20.006-8.677,20.006-19.411C70.122,39.068,61.171,30.392,50.116,30.392z
		 M88.581,42.314h-8.757c0.835,2.696,1.269,5.585,1.269,8.556c0,16.56-13.864,29.985-30.977,29.985
		c-17.105,0-30.969-13.426-30.969-29.985c0-2.971,0.433-5.86,1.261-8.556h-9.145v42.071c0,2.217,1.78,3.961,3.961,3.961H84.62
		c2.183,0,3.961-1.744,3.961-3.961V42.314z M72.775,11.222c-2.453,0-4.479,2.019-4.479,4.518V26.47c0,2.46,2.025,4.479,4.479,4.479
		h11.287c2.461,0,4.479-2.02,4.479-4.479V15.74c0-2.499-2.021-4.518-4.479-4.518H72.775z M12.966,0.17h74.068
		c7.056,0,12.796,5.744,12.796,12.796v74.072c0,7.009-5.74,12.792-12.796,12.792H12.966c-7.009,0-12.796-5.783-12.796-12.792V12.966
		C0.17,5.914,5.957,0.17,12.966,0.17z"/>
</g>
<g id="レイヤー_9" display="none">
	<g display="inline">
		<path fill="#231815" d="M50.202,60.807c6.35,0,11.491-4.893,11.491-10.919c0-6.052-5.143-10.942-11.491-10.942
			c-6.346,0-11.465,4.891-11.465,10.942C38.737,55.914,43.856,60.807,50.202,60.807z"/>
		<path fill="#231815" d="M63.218,39.262h6.462c1.412,0,2.571-1.137,2.571-2.525v-6.053c0-1.387-1.159-2.523-2.571-2.523h-6.462
			c-1.436,0-2.573,1.137-2.573,2.523v6.053C60.645,38.125,61.782,39.262,63.218,39.262z"/>
		<path fill="#231815" d="M78.734,70.861c0,3.981-3.303,7.213-7.351,7.213H28.908c-4.025,0-7.35-3.23-7.35-7.213V29.138
			c0-3.981,3.324-7.212,7.35-7.212h42.477c4.049,0,7.35,3.23,7.35,7.212V70.861L78.734,70.861z M49.998,1.085
			C22.492,1.085,0.221,22.996,0.221,50c0,27.006,22.271,48.915,49.777,48.915c27.482,0,49.781-21.909,49.781-48.915
			C99.779,22.996,77.48,1.085,49.998,1.085z"/>
		<path fill="#231815" d="M67.973,50.502c0,9.327-7.964,16.903-17.771,16.903c-9.803,0-17.766-7.576-17.766-16.903
			c0-1.684,0.249-3.302,0.725-4.825h-5.23v23.706c0,1.231,1.022,2.23,2.275,2.23h39.792c1.249,0,2.275-0.999,2.275-2.23V45.677
			h-5.03C67.725,47.2,67.973,48.818,67.973,50.502z"/>
	</g>
</g>
<g id="レイヤー_10" display="none">
	<path display="inline" fill="#231815" d="M67.609,26.681h-7.008c-5.484,0-6.552,2.573-6.552,6.325v8.303h13.082l-1.704,12.993
		H54.051V87.63h-13.65V54.302H28.979V41.309h11.422v-9.576c0-11.126,6.914-17.179,16.992-17.179c4.848,0,9.012,0.342,10.217,0.502
		V26.681z M49.999,1.086C22.516,1.086,0.221,22.997,0.221,50c0,27.005,22.295,48.914,49.778,48.914
		c27.505,0,49.78-21.909,49.78-48.914C99.779,22.997,77.504,1.086,49.999,1.086z"/>
</g>
</svg>
