<?xml version="1.0" encoding="utf-8"?>
<!-- Generator: Adobe Illustrator 15.1.0, SVG Export Plug-In . SVG Version: 6.00 Build 0)  -->
<!DOCTYPE svg PUBLIC "-//W3C//DTD SVG 1.1//EN" "http://www.w3.org/Graphics/SVG/1.1/DTD/svg11.dtd">
<svg version="1.1" xmlns="http://www.w3.org/2000/svg" xmlns:xlink="http://www.w3.org/1999/xlink" x="0px" y="0px"
	 width="128.25px" height="165.5px" viewBox="0 0 128.25 165.5" enable-background="new 0 0 128.25 165.5" xml:space="preserve">
<g id="Layer_1">
	<g display="none">
		<g display="inline">
			<polygon fill="#CCCCCC" points="23.162,72.542 23.162,110.322 41.915,110.322 52.438,110.322 75.811,110.322 82.386,110.322 
				105.087,110.322 105.087,72.535 64.129,31.584 			"/>
			<polygon fill="#CCCCCC" points="64.129,1.116 6.689,58.549 17.496,69.356 64.137,22.731 110.755,69.356 121.561,58.557 			"/>
		</g>
		<g display="inline">
			<g>
				<polygon fill="#B3B3B3" points="94.957,21.315 93.822,33.174 105.683,32.042 102.186,28.542 111.271,19.459 107.539,15.729 
					98.455,24.812 				"/>
				<polygon fill="#B3B3B3" points="91.062,52.329 92.197,40.469 80.338,41.602 83.835,45.1 74.751,54.184 78.481,57.915 
					87.564,48.831 				"/>
			</g>
			<g>
				<polygon fill="#B3B3B3" points="47.908,41.604 36.049,40.469 37.183,52.329 40.681,48.831 49.764,57.916 53.494,54.185 
					44.411,45.102 				"/>
				<polygon fill="#B3B3B3" points="22.565,32.04 34.425,33.174 33.291,21.315 29.793,24.812 20.71,15.727 16.979,19.458 
					26.062,28.542 				"/>
			</g>
		</g>
		<g display="inline">
			<g>
				<polygon fill="#B3B3B3" points="71.708,126.639 64.125,117.449 56.541,126.637 61.486,126.639 61.486,139.484 66.762,139.484 
					66.762,126.639 				"/>
				<polygon fill="#B3B3B3" points="56.541,105.965 64.125,115.152 71.709,105.965 66.763,105.965 66.764,93.117 61.487,93.117 
					61.487,105.965 				"/>
			</g>
		</g>
		<g display="inline">
			<g>
				<g>
					<polygon fill="#B3B3B3" points="115.154,72.86 105.966,80.444 115.153,88.027 115.154,83.082 128.001,83.083 128,77.807 
						115.155,77.807 					"/>
					<polygon fill="#B3B3B3" points="94.48,88.027 103.669,80.444 94.481,72.86 94.48,77.805 81.635,77.805 81.635,83.081 
						94.479,83.081 					"/>
				</g>
			</g>
			<g>
				<g>
					<polygon fill="#B3B3B3" points="33.769,72.86 24.58,80.444 33.768,88.027 33.769,83.082 46.615,83.083 46.614,77.807 
						33.77,77.807 					"/>
					<polygon fill="#B3B3B3" points="13.095,88.027 22.283,80.444 13.096,72.86 13.095,77.805 0.249,77.805 0.249,83.081 
						13.095,83.081 					"/>
				</g>
			</g>
		</g>
		<g display="inline">
			<path fill="#C5C5C6" d="M9.81,153.035l0.085,0.086l3.57,9.348l3.57-9.348l0.085-0.086h1.7l0.085,0.086l-4.589,11.729
				l-0.085,0.084H12.7l-0.085-0.084l-4.589-11.729l0.085-0.086H9.81z"/>
			<path fill="#C5C5C6" d="M27.659,153.035l0.085,0.086v1.529l-0.085,0.084h-5.524v2.805h4.165l0.085,0.086v1.529l-0.085,0.086
				h-4.165v3.994h6.035l0.085,0.084v1.531l-0.085,0.084H20.52l-0.085-0.084v-11.729l0.085-0.086H27.659z"/>
			<path fill="#C5C5C6" d="M31.995,153.035l0.17,0.086l6.97,9.094v-9.094l0.085-0.086h1.53l0.085,0.086v11.729l-0.085,0.084h-1.615
				l-0.17-0.084l-6.969-9.094v9.094l-0.085,0.084h-1.53l-0.085-0.084v-11.729l0.085-0.086H31.995z"/>
			<path fill="#C5C5C6" d="M52.139,153.035l0.085,0.086v1.529l-0.085,0.084h-3.825v10.115l-0.085,0.084h-1.53l-0.085-0.084v-10.115
				H42.79l-0.085-0.084v-1.529l0.085-0.086H52.139z"/>
			<path fill="#C5C5C6" d="M55.709,153.035l0.085,0.086v11.729l-0.085,0.084h-1.53l-0.085-0.084v-11.729l0.085-0.086H55.709z"/>
			<path fill="#C5C5C6" d="M60.146,153.035l0.068,0.068v10.131h5.542l0.068,0.084v1.547l-0.068,0.068h-7.173l-0.068-0.068v-11.762
				l0.068-0.068H60.146z"/>
			<path fill="#C5C5C6" d="M72.879,153.035l0.085,0.086l4.759,11.729l-0.084,0.084h-1.7l-0.085-0.084l-1.105-2.721h-5.27
				l-1.104,2.721l-0.086,0.084H66.59l-0.086-0.084l4.76-11.729l0.086-0.086H72.879z M70.159,160.43h3.909l-1.955-5.016
				L70.159,160.43z"/>
			<path fill="#C5C5C6" d="M87.838,153.035l0.086,0.086v1.529l-0.086,0.084h-3.824v10.115l-0.085,0.084h-1.53l-0.084-0.084v-10.115
				h-3.825l-0.085-0.084v-1.529l0.085-0.086H87.838z"/>
			<path fill="#C5C5C6" d="M91.409,153.035l0.085,0.086v11.729l-0.085,0.084h-1.53l-0.084-0.084v-11.729l0.084-0.086H91.409z"/>
			<path fill="#C5C5C6" d="M106.283,158.984c0,3.416-2.822,6.205-6.289,6.205c-3.469,0-6.289-2.789-6.289-6.205
				s2.82-6.203,6.289-6.203C103.461,152.781,106.283,155.568,106.283,158.984z M95.659,158.984c0,2.447,1.938,4.42,4.335,4.42
				s4.334-1.973,4.334-4.42s-1.938-4.42-4.334-4.42S95.659,156.537,95.659,158.984z"/>
			<path fill="#C5C5C6" d="M110.193,153.035l0.17,0.086l6.971,9.094v-9.094l0.084-0.086h1.53l0.085,0.086v11.729l-0.085,0.084
				h-1.614l-0.171-0.084l-6.97-9.094v9.094l-0.084,0.084h-1.53l-0.085-0.084v-11.729l0.085-0.086H110.193z"/>
		</g>
		<g display="inline">
			<path fill="#FFFFFF" d="M72.182,68.17c-1.93-1.632-4.453-2.674-6.979-2.674c-4.157,0-7.572,3.416-7.572,7.724
				c0,4.306,3.416,7.722,7.572,7.722c2.525,0,5.049-1.042,6.979-2.674l0.149,0.148v3.415c-1.931,1.395-4.306,2.226-7.128,2.226
				c-6.087,0-10.987-4.898-10.987-10.837c0-5.94,4.9-10.839,10.987-10.839c2.822,0,5.197,0.831,7.128,2.226v3.415L72.182,68.17z"/>
		</g>
	</g>
	<g display="none">
		<g display="inline">
			<path fill="#ADADAD" d="M16.971,31.185V16.286H8.739v14.899H7.011V0.352h1.729v14.375h8.231V0.352h1.73v30.833H16.971z"/>
			<path fill="#ADADAD" d="M42.8,30.015c-0.954,0.998-2.424,1.514-4.114,1.514c-1.689,0-3.162-0.516-4.114-1.514
				c-1.821-1.864-2.167-3.593-2.167-14.249c0-10.653,0.346-12.384,2.167-14.245C35.523,0.524,36.996,0,38.686,0
				c1.69,0,3.16,0.524,4.114,1.522c1.817,1.86,2.165,3.592,2.165,14.245C44.965,26.422,44.617,28.151,42.8,30.015z M41.586,2.645
				c-0.649-0.694-1.646-1.081-2.9-1.081c-1.256,0-2.254,0.387-2.902,1.081c-1.384,1.517-1.646,2.857-1.646,13.122
				c0,10.265,0.262,11.608,1.646,13.121c0.648,0.691,1.646,1.085,2.902,1.085c1.255,0,2.251-0.394,2.9-1.085
				c1.387-1.513,1.646-2.856,1.646-13.121C43.231,5.502,42.973,4.161,41.586,2.645z"/>
			<path fill="#ADADAD" d="M70.115,29.929c-1.081,1.084-2.6,1.6-4.113,1.6c-1.513,0-3.032-0.516-4.114-1.6
				c-1.082-1.041-1.733-2.6-1.733-4.721V0.352h1.733v25.029c0,2.815,1.818,4.592,4.114,4.592s4.113-1.777,4.113-4.592V0.352h1.734
				v24.856C71.85,27.329,71.2,28.888,70.115,29.929z"/>
			<path fill="#ADADAD" d="M95.947,29.929c-0.997,0.993-2.384,1.513-4.378,1.513c-1.857,0-3.333-0.429-4.413-1.513
				c-1.344-1.386-1.778-2.817-1.778-6.237h1.736c0,2.645,0.3,3.984,1.341,5.023c0.69,0.693,1.729,1.128,3.114,1.128
				c1.52,0,2.515-0.435,3.165-1.128c1.169-1.169,1.385-2.683,1.385-5.367c0-4.073-0.648-5.631-3.377-6.756l-3.162-1.303
				c-3.161-1.295-3.981-3.073-3.981-7.666c0-2.6,0.65-4.632,1.945-5.934c1.041-1.034,2.429-1.598,4.244-1.598
				c1.821,0,3.293,0.564,4.331,1.598c1.472,1.518,1.734,3.166,1.734,5.72h-1.734c0-2.126-0.302-3.42-1.301-4.548
				c-0.69-0.779-1.688-1.215-3.072-1.215c-1.3,0-2.21,0.395-2.902,1.042c-1.081,1.04-1.516,2.813-1.516,4.894
				c0,3.896,0.521,5.112,3.595,6.365l3.161,1.3c3.207,1.3,3.77,3.854,3.77,8.054C97.854,26.596,97.291,28.542,95.947,29.929z"/>
			<path fill="#ADADAD" d="M111.665,31.185V0.352h9.96v1.555h-8.229v13.08h7.102v1.561h-7.102v13.078h8.229v1.56H111.665z"/>
			<path fill="#ADADAD" d="M13.35,73.394c-1.689,0-3.161-0.521-4.115-1.517c-1.819-1.861-2.165-3.594-2.165-14.246
				c0-10.655,0.346-12.384,2.165-14.25c0.954-0.996,2.426-1.516,4.115-1.516c1.817,0,3.164,0.608,4.115,1.565
				c1.21,1.296,1.729,3.2,1.729,5.454h-1.729c0-2.726-0.824-5.454-4.115-5.454c-1.256,0-2.252,0.384-2.901,1.079
				c-1.386,1.514-1.646,2.859-1.646,13.122c0,10.265,0.261,11.605,1.646,13.123c0.649,0.69,1.646,1.084,2.901,1.084
				c2.252,0,4.115-1.647,4.115-4.856v-8.57H13.35v-1.56h5.845v10.221C19.194,71.316,16.338,73.394,13.35,73.394z"/>
			<path fill="#ADADAD" d="M42.888,71.793c-1.081,1.08-2.597,1.601-4.111,1.601c-1.516,0-3.031-0.521-4.115-1.601
				c-1.084-1.039-1.73-2.601-1.73-4.721V42.216h1.73v25.029c0,2.815,1.819,4.593,4.115,4.593c2.295,0,4.111-1.777,4.111-4.593
				V42.216h1.735v24.856C44.623,69.192,43.971,70.754,42.888,71.793z"/>
			<path fill="#ADADAD" d="M68.953,73.047l-1.859-9.264h-7.19l-1.818,9.264h-1.906l6.626-30.831h1.558l6.498,30.831H68.953z
				 M63.497,45.766l-3.248,16.452h6.54L63.497,45.766z"/>
			<path fill="#ADADAD" d="M94.055,73.047l-4.638-14.246h-4.416v14.246H83.27V42.216h5.457c3.028,0,6.235,0.819,6.235,8.315
				c0,5.106-1.472,7.273-3.899,8.009l4.896,14.507H94.055z M88.856,43.772h-3.855v13.512h3.855c3.247,0,4.374-2.256,4.374-6.753
				C93.23,46.023,92.104,43.772,88.856,43.772z"/>
			<path fill="#ADADAD" d="M119.155,71.578c-0.951,0.947-2.381,1.469-4.072,1.469h-5.801V42.216h5.801
				c1.691,0,3.121,0.515,4.072,1.469c1.819,1.86,2.123,3.422,2.123,13.946C121.278,68.153,120.975,69.714,119.155,71.578z
				 M117.855,44.769c-0.648-0.65-1.646-0.997-2.898-0.997h-3.941v27.717h3.941c1.253,0,2.25-0.352,2.898-0.995
				c1.472-1.476,1.691-2.814,1.691-12.863C119.547,47.586,119.327,46.243,117.855,44.769z"/>
			<path fill="#ADADAD" d="M17.191,113.653c-0.997,0.998-2.381,1.519-4.374,1.519c-1.861,0-3.334-0.435-4.419-1.519
				c-1.341-1.383-1.773-2.812-1.773-6.238h1.732c0,2.647,0.304,3.987,1.341,5.031c0.693,0.693,1.734,1.12,3.119,1.12
				c1.513,0,2.511-0.427,3.161-1.12c1.168-1.174,1.386-2.689,1.386-5.372c0-4.075-0.648-5.627-3.379-6.755l-3.159-1.299
				c-3.164-1.3-3.986-3.078-3.986-7.667c0-2.6,0.65-4.633,1.95-5.933c1.039-1.041,2.424-1.604,4.244-1.604
				c1.819,0,3.289,0.563,4.33,1.604c1.472,1.516,1.732,3.16,1.732,5.717h-1.732c0-2.122-0.301-3.423-1.299-4.55
				c-0.694-0.778-1.689-1.211-3.076-1.211c-1.298,0-2.208,0.39-2.899,1.038c-1.084,1.042-1.515,2.816-1.515,4.895
				c0,3.899,0.518,5.109,3.594,6.37l3.159,1.296c3.206,1.298,3.769,3.854,3.769,8.056C19.097,110.323,18.534,112.271,17.191,113.653
				z"/>
			<path fill="#ADADAD" d="M33.077,101.702v13.207h-1.731v-13.207l-5.196-17.625h1.906l4.156,14.771l4.2-14.771h1.906
				L33.077,101.702z"/>
			<path fill="#ADADAD" d="M55.582,113.653c-0.998,0.998-2.385,1.519-4.374,1.519c-1.863,0-3.335-0.435-4.417-1.519
				c-1.345-1.383-1.774-2.812-1.774-6.238h1.731c0,2.647,0.304,3.987,1.342,5.031c0.692,0.693,1.731,1.12,3.118,1.12
				c1.517,0,2.514-0.427,3.159-1.12c1.172-1.174,1.387-2.689,1.387-5.372c0-4.075-0.648-5.627-3.38-6.755l-3.159-1.299
				c-3.16-1.3-3.982-3.078-3.982-7.667c0-2.6,0.649-4.633,1.95-5.933c1.035-1.041,2.42-1.604,4.241-1.604
				c1.818,0,3.292,0.563,4.33,1.604c1.472,1.516,1.732,3.16,1.732,5.717h-1.732c0-2.122-0.302-3.423-1.299-4.55
				c-0.693-0.778-1.688-1.211-3.074-1.211c-1.3,0-2.209,0.39-2.901,1.038c-1.085,1.042-1.516,2.816-1.516,4.895
				c0,3.899,0.521,5.109,3.594,6.37l3.164,1.296c3.201,1.298,3.765,3.854,3.765,8.056C57.486,110.323,56.923,112.271,55.582,113.653
				z"/>
			<path fill="#ADADAD" d="M71.375,85.637v29.272h-1.731V85.637h-5.151v-1.56h12.037v1.56H71.375z"/>
			<path fill="#ADADAD" d="M85.032,114.909V84.077h9.96v1.56h-8.229v13.078h7.105v1.559h-7.105v13.077h8.229v1.559H85.032z"/>
			<path fill="#ADADAD" d="M119.894,114.909V88.106l-6.151,17.585h-1.557l-6.065-16.98v26.198h-1.731V84.077h1.907l6.71,18.839
				l6.711-18.839h1.908v30.832H119.894z"/>
		</g>
	</g>
	<g>
		<g>
			<path fill="#CCCCCC" d="M63.288,35.056c0.006-0.012,0.012-0.018,0.019-0.025c-0.019-0.082-0.031-0.15-0.038-0.207
				C63.275,34.9,63.282,34.975,63.288,35.056z M79.508,52.763L79.508,52.763c-0.006-0.006-0.013-0.006-0.013-0.006
				S79.502,52.757,79.508,52.763z M79.922,52.813c-0.101-0.019-0.326,0.013-0.414-0.05C79.452,52.952,79.533,53.021,79.922,52.813z
				 M64.122,0C40.807,0,21.903,18.905,21.903,42.226c0,23.32,18.904,42.226,42.219,42.226c23.322,0,42.226-18.906,42.226-42.226
				C106.348,18.905,87.443,0,64.122,0z M91.094,16.496c-1.455,0.044-2.466,0.044-3.633,0.853c-0.47,0.326-0.789,0.753-1.392,0.922
				c-0.533,0.15-1.111,0.019-1.645,0.201c-1.919,0.652-1.617,4.761-4.146,4.14c-1.186-0.289-2.019-1.694-2.621-2.61
				c-0.527-0.809-1.481-1.474-0.835-2.483c-0.295,0.075-0.608-0.013-0.903,0.043c0.408-0.891,1.763-0.809,1.988-1.267
				c0.565-1.135-1.549-1.254-2.145-1.417c0.722-0.766,1.085,0.263,1.8,0.087c0.684-0.169-0.364-1.066-0.771-1.173
				c-0.15-0.031-2.56,0.671-1.166-0.577c-1.72-1.098-3.438-2.195-5.156-3.293c-0.296,1.223,2.289,1.913,3.13,2.346
				c-0.131,0.502-0.916,1.236-1.519,1.022c-0.563-0.207-0.332-1.142-1.186-1.047c-0.608,1.417,1.286,1.003,1.462,1.869
				c0.2,0.991-0.715,0.571-1.066,0.558c-0.087-0.006-0.739-0.69-0.777-0.169c-0.044,0.609,1.048,0.37,1.122,0.991
				c-1.267,0.051-1.919-0.408-2.953-1.098c-1.211-0.802-1.825-0.728-3.312-0.728c0.445-0.182,1.054-0.319,1.436-0.615
				c0.208-0.157,1.018-0.947,1.073-1.123c0.227-0.759-0.012-0.703-0.739-1.199c-0.646-0.444-1.432-1.235-2.215-1.392
				c-2.835-0.571-0.878,2.559-3.029,2.991c0.038,0,0.074,0.007,0.106,0.007h-0.119c0-0.007,0.006-0.007,0.013-0.007
				c-0.496-0.019-1.431-0.138-1.757,0.126c-0.225,0.182-0.245,0.928-0.496,1.198c-0.451,0.477-1.122,0.571-1.662,0.922
				c-0.527,0.338-1.681,1.204-1.988,1.793c-1.142,2.17,2.559,2.848,3.958,3.482c0.633,0.288,2.483,0.677,2.828,1.16
				c0.465,0.64-0.395,1.248,0.57,1.699c0.308,0.145,0.942,0.17,1.211-0.125c0.434-0.489-0.175-0.596-0.282-1.161
				c-0.201-1.079,0.133-0.652,0.678-1.054c1.104-0.815,0.859-0.865,0.458-2.17c-0.188-0.608-0.885-2.302-0.27-2.747
				c0.802-0.59,2.508,0.314,3.124,0.389c0.714,0.088,1.122,1.08,1.512,1.487c0.257,0.263,0.72,0.834,1.173,0.777
				c0.721-0.1,0.42-0.728,0.833-1.016c1.117-0.777,1.412,0.276,1.857,1.33c0.42,0.985,0.815,1.355,1.562,1.988
				c0.346,0.295,1.862,1.349,1.719,1.995c-0.095,0.438-1.831,1.104-2.29,1.248c-1.692,0.54-4.873-0.878-5.212,1.812
				c0.652-0.245,2.521-1.775,3.086-1.054c0.251,0.333-0.207,0.809-0.094,1.135c0.32,0.979,1.072,0.64,1.862,0.477
				c-0.056,0.038-0.112,0.069-0.169,0.094c1.079-0.558,0.966-0.439,1.461-1.342c0.163-0.294,0.408-1.003,0.635-1.217
				c0.783-0.721,0.908-0.226,1.392,0.333c0.125,0.15,1.33,1.875,0.903,1.794c-1.398-0.282-2.741-0.245-3.901,0.521
				c-0.671,0.439-1.305,1.035-2.101,1.33c-0.188,0.069-1.606,0.207-1.443-0.038c0.244-0.351,1.086-0.583,1.418-0.966
				c-0.917-0.376-1.688,0.458-2.408,0.947c-0.766,0.364-0.948,1.041-1.601,1.637c-0.288,0.257-0.827,0.301-1.104,0.64
				c-0.276,0.333-0.307,0.853-0.564,1.167c-0.182,0.22-0.646,0.082-0.834,0.414c-0.244,0.433,0.226,0.834,0.125,1.148
				c-0.188,0.564-1.267,1.048-1.681,1.456c0.057-0.057,0.107-0.113,0.163-0.163c-0.414,0.433-0.941,0.752-1.261,1.254
				c0.145,0.715,0.616,2.409,0.483,2.797c-0.426,1.286-1.267-0.696-1.605-1.21c-1.167-1.757-3.507-0.578-5.1-0.433
				c-2.038,0.182-4.033,2.835-2.778,4.98c0.602,1.029,1.618,1.43,2.784,1.192c1.036-0.213,1.348-1.662,2.328-1.693
				c1.794-0.044,0.038,1.763-0.119,2.421c-0.145,0.615,0.225,0.677,0.859,0.828c0.463,0.106,1.129-0.201,1.529,0.063
				c0.258,0.169,0.246,1.091,0.596,0.802c-0.69,0.571-0.533,1.926,0.175,2.415c0.785,0.546,1.713,0.044,2.529,0.25
				c1.555,0.396,0.814-0.119,2.176-0.94c0.916-0.552,1.066,0.107,1.699,0.107c0.428,0.006,0.696-0.615,1.412-0.433
				c0.583,0.144,0.815,0.596,1.505,0.696c0.288,0.044,0.583-0.106,0.854-0.075c1.286,0.144,2.276,0.966,3.286,1.706
				c0.835,0.615,1.393,0.489,2.365,0.771c0.715,0.2,2.032,1.236,1.963,2.139c-0.013,0.163-0.633,0.979-0.74,1.349
				c0.183,0.126,1.449-0.157,1.825-0.188c-0.125,0.144-0.99,0.752-0.99,0.426c0,0.169,0.614,0.508,0.759,0.615
				c0.452-1.468,1.191-0.527,2.082-0.163c0.759,0.308,1.693,0.326,2.502,0.521c0.685,0.163,2.195,0.627,2.71,1.186
				c0.608,0.672,0.188,1.77-0.27,2.44c-0.589,0.884-1.48,1.216-1.85,2.258c-0.295,0.815-0.076,1.649-0.245,2.559
				c-0.227,1.229-0.401,0.796-1.198,1.549c-0.665,0.633-0.013,0.521-0.915,0.928c-0.917,0.402-1.719,0.283-2.353,1.286
				c0.025-0.062,0.05-0.125,0.062-0.194c-0.264,0.376-0.395,1.135-0.526,1.386c-0.313,0.64-0.753,1.048-1.262,1.581
				c-0.193,0.201-1.969,2.628-2.07,2.434c-0.131-0.257-1.529,0.25-1.599-0.107c0.056,0.301-0.012,0.201,0.339,0.376
				c-0.326,1.995-1.166,2.29-3.123,2.308c0.169,0.96-0.709,0.766-1.117,1.28c-0.238,0.307-0.352,1.147-0.521,1.536
				c-0.1,0.244-0.865,1.229-0.865,1.424c0,0.176,0.257,0.438,0.501,0.689c-1.38,0.27-2.79,0.465-4.221,0.578
				c0.27-0.34,0.333-0.635-0.514-0.671c0.225-0.622,0.758-0.973,0.984-1.575c0.113-0.282,0.018-0.395,0.113-0.671
				c0.312-0.973,0.175-0.608,0-1.361c-0.414-1.763,0.144-2.239,0.626-3.857c0.496-1.656,0.445-3.807,0.766-5.595
				c0.151-0.853,0.396-2.635,0.094-3.444c-0.332-0.91-1.806-1.625-2.478-2.239c-0.953-0.866-1.461-1.806-2.169-2.885
				c-0.358-0.54-0.772-1.079-1.048-1.668c-0.603-1.273,0-0.515,0.101-1.268c0.094-0.721-0.089-1.367,0.199-2.126
				c0.314-0.84,1.111-1.367,1.374-2.214c0.232-0.752,0.05-1.699-0.722-1.951c-0.432-0.138-0.909,0.182-1.341,0.113
				c-0.603-0.1-1.286-0.552-1.763-0.91c-0.665-0.508-0.909-1.323-1.619-1.8c-0.589-0.401-1.01-0.163-1.637-0.351
				c-0.658-0.195-1.066-1.003-1.599-1.261c-0.797-0.383-1.249,0.169-2.089,0.057c-0.714-0.094-1.806-0.891-2.478-1.186
				c-1.36-0.608-2.189-1.279-2.728-2.666c-0.471-1.179-1.148-1.731-1.945-2.722c-0.815-0.997-1.066-1.844-2.314-2.114
				c-0.151-0.031,0.308,1.047,0.352,1.136c0.445,0.828,1.116,1.581,1.655,2.352c0.791,1.128,0.453,1.342-0.351,0.25
				c-0.922-1.254-1.995-2.502-2.792-3.833c-0.307-0.501-0.245-0.821-0.746-1.298c-0.483-0.464-1.111-0.683-1.6-1.123
				c-1.744-1.574-2.064-3.669-1.863-5.909c0.063-0.728,0.328-1.311,0.214-2.013c-0.101-0.583-0.439-1.067-0.873-1.493
				c-0.138-0.22-0.483-0.765-0.507-0.803c-0.396-0.652-0.704-1.304-1.33-1.844c-0.364-0.307-1.298-1.041-2.183-1.649
				c3.958-4.93,9.133-8.844,15.072-11.271c0.051,0.301,0.176,0.596,0.37,0.884c0.483,0.722,0.954,0.665,1.9,0.866
				c-0.1,1.104-1.392,1.117-2.263,0.997c-1.048-0.144-2.146-0.489-3.049,0.427c0.496,0.295,1.869,1.468,1.688,0.245
				c0.998-0.05,1.97-0.082,2.949,0.038c0.388,0.051,1.706,0.489,2.062,0.289c0.145-0.082,0.308-0.821,0.465-1.047
				c-0.276,0-0.577-0.138-0.853-0.113c0.646-0.828,1.292-0.176,2.114,0.201c-0.903,0.559-0.37,1.875,0.521,0.803
				c0.728-0.885-0.177-1.525-1.104-2.039c0.935-1.167,1.511-1.273,2.389,0.044c0.145-0.815,0.803-0.489,1.487-0.427V8.568
				c-0.301,0.013-0.627-0.163-0.922-0.132c0.696-1.117,0.25-1.368,1.249-1.737c0.797-0.289,3.068-0.019,3.35-0.766
				c-1.594,0.308-3.513,0.383-4.943,1.104c-0.621,0.313-1.355,1.298-1.97,0.658c-0.633-0.658,0.451-1.712,1.004-2.032h-0.132
				c2.516-0.533,5.119-0.822,7.784-0.822c1.731,0,3.425,0.126,5.087,0.358c-0.578,0.301-0.15,0.502-0.564,0.815
				c-0.803,0.589-2.227,1.079-3.181,1.449c1.211,0,4.146,1.142,4.71-0.559c-0.388-0.062-0.783-0.125-1.172-0.182
				c0.727-0.482,1.543-0.878,2.402-1.166c7.715,1.53,14.577,5.444,19.802,10.938C91.168,16.496,91.13,16.496,91.094,16.496z
				 M97.93,31.318c0.07-0.144,0.232-0.194,0.301-0.32c0.139-0.256,0.107-0.432,0.282-0.652c0.183-0.238,0.434-0.295,0.641-0.482
				c0.088-0.076,0.131-0.145,0.169-0.214c0.628,1.738,1.123,3.531,1.48,5.375c-0.007,0.019-0.013,0.038-0.031,0.051
				c-0.088,0.069-0.678,0.156-0.803,0.163c-0.426,0.012-0.746-0.27-1.054-0.54c-0.314-0.27-0.685-0.633-0.903-0.985
				c-0.238-0.376-0.088-0.765-0.075-1.191C97.948,32.159,97.773,31.644,97.93,31.318z M98.413,50.681
				c-0.728-0.633-1.581-1.474-2.096-2.289c-0.551-0.872-0.213-1.769-0.175-2.766c0.038-0.84-0.376-2.032-0.02-2.785
				c0.163-0.345,0.54-0.458,0.697-0.74c0.326-0.596,0.251-1.003,0.652-1.518c0.432-0.551,1.016-0.684,1.499-1.116
				c0.502-0.458,0.489-0.815,0.809-1.398c0.232-0.42,0.778-1.129,1.298-1.5c0.282,1.844,0.428,3.732,0.428,5.658
				c0,3.324-0.439,6.548-1.261,9.622C99.549,51.672,98.972,51.164,98.413,50.681z"/>
			<path fill="#CCCCCC" d="M71.551,103.223c-0.025,0.004-0.049,0.004-0.069,0.007l-6.144-2.22l-0.012,2.504
				c-0.396,0.005-0.8,0.009-1.204,0.009c-6.008,0.005-11.42-0.565-15.062-1.403c-1.824-0.412-3.186-0.89-4.006-1.334
				c-0.824-0.45-1.113-0.827-1.122-1.188c0.005-0.438,0.448-0.921,1.746-1.489c1.276-0.558,3.368-1.12,6.041-1.548
				c0.147-0.025,0.302-0.048,0.453-0.072l-5.601-2.021c-2.088,0.451-3.931,0.99-5.436,1.638c-2.154,0.919-3.664,2.129-3.659,3.492
				c-0.008,1.106,1.011,2.138,2.558,2.962c2.336,1.245,5.795,2.149,9.919,2.789c4.136,0.636,8.978,0.99,14.17,0.993
				c0.399,0,0.799-0.005,1.19-0.008l-0.007,2.782l11.275-4.045l-5.03-1.815V103.223z M62.94,90.161l-11.275,4.044l11.243,4.061
				l0.011-2.591c0.4-0.005,0.801-0.009,1.204-0.009c6.009-0.004,11.421,0.569,15.063,1.403c1.824,0.415,3.187,0.892,4.006,1.335
				c0.825,0.452,1.114,0.826,1.123,1.192c-0.005,0.253-0.143,0.5-0.498,0.787c-0.521,0.425-1.592,0.922-3.206,1.377
				c-1.202,0.338-2.7,0.658-4.414,0.923l5.593,2.021c1.664-0.364,3.165-0.787,4.466-1.271c1.318-0.495,2.432-1.058,3.235-1.701
				c0.808-0.646,1.284-1.377,1.284-2.135v-0.01c0-1.106-1.02-2.132-2.562-2.954c-2.337-1.245-5.796-2.149-9.92-2.792
				c-4.132-0.635-8.977-0.988-14.17-0.99c-0.4,0-0.794,0.007-1.195,0.008L62.94,90.161z"/>
		</g>
		<g>
			<path fill="#C5C5C6" d="M27.404,124.794c-1.105-0.936-2.55-1.53-3.995-1.53c-2.379,0-4.334,1.955-4.334,4.42
				s1.955,4.419,4.334,4.419c1.445,0,2.89-0.595,3.995-1.529l0.085,0.085v1.955c-1.105,0.799-2.465,1.274-4.08,1.274
				c-3.484,0-6.289-2.805-6.289-6.204s2.805-6.204,6.289-6.204c1.615,0,2.975,0.476,4.08,1.274v1.955L27.404,124.794z"/>
			<path fill="#C5C5C6" d="M37.094,121.734l0.085,0.085v1.529l-0.085,0.085H31.57v2.805h4.165l0.085,0.085v1.53l-0.085,0.085H31.57
				v3.994h6.035l0.085,0.085v1.53l-0.085,0.085h-7.649l-0.085-0.085v-11.729l0.085-0.085H37.094z"/>
			<path fill="#C5C5C6" d="M41.362,121.734l0.068,0.067v10.131h5.542l0.068,0.085v1.547l-0.068,0.068h-7.173l-0.068-0.068v-11.763
				l0.068-0.067H41.362z"/>
			<path fill="#C5C5C6" d="M50.542,121.734l0.068,0.067v10.131h5.542l0.068,0.085v1.547l-0.068,0.068h-7.173l-0.068-0.068v-11.763
				l0.068-0.067H50.542z"/>
			<path fill="#C5C5C6" d="M59.704,121.734l0.085,0.085v6.204c0,2.635,1.615,4.079,3.57,4.079c1.955,0,3.57-1.444,3.57-4.079v-6.204
				l0.085-0.085h1.529l0.086,0.085v6.544c0,3.484-2.381,5.524-5.27,5.524c-2.89,0-5.27-2.04-5.27-5.524v-6.544l0.085-0.085H59.704z"
				/>
			<path fill="#C5C5C6" d="M72.98,121.734l0.068,0.067v10.131h5.542l0.067,0.085v1.547l-0.067,0.068h-7.174l-0.067-0.068v-11.763
				l0.067-0.067H72.98z"/>
			<path fill="#C5C5C6" d="M92.598,127.684c0,3.416-2.822,6.204-6.289,6.204c-3.468,0-6.29-2.788-6.29-6.204
				c0-3.417,2.822-6.204,6.29-6.204C89.775,121.479,92.598,124.267,92.598,127.684z M81.974,127.684
				c0,2.447,1.938,4.419,4.335,4.419c2.396,0,4.334-1.972,4.334-4.419c0-2.448-1.938-4.42-4.334-4.42
				C83.911,123.264,81.974,125.235,81.974,127.684z"/>
			<path fill="#C5C5C6" d="M98.974,124.199c-0.51-0.596-0.85-0.936-1.53-0.936c-0.68,0-1.189,0.51-1.189,1.275
				c0,1.699,5.185,1.614,5.185,5.524c0,2.124-1.7,3.824-3.824,3.824c-1.7,0-2.976-0.935-3.57-2.465l1.275-1.02h0.17
				c0.51,1.104,1.104,1.699,2.125,1.699c1.104,0,1.869-0.85,1.869-2.039c0-2.38-5.185-2.21-5.185-5.524c0-1.7,1.377-3.06,3.145-3.06
				c1.36,0,2.38,0.765,2.976,1.784l-1.275,0.936H98.974z"/>
			<path fill="#C5C5C6" d="M110.703,121.734l0.085,0.085v1.529l-0.085,0.085h-5.524v2.805h4.165l0.085,0.085v1.53l-0.085,0.085
				h-4.165v3.994h6.034l0.085,0.085v1.53l-0.085,0.085h-7.648l-0.086-0.085v-11.729l0.086-0.085H110.703z"/>
			<path fill="#C5C5C6" d="M50.524,141.734l0.085,0.085v1.529l-0.085,0.085H45v2.805h4.165l0.085,0.085v1.53l-0.085,0.085H45v5.609
				l-0.085,0.085h-1.53l-0.085-0.085v-11.729l0.085-0.085H50.524z"/>
			<path fill="#C5C5C6" d="M54.095,141.734l0.085,0.085v11.729l-0.085,0.085h-1.53l-0.085-0.085v-11.729l0.085-0.085H54.095z"/>
			<path fill="#C5C5C6" d="M59.79,141.734c2.38,0,3.825,1.189,3.825,3.06c0,0.935-0.425,1.529-1.02,1.954
				c1.7,0.596,2.464,1.785,2.464,3.23c0,2.039-1.699,3.654-3.994,3.654h-4.08l-0.085-0.085v-11.729l0.085-0.085H59.79z
				 M58.6,146.323h1.19c1.275,0,1.87-0.425,1.87-1.529c0-0.936-0.595-1.36-1.87-1.36H58.6V146.323z M58.6,151.933h2.465
				c1.275,0,2.04-0.765,2.04-1.954c0-1.105-0.765-1.955-2.04-1.955H58.6V151.933z"/>
			<path fill="#C5C5C6" d="M74.324,141.734l0.084,0.085v1.529l-0.084,0.085h-5.525v2.805h4.165l0.085,0.085v1.53l-0.085,0.085
				h-4.165v3.994h6.035l0.085,0.085v1.53l-0.085,0.085h-7.649l-0.085-0.085v-11.729l0.085-0.085H74.324z"/>
			<path fill="#C5C5C6" d="M80.359,141.734c2.38,0,3.909,1.444,3.909,3.399c0,1.359-0.765,2.55-2.04,3.06l3.91,5.354l-0.085,0.085
				h-2.04l-0.085-0.085l-3.739-5.015h-1.53v5.015l-0.085,0.085h-1.529l-0.086-0.085v-11.729l0.086-0.085H80.359z M78.659,146.833
				h1.7c1.274,0,1.954-0.68,1.954-1.699s-0.68-1.7-1.954-1.7h-1.7V146.833z"/>
		</g>
	</g>
</g>
<g id="レイヤー_2" display="none">
	<g display="inline">
		<g>
			<path fill="#C5C5C6" d="M36.416,129.801l0.085,0.084v4.42h6.459v-4.42l0.085-0.084h1.53l0.085,0.084v11.729l-0.085,0.086h-1.53
				l-0.085-0.086v-5.609H36.5v5.609l-0.085,0.086h-1.53l-0.085-0.086v-11.729l0.085-0.084H36.416z"/>
			<path fill="#C5C5C6" d="M48.231,129.801l0.17,0.084l3.06,3.994l3.077-3.994l0.153-0.084h1.955l0.085,0.084l-4.419,5.609v6.119
				l-0.085,0.086h-1.53l-0.085-0.086v-6.119l-4.419-5.609l0.085-0.084H48.231z"/>
			<path fill="#C5C5C6" d="M61.15,129.801c2.38,0,3.824,1.189,3.824,3.059c0,0.936-0.424,1.529-1.02,1.955
				c1.699,0.596,2.465,1.785,2.465,3.23c0,2.039-1.699,3.654-3.995,3.654h-4.08l-0.085-0.086v-11.729l0.085-0.084H61.15z
				 M59.96,134.389h1.19c1.275,0,1.87-0.424,1.87-1.529c0-0.936-0.595-1.359-1.87-1.359h-1.19V134.389z M59.96,139.998h2.465
				c1.275,0,2.04-0.764,2.04-1.953c0-1.105-0.765-1.955-2.04-1.955H59.96V139.998z"/>
			<path fill="#C5C5C6" d="M71.859,129.801c2.381,0,3.91,1.443,3.91,3.398c0,1.359-0.765,2.551-2.039,3.061l3.908,5.354
				l-0.084,0.086h-2.039l-0.086-0.086l-3.74-5.014H70.16v5.014l-0.085,0.086h-1.53l-0.084-0.086v-11.729l0.084-0.084H71.859z
				 M70.16,134.898h1.699c1.275,0,1.955-0.68,1.955-1.699s-0.68-1.699-1.955-1.699H70.16V134.898z"/>
			<path fill="#C5C5C6" d="M80.785,129.801l0.084,0.084v11.729l-0.084,0.086h-1.529l-0.086-0.086v-11.729l0.086-0.084H80.785z"/>
			<path fill="#C5C5C6" d="M87.67,129.801c3.654,0,6.289,2.635,6.289,5.949s-2.635,5.949-6.289,5.949h-3.994l-0.086-0.086v-11.729
				l0.086-0.084H87.67z M85.289,139.998h2.381c2.549,0,4.334-1.869,4.334-4.248c0-2.381-1.785-4.25-4.334-4.25h-2.381V139.998z"/>
		</g>
		<path fill="#CCCCCC" d="M93.15,47.375V19.5H16.266v58.302H38.45v27.868h76.876V47.375H93.15z M24.788,69.28V28.015h59.847v19.361
			H38.45V69.28H24.788z M106.811,97.156H46.965V55.89h59.846V97.156z"/>
	</g>
</g>
</svg>
