<?xml version="1.0" encoding="utf-8"?>
<!-- Generator: Adobe Illustrator 15.1.0, SVG Export Plug-In . SVG Version: 6.00 Build 0)  -->
<!DOCTYPE svg PUBLIC "-//W3C//DTD SVG 1.1//EN" "http://www.w3.org/Graphics/SVG/1.1/DTD/svg11.dtd">
<svg version="1.1" id="レイヤー_1" xmlns="http://www.w3.org/2000/svg" xmlns:xlink="http://www.w3.org/1999/xlink" x="0px"
	 y="0px" width="218.75px" height="86.75px" viewBox="0 0 218.75 86.75" enable-background="new 0 0 218.75 86.75"
	 xml:space="preserve">
<g>
	<path fill-rule="evenodd" clip-rule="evenodd" d="M96.223,10.616c3.157,1.043,4.877,3.522,7.2,5.399
		c-0.07,19.155-12.964,38.792-25.92,46.801c3.08-2.203,3.463-6.156,6.84-8.281C87.609,41.153,100.349,29.063,96.223,10.616z"/>
	<path fill-rule="evenodd" clip-rule="evenodd" d="M60.943,12.416c0.24,0,0.48,0,0.72,0c1.423,1.551,3.936,4.55,6.12,6.479
		c-0.742,4.984,2.021,11.006-0.36,15.841C60.646,31.19,63.12,20.029,60.943,12.416z"/>
	<path fill-rule="evenodd" clip-rule="evenodd" d="M76.423,12.416c7.196,1.769,7.708,14.005,3.96,19.8
		C76.929,27.75,77.881,18.877,76.423,12.416z"/>
	<path fill-rule="evenodd" clip-rule="evenodd" fill="#FFFFFF" d="M35.023,15.295c0.519,1.176-3.173,4.225-5.04,5.4
		c0.239-1.56-0.41-2.23-1.08-2.88C30.305,16.337,33.175,16.327,35.023,15.295z"/>
	<path fill-rule="evenodd" clip-rule="evenodd" d="M215.023,27.175c0.502,5.713-1.566,11.837-4.32,15.48
		c3.039,0.08,6.15,0.089,7.561,1.799c0.217,1.297-1.1,1.061-1.08,2.16c-5.965-1.023-9.855-0.693-15.121,0.359
		c-1.533-1.262-1.938-0.654-3.96-0.359c-3.678-4.122-2.465-13.134-3.96-19.44C199.188,32.701,208.988,23.897,215.023,27.175z
		 M198.103,33.295c0.329,3.631,1.232,6.688,2.161,9.72c2.16,0,4.32,0,6.48,0c2.098-4.502,4.434-8.766,5.76-14.04
		C207.016,29.3,202.473,34.233,198.103,33.295z"/>
	<path fill-rule="evenodd" clip-rule="evenodd" fill="#FFFFFF" d="M31.783,44.816c0.181-5.438,0.592-9.009,0.36-15.121
		c5.783-4.905,15.746-2.622,12.24,7.92C40.896,40.729,37.125,43.557,31.783,44.816z"/>
	<path fill-rule="evenodd" clip-rule="evenodd" d="M145.902,13.496c-1.633,3.407-7.356,2.723-10.44,4.68
		c1.688,2.375,2.035,8.905,2.16,12.24c4.238-0.441,6.871-2.489,9.36-4.68c2.16,0.72,4.874,0.886,6.12,2.52
		c-0.643,1.769-2.922,2.847-4.68,3.96c-2.207,1.397-4.271,2.608-7.2,3.24c-1.557-0.243-2.003-1.597-3.24-2.16
		c-0.759,5.32-0.407,9.625-1.08,14.759c8.266-1.16,16.905,0.031,21.24,3.961c0.352,1.791-0.735,2.145-1.08,3.24
		c-5.493-2.305-16.289-6.396-22.319-1.08c-5.429-2.406-12.615,1.748-16.561,4.32c-2.313-0.332-4.643-2.551-4.32-4.32
		c-0.108-1.309,1.92-0.48,2.521-1.08c1.353-3.498,4.798-6.814,4.68-10.8c-0.097-3.271-3.294-4.75-3.24-8.28
		c7.557,0.727,9.673,11.254,4.681,16.561c3.051-0.551,5.993-1.207,9-1.801c2.066-7.733,3.762-20.921,1.439-29.52
		c-2.381-0.341-2.916,1.163-5.4,0.72c-1.549-1.852-4.764-3.819-3.959-6.84c1.791-0.23,2.518,0.603,2.879,1.8
		C133.141,14.927,140.27,7.883,145.902,13.496z"/>
	<path fill-rule="evenodd" clip-rule="evenodd" d="M179.743,4.135c3.301,0.059,5.172,1.548,6.479,3.601
		c-1.343,1.897-3.427,3.054-5.04,4.68c0.559,2.922,0.753,6.207,0.72,9.72c3.237-0.603,5.364-2.315,7.56-3.96
		c2.379,0.261,4.264,1.018,5.761,2.16c-3.517,4.235-7.81,7.134-11.521,11.16c-0.77,0.834-1.381,2.579-1.439,3.6
		c-0.539,9.293,0.818,23.323-1.439,34.2c0.035,1.453,1.446,2.881,0.359,4.32c-0.752-0.152-0.953,0.246-1.439,0.359
		c-4.084-4.062-10.755-7.096-11.16-13.68c3.305,0.678,5.299,3.691,8.64,3.24c0.845-4.67,0.451-10.545,1.08-16.199
		c-4.761,3.039-8.336,7.264-14.4,9c-0.847-1.074-1.19-2.65-1.8-3.961c4.323-8.516,10.573-15.106,16.561-21.959
		c-0.113-1.251-0.548-1.367,0-2.521c-2.951,0.562-7.64,2.418-9.36,5.4c-1.853-1.027-3.382-2.379-3.96-4.68
		c0.013-1.653,1.023,0.529,2.16,0c3.824-1.576,7.316-3.484,11.16-5.04c0-3,0-6,0-9c-3.396,1.044-5.067,3.812-9.36,3.96
		c3.466-4.455,7.834-8.006,11.159-12.601C180.308,5.25,179.687,5.031,179.743,4.135z M169.663,49.135
		c2.653-1.906,5.272-3.846,8.64-5.04c-0.231-2.461,0.982-4.501-0.36-6.12C175.923,42.196,170.261,44.691,169.663,49.135z"/>
	<path fill-rule="evenodd" clip-rule="evenodd" d="M23.503,0.895c3.39,3.127,10.539,4.293,9.36,10.801
		c3.929-1.111,8.07-2.011,11.16-3.96c2.049,0.711,3.749,1.771,5.4,2.88c-0.709,1.855-2.686,2.046-3.96,2.88
		c-4.796,3.141-8.015,7.508-12.96,11.16c2.102,0.096,4.356-1.731,6.84-1.801c10.752-0.297,12.116,14.395,6.84,21.961
		c-4.308,1.514-9.325,3.58-14.04,1.799c-1.22,14.861-3.699,28.461-9,39.24c-0.052-2.152,0.433-4.436,0.72-6.84
		c1.603-13.396,3.377-28.34,2.88-45.36c-6.98,2.62-10.184,9.017-15.84,12.959c-0.861-1.178-1.542-2.538-2.16-3.959
		c3.434-4.568,8.315-9.744,13.32-14.4c2.799-2.604,5.445-4.212,3.96-9.72c-7.235,2.005-13.552,4.928-20.52,7.2
		c-2.481-1.359-4.624-3.057-5.04-6.48c2.032,0.129,2.651,1.669,4.32,2.16c7.266-2.334,14.161-5.039,21.24-7.561
		C27.214,7.331,24.779,5.496,23.503,0.895z M28.903,17.816c0.67,0.649,1.319,1.32,1.08,2.88c1.867-1.176,5.559-4.225,5.04-5.4
		C33.175,16.327,30.305,16.337,28.903,17.816z M44.383,37.616c3.505-10.542-6.458-12.825-12.24-7.92
		c0.232,6.111-0.179,9.683-0.36,15.121C37.125,43.557,40.896,40.729,44.383,37.616z"/>
</g>
</svg>
