<?xml version="1.0" encoding="utf-8"?>
<!-- Generator: Adobe Illustrator 25.2.1, SVG Export Plug-In . SVG Version: 6.00 Build 0)  -->
<svg version="1.1" id="レイヤー_1" xmlns="http://www.w3.org/2000/svg" xmlns:xlink="http://www.w3.org/1999/xlink" x="0px"
	 y="0px" viewBox="0 0 476 226" style="enable-background:new 0 0 476 226;" xml:space="preserve">
<style type="text/css">
	.st0{fill:#B1B24F;}
	.st1{fill:#B4B4B5;}
	.st2{fill:#888888;}
	.st3{fill:#6F6F6F;}
	.st4{fill:#FFFFFF;}
	.st5{fill:#C8C9CA;}
	.st6{fill:#D4D789;}
	.st7{fill:#767575;}
	.st8{fill:#686767;}
</style>
<path class="st0" d="M37.9,210c0,0.8-0.6,1.4-1.4,1.4H16c-0.8,0-1.4-0.6-1.4-1.4V37.9c0-0.8,0.6-1.4,1.4-1.4h20.5
	c0.8,0,1.4,0.6,1.4,1.4V210z"/>
<path class="st0" d="M461.4,210c0,0.8-0.6,1.4-1.4,1.4h-20.5c-0.8,0-1.4-0.6-1.4-1.4V37.9c0-0.8,0.6-1.4,1.4-1.4H460
	c0.8,0,1.4,0.6,1.4,1.4V210z"/>
<rect x="421.5" y="37.5" class="st1" width="1.1" height="175.1"/>
<path class="st2" d="M420.1,24.9c-0.5,0.9-1.1,1.6-1.8,2.1l-0.5-0.7c1.1-0.8,1.8-1.9,2.2-3.4l0.9,0.2c0.1,0.1,0.1,0.2-0.1,0.2
	l-0.3,0.8h5.5v0.7h-2.8v1.3h2.3v0.7h-2.3v1.8h3.3v0.7h-3.3v2.3h-0.9v-2.3h-4.5v-0.7h1.8v-2.5h2.7v-1.3L420.1,24.9L420.1,24.9z
	 M420.4,28.7h2v-1.8h-2V28.7z"/>
<rect x="133.9" y="36.7" class="st1" width="1.1" height="176.7"/>
<path class="st2" d="M133.2,24.9c-0.5,0.9-1.1,1.6-1.8,2.1l-0.5-0.7c1.1-0.8,1.8-1.9,2.2-3.4l0.9,0.2c0.1,0.1,0.1,0.2-0.1,0.2
	l-0.3,0.8h5.5v0.7h-2.9v1.3h2.3v0.7h-2.3v1.8h3.3v0.7h-3.3v2.3h-0.8v-2.3h-4.5v-0.7h1.8v-2.5h2.7v-1.3L133.2,24.9L133.2,24.9z
	 M133.2,28.7h2v-1.8h-2V28.7z"/>
<rect x="158.4" y="36.7" class="st1" width="1.1" height="176.7"/>
<path class="st2" d="M157.7,24.6c-0.5,0.8-1.1,1.5-1.8,2.1l-0.5-0.7c1.1-0.8,1.8-1.9,2.2-3.3l0.9,0.2c0.1,0.1,0.1,0.2-0.1,0.2
	l-0.3,0.8h5.5v0.7h-2.9v1.3h2.3v0.7h-2.3v1.7h3.3V29h-3.3v2.3h-0.8V29h-4.5v-0.7h1.8v-2.4h2.7v-1.3L157.7,24.6L157.7,24.6z
	 M157.8,28.3h2v-1.7h-2V28.3z"/>
<rect x="207.2" y="36.7" class="st1" width="1.1" height="176.7"/>
<path class="st2" d="M206,24.6c-0.5,0.8-1.1,1.5-1.8,2.1l-0.5-0.7c1.1-0.8,1.8-1.9,2.2-3.3l0.9,0.2c0.1,0.1,0.1,0.2-0.1,0.2
	l-0.3,0.8h5.5v0.7h-2.9v1.3h2.3v0.7h-2.3v1.7h3.3V29h-3.3v2.3h-0.8V29h-4.5v-0.7h1.8v-2.4h2.7v-1.3L206,24.6L206,24.6z M206.2,28.3
	h2v-1.7h-2V28.3z"/>
<rect x="256.1" y="36.7" class="st1" width="1.1" height="176.7"/>
<path class="st2" d="M254.2,24.6c-0.5,0.8-1.1,1.5-1.8,2.1L252,26c1.1-0.8,1.8-1.9,2.2-3.3l0.9,0.2c0.1,0.1,0.1,0.2-0.1,0.2
	l-0.3,0.8h5.5v0.7h-2.8v1.3h2.3v0.7h-2.3v1.7h3.3V29h-3.3v2.3h-1V29h-4.5v-0.7h1.8v-2.4h2.7v-1.3L254.2,24.6L254.2,24.6z
	 M254.5,28.3h2v-1.7h-2V28.3z"/>
<rect x="280.6" y="36.7" class="st1" width="1.1" height="176.7"/>
<path class="st2" d="M279,24.6c-0.5,0.8-1.1,1.5-1.8,2.1l-0.5-0.7c1.1-0.8,1.8-1.9,2.2-3.3l0.9,0.2c0.1,0.1,0.1,0.2-0.1,0.2
	l-0.3,0.8h5.5v0.7H282v1.3h2.3v0.7H282v1.7h3.3V29H282v2.3h-0.8V29h-4.5v-0.7h1.8v-2.4h2.7v-1.3L279,24.6L279,24.6z M279.1,28.3h2
	v-1.7h-2V28.3z"/>
<rect x="84.9" y="36.7" class="st1" width="1.1" height="176.7"/>
<path class="st2" d="M84.4,24.9c-0.5,0.9-1.1,1.6-1.8,2.1l-0.5-0.7c1.1-0.8,1.8-1.9,2.2-3.4l0.9,0.2c0.1,0.1,0.1,0.2-0.1,0.2
	l-0.3,0.8h5.5v0.7h-3v1.3h2.3v0.7h-2.3v1.8h3.3v0.7h-3.3v2.3h-0.8v-2.3H82v-0.7h1.8v-2.5h2.7v-1.3L84.4,24.9L84.4,24.9z M84.7,28.7
	h2v-1.8h-2V28.7z"/>
<path class="st3" d="M93.2,195.2c0,1.2-0.8,2.2-1.7,2.2H80.5c-1,0-1.7-1-1.7-2.2v-63.4c0-1.2,0.8-2.2,1.7-2.2h10.9
	c1,0,1.7,1,1.7,2.2C93.1,131.8,93.1,195.2,93.2,195.2z"/>
<rect x="61.2" y="36.7" class="st1" width="1.1" height="176.7"/>
<path class="st3" d="M68.6,195.2c0,1.2-0.8,2.2-1.7,2.2H56c-1,0-1.7-1-1.7-2.2v-63.4c0-1.2,0.8-2.2,1.7-2.2h10.9c1,0,1.7,1,1.7,2.2
	L68.6,195.2L68.6,195.2z"/>
<rect x="109.4" y="36.7" class="st1" width="1.1" height="176.7"/>
<path class="st2" d="M108.4,24.6c-0.5,0.8-1.1,1.5-1.8,2.1l-0.5-0.7c1.1-0.8,1.8-1.9,2.2-3.3l0.9,0.2c0.1,0.1,0.1,0.2-0.1,0.2
	l-0.3,0.8h5.5v0.7h-3v1.3h2.3v0.7h-2.3v1.7h3.3V29h-3.3v2.3h-0.8V29H106v-0.7h1.8v-2.4h2.7v-1.3L108.4,24.6L108.4,24.6z M108.7,28.3
	h2v-1.7h-2V28.3z"/>
<path class="st3" d="M117.3,195.2c0,1.2-0.8,2.2-1.7,2.2h-10.9c-1,0-1.7-1-1.7-2.2v-63.4c0-1.2,0.8-2.2,1.7-2.2h10.9
	c1,0,1.7,1,1.7,2.2V195.2z"/>
<rect x="182.8" y="36.7" class="st1" width="1.1" height="176.7"/>
<path class="st2" d="M182.1,24.6c-0.5,0.8-1.1,1.5-1.8,2.1l-0.5-0.7c1.1-0.8,1.8-1.9,2.2-3.3l0.9,0.2c0.1,0.1,0.1,0.2-0.1,0.2
	l-0.3,0.8h5.5v0.7H185v1.3h2.3v0.7H185v1.7h3.3V29H185v2.3h-0.8V29h-4.5v-0.7h1.8v-2.4h2.7v-1.3L182.1,24.6L182.1,24.6z M182.2,28.3
	h2v-1.7h-2V28.3z"/>
<rect x="231.7" y="36.7" class="st1" width="1.1" height="176.7"/>
<path class="st2" d="M230.1,24.6c-0.5,0.8-1.1,1.5-1.8,2.1l-0.5-0.7c1.1-0.8,1.8-1.9,2.2-3.3l0.9,0.2c0.1,0.1,0.1,0.2-0.1,0.2
	l-0.3,0.8h5.5v0.7H233v1.3h2.3v0.7H233v1.7h3.3V29H233v2.3h-0.8V29h-4.5v-0.7h1.8v-2.4h2.7v-1.3L230.1,24.6L230.1,24.6z M230.2,28.3
	h2v-1.7h-2V28.3z"/>
<rect x="305.1" y="36.7" class="st1" width="1.1" height="176.7"/>
<path class="st2" d="M303.6,24.9c-0.5,0.9-1.1,1.6-1.8,2.1l-0.5-0.7c1.1-0.8,1.8-1.9,2.2-3.4l0.9,0.2c0.1,0.1,0.1,0.2-0.1,0.2
	l-0.3,0.8h5.5v0.7h-2.8v1.3h2.3v0.7h-2.3v1.8h3.3v0.7h-3.3v2.3H306v-2.3h-4.6v-0.7h1.8v-2.5h2.7v-1.3L303.6,24.9L303.6,24.9z
	 M303.9,28.7h2v-1.8h-2V28.7z"/>
<g>
	<g>
		<path class="st2" d="M61.1,18.9v-2.5v-2.5h-1.3v-0.4c1,0,1.6-0.3,1.8-0.9h0.5v6.3C62.1,18.9,61.1,18.9,61.1,18.9z"/>
	</g>
	<g>
		<path class="st2" d="M61,20.6c0.4,0.1,0.6,0.2,0.8,0.3c0.1,0,0.1,0.1,0.1,0.1c0,0.1,0,0.1-0.1,0.1s-0.1,0.1-0.2,0.2
			c-0.1,0.2-0.2,0.4-0.2,0.5h1.9c0.1,0,0.6,0,1.2,0c0.1,0,0.1,0,0.1,0.1c0,0.1,0,0.2,0,0.2c0,0.1,0,0.2,0,0.2c0,0.1,0,0.1-0.1,0.1
			l0,0h-1.2H63c0,0.4-0.1,0.7-0.2,1c-0.1,0.2-0.2,0.5-0.3,0.7c-0.3,0.5-0.7,0.9-1.2,1.2c-0.1,0-0.1,0-0.1,0s-0.1,0-0.2,0
			c-0.3-0.1-0.5-0.2-0.7-0.3c0.7-0.4,1.1-0.8,1.4-1.2c0.2-0.4,0.4-0.8,0.4-1.4H61c-0.3,0.4-0.6,0.7-0.9,1L60,23.5c0,0-0.1,0-0.2,0
			c-0.2-0.1-0.4-0.2-0.6-0.2c0.4-0.4,0.7-0.7,1-1c0.2-0.2,0.4-0.5,0.6-0.9C61,21.1,61,20.8,61,20.6z"/>
		<path class="st2" d="M62,31.8c0.3,0,0.6,0,0.9,0c0.2,0,0.3-0.1,0.3-0.3v-1.2h-2.9c-0.1,0.5-0.2,0.9-0.4,1.3
			c-0.2,0.3-0.4,0.6-0.7,0.9c-0.1,0.1-0.1,0.1-0.2,0.1c0,0-0.1,0-0.2-0.1c-0.2-0.1-0.3-0.3-0.6-0.3c0.4-0.3,0.6-0.6,0.8-0.9
			s0.3-0.7,0.4-1.1c0.1-0.4,0.1-1,0.1-1.7v-1.1v-1v-0.1c0,0,0,0,0.1,0h1.1h2.2h1.1H64c0,0,0,0,0,0.1v1v2.8v1.4
			c0,0.3-0.1,0.5-0.3,0.7c-0.1,0.1-0.3,0.1-0.5,0.2c-0.2,0-0.5,0-0.9,0c-0.1,0-0.2,0-0.2,0s0-0.1-0.1-0.2C62.1,32.2,62,32,62,31.8z
			 M60.3,29.7h2.8v-0.9h-2.8C60.3,29.2,60.3,29.5,60.3,29.7z M63.1,27.2h-2.8v0.9h2.8V27.2z"/>
	</g>
</g>
<g>
	<path class="st2" d="M160,19.8V19v-0.8h-3.2v-0.7l3.2-4.7h1.1v4.7h1v0.7h-1v1.7H160V19.8z M160,17.5v-3.2l-2.2,3.2H160z"/>
</g>
<g>
	<path class="st2" d="M134.1,18.9c0.2,0.2,0.5,0.3,0.9,0.3c0.3,0,0.6-0.1,0.9-0.3c0.3-0.2,0.4-0.6,0.4-1.1c0-0.4-0.2-0.7-0.5-1
		c-0.3-0.2-0.6-0.3-1.2-0.3v-0.6c0.5,0,0.9-0.1,1.2-0.3s0.4-0.5,0.4-0.9c0-0.5-0.1-0.8-0.4-1c-0.2-0.1-0.4-0.2-0.7-0.2
		s-0.5,0.1-0.7,0.2c-0.3,0.2-0.5,0.6-0.5,1.1h-1.1c0-0.6,0.3-1.1,0.8-1.5c0.4-0.3,0.9-0.4,1.5-0.4s1.2,0.1,1.5,0.4
		c0.4,0.3,0.7,0.8,0.7,1.3s-0.2,0.9-0.5,1.2c-0.3,0.2-0.6,0.4-0.9,0.5c0.4,0.1,0.7,0.2,1,0.4c0.5,0.3,0.7,0.7,0.7,1.2
		c0,0.6-0.3,1.1-0.8,1.5c-0.4,0.3-1,0.5-1.7,0.5s-1.3-0.2-1.7-0.5c-0.5-0.4-0.7-0.9-0.7-1.6h1.1C133.7,18.3,133.8,18.6,134.1,18.9z"
		/>
</g>
<g>
	<path class="st2" d="M113.2,19.1v0.7h-4.9v-0.6c0.7-1,1.7-2,2.7-3c0.6-0.5,0.9-1.1,0.9-1.7c0-0.4-0.1-0.7-0.4-0.9
		c-0.2-0.1-0.4-0.2-0.8-0.2c-0.3,0-0.5,0.1-0.8,0.3s-0.4,0.7-0.4,1.3h-1.1c0-0.9,0.3-1.5,0.8-1.9c0.4-0.3,0.9-0.4,1.5-0.4
		s1.1,0.2,1.5,0.5c0.5,0.3,0.7,0.8,0.7,1.4c0,0.7-0.4,1.4-1.3,2.2c-0.9,0.8-1.7,1.6-2.3,2.3C109.2,19.1,113.2,19.1,113.2,19.1z"/>
</g>
<g>
	<path class="st2" d="M85.8,19.8V17v-2.8h-1.4v-0.4c1.1,0,1.8-0.3,2-1h0.6v7H85.8z"/>
</g>
<g>
	<path class="st2" d="M182.8,18.9c0.2,0.1,0.5,0.2,0.8,0.2s0.6-0.1,0.8-0.3c0.4-0.3,0.6-0.8,0.6-1.4c0-0.6-0.2-1.1-0.5-1.3
		c-0.2-0.1-0.4-0.2-0.7-0.2c-0.6,0-1,0.3-1.4,0.8h-1l0.3-3.9h4.1v0.7h-3.2l-0.2,2.3c0.4-0.4,0.9-0.5,1.6-0.5c0.5,0,0.9,0.1,1.3,0.4
		c0.5,0.4,0.8,1,0.8,1.7c0,0.8-0.3,1.5-0.9,1.9c-0.5,0.3-1,0.5-1.6,0.5c-0.7,0-1.2-0.1-1.6-0.4c-0.5-0.4-0.7-0.9-0.8-1.6h1.1
		C182.4,18.3,182.5,18.7,182.8,18.9z"/>
</g>
<g>
	<path class="st2" d="M209.1,13.6c-0.1-0.1-0.3-0.1-0.5-0.1c-0.3,0-0.5,0.1-0.7,0.2c-0.5,0.4-0.9,1.2-1,2.4c0.5-0.6,1-0.8,1.6-0.8
		c0.5,0,0.9,0.1,1.3,0.4c0.5,0.4,0.8,1,0.8,1.8c0,0.9-0.3,1.5-0.8,1.9c-0.4,0.3-0.9,0.4-1.5,0.4c-0.5,0-1-0.2-1.5-0.5
		c-0.7-0.5-1-1.5-1-2.9c0-1.4,0.5-2.5,1.4-3.2c0.4-0.3,0.9-0.4,1.4-0.4s0.9,0.1,1.2,0.3c0.5,0.3,0.7,0.8,0.7,1.3h-1.1
		C209.5,14,209.4,13.8,209.1,13.6z M207.6,16.2c-0.4,0.3-0.6,0.7-0.6,1.2c0,0.7,0.2,1.3,0.7,1.6c0.2,0.1,0.4,0.2,0.7,0.2
		s0.5-0.1,0.7-0.3c0.3-0.2,0.4-0.7,0.4-1.4c0-0.7-0.2-1.1-0.5-1.3c-0.2-0.1-0.4-0.2-0.7-0.2C208.1,15.9,207.9,16,207.6,16.2z"/>
</g>
<g>
	<path class="st2" d="M302.4,19.8V17v-2.8h-1.3v-0.4c1,0,1.6-0.3,1.8-1h0.5v7H302.4z"/>
	<path class="st2" d="M306.1,13.3c0.4-0.3,0.9-0.5,1.3-0.5c0.5,0,0.9,0.2,1.3,0.5c0.7,0.6,1,1.6,1,3c0,1.4-0.3,2.5-1,3
		c-0.4,0.3-0.9,0.5-1.3,0.5c-0.5,0-0.9-0.2-1.3-0.5c-0.7-0.6-1-1.6-1-3C305,14.9,305.4,13.9,306.1,13.3z M308,13.7
		c-0.2-0.1-0.4-0.2-0.6-0.2s-0.4,0.1-0.6,0.2c-0.5,0.5-0.8,1.3-0.8,2.6s0.3,2.2,0.8,2.6c0.2,0.1,0.4,0.2,0.6,0.2s0.4-0.1,0.6-0.2
		c0.5-0.5,0.8-1.3,0.8-2.6S308.5,14.1,308,13.7z"/>
</g>
<g>
	<path class="st2" d="M283.4,16.2c0,1.5-0.4,2.5-1.3,3.2c-0.4,0.3-0.9,0.4-1.4,0.4s-0.9-0.1-1.2-0.3c-0.5-0.4-0.8-0.8-0.8-1.3h1.1
		c0,0.3,0.1,0.6,0.4,0.8c0.1,0.1,0.3,0.1,0.5,0.1s0.4-0.1,0.6-0.2c0.5-0.4,0.8-1.1,0.9-2.3c-0.4,0.6-0.9,0.8-1.6,0.8
		c-0.5,0-0.9-0.1-1.3-0.4c-0.5-0.4-0.8-1-0.8-1.9c0-0.8,0.3-1.4,0.9-1.9c0.4-0.3,0.9-0.5,1.4-0.5s1,0.1,1.4,0.4
		C283,13.8,283.4,14.8,283.4,16.2z M280.8,13.4c-0.2,0-0.4,0.1-0.6,0.3c-0.4,0.3-0.5,0.7-0.5,1.4s0.2,1.2,0.5,1.5
		c0.2,0.1,0.4,0.2,0.7,0.2c0.3,0,0.5-0.1,0.8-0.3c0.4-0.3,0.6-0.7,0.6-1.3c0-0.8-0.2-1.3-0.6-1.6C281.2,13.5,281.1,13.4,280.8,13.4z
		"/>
</g>
<g>
	<path class="st2" d="M258.2,16.6c0.5,0.4,0.8,0.8,0.8,1.2c0,0.6-0.3,1.2-0.8,1.6c-0.4,0.3-1,0.5-1.7,0.5s-1.3-0.2-1.7-0.5
		c-0.5-0.4-0.8-0.9-0.8-1.6c0-0.4,0.3-0.8,0.8-1.2c0.2-0.2,0.5-0.3,0.8-0.4c-0.3-0.1-0.5-0.2-0.6-0.3c-0.4-0.3-0.7-0.7-0.7-1.2l0,0
		c0-0.6,0.2-1.1,0.7-1.4c0.4-0.3,0.9-0.5,1.5-0.5s1.1,0.2,1.5,0.5c0.5,0.4,0.7,0.8,0.7,1.4l0,0c0,0.5-0.2,0.9-0.7,1.2
		c-0.2,0.1-0.4,0.2-0.6,0.3C257.9,16.3,258.1,16.4,258.2,16.6z M255.6,16.8c-0.3,0.2-0.5,0.6-0.5,1c0,0.5,0.2,0.8,0.5,1.1
		c0.3,0.2,0.6,0.3,0.9,0.3c0.4,0,0.7-0.1,0.9-0.3c0.3-0.2,0.5-0.6,0.5-1.1c0-0.4-0.2-0.7-0.5-1c-0.3-0.2-0.6-0.3-0.9-0.3
		S256,16.6,255.6,16.8z M255.8,13.7c-0.3,0.2-0.4,0.5-0.4,1l0,0c0,0.4,0.1,0.7,0.4,0.9c0.2,0.2,0.5,0.3,0.8,0.3s0.6-0.1,0.8-0.3
		c0.3-0.2,0.4-0.5,0.4-0.9l0,0c0-0.5-0.1-0.8-0.4-1c-0.2-0.2-0.5-0.3-0.8-0.3S256,13.5,255.8,13.7z"/>
</g>
<g>
	<path class="st2" d="M231.1,19.8l2.4-6.4h-3.6v-0.7h4.6v0.8l-2.3,6.3H231.1z"/>
</g>
<g>
	<path class="st2" d="M355.9,19.8V17v-2.8h-1.3v-0.4c1,0,1.6-0.3,1.8-1h0.5v7H355.9z"/>
	<path class="st2" d="M359.8,18.9c0.2,0.1,0.4,0.2,0.7,0.2c0.3,0,0.5-0.1,0.7-0.3c0.3-0.3,0.5-0.8,0.5-1.4c0-0.6-0.1-1.1-0.4-1.3
		c-0.2-0.1-0.4-0.2-0.6-0.2c-0.5,0-0.9,0.3-1.3,0.8h-0.9l0.3-3.9h3.7v0.7h-2.9l-0.2,2.3c0.4-0.4,0.9-0.5,1.4-0.5
		c0.4,0,0.8,0.1,1.1,0.4c0.5,0.4,0.7,1,0.7,1.7c0,0.8-0.3,1.5-0.8,1.9c-0.4,0.3-0.9,0.5-1.5,0.5s-1.1-0.1-1.4-0.4
		c-0.4-0.4-0.7-0.9-0.7-1.6h1C359.4,18.3,359.5,18.7,359.8,18.9z"/>
</g>
<g>
	<path class="st2" d="M421.6,19.1v0.7h-4.4v-0.6c0.7-1,1.5-2,2.5-3c0.5-0.5,0.8-1.1,0.8-1.7c0-0.4-0.1-0.7-0.4-0.9
		c-0.2-0.1-0.4-0.2-0.7-0.2c-0.2,0-0.5,0.1-0.7,0.3c-0.3,0.2-0.4,0.7-0.4,1.3h-1c0-0.9,0.3-1.5,0.7-1.9c0.3-0.3,0.8-0.4,1.4-0.4
		c0.5,0,1,0.2,1.4,0.5s0.6,0.8,0.6,1.4c0,0.7-0.4,1.4-1.2,2.2c-0.8,0.8-1.5,1.6-2.1,2.3C418,19.1,421.6,19.1,421.6,19.1z"/>
	<path class="st2" d="M423.1,13.3c0.4-0.3,0.9-0.5,1.3-0.5c0.5,0,0.9,0.2,1.3,0.5c0.7,0.6,1,1.6,1,3c0,1.4-0.3,2.5-1,3
		c-0.4,0.3-0.9,0.5-1.3,0.5c-0.5,0-0.9-0.2-1.3-0.5c-0.7-0.6-1-1.6-1-3C422.1,14.9,422.5,13.9,423.1,13.3z M425.1,13.7
		c-0.2-0.1-0.4-0.2-0.6-0.2s-0.4,0.1-0.6,0.2c-0.5,0.5-0.8,1.3-0.8,2.6s0.3,2.2,0.8,2.6c0.2,0.1,0.4,0.2,0.6,0.2s0.4-0.1,0.6-0.2
		c0.5-0.5,0.8-1.3,0.8-2.6S425.6,14.1,425.1,13.7z"/>
</g>
<rect x="358.6" y="36.7" class="st1" width="1.1" height="176.7"/>
<path class="st2" d="M357.4,24.9c-0.5,0.9-1.1,1.6-1.8,2.1l-0.5-0.7c1.1-0.8,1.8-1.9,2.2-3.4l0.9,0.2c0.1,0.1,0.1,0.2-0.1,0.2
	l-0.3,0.8h5.5v0.7h-2.9v1.3h2.3v0.7h-2.3v1.8h3.3v0.7h-3.3v2.3h-0.8v-2.3h-4.5v-0.7h1.8v-2.5h2.7v-1.3L357.4,24.9L357.4,24.9z
	 M357.6,28.7h2v-1.8h-2V28.7z"/>
<path class="st3" d="M312.6,195.8c0,0.8-0.8,1.5-1.7,1.5H300c-1,0-1.7-0.7-1.7-1.5v-64.7c0-0.8,0.8-1.5,1.7-1.5h10.9
	c1,0,1.7,0.7,1.7,1.5V195.8z"/>
<path class="st4" d="M308.8,179.7c-1.2-0.5-2.2-1.1-3.1-2v1.2H305v-1.1c-0.8,0.9-1.8,1.5-3,2l-0.3-0.7c1.4-0.5,2.4-1.2,3.1-1.9h-2.7
	v-0.6h2.9v-0.8h0.6c0.2,0,0.2,0.1,0,0.2v0.6h2.8v0.6h-2.6c0.8,0.8,1.8,1.3,3,1.7L308.8,179.7z M303,156c-0.2,0.5-0.5,0.9-0.8,1.4
	l-0.3-0.7c0.7-0.9,1.1-1.8,1.2-2.7h-1v-0.6h1V152h0.6c0.2,0,0.2,0.1,0,0.2v1.3h0.7v0.2c0.9-0.3,1.6-0.9,2-1.8l0.6,0.2
	c0.1,0.1,0,0.2-0.1,0.2c0.5,0.6,1.3,1.1,2.2,1.6l-0.3,0.6c-0.3-0.1-0.5-0.2-0.8-0.4v0.5h-1v0.6h1.6v2h-0.5V157h-1
	c0.4,0.6,1.1,1,2.1,1.3l-0.3,0.7c-1-0.3-1.7-0.8-2.1-1.5c-0.4,0.9-1.2,1.4-2.3,1.6l-0.2-0.6c1.1-0.2,1.8-0.7,2.1-1.4h-1v0.2h-0.5v-2
	h1.6v-0.6h-1.1v-0.4c-0.2,0.2-0.5,0.3-0.9,0.4l-0.2-0.4h-0.6v1c0.4,0.3,0.7,0.5,0.9,0.7l-0.3,0.6c-0.1-0.2-0.3-0.4-0.6-0.6v3.3h-0.6
	V156H303z M303,172c-0.2,0.5-0.5,0.9-0.8,1.4l-0.3-0.7c0.7-0.9,1.1-1.8,1.2-2.7h-1v-0.6h1V168h0.6c0.2,0,0.2,0.1,0,0.2v1.3h0.7v0.2
	c0.9-0.3,1.6-0.9,2-1.8l0.6,0.2c0.1,0.1,0,0.2-0.1,0.2c0.5,0.6,1.3,1.1,2.2,1.6l-0.3,0.6c-0.3-0.1-0.5-0.2-0.8-0.4v0.5h-1v0.6h1.6v2
	h-0.5V173h-1c0.4,0.6,1.1,1,2.1,1.2l-0.3,0.7c-1-0.3-1.7-0.8-2.1-1.5c-0.4,0.9-1.2,1.4-2.3,1.6l-0.2-0.6c1.1-0.2,1.8-0.7,2.1-1.4h-1
	v0.2h-0.5v-2h1.6v-0.6h-1.1v-0.4c-0.2,0.2-0.5,0.3-0.9,0.4l-0.2-0.4h-0.6v1c0.4,0.3,0.7,0.5,0.9,0.7l-0.3,0.6
	c-0.1-0.2-0.3-0.4-0.6-0.6v3.3h-0.6V172H303z M303.5,179.3h3.9v3.1h1.5v0.5h-6.8v-0.5h1.4V179.3z M302.1,150.6
	c0.4-0.4,0.7-0.9,0.9-1.5l0.7,0.2c-0.1,0.6-0.4,1.2-0.9,1.7L302.1,150.6z M305.6,144c0.2,0,0.2,0.1,0,0.2v0.7h2.6v0.6h-2.6v0.8h2.3
	v2.6h-0.7v-0.2h-3.5v0.2h-0.7v-2.7h1.9V144H305.6L305.6,144z M307.2,148.1v-1.2h-3.5v1.2H307.2z M304.1,180.3h2.6v-0.5h-2.6V180.3z
	 M306.6,180.7H304v0.5h2.6V180.7z M306.6,181.7H304v0.6h2.6V181.7z M304.9,149.3c0.2,0.4,0.2,0.9,0.2,1.7h-0.8c0-0.7,0-1.3-0.1-1.7
	H304.9z M306.1,162.8v1.3h-1.3v-1.3H306.1z M305.2,155.6v0.8h1.1v-0.8H305.2z M305.2,171.6v0.8h1.1v-0.8H305.2z M306.6,152.7
	c-0.3,0.5-0.7,0.9-1.2,1.3h2.6C307.5,153.7,307,153.3,306.6,152.7L306.6,152.7z M306.6,168.7c-0.3,0.5-0.7,0.9-1.2,1.3h2.6
	C307.5,169.7,307,169.3,306.6,168.7L306.6,168.7z M306.2,149.1c0.4,0.6,0.6,1.1,0.6,1.7l-0.8,0.2c-0.1-0.6-0.2-1.1-0.5-1.7
	L306.2,149.1z M308.1,155.6H307v0.8h1.1V155.6z M308.1,171.6H307v0.8h1.1V171.6z M307.6,149.1c0.4,0.4,0.8,0.9,1.1,1.5L308,151
	c-0.3-0.6-0.6-1.1-0.9-1.5L307.6,149.1z"/>
<path class="st3" d="M366.4,195.8c0,0.8-0.8,1.5-1.7,1.5h-10.9c-1,0-1.7-0.7-1.7-1.5v-64.7c0-0.8,0.8-1.5,1.7-1.5h10.9
	c1,0,1.7,0.7,1.7,1.5V195.8z"/>
<path class="st4" d="M362.6,179.7c-1.2-0.5-2.2-1.1-3.1-2v1.2h-0.6v-1.1c-0.8,0.9-1.8,1.5-3,2l-0.3-0.7c1.4-0.5,2.4-1.2,3.1-1.9H356
	v-0.6h2.9v-0.8h0.6c0.2,0,0.2,0.1,0,0.2v0.6h2.8v0.6h-2.6c0.8,0.8,1.8,1.3,3,1.7L362.6,179.7z M356.8,156c-0.2,0.5-0.5,0.9-0.8,1.4
	l-0.3-0.7c0.7-0.9,1.1-1.8,1.2-2.7h-1v-0.6h1V152h0.6c0.2,0,0.2,0.1,0,0.2v1.3h0.7v0.2c0.9-0.3,1.6-0.9,2-1.8l0.6,0.2
	c0.1,0.1,0,0.2-0.1,0.2c0.5,0.6,1.3,1.1,2.2,1.6l-0.3,0.6c-0.3-0.1-0.5-0.2-0.8-0.4v0.5h-1v0.6h1.6v2h-0.5V157h-1
	c0.4,0.6,1.1,1,2.1,1.3l-0.3,0.7c-1-0.3-1.7-0.8-2.1-1.5c-0.4,0.9-1.2,1.4-2.3,1.6l-0.2-0.6c1.1-0.2,1.8-0.7,2.1-1.4h-1v0.2h-0.5v-2
	h1.6v-0.6h-1.1v-0.4c-0.2,0.2-0.5,0.3-0.9,0.4l-0.2-0.4h-0.7v1c0.4,0.3,0.7,0.5,0.9,0.7l-0.3,0.6c-0.1-0.2-0.3-0.4-0.6-0.6v3.3h-0.6
	V156z M356.8,172c-0.2,0.5-0.5,0.9-0.8,1.4l-0.3-0.7c0.7-0.9,1.1-1.8,1.2-2.7h-1v-0.6h1V168h0.6c0.2,0,0.2,0.1,0,0.2v1.3h0.7v0.2
	c0.9-0.3,1.6-0.9,2-1.8l0.6,0.2c0.1,0.1,0,0.2-0.1,0.2c0.5,0.6,1.3,1.1,2.2,1.6l-0.3,0.6c-0.3-0.1-0.5-0.2-0.8-0.4v0.5h-1v0.6h1.6v2
	h-0.5V173h-1c0.4,0.6,1.1,1,2.1,1.2l-0.3,0.7c-1-0.3-1.7-0.8-2.1-1.5c-0.4,0.9-1.2,1.4-2.3,1.6l-0.2-0.6c1.1-0.2,1.8-0.7,2.1-1.4h-1
	v0.2h-0.5v-2h1.6v-0.6h-1.1v-0.4c-0.2,0.2-0.5,0.3-0.9,0.4l-0.2-0.4h-0.7v1c0.4,0.3,0.7,0.5,0.9,0.7l-0.3,0.6
	c-0.1-0.2-0.3-0.4-0.6-0.6v3.3h-0.6V172z M357.2,179.3h3.9v3.1h1.5v0.5h-6.8v-0.5h1.4V179.3z M355.9,150.6c0.4-0.4,0.7-0.9,0.9-1.5
	l0.7,0.2c-0.1,0.6-0.4,1.2-0.9,1.7L355.9,150.6z M359.4,144c0.2,0,0.2,0.1,0,0.2v0.7h2.6v0.6h-2.6v0.8h2.3v2.6h-0.7v-0.2h-3.5v0.2
	h-0.7v-2.7h1.9V144H359.4L359.4,144z M361.1,148.1v-1.2h-3.5v1.2H361.1z M357.9,180.3h2.6v-0.5h-2.6V180.3z M360.5,180.7h-2.6v0.5
	h2.6V180.7z M360.5,181.7h-2.6v0.6h2.6V181.7z M358.6,149.3c0.2,0.4,0.2,0.9,0.2,1.7H358c0-0.7,0-1.3-0.1-1.7H358.6z M359.9,162.8
	v1.3h-1.3v-1.3H359.9z M359,155.6v0.8h1.1v-0.8H359z M359,171.6v0.8h1.1v-0.8H359z M360.2,152.7c-0.3,0.5-0.7,0.9-1.2,1.3h2.6
	C361.1,153.7,360.8,153.3,360.2,152.7L360.2,152.7z M360.2,168.7c-0.3,0.5-0.7,0.9-1.2,1.3h2.6C361.1,169.7,360.8,169.3,360.2,168.7
	L360.2,168.7z M360,149.1c0.4,0.6,0.6,1.1,0.6,1.7l-0.8,0.2c-0.1-0.6-0.2-1.1-0.5-1.7L360,149.1z M361.8,155.6h-1.1v0.8h1.1V155.6z
	 M361.8,171.6h-1.1v0.8h1.1V171.6z M361.5,149.1c0.4,0.4,0.8,0.9,1.1,1.5l-0.8,0.4c-0.3-0.6-0.6-1.1-0.9-1.5L361.5,149.1z"/>
<polygon class="st5" points="427.4,53.2 432,58.6 427.4,63.9 "/>
<polygon class="st5" points="427.6,99.5 432.2,104.8 427.6,110.1 "/>
<polygon class="st5" points="427.6,76.1 432.1,81.4 427.6,86.7 "/>
<g>
	<path class="st2" d="M367.4,92l0.8-0.5l0.2,0.3l-0.8,0.4l0.8,0.4l-0.2,0.3l-0.8-0.5v0.9H367v-0.9l-0.8,0.5l-0.2-0.3l0.8-0.4
		l-0.8-0.4l0.2-0.3L367,92v-0.9h0.4V92z"/>
	<path class="st2" d="M371.5,91.2h-1.3v-0.4h1.3c0-0.1,0.1-0.4,0.1-0.7l0.5,0.1c0,0,0,0.1-0.1,0.1l-0.1,0.5h2.2v0.4h-2.3
		c0,0.2-0.1,0.3-0.2,0.4h1.9V94c0,0.2-0.1,0.3-0.3,0.3h-0.4l-0.1-0.4h0.4c0,0,0.1,0,0.1-0.1v-0.5h-1.6v1h-0.4v-2
		c-0.3,0.3-0.6,0.6-1,0.8l-0.2-0.4C370.8,92.3,371.1,91.8,371.5,91.2z M373.1,92.3v-0.4h-1.6v0.4H373.1z M371.6,92.7v0.4h1.6v-0.4
		H371.6z"/>
	<path class="st2" d="M375.6,94.4h-0.4V92c-0.1,0.1-0.2,0.3-0.3,0.4l-0.3-0.3c0.5-0.6,0.7-1.3,0.8-2l0.4,0.1c0,0,0,0.1-0.1,0.1
		c-0.1,0.3-0.1,0.6-0.2,1c0.1,0,0.1,0,0,0.1v3H375.6z M377,93.7l0.3,0.3c0,0,0,0.1-0.1,0c-0.4,0.2-0.8,0.4-1.3,0.4l-0.1-0.4
		C376.1,94.1,376.6,93.9,377,93.7z M378.2,90.7h0.7v0.8h-0.4V91h-2.4v0.5h-0.4v-0.8h0.6c-0.1-0.1-0.1-0.2-0.2-0.3l0.4-0.2
		c0.1,0.1,0.2,0.2,0.3,0.4l-0.2,0.1h0.5v-0.6h0.4c0.1,0,0.1,0,0,0.1v0.5h0.2c0.1-0.2,0.2-0.4,0.3-0.6l0.4,0.1c0.1,0.1,0.1,0.1,0,0.1
		C378.5,90.5,378.4,90.6,378.2,90.7z M378.6,92.1v1.6h-2.5v-1.6H378.6z M376.6,92.5h1.8v-0.2h-1.8V92.5z M376.6,93h1.8v-0.2h-1.8V93
		z M376.6,93.5h1.8v-0.3h-1.8V93.5z M376.6,91.9v-0.7h1.8v0.7H376.6z M376.9,91.7h1.1v-0.2h-1.1V91.7z M377.6,94l0.2-0.3
		c0.3,0.2,0.7,0.3,1.2,0.3l-0.1,0.3C378.5,94.3,378.1,94.2,377.6,94z"/>
	<path class="st2" d="M379.6,93.7c0.8-0.4,1.3-0.9,1.6-1.4c-0.4-0.2-0.7-0.4-0.9-0.5l0.2-0.4c0.3,0.1,0.6,0.3,0.9,0.5
		c0.2-0.4,0.3-0.8,0.4-1.4l0.5,0.1c0.1,0,0.1,0.1,0,0.1c-0.2,0.6-0.3,1.1-0.5,1.4c0.3,0.2,0.5,0.4,0.7,0.5l-0.2,0.4
		c-0.2-0.2-0.5-0.4-0.7-0.5c-0.5,0.6-1,1.1-1.6,1.5L379.6,93.7z"/>
	<path class="st2" d="M386.6,91.8c-0.7,1.4-1.8,2.1-3.3,2.2c-0.1,0.2-0.1,0.2-0.2,0l-0.2-0.5c1.6,0,2.7-0.7,3.3-2L386.6,91.8z
		 M383.1,91.1l0.3-0.4c0.3,0.2,0.6,0.4,1,0.8l-0.4,0.4C383.6,91.5,383.4,91.3,383.1,91.1z"/>
	<path class="st2" d="M389,92.1h-1.9v-0.4h3.8v0.4h-1.5v0.2c0,0.8-0.3,1.4-0.8,1.9l-0.4-0.3C388.7,93.5,389,92.9,389,92.1L389,92.1z
		 M387.8,91v-0.4h2.5V91H387.8z"/>
	<path class="st2" d="M393.6,91.5h1.7v0.4h-1.7v0.3c0,0.9-0.4,1.6-1.2,2.1L392,94c0.8-0.4,1.2-1,1.2-1.8v-0.3h-1.9v-0.4h1.8v-1.1
		h0.4c0.1,0,0.2,0.1,0.1,0.1V91.5z"/>
	<path class="st2" d="M399.6,91.8c-0.7,1.4-1.8,2.1-3.3,2.2c-0.1,0.2-0.1,0.2-0.2,0l-0.2-0.5c1.6,0,2.7-0.7,3.3-2L399.6,91.8z
		 M396,91.1l0.3-0.4c0.3,0.2,0.6,0.4,1,0.8l-0.4,0.4C396.6,91.5,396.2,91.3,396,91.1z"/>
	<path class="st2" d="M404,93.7l-0.4,0.3c-0.5-0.5-1-1-1.5-1.4c-0.5,0.5-1,1-1.7,1.4l-0.4-0.3c1.3-0.9,2.2-1.7,2.5-2.6l-2,0.1
		l-0.1-0.4l2.2-0.1l0.2-0.1l0.3,0.3c0.1,0.1,0.1,0.1-0.1,0.2c-0.2,0.4-0.5,0.8-0.7,1.1C402.9,92.7,403.5,93.2,404,93.7z"/>
	<path class="st2" d="M406.4,93.5v-2.3h-1.5v-0.4h3.4v0.4h-1.5v2.3h1.8v0.4h-4.1v-0.4H406.4z"/>
	<path class="st2" d="M411.1,94v-0.4h-1.5v-0.3h1.5V93h-2v-0.3h2v-0.3h-1.5v-0.3h1.5v-0.3h-0.6h-0.6V91h1.3v-0.2h-1.9v-0.3h1.9v-0.4
		h0.4c0.1,0,0.1,0,0,0.1v0.3h1.8v0.3h-1.8V91h1.2v0.8h-1.2v0.3h1.4v0.6h0.5V93H413v0.7h-0.4v-0.1h-1.1v0.5c0,0.2-0.1,0.3-0.3,0.3
		h-0.4l-0.1-0.4H411.1L411.1,94z M410.2,91.7h0.9v-0.4h-0.9V91.7z M411.6,91.7h0.9v-0.4h-0.9V91.7z M412.6,92.7v-0.3h-1.1v0.3H412.6
		z M411.6,93.3h1.1V93h-1.1V93.3z"/>
	<path class="st2" d="M414.2,94.4l-0.1-0.4c0.9,0,1.5-0.2,1.9-0.4c-0.3-0.1-0.6-0.1-0.8-0.2l-0.1,0.1l-0.3-0.2l0.5-0.6h-1.3v-0.3
		h1.5l0.3-0.4h-1v0.1h-0.3v-1.2h1v-0.4h-1.4v-0.3h4v0.3h-1.4v0.4h1v1.2h-0.3V92h-1.4l0.2,0.1c0.1,0,0,0.1-0.1,0.1l-0.2,0.2h2.3v0.3
		h-1c-0.2,0.2-0.3,0.5-0.5,0.7c0.4,0.1,0.8,0.3,1.3,0.5l-0.2,0.3c-0.4-0.2-0.8-0.4-1.3-0.6C416.1,94.1,415.4,94.3,414.2,94.4z
		 M414.9,91.9h0.7v-0.5h-0.7V91.9z M415.8,92.9l-0.3,0.4c0.3,0,0.6,0.1,1,0.2c0.2-0.1,0.4-0.3,0.5-0.5L415.8,92.9L415.8,92.9z
		 M415.9,90.7v0.4h0.6v-0.4H415.9z M415.9,91.4v0.5h0.6v-0.5H415.9z M416.8,91.4v0.5h0.7v-0.5H416.8z"/>
</g>
<g>
	<polygon class="st6" points="413.9,76.3 365.2,76.3 365.2,88.4 413.9,88.4 413.9,88.3 418.5,82.3 	"/>
	<g>
		<path class="st7" d="M369.4,84.9c0.5-0.3,0.8-0.5,1-0.7c-0.2-0.4-0.4-0.9-0.6-1.4l0.5-0.2c0.1,0.4,0.3,0.8,0.4,1
			c0.1-0.6,0.2-1.2,0.3-1.7h-0.7c-0.1,0.1-0.2,0.3-0.3,0.4l-0.5-0.3c0.5-0.8,1-1.4,1.3-2h-1.4v-0.5h1.6l0.1-0.1l0.5,0.4l-0.1,0.1
			c-0.3,0.5-0.6,1.1-0.9,1.6h1c-0.1,1.1-0.2,2.1-0.5,2.8c0.4,0.3,0.9,0.4,1.6,0.4h3l-0.1,0.6h-2.8c-0.8,0-1.4-0.2-1.9-0.6
			c-0.2,0.3-0.6,0.6-1,0.8L369.4,84.9z M375.1,79.9c0.1,0.1,0,0.1-0.2,0.1c-0.4,0.1-0.7,0.1-1,0.2v1.3h1.2V82h-1.2v1.6h1.4V84h-3.8
			v-0.5h0.7V81h0.5c0.1,0,0.2,0.1,0,0.2v2.3h0.7v-3.3c-0.6,0.1-1.1,0.1-1.6,0.1l-0.1-0.5c1.1,0,2.1-0.1,3.1-0.4L375.1,79.9z"/>
		<path class="st7" d="M382.1,85.4c-1.6-0.4-2.6-1.2-3.1-2.5h-0.8v1.8l1.5-0.3l0.1,0.5l-2.8,0.6c0,0.1-0.1,0.2-0.1,0.1l-0.2-0.7
			l1-0.1v-1.9h-1.3v-0.5h1.3v-3h3.9v0.5h-3.4v0.4h3v0.5h-3v0.5h3.1v0.5h-3.1v0.5h4.2v0.5h-2.8c0.1,0.2,0.3,0.5,0.6,0.8l0.9-0.7
			l0.5,0.3c0.1,0.1,0.1,0.1-0.1,0.1l-0.8,0.6c0.4,0.3,1,0.5,1.9,0.7L382.1,85.4z"/>
	</g>
</g>
<g>
	<polygon class="st6" points="352,76.7 352,76.7 310.8,76.7 310.8,88.7 352,88.7 356.5,82.7 	"/>
	<g>
		<path class="st7" d="M314.9,85.2c0.5-0.3,0.8-0.5,1-0.7c-0.2-0.4-0.4-0.9-0.6-1.4l0.5-0.2c0.1,0.4,0.3,0.8,0.4,1
			c0.1-0.6,0.2-1.2,0.3-1.7h-0.7c-0.1,0.1-0.2,0.3-0.3,0.4l-0.5-0.3c0.5-0.8,1-1.4,1.3-2h-1.4v-0.5h1.6l0.1-0.1l0.5,0.4l-0.1,0.1
			c-0.3,0.5-0.6,1.1-0.9,1.6h1c-0.1,1.1-0.2,2.1-0.5,2.8c0.4,0.3,0.9,0.4,1.6,0.4h3l-0.1,0.6h-2.8c-0.8,0-1.4-0.2-1.9-0.6
			c-0.2,0.3-0.6,0.6-1,0.8L314.9,85.2z M320.6,80.3c0.1,0.1,0,0.1-0.2,0.1c-0.4,0.1-0.7,0.1-1,0.2v1.3h1.2v0.5h-1.2V84h1.4v0.5H317
			V84h0.7v-2.5h0.5c0.1,0,0.2,0.1,0,0.2V84h0.7v-3.3c-0.6,0.1-1.1,0.1-1.6,0.1l-0.1-0.5c1.1,0,2.1-0.1,3.1-0.4L320.6,80.3z"/>
		<path class="st7" d="M327.6,85.7c-1.6-0.4-2.6-1.2-3.1-2.5h-0.8V85l1.5-0.3l0.1,0.5l-2.8,0.6c0,0.1-0.1,0.2-0.1,0.1l-0.2-0.7
			l1-0.1v-1.9h-1.3v-0.5h1.3v-3h3.9v0.5h-3.4v0.4h3v0.5h-3v0.5h3.1v0.5h-3.1v0.5h4.2v0.5h-2.8c0.1,0.2,0.3,0.5,0.6,0.8l0.9-0.7
			l0.5,0.3c0.1,0.1,0.1,0.1-0.1,0.1l-0.8,0.6c0.4,0.3,1,0.5,1.9,0.7L327.6,85.7z"/>
	</g>
</g>
<g>
	<path class="st4" d="M24.8,97.4v1.8c0-0.1-1.6,0-1.6,0v0.8c0.1,0.1,1.7,0,1.7,0l-0.1,1.4l-1.2,0.8c-0.4,0.4-0.6,1-0.6,1.6
		c0,0.4,0.1,0.7,0.4,0.9c0.3,0.3,0.6,0.4,0.9,0.4c0.4,0,0.8-0.1,1-0.4c0.3-0.3,0.4-0.6,0.4-1.1v-1.8c0.5-0.1,1-0.2,1.5-0.2
		c0.6,0,1.1,0.1,1.4,0.4s0.5,0.6,0.5,1c0,0.3-0.1,0.6-0.2,0.7c-0.2,0.2-0.4,0.3-0.7,0.3l-0.6-0.2l-0.4-0.6l-0.7,0.4
		c0,0.1,0.5,0.8,0.5,0.8c0.3,0.3,0.7,0.4,1.2,0.4s1-0.2,1.3-0.5c0.3-0.3,0.4-0.7,0.4-1.3c0-0.6-0.2-1.1-0.6-1.5
		c-0.5-0.5-1.2-0.7-2.2-0.7l-1.5,0.2l0.1-1.3l1.5-0.3L27,98.6c-0.1,0-1.5,0.4-1.5,0.4l0.1-1.3c0.1,0,0.2-0.1,0.1-0.2
		c0-0.1-0.1-0.1-0.2-0.1L24.8,97.4z M23.8,104.2l-0.1-0.4c0-0.4,0.1-0.7,0.4-1l0.7-0.6l-0.1,1.3c0,0.6-0.2,0.9-0.6,0.9L23.8,104.2z
		 M27.8,98.9L27.8,98.9l1.7,1.5l0.7-0.6c-0.4-0.6-1-1.1-1.8-1.6L27.8,98.9z"/>
	<path class="st4" d="M26.9,100.9c1,0,1.7,0.2,2.2,0.7c0.4,0.4,0.6,0.9,0.6,1.5c0,0.5-0.1,0.9-0.4,1.2c-0.3,0.3-0.8,0.5-1.3,0.5
		s-0.9-0.1-1.1-0.4c-0.2-0.2-0.4-0.5-0.6-0.7l0.6-0.4c0.1,0.2,0.2,0.4,0.4,0.6c0.2,0.2,0.4,0.2,0.7,0.2c0.3,0,0.5-0.1,0.7-0.3
		c0.2-0.2,0.2-0.4,0.2-0.8s-0.2-0.7-0.5-1c-0.3-0.3-0.8-0.5-1.5-0.5c-0.5,0-1,0.1-1.6,0.3v1.8c0,0.4-0.1,0.8-0.4,1
		c-0.3,0.3-0.6,0.4-1,0.4c-0.3,0-0.6-0.1-0.8-0.4c-0.2-0.2-0.3-0.5-0.3-0.9c0-0.6,0.2-1.2,0.6-1.6c0.3-0.3,0.7-0.6,1.2-0.9v-1.5
		c-0.6,0.1-1.1,0.1-1.6,0.1l-0.1-0.7c0.5,0,1,0,1.7-0.1v-1.7h0.7c0.2,0,0.2,0.1,0,0.3V99c0.5-0.1,1-0.2,1.4-0.4l0.2,0.8
		c-0.4,0.1-1,0.3-1.6,0.3v1.4C26,101,26.5,100.9,26.9,100.9z M24,102.7c-0.3,0.3-0.5,0.7-0.5,1.1c0,0.2,0,0.4,0.1,0.5
		s0.3,0.2,0.4,0.2c0.4,0,0.6-0.3,0.6-1v-1.4C24.4,102.3,24.2,102.5,24,102.7z M28.3,98.3c0.8,0.5,1.4,1,1.8,1.5l-0.6,0.6
		c-0.6-0.6-1.1-1-1.7-1.4L28.3,98.3z"/>
	<path class="st4" d="M28.6,107.9v7.3l0.8,0.1l0.1-7.1c0,0,0.1-0.1,0.1-0.2s-0.1-0.1-0.2-0.1C29.4,107.9,28.6,107.9,28.6,107.9z
		 M22.8,108v0.7l3.3,0.1l-0.1,1l-2.5-0.1c-0.1,0.1-0.6,2.9-0.6,2.9l0.8,0.2l0.1-0.4l2.3,0.1c-0.2,0.9-0.3,1.6-0.5,1.9
		c-0.1,0.1-0.2,0.2-0.5,0.2h-1.3v0.7l1.5,0.1c0.4,0,0.7-0.1,0.9-0.3c0.3-0.4,0.6-1.5,0.7-3.3l-3-0.1c0.1,0,0.2-0.7,0.2-0.7l0.1-0.4
		l1.9,0.1v0.2h0.7l0.1-2.7L22.8,108z"/>
	<path class="st4" d="M26.1,115c-0.2,0.2-0.4,0.3-0.8,0.3h-1.4l-0.1-0.7h1.3c0.3,0,0.4-0.1,0.5-0.2c0.2-0.3,0.3-1,0.4-2h-2.3
		l-0.1,0.3l-0.7-0.1c0.3-1.1,0.4-2,0.5-2.8H26v-1.1h-3.2V108h3.9v2.6H26v-0.2h-1.9c0,0.1-0.1,0.6-0.2,1.2h2.9
		C26.6,113.5,26.4,114.6,26.1,115z M29.4,115.3h-0.7V108h0.7c0.2,0,0.2,0.1,0,0.2V115.3z"/>
	<path class="st4" d="M26.9,117v1h-2.3l-0.1,4.2c0,0.9-0.3,1.7-0.8,2.3l0.6,0.7c0.7-0.7,1-1.7,1-2.9v-2.1l0.9,0.1l-0.1,0.5v0.6
		l2.5,0.1l0.1-1.3l1.3,0.1l0.1-0.7l-1.5-0.1l0.1-0.2c0,0,0.1-0.1,0.1-0.2s-0.1-0.1-0.2-0.1H28l-0.1,0.6l-1.1-0.1l0.1-0.2
		c0,0,0.1-0.1,0.1-0.2s-0.1-0.1-0.2-0.1h-0.6l-0.1,0.6l-0.9-0.1l0.1-0.7l4.7,0.1l0.1-0.7l-2.4-0.1l0.1-0.6c0.1,0,0.2-0.1,0.1-0.2
		c0-0.1-0.1-0.1-0.2-0.2L26.9,117z M28.1,120.2l-0.1,0.6l-1.1-0.1c0,0,0-0.4,0.1-0.5C27.1,120.2,28.1,120.2,28.1,120.2z M22.6,118
		L22.6,118l1,1.2l0.7-0.6c0-0.1-1.1-1.1-1.1-1.1L22.6,118z M22.4,120L22.4,120l1,1.1l0.7-0.6c0-0.1-1.1-1.1-1.1-1.1L22.4,120z
		 M28.9,121.6h-3.2l-0.1,0.7c0,0,0.5,0.1,0.6,0.1l0,0l0.9,1.3c-0.6,0.2-1.3,0.4-2.1,0.5l0.2,0.9c1-0.1,1.8-0.5,2.5-0.9
		c0.4,0.4,1.2,0.7,2.3,0.9l0.3-0.8c-0.7-0.2-1.4-0.3-2.1-0.6c0.5-0.3,1-0.7,1.3-1.3c0,0,0.2,0,0.2-0.1s0-0.2-0.1-0.2L28.9,121.6
		C29.2,121.5,29,121.6,28.9,121.6z M28.6,122.4c-0.2,0-0.9,0.8-1,0.8l0,0c0-0.1-0.4-0.6-0.6-0.8C27.3,122.4,28.6,122.4,28.6,122.4z
		 M22.2,124.3L22.2,124.3L22.2,124.3l0.7,0.7H23c0.1,0,0.1-0.1,0.1-0.4l1.1-2.5l-0.6-0.5C23.5,121.8,22.2,124.3,22.2,124.3z"/>
	<path class="st4" d="M22.3,124.4c0.4-0.7,0.8-1.6,1.2-2.5l0.6,0.4c-0.4,1.1-0.8,1.9-1.1,2.5c0,0.3,0,0.4-0.1,0.2L22.3,124.4z
		 M23.5,121.1c-0.3-0.4-0.7-0.7-1-1l0.6-0.6c0.4,0.3,0.7,0.6,1,1L23.5,121.1z M23.2,117.5c0.3,0.2,0.7,0.6,1,1l-0.6,0.6
		c-0.3-0.4-0.6-0.7-1-1.1L23.2,117.5z M24.6,118H27v-0.9h0.8c0.2,0,0.2,0.1,0,0.3v0.7h2.3v0.7h-4.8v0.7h1V119h0.6
		c0.2,0,0.2,0.1,0,0.2v0.3h1.2V119h0.5c0.2,0,0.2,0.1,0,0.2v0.3H30v0.7h-1.4v1.2h-2.4v-0.6v-0.6h-1v2.1c0,1.2-0.3,2.1-0.9,2.8
		l-0.6-0.6c0.5-0.6,0.8-1.4,0.8-2.3V118H24.6z M28.3,123.6c0.7,0.3,1.4,0.5,2,0.6l-0.2,0.8c-1.1-0.2-1.9-0.5-2.4-0.9
		c-0.7,0.5-1.5,0.8-2.4,1l-0.3-0.8c0.8-0.1,1.5-0.4,2.1-0.7c-0.4-0.4-0.7-0.8-1-1.3h-0.5v-0.7h3.3l0.2-0.2l0.6,0.5
		c0.1,0.1,0.1,0.2-0.1,0.2C29.3,122.8,28.8,123.2,28.3,123.6z M26.9,120.7h1.2V120h-1.2V120.7z M27.8,123.2c0.3-0.2,0.6-0.5,1-0.9
		h-1.8C27.1,122.7,27.4,123,27.8,123.2z"/>
	<path class="st4" d="M24.1,126.5v4.7c0,0.9,0.2,1.5,0.5,1.8c0.4,0.4,1,0.6,1.9,0.6c1.2,0,2.3-0.6,3.3-1.7l-0.5-0.7
		c-1,1-1.9,1.5-2.8,1.5c-0.5,0-0.9-0.1-1.1-0.4c-0.2-0.2-0.3-0.6-0.3-1.1v-4.4c0,0,0.1-0.1,0.1-0.2s-0.2-0.1-0.2-0.2L24.1,126.5z"/>
	<path class="st4" d="M26.4,133.5c-0.8,0-1.4-0.2-1.8-0.6c-0.3-0.3-0.5-0.9-0.5-1.7v-4.6h0.7c0.2,0,0.2,0.1,0.1,0.3v4.4
		c0,0.6,0.1,1,0.3,1.2c0.3,0.3,0.6,0.4,1.1,0.4c0.9,0,1.8-0.5,2.7-1.5l0.5,0.7C28.8,133,27.6,133.5,26.4,133.5z"/>
	<path class="st4" d="M23.5,136.2v6.8l0.9,0.1l0.1-0.7l3.8,0.1l-0.1,0.4l0.9,0.1l0.1-6.6L23.5,136.2z M28.2,137l-0.1,1.9l-3.8-0.1
		c0,0,0.1-1.7,0.1-1.8C24.5,137,28.2,137,28.2,137z M28.2,139.7l-0.1,2l-3.8-0.1c0,0,0.1-1.8,0.1-2
		C24.5,139.7,28.2,139.7,28.2,139.7z"/>
	<path class="st4" d="M24.4,143h-0.8v-6.7H29v6.6h-0.8v-0.5h-3.8C24.4,142.4,24.4,143,24.4,143z M28.2,138.9v-2h-3.8v2H28.2z
		 M28.2,141.7v-2.1h-3.8v2.1H28.2z"/>
</g>
<g>
	<path class="st4" d="M448.1,48.4v1.8c0-0.1-1.6,0-1.6,0V51c0.1,0.1,1.7,0,1.7,0l-0.1,1.4l-1.2,0.8c-0.4,0.4-0.6,1-0.6,1.6
		c0,0.4,0.1,0.7,0.4,0.9c0.3,0.3,0.6,0.4,0.9,0.4c0.4,0,0.8-0.1,1-0.4c0.3-0.3,0.4-0.6,0.4-1.1v-1.8c0.5-0.1,1-0.2,1.5-0.2
		c0.6,0,1.1,0.1,1.4,0.4c0.3,0.3,0.5,0.6,0.5,1c0,0.3-0.1,0.6-0.2,0.7c-0.2,0.2-0.4,0.3-0.7,0.3l-0.6-0.2l-0.4-0.6l-0.7,0.4
		c0,0.1,0.5,0.8,0.5,0.8c0.3,0.3,0.7,0.4,1.2,0.4s1-0.2,1.3-0.5s0.4-0.7,0.4-1.3s-0.2-1.1-0.6-1.5c-0.5-0.5-1.2-0.7-2.2-0.7
		l-1.5,0.2l0.1-1.3l1.5-0.3l-0.1-0.8c-0.1,0-1.5,0.4-1.5,0.4l0.1-1.3c0.1,0,0.2-0.1,0.1-0.2c0-0.1-0.1-0.1-0.2-0.1L448.1,48.4z
		 M447.2,55.2l-0.1-0.4c0-0.4,0.1-0.7,0.4-1l0.7-0.6l-0.1,1.3c0,0.6-0.2,0.9-0.6,0.9L447.2,55.2z M451.1,49.9L451.1,49.9l1.7,1.5
		l0.7-0.6c-0.4-0.6-1-1.1-1.8-1.6L451.1,49.9z"/>
	<path class="st4" d="M450.4,51.9c1,0,1.7,0.2,2.2,0.7c0.4,0.4,0.6,0.9,0.6,1.5c0,0.5-0.1,0.9-0.4,1.2s-0.8,0.5-1.3,0.5
		s-0.9-0.1-1.1-0.4c-0.2-0.2-0.4-0.5-0.6-0.7l0.6-0.4c0.1,0.2,0.2,0.4,0.4,0.6c0.2,0.2,0.4,0.2,0.7,0.2c0.3,0,0.5-0.1,0.7-0.3
		s0.2-0.4,0.2-0.8c0-0.4-0.2-0.7-0.5-1s-0.8-0.5-1.5-0.5c-0.5,0-1,0.1-1.6,0.3v1.8c0,0.4-0.1,0.8-0.4,1c-0.3,0.3-0.6,0.4-1,0.4
		c-0.3,0-0.6-0.1-0.8-0.4c-0.2-0.2-0.3-0.5-0.3-0.9c0-0.6,0.2-1.2,0.6-1.6c0.3-0.3,0.7-0.6,1.2-0.9v-1.5c-0.6,0.1-1.1,0.1-1.6,0.1
		l-0.1-0.7c0.5,0,1.1,0,1.7-0.1v-1.7h0.7c0.2,0,0.2,0.1,0,0.3V50c0.5-0.1,1-0.2,1.4-0.4l0.2,0.8c-0.4,0.1-1,0.3-1.6,0.3v1.4
		C449.5,52,450,51.9,450.4,51.9z M447.5,53.7c-0.3,0.3-0.4,0.7-0.4,1.1c0,0.2,0,0.4,0.1,0.5s0.3,0.2,0.4,0.2c0.4,0,0.6-0.3,0.6-1
		v-1.4C447.9,53.3,447.6,53.5,447.5,53.7z M451.8,49.3c0.8,0.5,1.4,1,1.8,1.5l-0.6,0.6c-0.6-0.6-1.1-1-1.7-1.4L451.8,49.3z"/>
	<path class="st4" d="M449.5,58.3L449.5,58.3L449.5,58.3c0.5,0.4,0.9,0.8,1.2,1.2l-2.5-0.1l-0.1,0.7l2.3,0.1l-0.1,1.7l-1.8-0.1
		l-0.1,0.7l2,0.1l-0.1,2l-2.5-0.1l-0.1,0.7l5.8,0.1l0.1-0.7l-2.5-0.1l0.1-2l1.7,0.1l0.1-0.7l-1.9-0.1l0.1-1.7l2.1,0.1l0.1-0.7
		l-2.5-0.1l0.6-0.4c-0.3-0.6-0.7-1-1.3-1.3L449.5,58.3z M445.6,61.5L445.6,61.5l0.5,0.6c0.1,0,0.9-1,0.9-1l-0.1,4.5l0.8,0.1l0.1-5.4
		c0.1,0,0.1,0,0.1-0.1v-0.1l-0.1-0.1h-0.2c0.1,0,0.7-1.6,0.7-1.6c0.1,0,0.1,0,0.1-0.1v-0.1l-0.1-0.1l-0.8-0.3
		C447.1,59.2,446.5,60.4,445.6,61.5z"/>
	<path class="st4" d="M448.1,58.1c0.1,0.1,0.1,0.2-0.1,0.2c-0.2,0.6-0.4,1.1-0.7,1.7h0.2c0.1,0.1,0,0.1-0.1,0.2v5.4h-0.7V61
		c-0.2,0.3-0.5,0.7-0.8,1l-0.5-0.5c1-1.1,1.6-2.3,1.8-3.7L448.1,58.1z M450.1,57.7c0.6,0.3,1,0.7,1.3,1.2l-0.5,0.6h2.5v0.7h-2.1v1.7
		h1.8v0.7h-1.8v2.1h2.5v0.7H448v-0.7h2.5v-2.1h-1.9v-0.7h1.9v-1.7h-2.3v-0.7h2.6c-0.3-0.4-0.7-0.8-1.2-1.1L450.1,57.7z"/>
	<path class="st4" d="M446.5,70.1c0,1.3,0.1,2.2,0.2,2.6c0.3,0.7,0.7,1,1.3,1c0.3,0,0.7-0.2,1-0.6l0.7-1.2l-0.7-0.6
		c-0.1,0-0.4,0.9-0.4,0.9c-0.2,0.3-0.4,0.5-0.6,0.5s-0.3-0.2-0.5-0.5c-0.1-0.4-0.2-1.1-0.2-2l0.1-2.3c0.1,0,0.2-0.1,0.2-0.2
		s-0.2-0.2-0.3-0.2l-0.7-0.2C446.6,67.3,446.5,70.1,446.5,70.1z M451,68.1L451,68.1L451,68.1c0.8,1,1.4,2.2,1.7,3.8l1-0.2
		c-0.2-1.6-0.8-3-1.9-4.1L451,68.1z"/>
	<path class="st4" d="M449,73c-0.3,0.4-0.6,0.6-1,0.6c-0.6,0-1-0.3-1.3-1c-0.2-0.4-0.2-1.2-0.2-2.5c0-0.9,0-1.9,0.1-2.8l0.7,0.2
		c0.3,0.1,0.3,0.2,0,0.3c-0.1,0.9-0.1,1.6-0.1,2.3c0,0.9,0.1,1.6,0.2,2s0.3,0.6,0.5,0.6c0.3,0,0.5-0.2,0.7-0.6
		c0.1-0.2,0.2-0.5,0.3-0.8l0.7,0.5C449.5,72.3,449.2,72.7,449,73z M453.6,71.7l-0.9,0.2c-0.3-1.6-0.8-2.9-1.7-3.8l0.7-0.4
		C452.8,68.8,453.4,70.2,453.6,71.7z"/>
	<path class="st4" d="M447.1,76.9L447.1,76.9c-0.7,0.7-1.1,1.6-1.1,2.6c0,0.8,0.3,1.6,0.9,2.1c0.2,0.2,0.5,0.3,0.9,0.3
		c0.3,0,0.7-0.2,1-0.5c0.6-0.6,1-2,1.4-4.3c0.1,0,0.2-0.1,0.2-0.2s-0.1-0.2-0.2-0.2l-0.6-0.3c1,0.1,1.7,0.3,2.2,0.8s0.7,1.1,0.7,1.8
		c0,0.6-0.2,1.1-0.6,1.5c-0.5,0.5-1.1,0.8-1.9,1.1l0.7,0.8c0.9-0.4,1.5-0.7,1.9-1.1c0.6-0.6,0.9-1.4,0.9-2.4c0-0.9-0.3-1.7-1-2.3
		c-0.6-0.6-1.4-0.9-2.4-0.9C448.9,75.7,447.9,76.1,447.1,76.9z M447.4,80.8c-0.3-0.3-0.5-0.8-0.5-1.3c0-0.9,0.3-1.6,0.9-2.2
		c0.4-0.4,0.9-0.7,1.5-0.8c-0.3,2.2-0.7,3.6-1.2,4.1l-0.4,0.2L447.4,80.8z"/>
	<path class="st4" d="M448.6,81.4c-0.3,0.3-0.6,0.5-0.9,0.5c-0.4,0-0.7-0.1-0.9-0.3c-0.6-0.6-0.8-1.2-0.8-2.1c0-1,0.4-1.9,1.1-2.6
		c0.8-0.8,1.7-1.2,2.9-1.2c1,0,1.8,0.3,2.4,0.9s1,1.4,1,2.3s-0.3,1.7-0.9,2.3c-0.4,0.4-1,0.8-1.8,1.1l-0.7-0.7
		c0.8-0.3,1.4-0.6,1.9-1.1c0.4-0.4,0.7-1,0.7-1.6c0-0.7-0.2-1.4-0.7-1.8c-0.5-0.5-1.2-0.7-2.3-0.7l0.6,0.3c0.3,0.1,0.3,0.2,0,0.4
		C449.6,79.5,449.1,80.9,448.6,81.4z M447.8,77.4c-0.6,0.6-0.9,1.3-0.9,2.2c0,0.5,0.2,1,0.5,1.3c0.1,0.1,0.2,0.1,0.3,0.1
		c0.1,0,0.3-0.1,0.5-0.2c0.5-0.5,0.9-2,1.2-4.3C448.6,76.6,448.1,76.9,447.8,77.4z"/>
	<path class="st4" d="M448.5,83.8l-0.1,1.6h-1.6l0.1,0.8h1.5l-0.1,1.2l-1,0.7c-0.5,0.5-0.8,1.2-0.8,2c0,0.5,0.1,0.8,0.4,1.1
		c0.2,0.2,0.5,0.4,0.8,0.4c0.4,0,1-0.3,1.6-0.8l0.1,0.4l0.8-0.5l-0.2-0.5c0.5-0.4,0.9-1.3,1.3-2.5c0.4,0.1,0.8,0.3,1.1,0.5
		c0.2,0.2,0.4,0.6,0.4,1.1c0,0.4-0.1,0.8-0.4,1c-0.3,0.3-0.9,0.5-1.9,0.6l0.4,0.9c1.1-0.1,1.8-0.4,2.2-0.9c0.4-0.4,0.6-0.9,0.6-1.6
		s-0.2-1.3-0.7-1.7c-0.4-0.4-1-0.6-1.7-0.7l0.1-0.2c0,0,0.1-0.1,0.1-0.2s-0.2-0.1-0.2-0.2l-0.7-0.1l-0.2,0.6L449,87l0.2-1
		c0,0.1,3-0.2,3-0.2l-0.1-0.8c-0.1-0.1-2.9,0.3-2.9,0.3c0.1,0,0.2-1.1,0.2-1.1s0.1-0.1,0.1-0.2l0,0c0-0.1-0.2-0.1-0.2-0.2
		L448.5,83.8z M447.5,90.7l-0.2-0.4c0-0.6,0.2-1.2,0.6-1.6l0.6-0.5c-0.1,0.6,0.1,1.3,0.3,2c-0.4,0.4-0.8,0.6-1.1,0.6L447.5,90.7z
		 M450.2,87.7c-0.2,0.7-0.5,1.3-0.9,1.8c-0.1-0.5-0.2-1.1-0.2-1.6C449.2,87.9,450.2,87.7,450.2,87.7z"/>
	<path class="st4" d="M452.2,90.5c0.3-0.3,0.4-0.6,0.4-1.1s-0.1-0.9-0.4-1.1c-0.3-0.3-0.7-0.5-1.2-0.5c-0.4,1.2-0.8,2-1.2,2.5
		l0.2,0.5l-0.7,0.5l-0.2-0.4c-0.6,0.5-1.1,0.8-1.5,0.8c-0.3,0-0.5-0.1-0.8-0.3c-0.3-0.3-0.4-0.6-0.4-1c0-0.8,0.3-1.4,0.8-2
		c0.3-0.3,0.7-0.6,1-0.8l0.1-1.3l-1.5,0.1l-0.1-0.8h1.6c0-0.5,0.1-1,0.1-1.5h0.7c0.2,0,0.3,0.1,0.1,0.3c0,0.4-0.1,0.8-0.1,1.2
		c1.1-0.1,2.1-0.2,2.8-0.3l0.1,0.8c-1,0.1-2,0.2-3,0.2l-0.1,1.1c0.3-0.1,0.8-0.2,1.4-0.2l0.1-0.6l0.7,0.1c0.2,0,0.2,0.1,0.1,0.3v0.2
		c0.7,0.1,1.3,0.3,1.7,0.7c0.4,0.4,0.7,1,0.7,1.7c0,0.6-0.2,1.2-0.6,1.6s-1.1,0.7-2.1,0.9l-0.5-0.8C451.4,91,452,90.8,452.2,90.5z
		 M447.8,88.7c-0.4,0.4-0.6,1-0.6,1.6c0,0.2,0.1,0.3,0.2,0.5c0,0,0.1,0.1,0.3,0.1c0.3,0,0.7-0.2,1.2-0.7c-0.2-0.7-0.4-1.4-0.4-2
		C448.2,88.3,448.1,88.4,447.8,88.7z M449.5,89.6c0.4-0.5,0.6-1.1,0.8-1.9c-0.4,0-0.8,0.1-1.1,0.2C449.1,88.4,449.2,89,449.5,89.6z"
		/>
	<path class="st4" d="M450.8,93.7l-3,0.2l0.2,0.9c0.1,0,2.4-0.2,2.4-0.2c-0.9,1-2.2,2.4-3.8,4l0.6,0.6c0.7-0.7,1.2-1.2,1.6-1.5
		s1-0.4,1.7-0.4c0.6,0,1.1,0.1,1.4,0.4s0.4,0.7,0.4,1.2c0,0.4-0.1,0.8-0.4,1.1c-0.2,0.2-0.5,0.4-0.9,0.4c0-0.6-0.3-1.2-0.6-1.5
		c-0.3-0.3-0.7-0.4-1.1-0.4c-0.3,0-0.6,0.1-0.8,0.4c-0.2,0.2-0.3,0.5-0.3,0.8c0,0.4,0.2,0.8,0.5,1.1c0.4,0.4,1,0.6,1.8,0.6
		c0.9,0,1.6-0.3,2.2-0.9c0.4-0.4,0.6-0.9,0.6-1.6s-0.2-1.2-0.6-1.6s-1.1-0.6-2-0.6l-1.2,0.2c0.2,0,2.1-2.2,2.1-2.2
		c0.2,0,0.3-0.1,0.3-0.2c0,0,0,0,0-0.1s-0.1-0.2-0.2-0.3l-0.4-0.4C451.1,93.5,450.8,93.6,450.8,93.7z M448.8,99.6l0.2-0.3l0.4-0.1
		l0.4,0.2c0.2,0.2,0.3,0.6,0.4,1.2l-0.2-0.1c-0.3,0-0.6-0.1-0.9-0.3L448.8,99.6z"/>
	<path class="st4" d="M451.8,100c0.3-0.3,0.4-0.6,0.4-1.1s-0.1-0.9-0.5-1.2c-0.3-0.3-0.8-0.4-1.4-0.4c-0.8,0-1.4,0.1-1.8,0.4
		s-0.9,0.8-1.5,1.5l-0.6-0.5c1.7-1.7,2.9-3,3.8-4.2c-0.8,0.1-1.5,0.2-2.3,0.2l-0.2-0.8c1.1,0,2.1-0.1,3-0.2l0.3-0.1l0.4,0.4
		c0.3,0.2,0.2,0.4-0.2,0.5c-0.7,0.8-1.4,1.6-2.1,2.3c0.5-0.1,0.9-0.2,1.2-0.2c0.9,0,1.5,0.2,1.9,0.6s0.6,0.9,0.6,1.6
		s-0.2,1.2-0.6,1.6c-0.6,0.6-1.3,0.8-2.1,0.8c-0.8,0-1.4-0.2-1.8-0.6c-0.3-0.3-0.4-0.7-0.4-1.1c0-0.3,0.1-0.5,0.3-0.7
		c0.2-0.2,0.5-0.3,0.8-0.3c0.4,0,0.8,0.1,1,0.4c0.3,0.3,0.5,0.8,0.7,1.5C451.2,100.4,451.6,100.2,451.8,100z M449.8,99.3
		c-0.2-0.2-0.3-0.2-0.5-0.2s-0.3,0-0.4,0.1s-0.2,0.2-0.2,0.4c0,0.2,0.1,0.4,0.3,0.6c0.2,0.2,0.5,0.3,0.9,0.3c0.1,0,0.2,0,0.3,0
		C450.1,99.9,450,99.5,449.8,99.3z"/>
	<path class="st4" d="M448.1,103.2c-0.1,0-2.1,0-2.1,0l-0.1,7.7l0.8,0.1l0.1-7l1.1,0.1l-0.8,2c0.5,0.7,0.8,1.3,0.8,2l-0.1,0.5
		l-0.2,0.1h-0.7l0.1,0.8l0.8,0.1c0.6,0,0.9-0.4,0.9-1.3c0-0.7-0.2-1.4-0.8-2.2l0.8-2.2l0.1-0.1v-0.1L448.1,103.2
		C448.2,103.1,448.1,103.1,448.1,103.2z M449.1,103.1v6.8l-0.9,0.1l0.2,0.9v0.1h0.1c0.1,0,0.1-0.1,0.2-0.2l2.7-0.5l-0.1-0.7
		l-1.5,0.2l0.1-2.6l0.6,0.1c0.3,1.8,1.2,3.1,2.8,3.8l0.5-0.8c-0.9-0.5-1.5-0.9-1.8-1.4c0.1,0,1.4-0.9,1.4-0.9c0.1,0.1,0.2,0,0.3,0
		v-0.1l-0.1-0.2l-0.6-0.5c-0.1,0-1.4,1-1.4,1l0,0c0-0.2-0.3-1.1-0.3-1.1l1.7,0.1l0.1-4L449.1,103.1z M452.2,103.9l-0.1,0.9l-2.3-0.1
		c0,0,0.1-0.7,0.1-0.9C450.1,103.9,452.2,103.9,452.2,103.9z M452.2,105.6l-0.1,0.9l-2.3-0.1c0,0,0.1-0.7,0.1-0.8
		C450.1,105.6,452.2,105.6,452.2,105.6z"/>
	<path class="st4" d="M447.2,106l0.7-2.1h-1.2v6.9H446v-7.6h2.1v-0.1l0.7,0.5l-0.1,0.1L448,106c0.6,0.8,0.9,1.5,0.8,2.2
		c0,0.8-0.3,1.2-0.9,1.2h-0.8l-0.2-0.7h0.7c0.3,0,0.4-0.2,0.4-0.6C448.1,107.3,447.8,106.7,447.2,106z M451.4,110.2l-2.8,0.6
		c-0.1,0.2-0.1,0.2-0.2,0.1l-0.2-0.8l1-0.1v-6.7h3.8v3.9h-1.8c0.1,0.3,0.2,0.7,0.4,1.2c0.6-0.3,1-0.7,1.4-1l0.6,0.5
		c0.1,0.1,0,0.2-0.2,0.1c-0.4,0.3-0.9,0.7-1.4,1c0.3,0.5,0.9,0.9,1.8,1.4l-0.4,0.7c-1.5-0.7-2.5-2-2.8-3.8h-0.7v2.7l1.5-0.3
		L451.4,110.2z M452.2,103.9h-2.4v1h2.4V103.9z M452.2,105.5h-2.4v0.9h2.4V105.5z"/>
	<path class="st4" d="M451.1,112.6l0.1,3.7c0,1.5-0.8,2.6-2.3,3.3l0.6,0.7c1.7-0.9,2.6-2.2,2.6-4l-0.1-3.4c0.1,0,0.2-0.1,0.1-0.2
		c0-0.1-0.2-0.1-0.3-0.1H451.1z M447.6,112.8l-0.1,2.6c0,1.7,0.1,2,0.3,2.1l0.5,0.2l0.7-0.3l1.1-1.1l-0.5-0.6
		c-0.1,0-0.9,0.9-0.9,0.9l-0.2,0.1c0,0-0.1-0.2-0.1-1.4l0.2-2.3c0,0,0.1-0.1,0.1-0.2s-0.1-0.1-0.2-0.2L447.6,112.8z"/>
	<path class="st4" d="M448.2,117.7c-0.2,0-0.3-0.1-0.5-0.2c-0.2-0.2-0.2-0.9-0.2-2.1c0-0.9,0-1.8,0.1-2.5h0.8c0.2,0.1,0.2,0.1,0,0.2
		c-0.1,0.6-0.2,1.3-0.2,2.3s0,1.5,0.1,1.5s0.2,0,0.3-0.1c0.2-0.1,0.4-0.5,0.8-0.9l0.5,0.5c-0.4,0.5-0.8,0.9-1.1,1.1
		C448.8,117.6,448.5,117.7,448.2,117.7z M451.1,112.6h0.7c0.3,0,0.3,0.1,0.1,0.3c0.1,0.7,0.1,1.9,0.1,3.4c0,1.7-0.8,3-2.5,3.9
		l-0.6-0.6c1.5-0.7,2.3-1.9,2.3-3.4C451.2,114.7,451.2,113.5,451.1,112.6z"/>
	<path class="st4" d="M451.2,122.5L451.2,122.5l1.8,1.6l0.7-0.6c0-0.1-1.9-1.6-1.9-1.6L451.2,122.5z"/>
	<path class="st4" d="M451.9,121.9c0.7,0.5,1.4,1,1.9,1.5l-0.6,0.6c-0.7-0.6-1.3-1.1-1.8-1.5L451.9,121.9z"/>
	<path class="st4" d="M449.4,127.7v1.2l-3.3-0.1l-0.1,0.8l3.4,0.1l-0.1,1.1l-2.6-0.1l-0.1,0.8l2.6,0.1c-0.9,1-2.1,1.9-3.4,2.4
		l0.4,0.9c1.6-0.8,2.7-1.6,3.3-2.6l-0.1,3l0.8,0.1l0.1-3.3c0.5,0.9,1.5,1.8,3,2.7l0.6-0.9c-1.4-0.6-2.5-1.4-3.4-2.5l2.4,0.1l0.1-0.8
		l-2.8-0.1l0.1-1.1l3.3,0.1l0.1-0.8l-3.4-0.1l0.1-0.9c0,0,0.1-0.1,0.1-0.2s-0.1-0.1-0.2-0.1h-0.9V127.7z"/>
	<path class="st4" d="M450.1,132.4v3.2h-0.7v-3.1c-0.6,0.9-1.7,1.8-3.2,2.6l-0.4-0.8c1.3-0.5,2.5-1.4,3.4-2.5h-2.5V131h2.7v-1.2H446
		V129h3.4v-1.2h0.7c0.2,0,0.2,0.1,0,0.2v1h3.4v0.8h-3.4v1.2h2.7v0.8h-2.5c0.9,1.2,2,2,3.4,2.5l-0.5,0.9
		C451.8,134.1,450.8,133.3,450.1,132.4z"/>
	<path class="st4" d="M447.5,137.5v3.8l-1.6-0.1l-0.1,0.7l1.7,0.1l-0.1,2.3l-1.2,0.1l0.2,0.9v0.1h0.2c0.1,0,0.1-0.1,0.1-0.2l3.5-0.7
		l-0.1-0.7l-2,0.3l0.1-2.2l1,0.1c0.6,1.6,1.9,2.7,3.9,3.2l0.5-0.8c-1.2-0.4-2-0.7-2.4-1l1.1-0.6c0.1,0,0.2,0,0.2-0.1
		s-0.1-0.2-0.1-0.2l-0.6-0.4l-1.2,0.9l0,0c0-0.1-0.7-1-0.7-1l3.5,0.1l0.1-0.7l-5.4-0.1l0.1-0.6l3.8,0.1l0.1-0.7l-4-0.1l0.1-0.5
		l3.7,0.1l0.1-0.7l-3.9-0.1l0.1-0.5l4.2,0.1l0.1-0.7L447.5,137.5z"/>
	<path class="st4" d="M453.2,145.1c-2-0.5-3.3-1.5-3.9-3.2h-1.1v2.3l1.9-0.3l0.1,0.6l-3.6,0.7c0,0.2-0.1,0.2-0.2,0.1l-0.2-0.8
		l1.2-0.2v-2.4h-1.7v-0.7h1.7v-3.7h5v0.7h-4.3v0.5h3.8v0.7h-3.8v0.6h3.9v0.7h-3.9v0.7h5.3v0.7h-3.6c0.1,0.3,0.4,0.6,0.8,1l1.1-0.9
		l0.6,0.4c0.2,0.1,0.1,0.2-0.1,0.2l-1.1,0.7c0.5,0.3,1.3,0.6,2.4,0.9L453.2,145.1z"/>
	<path class="st4" d="M447.8,149.9L447.8,149.9c-0.3,0.2-0.4,0.5-0.4,0.8s0.2,0.5,0.5,0.9c1.2,1,2.2,2,3,2.9l0.7-0.6
		c-0.8-1-1.8-2-3.1-3c-0.1-0.1-0.1-0.1-0.1-0.3l0.1-0.2c1.5-1.4,2.4-2.3,2.7-2.9c0.1,0.1,0.2,0.1,0.3,0c0.1-0.1,0-0.2-0.1-0.3
		l-0.6-0.5C450.2,147.4,449.2,148.5,447.8,149.9z"/>
	<path class="st4" d="M447.9,149.9c1.5-1.4,2.5-2.5,2.9-3.2l0.6,0.5c0.2,0.2,0.2,0.3-0.2,0.3c-0.3,0.5-1.3,1.5-2.7,2.8
		c-0.1,0.1-0.1,0.2-0.1,0.2c0,0.1,0,0.2,0.1,0.3c1.3,1,2.3,2,3.1,2.9l-0.6,0.6c-0.8-0.9-1.8-1.9-3-2.9c-0.3-0.3-0.5-0.6-0.5-0.8
		C447.5,150.4,447.6,150.2,447.9,149.9z"/>
	<path class="st4" d="M448.1,156v1.8c0-0.1-1.6,0-1.6,0v0.8c0.1,0.1,1.7,0,1.7,0l-0.1,1.4l-1.2,0.8c-0.4,0.4-0.6,1-0.6,1.6
		c0,0.4,0.1,0.7,0.4,0.9c0.3,0.3,0.6,0.4,0.9,0.4c0.4,0,0.8-0.1,1-0.4c0.3-0.3,0.4-0.6,0.4-1.1v-1.8c0.5-0.1,1-0.2,1.5-0.2
		c0.6,0,1.1,0.1,1.4,0.4c0.3,0.3,0.5,0.6,0.5,1c0,0.3-0.1,0.6-0.2,0.7c-0.2,0.2-0.4,0.3-0.7,0.3l-0.6-0.2l-0.4-0.6l-0.7,0.4
		c0,0.1,0.5,0.8,0.5,0.8c0.3,0.3,0.7,0.4,1.2,0.4s1-0.2,1.3-0.5s0.4-0.7,0.4-1.3s-0.2-1.1-0.6-1.5c-0.5-0.5-1.2-0.7-2.2-0.7
		l-1.5,0.2l0.1-1.3l1.5-0.3l-0.1-0.8c-0.1,0-1.5,0.4-1.5,0.4l0.1-1.3c0.1,0,0.2-0.1,0.1-0.2c0-0.1-0.1-0.1-0.2-0.1L448.1,156z
		 M447.2,162.9l-0.1-0.4c0-0.4,0.1-0.7,0.4-1l0.7-0.6l-0.1,1.3c0,0.6-0.2,0.9-0.6,0.9L447.2,162.9z M451.1,157.5L451.1,157.5
		l1.7,1.5l0.7-0.6c-0.4-0.6-1-1.1-1.8-1.6L451.1,157.5z"/>
	<path class="st4" d="M450.4,159.5c1,0,1.7,0.2,2.2,0.7c0.4,0.4,0.6,0.9,0.6,1.5c0,0.5-0.1,0.9-0.4,1.2s-0.8,0.5-1.3,0.5
		s-0.9-0.1-1.1-0.4c-0.2-0.2-0.4-0.5-0.6-0.7l0.6-0.4c0.1,0.2,0.2,0.4,0.4,0.6c0.2,0.2,0.4,0.2,0.7,0.2c0.3,0,0.5-0.1,0.7-0.3
		s0.2-0.4,0.2-0.8c0-0.4-0.2-0.7-0.5-1s-0.8-0.5-1.5-0.5c-0.5,0-1,0.1-1.6,0.3v1.8c0,0.4-0.1,0.8-0.4,1c-0.3,0.3-0.6,0.4-1,0.4
		c-0.3,0-0.6-0.1-0.8-0.4c-0.2-0.2-0.3-0.5-0.3-0.9c0-0.6,0.2-1.2,0.6-1.6c0.3-0.3,0.7-0.6,1.2-0.9v-1.5c-0.6,0.1-1.1,0.1-1.6,0.1
		l-0.1-0.7c0.5,0,1.1,0,1.7-0.1v-1.7h0.7c0.2,0,0.2,0.1,0,0.3v1.4c0.5-0.1,1-0.2,1.4-0.4l0.2,0.8c-0.4,0.1-1,0.3-1.6,0.3v1.4
		C449.5,159.6,450,159.5,450.4,159.5z M447.5,161.3c-0.3,0.3-0.4,0.7-0.4,1.1c0,0.2,0,0.4,0.1,0.5s0.3,0.2,0.4,0.2
		c0.4,0,0.6-0.3,0.6-1v-1.4C447.9,161,447.6,161.2,447.5,161.3z M451.8,157c0.8,0.5,1.4,1,1.8,1.5l-0.6,0.6c-0.6-0.6-1.1-1-1.7-1.4
		L451.8,157z"/>
	<path class="st4" d="M448.1,166.1l-1.9,0.6l0.3,1c0.1,0,2.1-0.8,2.1-0.8c0.8-0.3,1.5-0.4,2-0.4c0.7,0,1.1,0.1,1.4,0.4
		c0.4,0.4,0.5,0.8,0.5,1.3s-0.2,0.9-0.5,1.2c-0.5,0.5-1.7,0.8-3.4,0.8l0.1,0.9c1.9,0,3.2-0.4,4-1.2c0.4-0.4,0.6-1,0.6-1.9
		c0-0.8-0.2-1.4-0.7-1.8c-0.5-0.5-1.2-0.7-2.1-0.7C450.1,165.6,449.1,165.7,448.1,166.1z"/>
	<path class="st4" d="M448.6,170.3c1.7,0,2.9-0.3,3.4-0.9c0.3-0.3,0.5-0.8,0.5-1.3s-0.2-1-0.6-1.4c-0.3-0.3-0.8-0.4-1.5-0.4
		c-0.6,0-1.3,0.1-2,0.4c-0.6,0.2-1.3,0.5-2,0.8l-0.4-0.9l1.9-0.6c1.1-0.3,2-0.5,2.6-0.5c0.9,0,1.6,0.2,2,0.7c0.4,0.4,0.7,1,0.7,1.8
		s-0.2,1.4-0.6,1.8c-0.8,0.8-2.1,1.2-3.9,1.2L448.6,170.3z"/>
	<path class="st4" d="M449.1,173l0.3,1.5c0-0.1-2.5,0-2.5,0v0.8c0.1,0.1,2.7,0,2.7,0l0,0c0,0.1,0.3,0.8,0.3,0.8c0-0.1-3.3,0-3.3,0
		v0.8c0.1,0.1,3.6-0.1,3.6-0.1l0,0c0,0,0.8,0.9,0.8,1c0-0.1-1.2-0.2-1.2-0.2c-1.3,0-2.1,0.2-2.5,0.6c-0.3,0.3-0.4,0.6-0.4,1
		c0,0.5,0.1,0.8,0.4,1.1c0.4,0.4,1.1,0.6,2,0.6h2.1l0.2-0.8l-2.2-0.1c-1,0-1.4-0.1-1.5-0.3l-0.2-0.5l0.2-0.5
		c0.3-0.3,0.9-0.4,1.8-0.4l2,0.3l0.7-0.6c-0.6-0.5-1-1-1.3-1.4c0,0.1,2.1-0.3,2.1-0.3l-0.3-0.8c-0.1,0-2.2,0.4-2.3,0.4l0,0
		c0-0.1-0.3-0.8-0.3-0.8c0,0.1,1.8-0.2,1.8-0.2l-0.2-0.8c-0.1,0-1.9,0.3-1.9,0.3s0,0,0-0.1c0-0.2-0.1-0.9-0.1-0.9
		c0.1,0,0.2-0.1,0.1-0.2c0-0.1-0.1-0.1-0.2-0.2L449.1,173z"/>
	<path class="st4" d="M450.6,175.9c0.7-0.1,1.5-0.3,2.2-0.5l0.3,0.7c-0.6,0.1-1.3,0.3-2.1,0.4c0.3,0.5,0.8,0.9,1.4,1.3l-0.6,0.6
		c-0.8-0.2-1.5-0.3-2-0.3c-0.9,0-1.5,0.1-1.8,0.4c-0.2,0.2-0.2,0.3-0.2,0.5s0.1,0.4,0.2,0.6c0.2,0.2,0.7,0.3,1.6,0.3h2.1l-0.1,0.8
		h-2.1c-0.9,0-1.6-0.2-1.9-0.6c-0.3-0.3-0.4-0.6-0.4-1.1c0-0.3,0.1-0.6,0.4-0.9c0.4-0.4,1.2-0.6,2.4-0.6c0.4,0,0.8,0,1.2,0.1
		c-0.3-0.3-0.6-0.7-0.9-1c-1.1,0.1-2.3,0.2-3.6,0.2l-0.1-0.7c1.2,0,2.3,0,3.3-0.1c-0.2-0.3-0.3-0.6-0.4-0.9
		c-0.9,0.1-1.7,0.1-2.7,0.1l-0.1-0.7c0.9,0,1.8,0,2.6-0.1c-0.1-0.4-0.2-0.9-0.3-1.4h0.8c0.2,0,0.2,0.1,0,0.3c0,0.3,0.1,0.7,0.2,1
		c0.6-0.1,1.2-0.2,1.8-0.3l0.2,0.7c-0.8,0.1-1.4,0.2-1.9,0.3C450.4,175.3,450.6,175.6,450.6,175.9z"/>
	<path class="st4" d="M445.8,185.7L445.8,185.7l0.5,0.8c0.1,0,1.6-0.9,1.6-0.9l-0.1,0.6l3.9,0.1l0.1-0.7l-3.9-0.1
		c0.8-0.4,1.4-1.1,1.8-1.9c0.8,1.3,2,2.2,3.6,2.8l0.4-0.8c-1.5-0.5-2.7-1.3-3.6-2.5c0.1,0,0.2,0,0.2-0.1l0,0l-0.2-0.1l-0.9-0.2
		C448.6,183.9,447.5,184.9,445.8,185.7z M447.1,186.9v3.5l0.8,0.1l0.1-0.6l3.7,0.1l-0.1,0.3l0.8,0.1l0.1-3.4L447.1,186.9z
		 M451.6,187.7l-0.1,1.6l-3.7-0.1c0,0,0.1-1.4,0.1-1.5C448.1,187.7,451.6,187.7,451.6,187.7z"/>
	<path class="st4" d="M453.6,185.4l-0.3,0.8c-1.6-0.6-2.8-1.5-3.7-2.7c-0.4,0.9-1,1.5-1.7,2h3.8v0.7h-3.9v-0.6
		c-0.4,0.3-0.9,0.6-1.5,0.9l-0.5-0.7c1.7-0.8,2.8-1.8,3.3-3.2l0.9,0.2c0.2,0,0.2,0.1,0,0.2C450.9,184.1,452.1,184.9,453.6,185.4z
		 M447.9,190.4h-0.7V187h5.2v3.3h-0.7v-0.4h-3.8V190.4z M447.9,189.3h3.8v-1.6h-3.8V189.3z"/>
	<path class="st4" d="M446.5,194.9c0,1.3,0.1,2.2,0.2,2.6c0.3,0.7,0.7,1,1.3,1c0.3,0,0.7-0.2,1-0.6l0.7-1.2l-0.7-0.6
		c-0.1,0-0.4,0.9-0.4,0.9c-0.2,0.3-0.4,0.5-0.6,0.5s-0.3-0.2-0.5-0.5c-0.1-0.4-0.2-1.1-0.2-2l0.1-2.3c0.1,0,0.2-0.1,0.2-0.2
		c0-0.1-0.2-0.2-0.3-0.2l-0.7-0.2C446.6,192.1,446.5,194.9,446.5,194.9z M451,192.9L451,192.9v0.1c0.8,0.9,1.4,2.1,1.7,3.7l1-0.2
		c-0.2-1.6-0.8-3-1.9-4.1L451,192.9z"/>
	<path class="st4" d="M449,197.8c-0.3,0.4-0.6,0.6-1,0.6c-0.6,0-1-0.3-1.3-1c-0.2-0.4-0.2-1.2-0.2-2.5c0-0.9,0-1.9,0.1-2.8l0.7,0.2
		c0.3,0.1,0.3,0.2,0,0.3c-0.1,0.9-0.1,1.6-0.1,2.3c0,0.9,0.1,1.6,0.2,2s0.3,0.6,0.5,0.6c0.3,0,0.5-0.2,0.7-0.6
		c0.1-0.2,0.2-0.5,0.3-0.8l0.7,0.5C449.5,197.2,449.2,197.6,449,197.8z M453.6,196.5l-0.9,0.2c-0.3-1.6-0.8-2.9-1.7-3.8l0.7-0.4
		C452.8,193.7,453.4,195,453.6,196.5z"/>
</g>
<polygon class="st6" points="413.6,98.8 413.6,98.8 46.1,98.8 46.1,110.8 413.6,110.8 418.1,104.8 "/>
<g>
	<path class="st8" d="M68.7,106.8c0.2,0.2,0.5,0.3,0.8,0.3c0.4,0,0.7-0.1,0.8-0.3c0.2-0.2,0.3-0.5,0.3-0.9v-3.6h0.7v3.6
		c0,0.6-0.1,1.1-0.4,1.3c-0.4,0.4-0.8,0.5-1.4,0.5c-0.6,0-1-0.2-1.4-0.5c-0.4-0.4-0.6-1-0.6-1.8h0.7
		C68.3,106.1,68.4,106.5,68.7,106.8z"/>
	<path class="st8" d="M73.5,102.3h0.7v2.2h3.2v-2.2h0.7v5.3h-0.7v-2.5h-3.2v2.5h-0.7V102.3z"/>
	<path class="st8" d="M79.9,105.9c0,0.3,0.2,0.6,0.4,0.8c0.2,0.2,0.6,0.4,1.1,0.4c0.7,0,1.1-0.1,1.3-0.3c0.1-0.1,0.2-0.3,0.2-0.6
		c0-0.2-0.1-0.3-0.2-0.4c-0.2-0.2-0.8-0.3-1.8-0.5c-0.6-0.1-1-0.3-1.3-0.6c-0.2-0.2-0.3-0.5-0.3-0.9s0.1-0.7,0.4-0.9
		c0.4-0.4,1-0.6,1.8-0.6s1.4,0.2,1.8,0.6c0.3,0.3,0.5,0.7,0.5,1.1h-0.9c-0.1-0.2-0.2-0.5-0.4-0.7c-0.2-0.2-0.6-0.3-1.1-0.3
		s-0.9,0.1-1.1,0.3c-0.2,0.2-0.2,0.3-0.2,0.5s0.1,0.3,0.2,0.4c0.2,0.2,0.6,0.3,1.3,0.5c1,0.2,1.6,0.4,1.8,0.7
		c0.2,0.2,0.3,0.5,0.3,0.9s-0.1,0.7-0.4,1c-0.4,0.4-1,0.5-2,0.5c-0.9,0-1.5-0.2-1.8-0.6c-0.3-0.3-0.5-0.7-0.6-1.3H79.9z"/>
	<path class="st8" d="M87.1,106.7l-2.1,0.7c0,0.1-0.1,0.2-0.2,0.1l-0.2-0.7l1-0.3V104h-0.9v-0.6h0.9v-1.7h0.6c0.2,0,0.2,0.1,0,0.2
		v1.6H87v0.6h-0.8v2.4l0.9-0.3V106.7z M91,107.3l0.2-0.7l0.7,0.2l-0.2,0.6c-0.1,0.5-0.4,0.7-0.9,0.7h-2.6c-0.4,0-0.6-0.2-0.6-0.5v-3
		l-0.8,0.3l-0.2-0.6l1-0.3v-1.8h0.6c0.2,0,0.2,0.1,0,0.2v1.4l0.7-0.3v-2.1h0.7c0.2,0,0.2,0.1,0,0.2v1.7l1.1-0.4l0.1-0.1l0.7,0.4
		l-0.1,0.1v2.4c0,0.3-0.2,0.5-0.5,0.5h-0.6l-0.2-0.6h0.5c0.1,0,0.1,0,0.1-0.1v-1.9l-1,0.4v2.7h-0.6v-2.5l-0.7,0.3v2.9
		c0,0.2,0.1,0.2,0.2,0.2h2C90.8,107.6,90.9,107.5,91,107.3z"/>
	<path class="st8" d="M94.5,104.9v-1.2l-0.6,0.1v0.4c0,0.8-0.2,1.3-0.6,1.7l-0.5-0.3c0.4-0.4,0.6-0.8,0.6-1.4v-0.4l-0.5,0.1
		c0,0.1-0.1,0.2-0.2,0.1l-0.2-0.6h0.8v-1.6h1l0.2-0.6l0.6,0.1c0.1,0.1,0.1,0.1-0.1,0.2l-0.2,0.3h1.1v1.4h0.4v0.4h-0.4v1.7
		c0,0.3-0.1,0.4-0.4,0.4H95l-0.1-0.5h0.3c0.1,0,0.1,0,0.1-0.1v-1.4l-0.5,0.1v1.2L94.5,104.9L94.5,104.9z M98.8,105.9v1.9h1v0.5h-7.2
		v-0.5h1v-1.9H98.8z M93.9,103.4l1.5-0.1v-1.1h-1.5V103.4z M95.2,107.7v-1.4h-1v1.4H95.2z M94.6,102.3c0.2,0.2,0.3,0.4,0.4,0.7
		l-0.4,0.2c-0.1-0.2-0.2-0.5-0.4-0.7L94.6,102.3z M96.6,106.4h-0.9v1.4h0.9V106.4z M96.5,104v-0.5h2.2l0.1-0.1l0.5,0.5
		c0.1,0.1,0.1,0.2-0.1,0.2c-0.3,0.3-0.6,0.6-0.9,0.8c0.4,0.1,0.9,0.3,1.5,0.3l-0.2,0.6c-0.8-0.1-1.4-0.3-1.7-0.6
		c-0.6,0.3-1.1,0.5-1.5,0.6l-0.2-0.5c0.6-0.1,1-0.3,1.3-0.4c-0.2-0.2-0.4-0.5-0.6-0.8L96.5,104L96.5,104z M99.7,102.8
		c0,0.3-0.2,0.5-0.5,0.5h-0.7c-0.3,0-0.5-0.2-0.5-0.5V102h-0.8v0.4c0,0.4-0.2,0.8-0.5,1.1l-0.4-0.3c0.2-0.2,0.4-0.4,0.4-0.7v-0.9
		h1.9v1.1c0,0.1,0,0.2,0.1,0.2H99c0.1,0,0.2-0.1,0.2-0.2v-0.3l0.5,0.1V102.8z M98.2,106.4h-1.1v1.4h1.1V106.4z M97.9,104.6
		c0.2-0.2,0.4-0.4,0.6-0.6h-1.1C97.5,104.2,97.7,104.4,97.9,104.6z"/>
	<path class="st8" d="M102.2,103.2L102.2,103.2c0.2,0.1,0.1,0.2,0,0.2v5h-0.6v-4c-0.2,0.3-0.4,0.5-0.6,0.8l-0.4-0.6
		c0.8-0.7,1.3-1.9,1.5-3.4l0.7,0.2c0.1,0.1,0.1,0.1-0.1,0.2C102.7,102,102.5,102.6,102.2,103.2z M102.8,108l-0.3-0.7
		c0.9-0.4,1.7-1,2.3-1.9h-2.2v-0.6h2.3v-0.9H104v0.3h-0.6v-2.6h3.7v2.6h-0.6V104h-0.9v0.9h2.3v0.6h-2.2c0.6,0.8,1.4,1.4,2.4,1.8
		l-0.2,0.7c-0.9-0.3-1.6-0.9-2.2-1.7v2.2h-0.6v-2.2C104.3,106.8,103.7,107.4,102.8,108z M103.8,102.1v1.1h2.4v-1.1H103.8z"/>
	<path class="st8" d="M111.5,102.5v0.6h-2.9v-0.6H111.5z M110.6,108h-1.1v0.4h-0.6v-2.6h2.3v2.5h-0.6V108z M111.1,101.4v0.6h-2.2
		v-0.6H111.1z M109,103.6h2.2v0.6H109V103.6z M109,104.7h2.2v0.6H109V104.7z M109.5,106.4v1.1h1.1v-1.1H109.5z M111.8,101.8h3.7v0.6
		h-1.3v2.2h1.3v0.6h-1.3v2.3h1.6v0.6h-4.2v-0.6h0.6v-3.9h0.6c0.2,0,0.2,0.1,0,0.2v3.7h0.8v-5.2h-1.8V101.8z"/>
</g>
<g>
	<path class="st2" d="M313.1,69l0.8-0.5l0.2,0.3l-0.8,0.4l0.8,0.4l-0.2,0.3l-0.8-0.5v0.9h-0.4v-0.9l-0.8,0.5l-0.2-0.3l0.8-0.4
		l-0.8-0.4l0.2-0.3l0.8,0.5v-0.9h0.4V69z"/>
	<path class="st2" d="M317.1,68.1h-1.3v-0.4h1.4c0-0.1,0.1-0.4,0.1-0.7l0.5,0.1c0.1,0,0,0.1-0.1,0.1l-0.1,0.5h2.3v0.4h-2.4
		c-0.1,0.2-0.1,0.3-0.2,0.4h1.9V71c0,0.2-0.1,0.3-0.3,0.3h-0.4l-0.1-0.4h0.4c0.1,0,0.1,0,0.1-0.1v-0.5h-1.7v1h-0.4v-2
		c-0.3,0.3-0.6,0.6-1,0.8l-0.2-0.4C316.4,69.2,316.9,68.7,317.1,68.1z M318.9,69.2v-0.4h-1.7v0.4H318.9z M317.1,69.6V70h1.7v-0.4
		H317.1z"/>
	<path class="st2" d="M321.4,71.3H321v-2.5c-0.1,0.1-0.2,0.3-0.3,0.4l-0.3-0.2c0.5-0.6,0.8-1.3,0.8-2l0.4,0.1c0.1,0,0,0.1-0.1,0.1
		c-0.1,0.3-0.1,0.6-0.2,1c0.1,0,0.1,0,0,0.1v3H321.4z M322.8,70.6l0.3,0.3c0,0,0,0.1-0.1,0c-0.4,0.2-0.8,0.4-1.3,0.4l-0.1-0.4
		C322,71,322.4,70.9,322.8,70.6z M324.1,67.6h0.8v0.8h-0.4v-0.5h-2.4v0.5h-0.4v-0.8h0.7c-0.1-0.1-0.1-0.2-0.2-0.3l0.4-0.2
		c0.1,0.1,0.2,0.2,0.3,0.4l-0.2,0.1h0.5V67h0.4c0.1,0,0.1,0,0,0.1v0.5h0.2c0.1-0.2,0.2-0.4,0.3-0.6l0.4,0.1c0.1,0.1,0.1,0.1,0,0.1
		C324.2,67.4,324.1,67.5,324.1,67.6z M324.5,69v1.6H322V69H324.5z M322.2,69.5h1.9v-0.2h-1.9V69.5z M322.2,69.9h1.9v-0.2h-1.9V69.9z
		 M322.2,70.4h1.9v-0.3h-1.9V70.4z M322.4,68.8v-0.7h1.8v0.7H322.4z M322.6,68.6h1.2v-0.2h-1.2V68.6z M323.5,70.9l0.2-0.3
		c0.3,0.2,0.7,0.3,1.3,0.3l-0.1,0.3C324.2,71.3,323.8,71.1,323.5,70.9z"/>
	<path class="st2" d="M325.4,70.6c0.8-0.4,1.3-0.9,1.7-1.4c-0.4-0.2-0.7-0.4-0.9-0.5l0.2-0.4c0.3,0.1,0.6,0.3,1,0.5
		c0.2-0.4,0.3-0.8,0.5-1.4l0.5,0.1c0.1,0,0.1,0.1,0,0.1c-0.2,0.6-0.3,1.1-0.5,1.4c0.3,0.2,0.6,0.4,0.7,0.5l-0.2,0.4
		c-0.3-0.2-0.5-0.4-0.7-0.5c-0.5,0.6-1,1.1-1.7,1.5L325.4,70.6z"/>
	<path class="st2" d="M332.6,68.8c-0.7,1.4-1.8,2.1-3.4,2.2c-0.1,0.2-0.1,0.2-0.2,0l-0.2-0.5c1.7,0,2.8-0.7,3.3-2L332.6,68.8z
		 M329,68l0.3-0.4c0.3,0.2,0.6,0.4,1,0.8l-0.4,0.4C329.6,68.4,329.2,68.2,329,68z"/>
	<path class="st2" d="M335,69h-1.9v-0.4h3.9V69h-1.6v0.2c0,0.8-0.3,1.4-0.9,1.9l-0.4-0.3c0.5-0.4,0.8-1,0.8-1.7V69H335z M333.6,67.9
		v-0.4h2.5v0.4H333.6z"/>
	<path class="st2" d="M339.8,68.4h1.8v0.4h-1.8v0.3c0,0.9-0.4,1.6-1.2,2.1l-0.4-0.3c0.8-0.4,1.2-1,1.2-1.8v-0.3h-1.9v-0.4h1.9v-1.1
		h0.4c0.1,0,0.2,0.1,0.1,0.1v1H339.8z"/>
	<path class="st2" d="M345.8,68.8c-0.7,1.4-1.8,2.1-3.4,2.2c-0.1,0.2-0.1,0.2-0.2,0l-0.2-0.5c1.7,0,2.8-0.7,3.3-2L345.8,68.8z
		 M342.1,68l0.3-0.4c0.3,0.2,0.6,0.4,1,0.8l-0.4,0.4C342.8,68.4,342.5,68.2,342.1,68z"/>
	<path class="st2" d="M350.2,70.6l-0.4,0.3c-0.5-0.5-1.1-1-1.5-1.4c-0.5,0.5-1.1,1-1.7,1.4l-0.4-0.3c1.4-0.9,2.2-1.7,2.6-2.6
		l-2.1,0.1l-0.1-0.4l2.2-0.1l0.2-0.1l0.3,0.3c0.1,0.1,0.1,0.1-0.1,0.2c-0.2,0.4-0.5,0.8-0.8,1.1C349.1,69.6,349.6,70.1,350.2,70.6z"
		/>
	<path class="st2" d="M351.1,71.3l-0.1-0.4c0.9,0,1.5-0.2,1.9-0.4c-0.3-0.1-0.6-0.1-0.9-0.2l-0.1,0.1l-0.3-0.2l0.5-0.6h-1.3v-0.3
		h1.6l0.3-0.4h-1V69h-0.3v-1h1v-0.4H351v-0.3h4.1v0.3h-1.4V68h1v1.2h-0.3v-0.1H353l0.2,0.1c0.1,0,0,0.1-0.1,0.1l-0.2,0.2h2.4v0.3h-1
		c-0.2,0.2-0.3,0.5-0.6,0.7c0.4,0.1,0.8,0.3,1.3,0.5l-0.2,0.3c-0.4-0.2-0.8-0.4-1.4-0.6C352.9,71,352.1,71.2,351.1,71.3z
		 M351.6,68.8h0.7v-0.5h-0.7V68.8z M352.6,69.8l-0.3,0.4c0.3,0,0.6,0.1,1,0.2c0.2-0.1,0.4-0.3,0.5-0.5L352.6,69.8L352.6,69.8z
		 M352.6,67.6V68h0.6v-0.4H352.6z M352.6,68.3v0.5h0.6v-0.5H352.6z M353.6,68.3v0.5h0.7v-0.5H353.6z"/>
</g>
<g>
	<path class="st2" d="M313.1,92.4l0.8-0.5l0.2,0.3l-0.8,0.4l0.8,0.4l-0.2,0.3l-0.8-0.5v0.9h-0.4v-0.9l-0.8,0.5l-0.2-0.3l0.8-0.4
		l-0.8-0.4l0.2-0.3l0.8,0.5v-0.9h0.4V92.4z"/>
	<path class="st2" d="M315.8,94.3c0.3-0.2,0.5-0.3,0.7-0.5c-0.2-0.3-0.3-0.6-0.4-0.9l0.4-0.1c0.1,0.3,0.2,0.5,0.3,0.7
		c0.1-0.4,0.2-0.8,0.2-1.2h-0.6c-0.1,0.1-0.1,0.2-0.2,0.3l-0.3-0.2c0.4-0.5,0.7-1,0.9-1.4h-1v-0.4h1.1l0.1-0.1l0.3,0.3l-0.1,0.1
		c-0.2,0.4-0.4,0.7-0.7,1.1h0.7c0,0.8-0.1,1.4-0.3,1.9c0.3,0.2,0.6,0.3,1.1,0.3h2.1l-0.1,0.4h-2c-0.5,0-1-0.1-1.3-0.4
		c-0.2,0.2-0.4,0.4-0.7,0.5L315.8,94.3z M319.8,91c0.1,0.1,0,0.1-0.1,0.1c-0.3,0-0.5,0.1-0.7,0.1V92h0.9v0.4h-0.9v1.1h1v0.4h-2.7
		v-0.4h0.5v-1.7h0.4c0.1,0,0.1,0,0,0.1v1.6h0.5v-2.2c-0.4,0-0.8,0-1.1,0l-0.1-0.4c0.8,0,1.5-0.1,2.1-0.3L319.8,91z"/>
	<path class="st2" d="M324.6,94.7c-1.1-0.2-1.8-0.8-2.2-1.7h-0.6v1.2l1.1-0.2l0.1,0.3l-2,0.4c0,0.1,0,0.1-0.1,0.1l-0.1-0.4l0.7-0.1
		V93h-0.9v-0.4h0.9v-2h2.8V91h-2.4v0.3h2.1v0.4h-2.1V92h2.1v0.4h-2.1v0.4h2.9V93h-2c0.1,0.2,0.2,0.3,0.4,0.5l0.6-0.5l0.3,0.2
		c0.1,0.1,0.1,0.1-0.1,0.1l-0.6,0.4c0.3,0.2,0.7,0.3,1.3,0.5L324.6,94.7z"/>
	<path class="st2" d="M326.4,91.7L326.4,91.7C326.5,91.8,326.5,91.8,326.4,91.7v3H326v-2.4c-0.1,0.2-0.2,0.3-0.4,0.4l-0.2-0.4
		c0.5-0.4,0.8-1.1,0.9-2l0.4,0.1c0.1,0,0,0.1-0.1,0.1C326.6,91,326.6,91.3,326.4,91.7z M326.8,94.5l-0.2-0.4c0.5-0.2,1-0.6,1.4-1.1
		h-1.4v-0.4h1.4V92h-0.6v0.2H327v-1.5h2.3v1.5h-0.4V92h-0.5v0.6h1.4V93h-1.4c0.4,0.5,0.8,0.8,1.5,1.1l-0.1,0.4c-0.5-0.2-1-0.5-1.4-1
		v1.3H328v-1.3C327.6,93.8,327.2,94.2,326.8,94.5z M327.4,91v0.7h1.5V91H327.4z"/>
	<path class="st2" d="M332.1,91.3v0.4h-1.7v-0.4H332.1z M331.5,94.5h-0.7v0.2h-0.4v-1.6h1.4v1.5h-0.4v-0.1H331.5z M331.9,90.6V91
		h-1.3v-0.4H331.9z M330.6,91.9h1.3v0.4h-1.3V91.9z M330.6,92.6h1.3V93h-1.3V92.6z M330.9,93.6v0.6h0.7v-0.6H330.9z M332.2,90.8h2.3
		v0.4h-0.8v1.3h0.8v0.4h-0.8v1.4h1v0.4h-2.6v-0.4h0.4V92h0.4c0.1,0,0.1,0,0,0.1v2.2h0.5v-3.1h-1.1L332.2,90.8L332.2,90.8z"/>
	<path class="st2" d="M335.1,93.8c0.5-0.4,0.9-0.8,1-1.3h-0.9v-0.4h0.9v-1.7h0.4c0.1,0,0.1,0,0,0.1V92h0.8v0.4h-0.8v0.2
		c0.3,0.2,0.6,0.4,0.8,0.6l-0.2,0.4c-0.2-0.2-0.4-0.4-0.6-0.5v1.5h-0.4v-1.4c-0.2,0.3-0.4,0.6-0.8,0.9L335.1,93.8z M335.6,91
		c0.2,0.3,0.3,0.6,0.4,0.9l-0.4,0.1c-0.1-0.2-0.2-0.5-0.3-0.9L335.6,91z M336.6,91.9c0.1-0.3,0.2-0.6,0.4-1l0.4,0.1
		c0.1,0,0.1,0.1,0,0.1c-0.1,0.4-0.2,0.7-0.4,0.9L336.6,91.9z M339,90.6C339.1,90.6,339.1,90.6,339,90.6v2.5l0.5-0.1l0.1,0.4
		l-0.6,0.1v1.3h-0.4v-1.2l-1,0.2l-0.1-0.4l1.1-0.2v-2.6C338.6,90.6,339,90.6,339,90.6z M338.4,92.6l-0.3,0.3
		c-0.2-0.2-0.3-0.3-0.6-0.5l0.2-0.3C338,92.3,338.1,92.4,338.4,92.6z M338.5,91.6l-0.3,0.3c-0.1-0.1-0.3-0.3-0.6-0.5l0.2-0.3
		C338.1,91.3,338.2,91.4,338.5,91.6z"/>
	<path class="st2" d="M340.4,94.8l-0.1-0.4c0.9,0,1.5-0.2,1.9-0.4c-0.3-0.1-0.6-0.1-0.9-0.2l-0.1,0.1l-0.3-0.2l0.5-0.6h-1.3V93h1.6
		l0.3-0.4h-1v0.1h-0.3v-1.2h1V91h-1.4v-0.3h4.1V91H343v0.4h1v1.2h-0.3v-0.1h-1.4l0.2,0.1c0.1,0,0,0.1-0.1,0.1l-0.2,0.2h2.4v0.3h-1
		c-0.2,0.2-0.3,0.5-0.6,0.7c0.4,0.1,0.8,0.3,1.3,0.5l-0.2,0.3c-0.4-0.2-0.8-0.4-1.4-0.6C342.1,94.5,341.5,94.7,340.4,94.8z
		 M341,92.3h0.7v-0.5H341V92.3z M341.9,93.3l-0.3,0.4c0.3,0,0.6,0.1,1,0.2c0.2-0.1,0.4-0.3,0.5-0.5L341.9,93.3L341.9,93.3z M342,91
		v0.4h0.6V91H342z M342,91.7v0.5h0.6v-0.5H342z M342.9,91.7v0.5h0.7v-0.5H342.9z"/>
</g>
<polygon class="st6" points="414,53.1 414,53.1 310.8,53.1 310.8,65.1 414,65.1 418.6,59.1 "/>
<g>
	<path class="st7" d="M355.9,61.6c0.5-0.3,0.8-0.5,1-0.7c-0.2-0.4-0.4-0.9-0.6-1.4l0.5-0.2c0.1,0.4,0.3,0.8,0.4,1
		c0.1-0.6,0.2-1.2,0.3-1.7h-0.7c-0.1,0.1-0.2,0.3-0.3,0.4l-0.5-0.3c0.5-0.8,1-1.4,1.3-2h-1.4v-0.5h1.6l0.1-0.1l0.5,0.4l-0.1,0.1
		c-0.3,0.5-0.6,1.1-0.9,1.6h1c-0.1,1.1-0.2,2.1-0.5,2.8c0.4,0.3,0.9,0.4,1.6,0.4h3L362,62h-2.8c-0.8,0-1.4-0.2-1.9-0.6
		c-0.2,0.3-0.6,0.6-1,0.8L355.9,61.6z M361.6,56.6c0.1,0.1,0,0.1-0.2,0.1c-0.4,0.1-0.7,0.1-1,0.2v1.3h1.2v0.5h-1.2v1.6h1.4v0.5H358
		v-0.5h0.7v-2.5h0.5c0.1,0,0.2,0.1,0,0.2v2.3h0.7V57c-0.6,0-1.1,0-1.6,0l-0.1-0.5c1.1,0,2.1-0.1,3.1-0.4L361.6,56.6z"/>
	<path class="st7" d="M368.6,62.1c-1.6-0.4-2.6-1.2-3.1-2.5h-0.8v1.8l1.5-0.3l0.1,0.5l-2.8,0.6c0,0.1-0.1,0.2-0.1,0.1l-0.2-0.7
		l1-0.1v-1.9H363v-0.5h1.3v-3h3.9v0.5h-3.4V57h3v0.5h-3V58h3.1v0.5h-3.1V59h4.2v0.5h-2.8c0.1,0.2,0.3,0.5,0.6,0.8l0.9-0.7l0.5,0.3
		c0.1,0.1,0.1,0.1-0.1,0.1l-0.8,0.6c0.4,0.3,1,0.5,1.9,0.7L368.6,62.1z"/>
</g>
<g>
	<path class="st4" d="M58.2,153.4c1-0.6,1.5-1.6,1.5-3l0.7,0.1c0.1,0.1,0,0.1-0.1,0.2l-0.2,1.1c0.3,0.4,0.7,0.7,1.2,1v-3h-2.1v-0.6
		H64v0.6h-2v1.2h2.2v0.6H62v1.5c0.3,0.1,0.6,0.1,0.9,0.1H65l-0.1,0.6H63c-1.2,0-2.2-0.4-3-1.3c-0.3,0.7-0.7,1.2-1.3,1.6L58.2,153.4z
		 M62,147.7h2.9v1.7h-0.6v-1.1h-5.2v1.1h-0.6v-1.7h2.8v-0.9H62c0.2,0,0.2,0.1,0,0.2V147.7z"/>
	<path class="st4" d="M62.2,155.9v0.5h-0.8v2.8h0.9v0.5h-4.2v-0.5h1v-2.8h-0.8v-0.5h0.8v-1.1h0.5c0.2,0,0.2,0.1,0,0.2v0.9H61v-1.1
		h0.5c0.2,0,0.2,0.1,0,0.2v0.9L62.2,155.9L62.2,155.9z M58.2,161.3c0.5-0.4,0.9-0.9,1.2-1.5l0.5,0.3c0.1,0.1,0.1,0.2-0.1,0.2
		c-0.3,0.5-0.7,1-1.2,1.5L58.2,161.3z M61,156.4h-1.3v0.6H61V156.4z M61,157.5h-1.3v0.6H61V157.5z M61,158.6h-1.3v0.7H61V158.6z
		 M61.3,161.1c-0.2-0.3-0.5-0.6-0.9-0.8l0.5-0.4c0.4,0.3,0.7,0.5,0.9,0.8L61.3,161.1z M64.3,159.3h-1.1c0,1.1-0.6,2-1.6,2.7
		l-0.4-0.5c0.9-0.6,1.4-1.3,1.4-2.2v-4.1h2.3v6.2c0,0.3-0.2,0.5-0.5,0.5h-0.7l-0.1-0.7h0.5c0.1,0,0.1,0,0.1-0.1L64.3,159.3
		L64.3,159.3z M64.3,155.7h-1.1v1.2h1.1V155.7z M64.3,157.6h-1.1v1.2h1.1V157.6z"/>
	<path class="st4" d="M58.3,169.5c0.4-0.4,0.7-0.9,0.9-1.5l0.7,0.2c-0.1,0.6-0.4,1.2-0.9,1.7L58.3,169.5z M62,163v0.7h2.6v0.6H62
		v0.8h2.3v2.6h-0.7v-0.2H60v0.2h-0.7V165h1.9v-2.3H62C62,162.9,62,162.9,62,163z M63.5,167v-1.2H60v1.2H63.5z M61.1,168.1
		c0.2,0.4,0.2,0.9,0.2,1.7h-0.7c0-0.7,0-1.3-0.1-1.7H61.1z M62.5,168c0.4,0.6,0.6,1.1,0.6,1.7l-0.8,0.2c-0.1-0.6-0.2-1.1-0.5-1.7
		L62.5,168z M64,167.9c0.4,0.4,0.8,0.9,1.1,1.5l-0.7,0.4c-0.3-0.6-0.6-1.1-0.9-1.5L64,167.9z"/>
	<path class="st4" d="M59.2,174.9c-0.2,0.5-0.5,0.9-0.8,1.4l-0.3-0.7c0.7-0.9,1.1-1.8,1.2-2.7h-1v-0.6h1v-1.5H60
		c0.2,0,0.2,0.1,0,0.2v1.3h0.7v0.2c0.9-0.3,1.6-0.9,2-1.8l0.6,0.2c0.1,0.1,0,0.2-0.1,0.2c0.5,0.6,1.3,1.1,2.2,1.6l-0.3,0.6
		c-0.3-0.1-0.5-0.2-0.8-0.4v0.5h-1v0.6h1.6v2h-0.5v-0.2h-1c0.4,0.6,1.1,1,2.1,1.2l-0.3,0.7c-1-0.3-1.7-0.8-2.1-1.5
		c-0.4,0.9-1.2,1.4-2.3,1.6l-0.2-0.6c1.1-0.2,1.8-0.7,2.1-1.4h-1v0.2h-0.5v-2h1.4v-0.6h-1.1V173c-0.2,0.2-0.5,0.3-0.9,0.4l-0.2-0.4
		h-0.6v1c0.4,0.3,0.7,0.5,0.9,0.7l-0.3,0.6c-0.1-0.2-0.3-0.4-0.6-0.6v3.3h-0.6L59.2,174.9L59.2,174.9z M61.5,174.5v0.8h1v-0.8H61.5z
		 M61.5,172.9h2.6c-0.5-0.3-0.9-0.7-1.4-1.3C62.5,172.1,62.1,172.5,61.5,172.9z M64.3,174.5h-1.1v0.8h1.1V174.5z"/>
</g>
<g>
	<path class="st4" d="M82.2,153.4c1-0.6,1.5-1.6,1.5-3l0.7,0.1c0.1,0.1,0,0.1-0.1,0.2l-0.2,1.1c0.3,0.4,0.7,0.7,1.2,1v-3h-2.1v-0.6
		h4.7v0.6h-2v1.2H88v0.6h-2.2v1.5c0.3,0.1,0.6,0.1,0.9,0.1h2.1l-0.1,0.6h-1.9c-1.2,0-2.2-0.4-3-1.3c-0.3,0.7-0.7,1.2-1.3,1.6
		L82.2,153.4z M85.9,147.7h2.9v1.7h-0.6v-1.1h-5.2v1.1h-0.7v-1.7h2.8v-0.9h0.7c0.2,0,0.2,0.1,0,0.2L85.9,147.7L85.9,147.7z"/>
	<path class="st4" d="M86.2,155.9v0.5h-0.8v2.8h0.9v0.5h-4.2v-0.5h1v-2.8h-0.8v-0.5h0.8v-1.1h0.5c0.2,0,0.2,0.1,0,0.2v0.9h1.3v-1.1
		h0.5c0.2,0,0.2,0.1,0,0.2v0.9L86.2,155.9L86.2,155.9z M82.2,161.3c0.5-0.4,0.9-0.9,1.2-1.5l0.5,0.3c0.1,0.1,0.1,0.2-0.1,0.2
		c-0.3,0.5-0.7,1-1.2,1.5L82.2,161.3z M84.8,156.4h-1.3v0.6h1.3V156.4z M84.8,157.5h-1.3v0.6h1.3V157.5z M84.8,158.6h-1.3v0.7h1.3
		V158.6z M85.2,161.1c-0.2-0.3-0.5-0.6-0.9-0.8l0.5-0.4c0.4,0.3,0.7,0.5,0.9,0.8L85.2,161.1z M88.2,159.3h-1.1c0,1.1-0.6,2-1.6,2.7
		l-0.4-0.5c0.9-0.6,1.4-1.3,1.4-2.2v-4.1h2.3v6.2c0,0.3-0.2,0.5-0.5,0.5h-0.7l-0.1-0.7h0.5c0.1,0,0.1,0,0.1-0.1L88.2,159.3
		L88.2,159.3z M88.2,155.7h-1.1v1.2h1.1V155.7z M88.2,157.6h-1.1v1.2h1.1V157.6z"/>
	<path class="st4" d="M82.2,169.5c0.4-0.4,0.7-0.9,0.9-1.5l0.7,0.2c-0.1,0.6-0.4,1.2-0.9,1.7L82.2,169.5z M85.8,163v0.7h2.6v0.6
		h-2.6v0.8h2.3v2.6h-0.7v-0.2H84v0.2h-0.7V165h1.9v-2.3h0.7C85.9,162.9,85.9,162.9,85.8,163z M87.4,167v-1.2h-3.5v1.2H87.4z
		 M84.9,168.1c0.2,0.4,0.2,0.9,0.2,1.7h-0.7c0-0.7,0-1.3-0.1-1.7H84.9z M86.3,168c0.4,0.6,0.6,1.1,0.6,1.7l-0.8,0.2
		c-0.1-0.6-0.2-1.1-0.5-1.7L86.3,168z M87.8,167.9c0.4,0.4,0.8,0.9,1.1,1.5l-0.7,0.4c-0.3-0.6-0.6-1.1-0.9-1.5L87.8,167.9z"/>
	<path class="st4" d="M83.2,174.9c-0.2,0.5-0.5,0.9-0.8,1.4l-0.3-0.7c0.7-0.9,1.1-1.8,1.2-2.7h-1v-0.6h1v-1.5h0.6
		c0.2,0,0.2,0.1,0,0.2v1.3h0.7v0.2c0.9-0.3,1.6-0.9,2-1.8l0.6,0.2c0.1,0.1,0,0.2-0.1,0.2c0.5,0.6,1.3,1.1,2.2,1.6l-0.3,0.6
		c-0.3-0.1-0.5-0.2-0.8-0.4v0.5h-1v0.6h1.6v2h-0.5v-0.2h-1c0.4,0.6,1.1,1,2.1,1.2l-0.3,0.7c-1-0.3-1.7-0.8-2.1-1.5
		c-0.4,0.9-1.2,1.4-2.3,1.6l-0.2-0.6c1.1-0.2,1.8-0.7,2.1-1.4h-1v0.2H85v-2h1.6v-0.6h-1.3V173c-0.2,0.2-0.5,0.3-0.9,0.4l-0.1-0.4
		h-0.6v1c0.4,0.3,0.7,0.5,0.9,0.7l-0.3,0.6c-0.1-0.2-0.3-0.4-0.6-0.6v3.3h-0.6V174.9z M85.3,174.5v0.8h1.1v-0.8H85.3z M85.4,172.9
		H88c-0.5-0.3-0.9-0.7-1.4-1.3C86.4,172.1,86,172.5,85.4,172.9z M88.2,174.5h-1.1v0.8h1.1V174.5z"/>
</g>
<g>
	<path class="st4" d="M106.4,153.4c1-0.6,1.5-1.6,1.5-3l0.7,0.1c0.1,0.1,0,0.1-0.1,0.2l-0.2,1.1c0.3,0.4,0.7,0.7,1.2,1v-3h-2.1v-0.6
		h4.7v0.6h-2v1.2h2.2v0.6h-2.2v1.5c0.3,0.1,0.6,0.1,0.9,0.1h2.1l-0.1,0.6h-1.9c-1.2,0-2.2-0.4-3-1.3c-0.3,0.7-0.7,1.2-1.3,1.6
		L106.4,153.4z M110.2,147.7h2.9v1.7h-0.6v-1.1h-5.2v1.1h-0.6v-1.7h2.8v-0.9h0.7c0.2,0,0.2,0.1,0,0.2
		C110.3,147,110.3,147.7,110.2,147.7z"/>
	<path class="st4" d="M110.4,155.9v0.5h-0.8v2.8h0.9v0.5h-4.2v-0.5h1v-2.8h-0.8v-0.5h0.8v-1.1h0.5c0.2,0,0.2,0.1,0,0.2v0.9h1.3v-1.1
		h0.5c0.2,0,0.2,0.1,0,0.2v0.9L110.4,155.9L110.4,155.9z M106.4,161.3c0.5-0.4,0.9-0.9,1.2-1.5l0.5,0.3c0.1,0.1,0.1,0.2-0.1,0.2
		c-0.3,0.5-0.7,1-1.2,1.5L106.4,161.3z M109.2,156.4h-1.3v0.6h1.3V156.4z M109.2,157.5h-1.3v0.6h1.3V157.5z M109.2,158.6h-1.3v0.7
		h1.3V158.6z M109.5,161.1c-0.2-0.3-0.5-0.6-0.9-0.8l0.5-0.4c0.4,0.3,0.7,0.5,0.9,0.8L109.5,161.1z M112.4,159.3h-1.1
		c0,1.1-0.6,2-1.6,2.7l-0.4-0.5c0.9-0.6,1.4-1.3,1.4-2.2v-4.1h2.3v6.2c0,0.3-0.2,0.5-0.5,0.5h-0.7l-0.1-0.7h0.5c0.1,0,0.1,0,0.1-0.1
		L112.4,159.3L112.4,159.3z M112.4,155.7h-1.1v1.2h1.1V155.7z M112.4,157.6h-1.1v1.2h1.1V157.6z"/>
	<path class="st4" d="M106.5,169.5c0.4-0.4,0.7-0.9,0.9-1.5l0.7,0.2c-0.1,0.6-0.4,1.2-0.9,1.7L106.5,169.5z M110,163v0.7h2.6v0.6
		H110v0.8h2.3v2.6h-0.7v-0.2h-3.5v0.2h-0.7V165h1.9v-2.3h0.7C110.2,162.9,110.2,162.9,110,163z M111.7,167v-1.2h-3.5v1.2H111.7z
		 M109.2,168.1c0.2,0.4,0.2,0.9,0.2,1.7h-0.7c0-0.7,0-1.3-0.1-1.7H109.2z M110.7,168c0.4,0.6,0.6,1.1,0.6,1.7l-0.8,0.2
		c-0.1-0.6-0.2-1.1-0.5-1.7L110.7,168z M112.2,167.9c0.4,0.4,0.8,0.9,1.1,1.5l-0.7,0.4c-0.3-0.6-0.6-1.1-0.9-1.5L112.2,167.9z"/>
	<path class="st4" d="M107.4,174.9c-0.2,0.5-0.5,0.9-0.8,1.4l-0.3-0.7c0.7-0.9,1.1-1.8,1.2-2.7h-1v-0.6h1v-1.5h0.6
		c0.2,0,0.2,0.1,0,0.2v1.3h0.7v0.2c0.9-0.3,1.6-0.9,2-1.8l0.6,0.2c0.1,0.1,0,0.2-0.1,0.2c0.5,0.6,1.3,1.1,2.2,1.6l-0.3,0.6
		c-0.3-0.1-0.5-0.2-0.8-0.4v0.5h-1v0.6h1.6v2h-0.5v-0.2h-1c0.4,0.6,1.1,1,2.1,1.2l-0.3,0.7c-1-0.3-1.7-0.8-2.1-1.5
		c-0.4,0.9-1.2,1.4-2.3,1.6l-0.2-0.6c1.1-0.2,1.8-0.7,2.1-1.4h-1v0.2h-0.5v-2h1.6v-0.6h-1.1V173c-0.2,0.2-0.5,0.3-0.9,0.4l-0.2-0.4
		h-0.6v1c0.4,0.3,0.7,0.5,0.9,0.7l-0.3,0.6c-0.1-0.2-0.3-0.4-0.6-0.6v3.3h-0.6L107.4,174.9L107.4,174.9z M109.7,174.5v0.8h1.1v-0.8
		H109.7z M109.8,172.9h2.6c-0.5-0.3-0.9-0.7-1.4-1.3C110.7,172.1,110.2,172.5,109.8,172.9z M112.4,174.5h-1.1v0.8h1.1V174.5z"/>
</g>
<path class="st3" d="M190.8,195.2c0,1.2-0.8,2.2-1.7,2.2h-10.9c-1,0-1.7-1-1.7-2.2v-63.4c0-1.2,0.8-2.2,1.7-2.2h10.9
	c1,0,1.7,1,1.7,2.2V195.2z"/>
<g>
	<path class="st4" d="M179.9,153.4c1-0.6,1.5-1.6,1.5-3l0.7,0.1c0.1,0.1,0,0.1-0.1,0.2l-0.2,1.1c0.3,0.4,0.7,0.7,1.2,1v-3h-2.1v-0.6
		h4.7v0.6h-2v1.2h2.2v0.6h-2.2v1.5c0.3,0.1,0.6,0.1,0.9,0.1h2.1l-0.1,0.6h-1.9c-1.2,0-2.2-0.4-3-1.3c-0.3,0.7-0.7,1.2-1.3,1.6
		L179.9,153.4z M183.8,147.7h2.9v1.7H186v-1.1h-5.2v1.1h-0.6v-1.7h2.8v-0.9h0.7c0.2,0,0.2,0.1,0,0.2L183.8,147.7L183.8,147.7z"/>
	<path class="st4" d="M183.9,155.9v0.5h-0.8v2.8h0.9v0.5h-4.2v-0.5h1v-2.8h-0.8v-0.5h0.8v-1.1h0.5c0.2,0,0.2,0.1,0,0.2v0.9h1.3v-1.1
		h0.5c0.2,0,0.2,0.1,0,0.2v0.9L183.9,155.9L183.9,155.9z M179.9,161.3c0.5-0.4,0.9-0.9,1.2-1.5l0.5,0.3c0.1,0.1,0.1,0.2-0.1,0.2
		c-0.3,0.5-0.7,1-1.2,1.5L179.9,161.3z M182.6,156.4h-1.2v0.6h1.3v-0.6H182.6z M182.6,157.5h-1.2v0.6h1.3v-0.6H182.6z M182.6,158.6
		h-1.2v0.7h1.3v-0.7H182.6z M183,161.2c-0.2-0.3-0.5-0.6-0.9-0.8l0.5-0.4c0.4,0.3,0.7,0.5,0.9,0.8L183,161.2z M186,159.3h-1.1
		c0,1.1-0.6,2-1.6,2.7l-0.4-0.5c0.9-0.6,1.4-1.3,1.4-2.2v-4.1h2.3v6.2c0,0.3-0.2,0.5-0.5,0.5h-0.7l-0.1-0.7h0.5c0.1,0,0.1,0,0.1-0.1
		v-1.8H186z M186,155.7h-1.1v1.2h1.1V155.7z M186,157.6h-1.1v1.2h1.1V157.6z"/>
	<path class="st4" d="M180.1,169.5c0.4-0.4,0.7-0.9,0.9-1.5l0.7,0.2c-0.1,0.6-0.4,1.2-0.9,1.7L180.1,169.5z M183.6,163v0.7h2.6v0.6
		h-2.6v0.8h2.3v2.6h-0.7v-0.2h-3.5v0.2H181V165h1.9v-2.3h0.7C183.7,162.9,183.7,162.9,183.6,163z M185.2,167v-1.2h-3.5v1.2H185.2z
		 M182.8,168.2c0.2,0.4,0.2,0.9,0.2,1.7h-0.7c0-0.7,0-1.3-0.1-1.7H182.8z M184.2,168c0.4,0.6,0.6,1.1,0.6,1.7l-0.8,0.2
		c-0.1-0.6-0.2-1.1-0.5-1.7L184.2,168z M185.6,167.9c0.4,0.4,0.8,0.9,1.1,1.5l-0.7,0.4c-0.3-0.6-0.6-1.1-0.9-1.5L185.6,167.9z"/>
	<path class="st4" d="M180.9,174.9c-0.2,0.5-0.5,0.9-0.8,1.4l-0.3-0.7c0.7-0.9,1.1-1.8,1.2-2.7h-1v-0.6h1v-1.5h0.6
		c0.2,0,0.2,0.1,0,0.2v1.3h0.7v0.2c0.9-0.3,1.6-0.9,2-1.8l0.6,0.2c0.1,0.1,0,0.2-0.1,0.2c0.5,0.6,1.3,1.1,2.2,1.6l-0.3,0.6
		c-0.3-0.1-0.5-0.2-0.8-0.4v0.5h-1v0.6h1.6v2h-0.5v-0.2h-1c0.4,0.6,1.1,1,2.1,1.2l-0.3,0.7c-1-0.3-1.7-0.8-2.1-1.5
		c-0.4,0.9-1.2,1.4-2.3,1.6l-0.2-0.6c1.1-0.2,1.8-0.7,2.1-1.4h-1v0.2h-0.5v-2h1.6v-0.6h-1.1V173c-0.2,0.2-0.5,0.3-0.9,0.4l-0.2-0.4
		h-0.6v1c0.4,0.3,0.7,0.5,0.9,0.7l-0.3,0.6c-0.1-0.2-0.3-0.4-0.6-0.6v3.3h-0.6L180.9,174.9L180.9,174.9z M183.2,174.5v0.8h1.1v-0.8
		H183.2z M183.2,172.9h2.6c-0.5-0.3-0.9-0.7-1.4-1.3C184.2,172.1,183.8,172.5,183.2,172.9z M186,174.5h-1.1v0.8h1.1V174.5z"/>
</g>
<circle class="st1" cx="158.6" cy="163.9" r="4.4"/>
<circle class="st1" cx="134.2" cy="163.9" r="4.4"/>
<circle class="st1" cx="207.4" cy="163.9" r="4.4"/>
<circle class="st1" cx="232.1" cy="163.9" r="4.4"/>
<circle class="st1" cx="256.5" cy="163.9" r="4.4"/>
<circle class="st1" cx="281.1" cy="163.9" r="4.4"/>
<polygon class="st6" points="298,76.7 298,76.6 46,76.6 46,88.7 298,88.7 302.6,82.7 "/>
<polygon class="st6" points="298,53.1 298,53.1 46.1,53.1 46.1,65.1 298,65.1 302.6,59.1 "/>
<g>
	<path class="st8" d="M69.8,79.4c0.1,0.1,0.1,0.1-0.1,0.2c-0.1,0.5-0.3,1-0.6,1.5h0.2c0.1,0.1,0,0.1-0.1,0.2v4.8h-0.6V82
		c-0.2,0.3-0.4,0.6-0.7,0.9l-0.4-0.5c0.9-1,1.4-2.1,1.6-3.3L69.8,79.4z M71.4,79.1c0.5,0.3,0.9,0.6,1.2,1.1l-0.5,0.5h2.2v0.6h-1.9
		v1.6H74v0.6h-1.6v1.9h2.2V86h-5.1v-0.6h2.3v-1.9h-1.7v-0.6h1.7v-1.6h-2v-0.6h2.3c-0.3-0.4-0.6-0.7-1.1-1L71.4,79.1z"/>
	<path class="st8" d="M76.6,81.8c1.8-0.1,3.2-0.4,4.2-0.8l0.4,0.6c0,0.1,0,0.1-0.2,0.1c-0.5,0.1-1.1,0.3-1.9,0.4v1.1l3.4-0.4v0.6
		l-3.4,0.4V85c0,0.2,0.1,0.2,0.2,0.2h2c0.2,0,0.3-0.1,0.3-0.3l0.1-0.6l0.7,0.2L82.3,85c0,0.7-0.3,1-0.7,1h-2.7
		c-0.4,0-0.6-0.2-0.6-0.5v-1.6l-2.5,0.2v-0.6l2.6-0.2v-1c-0.4,0-1,0.1-1.7,0.2L76.6,81.8z M76.7,80.6v1H76V80h2.7v-1h0.7
		c0.2,0,0.2,0.1,0,0.2V80h2.9v1.5h-0.7v-0.9H76.7z"/>
	<path class="st8" d="M86.2,80.1h0.7v3.8c0,0.5-0.1,0.9-0.4,1.2c-0.3,0.3-0.7,0.4-1.2,0.4c-0.6,0-1-0.1-1.2-0.4
		c-0.4-0.4-0.5-0.9-0.5-1.7h0.7c0,0.6,0.1,1,0.3,1.2c0.2,0.2,0.4,0.2,0.7,0.2c0.3,0,0.6-0.1,0.7-0.2c0.2-0.2,0.3-0.4,0.3-0.7
		L86.2,80.1L86.2,80.1z"/>
	<path class="st8" d="M87.8,80.1h1.4v0.7h-0.3v4h0.3v0.7h-1.4v-0.7h0.3v-4h-0.3V80.1z"/>
	<path class="st8" d="M90.7,80.7c0.4-0.4,1-0.7,1.6-0.7s1.2,0.2,1.6,0.7c0.5,0.5,0.7,1.2,0.7,2.1s-0.2,1.6-0.7,2.1
		c-0.4,0.4-1,0.7-1.6,0.7s-1.2-0.2-1.6-0.7c-0.5-0.5-0.7-1.2-0.7-2.1C89.9,81.9,90.2,81.2,90.7,80.7z M91.2,81.1
		c-0.4,0.4-0.5,0.9-0.5,1.7c0,0.8,0.2,1.3,0.5,1.7c0.3,0.3,0.7,0.5,1.1,0.5s0.7-0.2,1.1-0.5c0.4-0.4,0.5-0.9,0.5-1.7
		c0-0.7-0.2-1.3-0.5-1.7c-0.3-0.3-0.7-0.5-1.1-0.5C91.9,80.6,91.5,80.8,91.2,81.1z"/>
	<path class="st8" d="M97.3,83.5L96,85l-0.5-0.5l0.8-0.9c0.4-0.5,0.7-0.9,0.9-1.3v-0.8l-1.5,0.4l-0.2-0.7l1.7-0.3v-1.8h0.6
		c0.2,0,0.2,0.1,0.1,0.2v1.3l0.5,0.3c0.2,0.1,0.2,0.2-0.1,0.3l-0.4,0.5v0.4c0.9-0.7,1.8-1.1,2.6-1.1c0.6,0,1.1,0.2,1.4,0.5
		c0.4,0.4,0.6,0.9,0.6,1.5s-0.2,1.1-0.5,1.5c-0.5,0.5-1.1,0.9-2,1.2l-0.3-0.6c0.8-0.3,1.4-0.6,1.7-1c0.3-0.3,0.4-0.7,0.4-1.1
		s-0.1-0.8-0.4-1.1c-0.2-0.2-0.5-0.3-0.9-0.3c-0.7,0-1.6,0.4-2.6,1.3v3.3h-0.6V83.5z"/>
	<path class="st8" d="M107.4,85.4c-0.2,0.2-0.4,0.3-0.7,0.3c-0.4,0-0.8-0.2-1.2-0.7l0.4-0.6c0.3,0.3,0.6,0.5,0.7,0.5s0.2,0,0.3-0.1
		c0.2-0.2,0.3-0.9,0.3-1.9c0-0.6-0.1-0.9-0.2-1.1c-0.1-0.1-0.2-0.1-0.4-0.1c-0.2,0-0.4,0-0.8,0.1c-0.4,1.5-1,2.9-1.6,4l-0.6-0.3
		c0.6-0.9,1.1-2.2,1.6-3.7c-0.5,0.1-0.9,0.1-1.3,0.2l-0.1-0.7c0.4,0,0.9,0,1.6-0.1c0.2-0.6,0.3-1.3,0.5-2l0.7,0.2
		c0.2,0.1,0.2,0.2,0,0.3c-0.1,0.4-0.2,0.9-0.4,1.4c0.2,0,0.5-0.1,0.8-0.1s0.5,0.1,0.7,0.2c0.2,0.2,0.4,0.8,0.4,1.7
		C107.9,84.2,107.8,85,107.4,85.4z M108.9,80.5c0.9,0.9,1.4,1.9,1.7,3.2l-0.7,0.3c-0.4-1.4-0.9-2.4-1.6-3L108.9,80.5z M109.9,80.9
		c-0.5-0.4-0.9-0.7-1.2-0.9l0.4-0.4c0.4,0.2,0.8,0.5,1.2,0.9L109.9,80.9z M109.7,78.9c0.4,0.2,0.8,0.5,1.2,0.9l-0.3,0.3
		c-0.5-0.4-0.9-0.6-1.2-0.9L109.7,78.9z"/>
	<path class="st8" d="M115.4,79.8h3v1.6h-0.6v-1h-5.3v1h-0.6v-1.6h2.9v-0.7h0.7c0.2,0,0.2,0.1,0,0.2L115.4,79.8L115.4,79.8z
		 M112.2,85.9l-0.3-0.6c1.4-0.4,2.5-1.1,3.4-2c-0.1-0.1-0.1-0.2-0.2-0.3c-0.9,0.7-1.8,1.2-2.7,1.5l-0.2-0.6c1-0.3,1.9-0.7,2.6-1.3
		c-0.1-0.1-0.2-0.2-0.3-0.2c-0.8,0.5-1.6,0.8-2.4,0.9l-0.2-0.6c1.2-0.2,2.1-0.6,2.9-1.2h-2V81h4.7v0.6h-1.9
		c-0.2,0.2-0.4,0.4-0.7,0.6c0.4,0.2,0.6,0.5,0.8,0.7c0.7-0.4,1.3-0.8,1.6-1.2l0.6,0.4c0.1,0.1,0,0.2-0.1,0.2c-0.5,0.3-1,0.6-1.6,0.9
		c0.5,0.7,1.3,1.3,2.3,1.8l-0.4,0.7c-0.9-0.6-1.5-1.2-2-1.9c0.1,0.8,0.1,1.4-0.1,1.8c-0.1,0.3-0.4,0.5-0.8,0.5h-0.8l-0.1-0.7h0.7
		c0.3,0,0.5-0.1,0.5-0.4s0-0.7,0-1.1C114.6,84.8,113.5,85.4,112.2,85.9z"/>
	<path class="st8" d="M122.1,85c-0.3,0.3-0.6,0.4-0.8,0.4c-0.3,0-0.6-0.1-0.8-0.3c-0.5-0.5-0.8-1.1-0.8-1.9c0-0.9,0.3-1.7,1-2.3
		c0.7-0.7,1.6-1.1,2.6-1.1c0.9,0,1.6,0.3,2.2,0.8c0.6,0.6,0.9,1.3,0.9,2.1c0,0.9-0.3,1.6-0.8,2.1c-0.4,0.4-0.9,0.7-1.6,1l-0.7-0.7
		c0.7-0.2,1.3-0.6,1.7-1c0.4-0.4,0.6-0.9,0.6-1.4c0-0.7-0.2-1.2-0.7-1.7c-0.4-0.4-1.1-0.6-2.1-0.6l0.6,0.3c0.2,0.1,0.2,0.2,0,0.3
		C123.1,83.2,122.6,84.5,122.1,85z M121.3,81.3c-0.5,0.5-0.8,1.2-0.8,2c0,0.5,0.2,0.9,0.5,1.2c0.1,0.1,0.2,0.1,0.3,0.1
		c0.1,0,0.3-0.1,0.4-0.2c0.5-0.5,0.8-1.8,1.1-3.8C122.2,80.6,121.7,80.9,121.3,81.3z"/>
	<path class="st8" d="M129.1,81L129.1,81c0.2,0.1,0.1,0.2,0,0.2v5h-0.6v-4c-0.2,0.3-0.4,0.5-0.6,0.8l-0.4-0.6
		c0.8-0.7,1.3-1.9,1.5-3.4l0.7,0.2c0.1,0.1,0.1,0.1-0.1,0.2C129.6,79.9,129.4,80.4,129.1,81z M129.7,85.8l-0.3-0.7
		c0.9-0.4,1.7-1,2.3-1.9h-2.3v-0.6h2.3v-0.9h-0.9V82h-0.6v-2.6h3.7V82h-0.6v-0.2h-0.9v0.9h2.3v0.6h-2.2c0.6,0.8,1.4,1.4,2.4,1.8
		l-0.2,0.7c-0.9-0.3-1.6-0.9-2.2-1.7v2.2h-0.6v-2.2C131.2,84.7,130.6,85.2,129.7,85.8z M130.7,79.9V81h2.4v-1.1H130.7z"/>
	<path class="st8" d="M136.7,81.9l0.4-2h-0.7v6.2h-0.6v-6.8h1.6l0.1-0.1l0.4,0.4l-0.1,0.1l-0.5,2c0.4,0.6,0.7,1.3,0.7,1.9
		c0,0.8-0.2,1.2-0.7,1.2h-0.5l-0.1-0.7h0.4c0.2,0,0.3-0.2,0.3-0.6C137.3,83.1,137.1,82.5,136.7,81.9z M137.6,86.2l-0.2-0.7
		c1.4-0.2,2.2-0.7,2.4-1.5h-1.5v-1.8h1.6v-0.5h-1v-0.6h2.6v0.6h-1.1v0.5h1.6V84h-1.4c0.4,0.6,1.1,1.1,2.2,1.4l-0.2,0.7
		c-1-0.2-1.8-0.8-2.3-1.6C139.9,85.4,139,86,137.6,86.2z M137.6,81c1-0.4,1.7-1,2.1-1.9l0.7,0.1c0.1,0,0,0.1-0.1,0.2
		c0.5,0.6,1.3,1.1,2.4,1.5l-0.2,0.7c-1.2-0.4-2-1-2.5-1.7c-0.4,0.8-1.1,1.4-2.2,1.9L137.6,81z M138.9,83.5h1.1v-0.8h-1.1V83.5z
		 M140.4,83.5h1.1v-0.8h-1.1V83.5z"/>
</g>
<g>
	<path class="st8" d="M70.2,58.1c-0.4,1.3-1,2.5-1.8,3.6l-0.7-0.5c0.9-1.1,1.5-2.4,1.8-3.7l0.7,0.3C70.4,57.9,70.4,58,70.2,58.1z
		 M72,57.6l0.7-0.5c1,1.3,1.8,2.7,2.2,4.2l-0.8,0.3C73.5,59.9,72.8,58.6,72,57.6z"/>
	<path class="st8" d="M82,57.5c0,2.3-1.1,3.9-3.3,5L78.1,62c2-0.9,3-2.3,3.1-4.1h-4.3l0.1,1.8h-0.7l-0.1-2.5h2.5v-1.6h0.6
		c0.2,0,0.3,0.1,0.1,0.2v1.3h2.2L82,57.5z"/>
	<path class="st8" d="M89.6,61.5L89,62c-0.9-0.9-1.7-1.7-2.5-2.3c-0.8,0.9-1.7,1.7-2.8,2.3l-0.6-0.5c2.2-1.4,3.6-2.9,4.2-4.3
		l-3.4,0.2l-0.1-0.7l3.6-0.2l0.4-0.1l0.5,0.5c0.1,0.1,0.1,0.2-0.1,0.3c-0.4,0.7-0.8,1.3-1.2,1.9C87.9,59.8,88.8,60.6,89.6,61.5z"/>
	<path class="st8" d="M93.4,57.5l2.5-0.1v1.9c0,1-0.1,1.7-0.3,2.2c-0.2,0.4-0.6,0.6-1.2,0.6h-0.7l-0.1-0.8c0.3,0,0.6,0.1,0.8,0.1
		c0.3,0,0.5-0.1,0.6-0.3c0.1-0.3,0.2-0.9,0.2-1.7V58l-1.8,0.1c-0.1,1.8-0.9,3.2-2.5,4.2l-0.5-0.5c1.4-1,2.2-2.2,2.3-3.7l-2.2,0.1
		l-0.1-0.6l2.3-0.1v-1.7h0.7c0.2,0,0.2,0.1,0.1,0.2L93.4,57.5L93.4,57.5z M95,55.9l0.4-0.4c0.3,0.3,0.6,0.6,1,1L96,56.9
		C95.6,56.5,95.2,56.2,95,55.9z M95.8,55.6l0.4-0.4c0.3,0.3,0.6,0.6,1,1l-0.4,0.4C96.4,56.2,96.1,55.8,95.8,55.6z"/>
	<path class="st8" d="M97.8,59.4v-0.7h7v0.7H97.8z"/>
	<path class="st8" d="M109.4,60.1c-1.1-0.6-2-0.9-2.7-1.1v3.2H106V56h0.6c0.2,0,0.3,0.1,0.1,0.2v2c1,0.3,2.1,0.7,3.1,1.2L109.4,60.1
		z M109.4,57.4c-0.4-0.4-0.7-0.8-1.1-1.1l0.4-0.3c0.4,0.3,0.7,0.6,1.1,1.1L109.4,57.4z M110.1,56.8c-0.3-0.4-0.6-0.7-1-1l0.4-0.3
		c0.4,0.2,0.7,0.6,1,1L110.1,56.8z"/>
	<path class="st8" d="M113.2,58.7l-0.5,0.7c-0.6-0.5-1.1-0.8-1.6-1l0.5-0.7C112.1,57.9,112.6,58.3,113.2,58.7z M111.8,61.5
		c2.3-0.5,4-1.7,5.1-3.5l0.6,0.6c-1.1,1.7-2.7,2.9-4.9,3.6c-0.1,0.2-0.2,0.3-0.3,0L111.8,61.5z M114,56.8l-0.4,0.7
		c-0.6-0.4-1.1-0.7-1.6-1l0.4-0.7C113,56.1,113.5,56.5,114,56.8z"/>
	<path class="st8" d="M124.8,61.5l-0.6,0.5c-0.9-0.9-1.7-1.7-2.5-2.3c-0.8,0.9-1.7,1.7-2.8,2.3l-0.6-0.5c2.2-1.4,3.6-2.9,4.2-4.3
		l-3.4,0.2l-0.1-0.7l3.6-0.2l0.4-0.1l0.5,0.5c0.1,0.1,0.1,0.2-0.1,0.3c-0.4,0.7-0.8,1.3-1.2,1.9C123,59.8,123.9,60.6,124.8,61.5z"/>
	<path class="st8" d="M128.5,58.8h-3.1v-0.7h6.4v0.7h-2.6v0.4c0,1.3-0.5,2.4-1.4,3.2l-0.6-0.5c0.9-0.7,1.3-1.6,1.3-2.8
		C128.5,59.1,128.5,58.8,128.5,58.8z M126.5,56.9v-0.7h4.2v0.7H126.5z"/>
	<path class="st8" d="M132.6,60.8h1.3c0.7-1.6,1.3-3.3,1.7-5l0.7,0.2c0.2,0.1,0.2,0.2-0.1,0.3c-0.4,1.5-0.9,2.9-1.6,4.4l3.2-0.2
		c-0.4-0.6-0.8-1-1-1.3l0.6-0.4c0.7,0.8,1.4,1.7,2,2.7l-0.7,0.5l-0.5-0.8l-5.2,0.4c-0.1,0.2-0.2,0.2-0.3,0L132.6,60.8z"/>
</g>
</svg>
